%TF.GenerationSoftware,KiCad,Pcbnew,7.0.7*%
%TF.CreationDate,2023-09-26T16:23:54+08:00*%
%TF.ProjectId,led,6c65642e-6b69-4636-9164-5f7063625858,rev?*%
%TF.SameCoordinates,Original*%
%TF.FileFunction,Copper,L1,Top*%
%TF.FilePolarity,Positive*%
%FSLAX46Y46*%
G04 Gerber Fmt 4.6, Leading zero omitted, Abs format (unit mm)*
G04 Created by KiCad (PCBNEW 7.0.7) date 2023-09-26 16:23:54*
%MOMM*%
%LPD*%
G01*
G04 APERTURE LIST*
G04 Aperture macros list*
%AMRoundRect*
0 Rectangle with rounded corners*
0 $1 Rounding radius*
0 $2 $3 $4 $5 $6 $7 $8 $9 X,Y pos of 4 corners*
0 Add a 4 corners polygon primitive as box body*
4,1,4,$2,$3,$4,$5,$6,$7,$8,$9,$2,$3,0*
0 Add four circle primitives for the rounded corners*
1,1,$1+$1,$2,$3*
1,1,$1+$1,$4,$5*
1,1,$1+$1,$6,$7*
1,1,$1+$1,$8,$9*
0 Add four rect primitives between the rounded corners*
20,1,$1+$1,$2,$3,$4,$5,0*
20,1,$1+$1,$4,$5,$6,$7,0*
20,1,$1+$1,$6,$7,$8,$9,0*
20,1,$1+$1,$8,$9,$2,$3,0*%
G04 Aperture macros list end*
%TA.AperFunction,SMDPad,CuDef*%
%ADD10R,1.300000X1.300000*%
%TD*%
%TA.AperFunction,SMDPad,CuDef*%
%ADD11R,2.000000X1.300000*%
%TD*%
%TA.AperFunction,SMDPad,CuDef*%
%ADD12RoundRect,0.135000X0.135000X0.185000X-0.135000X0.185000X-0.135000X-0.185000X0.135000X-0.185000X0*%
%TD*%
%TA.AperFunction,SMDPad,CuDef*%
%ADD13RoundRect,0.135000X-0.185000X0.135000X-0.185000X-0.135000X0.185000X-0.135000X0.185000X0.135000X0*%
%TD*%
%TA.AperFunction,SMDPad,CuDef*%
%ADD14RoundRect,0.218750X0.256250X-0.218750X0.256250X0.218750X-0.256250X0.218750X-0.256250X-0.218750X0*%
%TD*%
%TA.AperFunction,SMDPad,CuDef*%
%ADD15RoundRect,0.150000X0.200000X-0.150000X0.200000X0.150000X-0.200000X0.150000X-0.200000X-0.150000X0*%
%TD*%
%TA.AperFunction,ComponentPad*%
%ADD16R,1.700000X1.700000*%
%TD*%
%TA.AperFunction,ComponentPad*%
%ADD17O,1.700000X1.700000*%
%TD*%
%TA.AperFunction,SMDPad,CuDef*%
%ADD18R,0.650000X0.400000*%
%TD*%
%TA.AperFunction,ViaPad*%
%ADD19C,0.800000*%
%TD*%
%TA.AperFunction,Conductor*%
%ADD20C,0.250000*%
%TD*%
%TA.AperFunction,Conductor*%
%ADD21C,0.500000*%
%TD*%
G04 APERTURE END LIST*
D10*
%TO.P,RV2,1,1*%
%TO.N,Net-(RV1-Pad2)*%
X52190000Y-45930000D03*
D11*
%TO.P,RV2,2,2*%
%TO.N,Net-(RV2-Pad2)*%
X53340000Y-40430000D03*
D10*
%TO.P,RV2,3,3*%
%TO.N,unconnected-(RV2-Pad3)*%
X54490000Y-45930000D03*
%TD*%
D12*
%TO.P,R2,1*%
%TO.N,Net-(J4-Pin_1)*%
X59440000Y-50800000D03*
%TO.P,R2,2*%
%TO.N,GND*%
X58420000Y-50800000D03*
%TD*%
D13*
%TO.P,R1,1*%
%TO.N,Net-(J2-Pin_1)*%
X33020000Y-40130000D03*
%TO.P,R1,2*%
%TO.N,Net-(D2-K)*%
X33020000Y-41150000D03*
%TD*%
D14*
%TO.P,D1,1,K*%
%TO.N,Net-(D1-K)*%
X40640000Y-38887500D03*
%TO.P,D1,2,A*%
%TO.N,Net-(D1-A)*%
X40640000Y-37312500D03*
%TD*%
D10*
%TO.P,RV1,1,1*%
%TO.N,Net-(J4-Pin_2)*%
X47110000Y-45930000D03*
D11*
%TO.P,RV1,2,2*%
%TO.N,Net-(RV1-Pad2)*%
X48260000Y-40430000D03*
D10*
%TO.P,RV1,3,3*%
%TO.N,unconnected-(RV1-Pad3)*%
X49410000Y-45930000D03*
%TD*%
D15*
%TO.P,D2,1,K*%
%TO.N,Net-(D2-K)*%
X33020000Y-52640000D03*
%TO.P,D2,2,A*%
%TO.N,GND*%
X33020000Y-54040000D03*
%TD*%
D16*
%TO.P,J3,1,Pin_1*%
%TO.N,Net-(D1-A)*%
X53340000Y-30480000D03*
D17*
%TO.P,J3,2,Pin_2*%
%TO.N,Net-(J2-Pin_1)*%
X50800000Y-30480000D03*
%TD*%
D10*
%TO.P,RV3,1,1*%
%TO.N,Net-(RV2-Pad2)*%
X57270000Y-45930000D03*
D11*
%TO.P,RV3,2,2*%
%TO.N,Net-(J4-Pin_1)*%
X58420000Y-40430000D03*
D10*
%TO.P,RV3,3,3*%
%TO.N,unconnected-(RV3-Pad3)*%
X59570000Y-45930000D03*
%TD*%
D16*
%TO.P,J1,1,Pin_1*%
%TO.N,GND*%
X33020000Y-33020000D03*
D17*
%TO.P,J1,2,Pin_2*%
%TO.N,VBUS*%
X33020000Y-30480000D03*
%TD*%
D18*
%TO.P,Q1,1,E1*%
%TO.N,Net-(J4-Pin_2)*%
X39690000Y-47610000D03*
%TO.P,Q1,2,B1*%
%TO.N,Net-(D2-K)*%
X39690000Y-48260000D03*
%TO.P,Q1,3,C2*%
%TO.N,unconnected-(Q1B-C2-Pad3)*%
X39690000Y-48910000D03*
%TO.P,Q1,4,E2*%
%TO.N,unconnected-(Q1B-E2-Pad4)*%
X41590000Y-48910000D03*
%TO.P,Q1,5,B2*%
%TO.N,unconnected-(Q1B-B2-Pad5)*%
X41590000Y-48260000D03*
%TO.P,Q1,6,C1*%
%TO.N,Net-(D1-K)*%
X41590000Y-47610000D03*
%TD*%
D16*
%TO.P,J2,1,Pin_1*%
%TO.N,Net-(J2-Pin_1)*%
X43180000Y-30480000D03*
D17*
%TO.P,J2,2,Pin_2*%
%TO.N,VBUS*%
X40640000Y-30480000D03*
%TD*%
D16*
%TO.P,J4,1,Pin_1*%
%TO.N,Net-(J4-Pin_1)*%
X53340000Y-53340000D03*
D17*
%TO.P,J4,2,Pin_2*%
%TO.N,Net-(J4-Pin_2)*%
X50800000Y-53340000D03*
%TD*%
D19*
%TO.N,GND*%
X37147500Y-45085000D03*
X47942500Y-34925000D03*
X50800000Y-34925000D03*
X44767500Y-34925000D03*
X36512500Y-38735000D03*
X37147500Y-42227500D03*
%TD*%
D20*
%TO.N,Net-(D1-K)*%
X41590000Y-39837500D02*
X41590000Y-47610000D01*
X40640000Y-38887500D02*
X41590000Y-39837500D01*
%TO.N,Net-(D1-A)*%
X51270000Y-37312500D02*
X53340000Y-35242500D01*
X40640000Y-37312500D02*
X51270000Y-37312500D01*
X53340000Y-35242500D02*
X53340000Y-30480000D01*
%TO.N,Net-(D2-K)*%
X33020000Y-41150000D02*
X33020000Y-46037500D01*
X33020000Y-46037500D02*
X35242500Y-48260000D01*
X33020000Y-50482500D02*
X35242500Y-48260000D01*
X33020000Y-52640000D02*
X33020000Y-50482500D01*
X35242500Y-48260000D02*
X39690000Y-48260000D01*
D21*
%TO.N,VBUS*%
X33020000Y-30480000D02*
X40640000Y-30480000D01*
D20*
%TO.N,Net-(J2-Pin_1)*%
X43180000Y-33020000D02*
X43180000Y-30480000D01*
X33020000Y-37465000D02*
X36195000Y-34290000D01*
X33020000Y-40130000D02*
X33020000Y-37465000D01*
X36195000Y-34290000D02*
X41910000Y-34290000D01*
X41910000Y-34290000D02*
X43180000Y-33020000D01*
X43180000Y-30480000D02*
X50800000Y-30480000D01*
%TO.N,Net-(J4-Pin_1)*%
X61912500Y-43922500D02*
X61912500Y-48327500D01*
X61912500Y-48327500D02*
X59440000Y-50800000D01*
X59440000Y-50800000D02*
X56900000Y-53340000D01*
X56900000Y-53340000D02*
X53340000Y-53340000D01*
X58420000Y-40430000D02*
X61912500Y-43922500D01*
%TO.N,Net-(J4-Pin_2)*%
X50800000Y-53340000D02*
X47110000Y-49650000D01*
X47110000Y-49650000D02*
X47110000Y-45930000D01*
X43815000Y-50800000D02*
X43815000Y-46672500D01*
X40640000Y-47985000D02*
X40640000Y-50800000D01*
X43815000Y-46672500D02*
X44557500Y-45930000D01*
X41275000Y-51435000D02*
X43180000Y-51435000D01*
X43180000Y-51435000D02*
X43815000Y-50800000D01*
X40640000Y-50800000D02*
X41275000Y-51435000D01*
X39690000Y-47610000D02*
X40265000Y-47610000D01*
X44557500Y-45930000D02*
X47110000Y-45930000D01*
X40265000Y-47610000D02*
X40640000Y-47985000D01*
%TO.N,Net-(RV1-Pad2)*%
X48260000Y-41910000D02*
X49530000Y-43180000D01*
X49530000Y-43180000D02*
X51435000Y-43180000D01*
X51435000Y-43180000D02*
X52190000Y-43935000D01*
X52190000Y-43935000D02*
X52190000Y-45930000D01*
X48260000Y-40430000D02*
X48260000Y-41910000D01*
%TO.N,Net-(RV2-Pad2)*%
X53340000Y-40430000D02*
X53340000Y-41910000D01*
X53340000Y-41910000D02*
X54610000Y-43180000D01*
X57270000Y-43935000D02*
X57270000Y-45930000D01*
X54610000Y-43180000D02*
X56515000Y-43180000D01*
X56515000Y-43180000D02*
X57270000Y-43935000D01*
%TD*%
%TA.AperFunction,Conductor*%
%TO.N,GND*%
G36*
X49591812Y-31125185D02*
G01*
X49626348Y-31158377D01*
X49761500Y-31351395D01*
X49761505Y-31351401D01*
X49928599Y-31518495D01*
X50025384Y-31586265D01*
X50122165Y-31654032D01*
X50122167Y-31654033D01*
X50122170Y-31654035D01*
X50336337Y-31753903D01*
X50564592Y-31815063D01*
X50741034Y-31830500D01*
X50799999Y-31835659D01*
X50800000Y-31835659D01*
X50800001Y-31835659D01*
X50858966Y-31830500D01*
X51035408Y-31815063D01*
X51263663Y-31753903D01*
X51477830Y-31654035D01*
X51671401Y-31518495D01*
X51793329Y-31396566D01*
X51854648Y-31363084D01*
X51924340Y-31368068D01*
X51980274Y-31409939D01*
X51997189Y-31440917D01*
X52046202Y-31572328D01*
X52046206Y-31572335D01*
X52132452Y-31687544D01*
X52132455Y-31687547D01*
X52247664Y-31773793D01*
X52247671Y-31773797D01*
X52292618Y-31790561D01*
X52382517Y-31824091D01*
X52442127Y-31830500D01*
X52590500Y-31830499D01*
X52657539Y-31850183D01*
X52703294Y-31902987D01*
X52714500Y-31954499D01*
X52714500Y-34932046D01*
X52694815Y-34999085D01*
X52678181Y-35019727D01*
X51047228Y-36650681D01*
X50985905Y-36684166D01*
X50959547Y-36687000D01*
X41557832Y-36687000D01*
X41490793Y-36667315D01*
X41470335Y-36648768D01*
X41469388Y-36649716D01*
X41345391Y-36525719D01*
X41345387Y-36525716D01*
X41202295Y-36437455D01*
X41202289Y-36437452D01*
X41202287Y-36437451D01*
X41042685Y-36384564D01*
X41042683Y-36384563D01*
X40944181Y-36374500D01*
X40944174Y-36374500D01*
X40335826Y-36374500D01*
X40335818Y-36374500D01*
X40237316Y-36384563D01*
X40237315Y-36384564D01*
X40158219Y-36410773D01*
X40077715Y-36437450D01*
X40077704Y-36437455D01*
X39934612Y-36525716D01*
X39934608Y-36525719D01*
X39815719Y-36644608D01*
X39815716Y-36644612D01*
X39727455Y-36787704D01*
X39727450Y-36787713D01*
X39727451Y-36787713D01*
X39674564Y-36947315D01*
X39674564Y-36947316D01*
X39674563Y-36947316D01*
X39664500Y-37045818D01*
X39664500Y-37579181D01*
X39674563Y-37677683D01*
X39727450Y-37837284D01*
X39727455Y-37837295D01*
X39815716Y-37980387D01*
X39815719Y-37980391D01*
X39847647Y-38012319D01*
X39881132Y-38073642D01*
X39876148Y-38143334D01*
X39847647Y-38187681D01*
X39815719Y-38219608D01*
X39815716Y-38219612D01*
X39727455Y-38362704D01*
X39727450Y-38362713D01*
X39727451Y-38362713D01*
X39674564Y-38522315D01*
X39674564Y-38522316D01*
X39674563Y-38522316D01*
X39664500Y-38620818D01*
X39664500Y-39154181D01*
X39674563Y-39252683D01*
X39727450Y-39412284D01*
X39727455Y-39412295D01*
X39815716Y-39555387D01*
X39815719Y-39555391D01*
X39934608Y-39674280D01*
X39934612Y-39674283D01*
X40077704Y-39762544D01*
X40077707Y-39762545D01*
X40077713Y-39762549D01*
X40237315Y-39815436D01*
X40335826Y-39825500D01*
X40642047Y-39825500D01*
X40709086Y-39845185D01*
X40729728Y-39861819D01*
X40928181Y-40060271D01*
X40961666Y-40121594D01*
X40964500Y-40147952D01*
X40964500Y-46947679D01*
X40944815Y-47014718D01*
X40914813Y-47046944D01*
X40907459Y-47052449D01*
X40907453Y-47052454D01*
X40857888Y-47118664D01*
X40801953Y-47160535D01*
X40732261Y-47165518D01*
X40683616Y-47140893D01*
X40682550Y-47142269D01*
X40673986Y-47135625D01*
X40669561Y-47131847D01*
X40635582Y-47099938D01*
X40635580Y-47099936D01*
X40635577Y-47099935D01*
X40618029Y-47090288D01*
X40601763Y-47079604D01*
X40585933Y-47067325D01*
X40543168Y-47048818D01*
X40537922Y-47046248D01*
X40497093Y-47023803D01*
X40497092Y-47023802D01*
X40477693Y-47018822D01*
X40459281Y-47012518D01*
X40440898Y-47004562D01*
X40440892Y-47004560D01*
X40394874Y-46997272D01*
X40389152Y-46996087D01*
X40344021Y-46984500D01*
X40344019Y-46984500D01*
X40323984Y-46984500D01*
X40304542Y-46982966D01*
X40303967Y-46982875D01*
X40302430Y-46982631D01*
X40262447Y-46968997D01*
X40257331Y-46966203D01*
X40122486Y-46915910D01*
X40122485Y-46915909D01*
X40122483Y-46915909D01*
X40062873Y-46909500D01*
X40062863Y-46909500D01*
X39317129Y-46909500D01*
X39317123Y-46909501D01*
X39257516Y-46915908D01*
X39122671Y-46966202D01*
X39122664Y-46966206D01*
X39007455Y-47052452D01*
X39007452Y-47052455D01*
X38921206Y-47167664D01*
X38921202Y-47167671D01*
X38870910Y-47302513D01*
X38870909Y-47302517D01*
X38864500Y-47362127D01*
X38864500Y-47362134D01*
X38864500Y-47362135D01*
X38864500Y-47362136D01*
X38864501Y-47510499D01*
X38844817Y-47577539D01*
X38792013Y-47623294D01*
X38740501Y-47634500D01*
X35552952Y-47634500D01*
X35485913Y-47614815D01*
X35465271Y-47598181D01*
X33681819Y-45814728D01*
X33648334Y-45753405D01*
X33645500Y-45727047D01*
X33645500Y-41794595D01*
X33665185Y-41727556D01*
X33681819Y-41706914D01*
X33690869Y-41697863D01*
X33711135Y-41677598D01*
X33792869Y-41539393D01*
X33837665Y-41385204D01*
X33840500Y-41349181D01*
X33840499Y-40950820D01*
X33837665Y-40914796D01*
X33792869Y-40760607D01*
X33758869Y-40703117D01*
X33741688Y-40635398D01*
X33758869Y-40576882D01*
X33792869Y-40519393D01*
X33837665Y-40365204D01*
X33840500Y-40329181D01*
X33840499Y-39930820D01*
X33837665Y-39894796D01*
X33792869Y-39740607D01*
X33711135Y-39602402D01*
X33711133Y-39602400D01*
X33711130Y-39602396D01*
X33681819Y-39573085D01*
X33648334Y-39511762D01*
X33645500Y-39485404D01*
X33645500Y-37775452D01*
X33665185Y-37708413D01*
X33681819Y-37687771D01*
X36417772Y-34951819D01*
X36479095Y-34918334D01*
X36505453Y-34915500D01*
X41827257Y-34915500D01*
X41842877Y-34917224D01*
X41842904Y-34916939D01*
X41850660Y-34917671D01*
X41850667Y-34917673D01*
X41919814Y-34915500D01*
X41949350Y-34915500D01*
X41956228Y-34914630D01*
X41962041Y-34914172D01*
X42008627Y-34912709D01*
X42027869Y-34907117D01*
X42046912Y-34903174D01*
X42066792Y-34900664D01*
X42110122Y-34883507D01*
X42115646Y-34881617D01*
X42119396Y-34880527D01*
X42160390Y-34868618D01*
X42177629Y-34858422D01*
X42195103Y-34849862D01*
X42213727Y-34842488D01*
X42213727Y-34842487D01*
X42213732Y-34842486D01*
X42251449Y-34815082D01*
X42256305Y-34811892D01*
X42296420Y-34788170D01*
X42310589Y-34773999D01*
X42325379Y-34761368D01*
X42341587Y-34749594D01*
X42371299Y-34713676D01*
X42375212Y-34709376D01*
X43563787Y-33520802D01*
X43576042Y-33510986D01*
X43575859Y-33510764D01*
X43581866Y-33505792D01*
X43581877Y-33505786D01*
X43612775Y-33472882D01*
X43629227Y-33455364D01*
X43639671Y-33444918D01*
X43650120Y-33434471D01*
X43654379Y-33428978D01*
X43658152Y-33424561D01*
X43690062Y-33390582D01*
X43699713Y-33373024D01*
X43710396Y-33356761D01*
X43722673Y-33340936D01*
X43741185Y-33298153D01*
X43743738Y-33292941D01*
X43766197Y-33252092D01*
X43771180Y-33232680D01*
X43777481Y-33214280D01*
X43785437Y-33195896D01*
X43792729Y-33149852D01*
X43793906Y-33144171D01*
X43805500Y-33099019D01*
X43805500Y-33078982D01*
X43807027Y-33059582D01*
X43810160Y-33039804D01*
X43805775Y-32993415D01*
X43805500Y-32987577D01*
X43805500Y-31954499D01*
X43825185Y-31887460D01*
X43877989Y-31841705D01*
X43929500Y-31830499D01*
X44077871Y-31830499D01*
X44077872Y-31830499D01*
X44137483Y-31824091D01*
X44272331Y-31773796D01*
X44387546Y-31687546D01*
X44473796Y-31572331D01*
X44524091Y-31437483D01*
X44530500Y-31377873D01*
X44530500Y-31229499D01*
X44550185Y-31162461D01*
X44602989Y-31116706D01*
X44654500Y-31105500D01*
X49524773Y-31105500D01*
X49591812Y-31125185D01*
G37*
%TD.AperFunction*%
%TA.AperFunction,Conductor*%
G36*
X65782539Y-25620185D02*
G01*
X65828294Y-25672989D01*
X65839500Y-25724500D01*
X65839500Y-58095500D01*
X65819815Y-58162539D01*
X65767011Y-58208294D01*
X65715500Y-58219500D01*
X25724500Y-58219500D01*
X25657461Y-58199815D01*
X25611706Y-58147011D01*
X25600500Y-58095500D01*
X25600500Y-54290001D01*
X32172704Y-54290001D01*
X32172899Y-54292486D01*
X32218718Y-54450198D01*
X32302314Y-54591552D01*
X32302321Y-54591561D01*
X32418438Y-54707678D01*
X32418447Y-54707685D01*
X32559803Y-54791282D01*
X32559806Y-54791283D01*
X32717504Y-54837099D01*
X32717510Y-54837100D01*
X32754356Y-54840000D01*
X32770000Y-54840000D01*
X33269999Y-54840000D01*
X33285644Y-54840000D01*
X33322489Y-54837100D01*
X33322495Y-54837099D01*
X33480193Y-54791283D01*
X33480196Y-54791282D01*
X33621552Y-54707685D01*
X33621561Y-54707678D01*
X33737678Y-54591561D01*
X33737685Y-54591552D01*
X33821281Y-54450198D01*
X33867100Y-54292486D01*
X33867295Y-54290001D01*
X33867295Y-54290000D01*
X33270000Y-54290000D01*
X33269999Y-54840000D01*
X32770000Y-54840000D01*
X32770000Y-54290000D01*
X32172705Y-54290000D01*
X32172704Y-54290001D01*
X25600500Y-54290001D01*
X25600500Y-30480000D01*
X31664341Y-30480000D01*
X31684936Y-30715403D01*
X31684938Y-30715413D01*
X31746094Y-30943655D01*
X31746096Y-30943659D01*
X31746097Y-30943663D01*
X31821563Y-31105500D01*
X31845965Y-31157830D01*
X31845967Y-31157834D01*
X31933873Y-31283376D01*
X31981501Y-31351396D01*
X31981506Y-31351402D01*
X32103818Y-31473714D01*
X32137303Y-31535037D01*
X32132319Y-31604729D01*
X32090447Y-31660662D01*
X32059471Y-31677577D01*
X31927912Y-31726646D01*
X31927906Y-31726649D01*
X31812812Y-31812809D01*
X31812809Y-31812812D01*
X31726649Y-31927906D01*
X31726645Y-31927913D01*
X31676403Y-32062620D01*
X31676401Y-32062627D01*
X31670000Y-32122155D01*
X31670000Y-32770000D01*
X32406653Y-32770000D01*
X32473692Y-32789685D01*
X32519447Y-32842489D01*
X32529391Y-32911647D01*
X32525631Y-32928933D01*
X32520000Y-32948111D01*
X32520000Y-33091888D01*
X32525631Y-33111067D01*
X32525630Y-33180936D01*
X32487855Y-33239714D01*
X32424299Y-33268738D01*
X32406653Y-33270000D01*
X31670000Y-33270000D01*
X31670000Y-33917844D01*
X31676401Y-33977372D01*
X31676403Y-33977379D01*
X31726645Y-34112086D01*
X31726649Y-34112093D01*
X31812809Y-34227187D01*
X31812812Y-34227190D01*
X31927906Y-34313350D01*
X31927913Y-34313354D01*
X32062620Y-34363596D01*
X32062627Y-34363598D01*
X32122155Y-34369999D01*
X32122172Y-34370000D01*
X32770000Y-34370000D01*
X32770000Y-33632301D01*
X32789685Y-33565262D01*
X32842489Y-33519507D01*
X32911647Y-33509563D01*
X32984237Y-33520000D01*
X32984238Y-33520000D01*
X33055762Y-33520000D01*
X33055763Y-33520000D01*
X33128353Y-33509563D01*
X33197512Y-33519507D01*
X33250315Y-33565262D01*
X33270000Y-33632301D01*
X33270000Y-34370000D01*
X33917828Y-34370000D01*
X33917844Y-34369999D01*
X33977372Y-34363598D01*
X33977379Y-34363596D01*
X34112086Y-34313354D01*
X34112093Y-34313350D01*
X34227187Y-34227190D01*
X34227190Y-34227187D01*
X34313350Y-34112093D01*
X34313354Y-34112086D01*
X34363596Y-33977379D01*
X34363598Y-33977372D01*
X34369999Y-33917844D01*
X34370000Y-33917827D01*
X34370000Y-33270000D01*
X33633347Y-33270000D01*
X33566308Y-33250315D01*
X33520553Y-33197511D01*
X33510609Y-33128353D01*
X33514369Y-33111067D01*
X33520000Y-33091888D01*
X33520000Y-32948111D01*
X33514369Y-32928933D01*
X33514370Y-32859064D01*
X33552145Y-32800286D01*
X33615701Y-32771262D01*
X33633347Y-32770000D01*
X34370000Y-32770000D01*
X34370000Y-32122172D01*
X34369999Y-32122155D01*
X34363598Y-32062627D01*
X34363596Y-32062620D01*
X34313354Y-31927913D01*
X34313350Y-31927906D01*
X34227190Y-31812812D01*
X34227187Y-31812809D01*
X34112093Y-31726649D01*
X34112088Y-31726646D01*
X33980528Y-31677577D01*
X33924595Y-31635705D01*
X33900178Y-31570241D01*
X33915030Y-31501968D01*
X33936175Y-31473720D01*
X34058495Y-31351401D01*
X34106126Y-31283376D01*
X34160704Y-31239751D01*
X34207701Y-31230500D01*
X39452299Y-31230500D01*
X39519338Y-31250185D01*
X39553873Y-31283376D01*
X39601505Y-31351401D01*
X39768599Y-31518495D01*
X39865384Y-31586265D01*
X39962165Y-31654032D01*
X39962167Y-31654033D01*
X39962170Y-31654035D01*
X40176337Y-31753903D01*
X40404592Y-31815063D01*
X40581034Y-31830500D01*
X40639999Y-31835659D01*
X40640000Y-31835659D01*
X40640001Y-31835659D01*
X40698966Y-31830500D01*
X40875408Y-31815063D01*
X41103663Y-31753903D01*
X41317830Y-31654035D01*
X41511401Y-31518495D01*
X41633329Y-31396566D01*
X41694648Y-31363084D01*
X41764340Y-31368068D01*
X41820274Y-31409939D01*
X41837189Y-31440917D01*
X41886202Y-31572328D01*
X41886206Y-31572335D01*
X41972452Y-31687544D01*
X41972455Y-31687547D01*
X42087664Y-31773793D01*
X42087671Y-31773797D01*
X42132618Y-31790561D01*
X42222517Y-31824091D01*
X42282127Y-31830500D01*
X42430500Y-31830499D01*
X42497539Y-31850183D01*
X42543294Y-31902987D01*
X42554500Y-31954499D01*
X42554500Y-32709547D01*
X42534815Y-32776586D01*
X42518181Y-32797228D01*
X41687228Y-33628181D01*
X41625905Y-33661666D01*
X41599547Y-33664500D01*
X36277738Y-33664500D01*
X36262121Y-33662776D01*
X36262094Y-33663062D01*
X36254332Y-33662327D01*
X36185204Y-33664500D01*
X36155650Y-33664500D01*
X36154929Y-33664590D01*
X36148757Y-33665369D01*
X36142945Y-33665826D01*
X36096373Y-33667290D01*
X36096372Y-33667290D01*
X36077129Y-33672881D01*
X36058079Y-33676825D01*
X36038211Y-33679334D01*
X35994884Y-33696488D01*
X35989358Y-33698379D01*
X35944614Y-33711379D01*
X35944610Y-33711381D01*
X35927366Y-33721579D01*
X35909905Y-33730133D01*
X35891274Y-33737510D01*
X35891262Y-33737517D01*
X35853570Y-33764902D01*
X35848687Y-33768109D01*
X35808580Y-33791829D01*
X35794414Y-33805995D01*
X35779624Y-33818627D01*
X35763414Y-33830404D01*
X35763411Y-33830407D01*
X35733710Y-33866309D01*
X35729777Y-33870631D01*
X32636208Y-36964199D01*
X32623951Y-36974020D01*
X32624134Y-36974241D01*
X32618123Y-36979213D01*
X32570772Y-37029636D01*
X32549889Y-37050519D01*
X32549877Y-37050532D01*
X32545621Y-37056017D01*
X32541837Y-37060447D01*
X32509937Y-37094418D01*
X32509936Y-37094420D01*
X32500284Y-37111976D01*
X32489610Y-37128226D01*
X32477329Y-37144061D01*
X32477324Y-37144068D01*
X32458815Y-37186838D01*
X32456245Y-37192084D01*
X32433803Y-37232906D01*
X32428822Y-37252307D01*
X32422521Y-37270710D01*
X32414562Y-37289102D01*
X32414561Y-37289105D01*
X32407271Y-37335127D01*
X32406087Y-37340846D01*
X32394501Y-37385972D01*
X32394500Y-37385982D01*
X32394500Y-37406016D01*
X32392973Y-37425415D01*
X32389840Y-37445194D01*
X32389839Y-37445197D01*
X32394224Y-37491585D01*
X32394499Y-37497421D01*
X32394499Y-39485404D01*
X32374814Y-39552443D01*
X32358181Y-39573084D01*
X32328870Y-39602395D01*
X32328863Y-39602404D01*
X32247131Y-39740606D01*
X32247129Y-39740611D01*
X32202335Y-39894791D01*
X32202334Y-39894797D01*
X32199500Y-39930817D01*
X32199501Y-40329181D01*
X32202335Y-40365205D01*
X32247129Y-40519388D01*
X32247132Y-40519395D01*
X32281128Y-40576881D01*
X32298309Y-40644605D01*
X32281128Y-40703119D01*
X32247132Y-40760604D01*
X32247129Y-40760611D01*
X32202335Y-40914791D01*
X32202334Y-40914797D01*
X32199500Y-40950817D01*
X32199501Y-41349181D01*
X32202335Y-41385205D01*
X32247129Y-41539388D01*
X32247131Y-41539393D01*
X32328863Y-41677595D01*
X32328869Y-41677603D01*
X32358180Y-41706913D01*
X32391666Y-41768235D01*
X32394500Y-41794595D01*
X32394500Y-45954755D01*
X32392775Y-45970372D01*
X32393061Y-45970399D01*
X32392326Y-45978165D01*
X32394500Y-46047314D01*
X32394500Y-46076843D01*
X32394501Y-46076860D01*
X32395368Y-46083731D01*
X32395826Y-46089550D01*
X32397290Y-46136124D01*
X32397291Y-46136127D01*
X32402880Y-46155367D01*
X32406824Y-46174411D01*
X32407705Y-46181378D01*
X32409336Y-46194291D01*
X32426490Y-46237619D01*
X32428382Y-46243147D01*
X32441381Y-46287888D01*
X32451580Y-46305134D01*
X32460136Y-46322600D01*
X32467514Y-46341232D01*
X32475023Y-46351568D01*
X32494898Y-46378923D01*
X32498106Y-46383807D01*
X32521827Y-46423916D01*
X32521833Y-46423924D01*
X32535990Y-46438080D01*
X32548627Y-46452875D01*
X32560406Y-46469087D01*
X32593666Y-46496602D01*
X32596309Y-46498788D01*
X32600620Y-46502710D01*
X33460033Y-47362123D01*
X34270228Y-48172318D01*
X34303713Y-48233641D01*
X34298729Y-48303333D01*
X34270228Y-48347680D01*
X32636208Y-49981699D01*
X32623951Y-49991520D01*
X32624134Y-49991741D01*
X32618123Y-49996713D01*
X32570772Y-50047136D01*
X32549889Y-50068019D01*
X32549877Y-50068032D01*
X32545621Y-50073517D01*
X32541837Y-50077947D01*
X32509937Y-50111918D01*
X32509936Y-50111920D01*
X32500284Y-50129476D01*
X32489610Y-50145726D01*
X32477329Y-50161561D01*
X32477324Y-50161568D01*
X32458815Y-50204338D01*
X32456245Y-50209584D01*
X32433803Y-50250406D01*
X32428822Y-50269807D01*
X32422521Y-50288210D01*
X32414562Y-50306602D01*
X32414561Y-50306605D01*
X32407271Y-50352627D01*
X32406087Y-50358346D01*
X32394501Y-50403472D01*
X32394500Y-50403482D01*
X32394500Y-50423516D01*
X32392973Y-50442915D01*
X32389840Y-50462694D01*
X32389839Y-50462697D01*
X32394224Y-50509085D01*
X32394499Y-50514921D01*
X32394499Y-51944191D01*
X32374814Y-52011230D01*
X32358181Y-52031872D01*
X32301920Y-52088133D01*
X32301917Y-52088137D01*
X32218255Y-52229603D01*
X32218254Y-52229606D01*
X32172402Y-52387426D01*
X32172401Y-52387432D01*
X32169500Y-52424304D01*
X32169500Y-52855696D01*
X32172401Y-52892567D01*
X32172402Y-52892573D01*
X32218254Y-53050393D01*
X32218255Y-53050396D01*
X32301917Y-53191862D01*
X32301923Y-53191870D01*
X32362725Y-53252672D01*
X32396210Y-53313995D01*
X32391226Y-53383687D01*
X32362726Y-53428034D01*
X32302318Y-53488442D01*
X32302314Y-53488447D01*
X32218718Y-53629801D01*
X32172899Y-53787513D01*
X32172704Y-53789998D01*
X32172705Y-53790000D01*
X33867295Y-53790000D01*
X33867295Y-53789998D01*
X33867100Y-53787513D01*
X33821281Y-53629801D01*
X33737685Y-53488447D01*
X33737678Y-53488438D01*
X33677274Y-53428034D01*
X33643789Y-53366711D01*
X33648773Y-53297019D01*
X33677272Y-53252673D01*
X33738081Y-53191865D01*
X33821744Y-53050398D01*
X33867598Y-52892569D01*
X33870500Y-52855694D01*
X33870500Y-52424306D01*
X33867598Y-52387431D01*
X33866170Y-52382517D01*
X33833836Y-52271224D01*
X33821744Y-52229602D01*
X33738081Y-52088135D01*
X33738079Y-52088133D01*
X33738076Y-52088129D01*
X33681819Y-52031872D01*
X33648334Y-51970549D01*
X33645500Y-51944191D01*
X33645500Y-50792952D01*
X33665185Y-50725913D01*
X33681819Y-50705271D01*
X35465271Y-48921819D01*
X35526594Y-48888334D01*
X35552952Y-48885500D01*
X38740500Y-48885500D01*
X38807539Y-48905185D01*
X38853294Y-48957989D01*
X38864500Y-49009499D01*
X38864500Y-49157869D01*
X38864501Y-49157876D01*
X38870908Y-49217483D01*
X38921202Y-49352328D01*
X38921206Y-49352335D01*
X39007452Y-49467544D01*
X39007455Y-49467547D01*
X39122664Y-49553793D01*
X39122671Y-49553797D01*
X39158754Y-49567255D01*
X39257517Y-49604091D01*
X39317127Y-49610500D01*
X39890500Y-49610499D01*
X39957539Y-49630183D01*
X40003294Y-49682987D01*
X40014500Y-49734499D01*
X40014500Y-50717255D01*
X40012775Y-50732872D01*
X40013061Y-50732899D01*
X40012326Y-50740665D01*
X40014500Y-50809814D01*
X40014500Y-50839343D01*
X40014501Y-50839360D01*
X40015368Y-50846231D01*
X40015826Y-50852050D01*
X40017290Y-50898624D01*
X40017291Y-50898627D01*
X40022880Y-50917867D01*
X40026824Y-50936911D01*
X40029336Y-50956792D01*
X40036899Y-50975895D01*
X40046490Y-51000119D01*
X40048382Y-51005647D01*
X40061381Y-51050388D01*
X40071580Y-51067634D01*
X40080136Y-51085100D01*
X40087514Y-51103732D01*
X40114898Y-51141423D01*
X40118106Y-51146307D01*
X40141827Y-51186416D01*
X40141833Y-51186424D01*
X40155990Y-51200580D01*
X40168628Y-51215376D01*
X40180405Y-51231586D01*
X40180406Y-51231587D01*
X40216309Y-51261288D01*
X40220620Y-51265210D01*
X40519807Y-51564397D01*
X40774194Y-51818784D01*
X40784019Y-51831048D01*
X40784240Y-51830866D01*
X40789210Y-51836873D01*
X40789213Y-51836876D01*
X40789214Y-51836877D01*
X40839651Y-51884241D01*
X40860530Y-51905120D01*
X40866004Y-51909366D01*
X40870442Y-51913156D01*
X40904418Y-51945062D01*
X40904422Y-51945064D01*
X40921973Y-51954713D01*
X40938231Y-51965392D01*
X40954064Y-51977674D01*
X40976015Y-51987172D01*
X40996837Y-51996183D01*
X41002081Y-51998752D01*
X41042908Y-52021197D01*
X41062312Y-52026179D01*
X41080710Y-52032478D01*
X41099105Y-52040438D01*
X41145129Y-52047726D01*
X41150832Y-52048907D01*
X41195981Y-52060500D01*
X41216016Y-52060500D01*
X41235413Y-52062026D01*
X41255196Y-52065160D01*
X41301583Y-52060775D01*
X41307422Y-52060500D01*
X43097257Y-52060500D01*
X43112877Y-52062224D01*
X43112904Y-52061939D01*
X43120660Y-52062671D01*
X43120667Y-52062673D01*
X43189814Y-52060500D01*
X43219350Y-52060500D01*
X43226228Y-52059630D01*
X43232041Y-52059172D01*
X43278627Y-52057709D01*
X43297869Y-52052117D01*
X43316912Y-52048174D01*
X43336792Y-52045664D01*
X43380122Y-52028507D01*
X43385646Y-52026617D01*
X43389396Y-52025527D01*
X43430390Y-52013618D01*
X43447629Y-52003422D01*
X43465103Y-51994862D01*
X43483727Y-51987488D01*
X43483727Y-51987487D01*
X43483732Y-51987486D01*
X43521449Y-51960082D01*
X43526305Y-51956892D01*
X43566420Y-51933170D01*
X43580589Y-51918999D01*
X43595379Y-51906368D01*
X43611587Y-51894594D01*
X43641299Y-51858676D01*
X43645212Y-51854376D01*
X44198786Y-51300802D01*
X44211048Y-51290980D01*
X44210865Y-51290759D01*
X44216867Y-51285792D01*
X44216877Y-51285786D01*
X44264241Y-51235348D01*
X44285120Y-51214470D01*
X44289373Y-51208986D01*
X44293150Y-51204563D01*
X44325062Y-51170582D01*
X44334714Y-51153023D01*
X44345389Y-51136772D01*
X44357674Y-51120936D01*
X44376186Y-51078152D01*
X44378742Y-51072935D01*
X44401197Y-51032092D01*
X44406180Y-51012680D01*
X44412477Y-50994291D01*
X44420438Y-50975895D01*
X44427729Y-50929853D01*
X44428908Y-50924162D01*
X44440500Y-50879019D01*
X44440500Y-50858982D01*
X44442027Y-50839582D01*
X44445160Y-50819804D01*
X44440775Y-50773415D01*
X44440500Y-50767577D01*
X44440500Y-46982952D01*
X44460185Y-46915913D01*
X44476819Y-46895271D01*
X44780271Y-46591819D01*
X44841594Y-46558334D01*
X44867952Y-46555500D01*
X45840336Y-46555500D01*
X45907375Y-46575185D01*
X45953130Y-46627989D01*
X45963626Y-46666246D01*
X45965909Y-46687483D01*
X46016202Y-46822328D01*
X46016206Y-46822335D01*
X46102452Y-46937544D01*
X46102455Y-46937547D01*
X46217664Y-47023793D01*
X46217671Y-47023797D01*
X46262618Y-47040561D01*
X46352517Y-47074091D01*
X46373756Y-47076374D01*
X46438304Y-47103110D01*
X46478154Y-47160502D01*
X46484500Y-47199663D01*
X46484500Y-49567255D01*
X46482775Y-49582872D01*
X46483061Y-49582899D01*
X46482326Y-49590665D01*
X46484500Y-49659814D01*
X46484500Y-49689343D01*
X46484501Y-49689360D01*
X46485368Y-49696231D01*
X46485826Y-49702050D01*
X46487290Y-49748624D01*
X46487291Y-49748627D01*
X46492880Y-49767867D01*
X46496824Y-49786911D01*
X46499336Y-49806791D01*
X46516490Y-49850119D01*
X46518382Y-49855647D01*
X46531381Y-49900388D01*
X46541580Y-49917634D01*
X46550138Y-49935103D01*
X46557514Y-49953732D01*
X46584898Y-49991423D01*
X46588106Y-49996307D01*
X46611827Y-50036416D01*
X46611833Y-50036424D01*
X46625990Y-50050580D01*
X46638628Y-50065376D01*
X46650405Y-50081586D01*
X46650406Y-50081587D01*
X46686309Y-50111288D01*
X46690620Y-50115210D01*
X48805011Y-52229602D01*
X49459761Y-52884352D01*
X49493246Y-52945675D01*
X49491855Y-53004124D01*
X49464937Y-53104589D01*
X49464937Y-53104590D01*
X49444341Y-53339999D01*
X49444341Y-53340000D01*
X49464936Y-53575403D01*
X49464938Y-53575413D01*
X49526094Y-53803655D01*
X49526096Y-53803659D01*
X49526097Y-53803663D01*
X49572630Y-53903453D01*
X49625965Y-54017830D01*
X49625967Y-54017834D01*
X49734281Y-54172521D01*
X49761505Y-54211401D01*
X49928599Y-54378495D01*
X50025384Y-54446264D01*
X50122165Y-54514032D01*
X50122167Y-54514033D01*
X50122170Y-54514035D01*
X50336337Y-54613903D01*
X50564592Y-54675063D01*
X50741034Y-54690500D01*
X50799999Y-54695659D01*
X50800000Y-54695659D01*
X50800001Y-54695659D01*
X50858966Y-54690500D01*
X51035408Y-54675063D01*
X51263663Y-54613903D01*
X51477830Y-54514035D01*
X51671401Y-54378495D01*
X51793329Y-54256566D01*
X51854648Y-54223084D01*
X51924340Y-54228068D01*
X51980274Y-54269939D01*
X51997189Y-54300917D01*
X52046202Y-54432328D01*
X52046206Y-54432335D01*
X52132452Y-54547544D01*
X52132455Y-54547547D01*
X52247664Y-54633793D01*
X52247671Y-54633797D01*
X52382517Y-54684091D01*
X52382516Y-54684091D01*
X52389444Y-54684835D01*
X52442127Y-54690500D01*
X54237872Y-54690499D01*
X54297483Y-54684091D01*
X54432331Y-54633796D01*
X54547546Y-54547546D01*
X54633796Y-54432331D01*
X54684091Y-54297483D01*
X54690500Y-54237873D01*
X54690500Y-54089499D01*
X54710185Y-54022461D01*
X54762989Y-53976706D01*
X54814500Y-53965500D01*
X56817257Y-53965500D01*
X56832877Y-53967224D01*
X56832904Y-53966939D01*
X56840660Y-53967671D01*
X56840667Y-53967673D01*
X56909814Y-53965500D01*
X56939350Y-53965500D01*
X56946228Y-53964630D01*
X56952041Y-53964172D01*
X56998627Y-53962709D01*
X57017869Y-53957117D01*
X57036912Y-53953174D01*
X57056792Y-53950664D01*
X57100122Y-53933507D01*
X57105646Y-53931617D01*
X57109396Y-53930527D01*
X57150390Y-53918618D01*
X57167629Y-53908422D01*
X57185103Y-53899862D01*
X57203727Y-53892488D01*
X57203727Y-53892487D01*
X57203732Y-53892486D01*
X57241449Y-53865082D01*
X57246305Y-53861892D01*
X57286420Y-53838170D01*
X57300589Y-53823999D01*
X57315379Y-53811368D01*
X57331587Y-53799594D01*
X57361299Y-53763676D01*
X57365212Y-53759376D01*
X59467771Y-51656818D01*
X59529095Y-51623333D01*
X59555453Y-51620499D01*
X59639180Y-51620499D01*
X59675204Y-51617665D01*
X59829393Y-51572869D01*
X59967598Y-51491135D01*
X60081135Y-51377598D01*
X60162869Y-51239393D01*
X60207665Y-51085204D01*
X60210500Y-51049181D01*
X60210499Y-50965450D01*
X60230183Y-50898413D01*
X60246813Y-50877775D01*
X62296288Y-48828301D01*
X62308542Y-48818486D01*
X62308359Y-48818264D01*
X62314366Y-48813292D01*
X62314377Y-48813286D01*
X62345275Y-48780382D01*
X62361727Y-48762864D01*
X62372171Y-48752418D01*
X62382620Y-48741971D01*
X62386879Y-48736478D01*
X62390652Y-48732061D01*
X62422562Y-48698082D01*
X62432215Y-48680520D01*
X62442889Y-48664270D01*
X62455173Y-48648436D01*
X62473680Y-48605667D01*
X62476249Y-48600424D01*
X62478453Y-48596413D01*
X62498697Y-48559592D01*
X62503677Y-48540191D01*
X62509978Y-48521788D01*
X62517938Y-48503396D01*
X62525230Y-48457349D01*
X62526411Y-48451652D01*
X62538000Y-48406519D01*
X62538000Y-48386483D01*
X62539527Y-48367082D01*
X62542660Y-48347303D01*
X62542660Y-48347300D01*
X62541522Y-48335268D01*
X62538272Y-48300894D01*
X62538000Y-48295099D01*
X62538000Y-44005241D01*
X62539724Y-43989622D01*
X62539439Y-43989596D01*
X62540171Y-43981840D01*
X62540173Y-43981833D01*
X62538000Y-43912685D01*
X62538000Y-43883150D01*
X62537131Y-43876272D01*
X62536672Y-43870443D01*
X62535209Y-43823872D01*
X62529622Y-43804644D01*
X62525674Y-43785584D01*
X62523164Y-43765708D01*
X62523163Y-43765706D01*
X62523163Y-43765704D01*
X62506012Y-43722387D01*
X62504119Y-43716858D01*
X62491118Y-43672109D01*
X62491116Y-43672106D01*
X62480923Y-43654871D01*
X62472361Y-43637394D01*
X62464987Y-43618770D01*
X62464986Y-43618768D01*
X62437579Y-43581045D01*
X62434388Y-43576186D01*
X62434308Y-43576051D01*
X62410670Y-43536080D01*
X62410668Y-43536078D01*
X62410665Y-43536074D01*
X62396506Y-43521915D01*
X62383868Y-43507119D01*
X62372094Y-43490913D01*
X62346548Y-43469780D01*
X62336188Y-43461209D01*
X62331876Y-43457286D01*
X59956818Y-41082227D01*
X59923333Y-41020905D01*
X59920499Y-40994547D01*
X59920499Y-39732129D01*
X59920498Y-39732123D01*
X59920497Y-39732116D01*
X59914091Y-39672517D01*
X59900988Y-39637387D01*
X59863797Y-39537671D01*
X59863793Y-39537664D01*
X59777547Y-39422455D01*
X59777544Y-39422452D01*
X59662335Y-39336206D01*
X59662328Y-39336202D01*
X59527482Y-39285908D01*
X59527483Y-39285908D01*
X59467883Y-39279501D01*
X59467881Y-39279500D01*
X59467873Y-39279500D01*
X59467864Y-39279500D01*
X57372129Y-39279500D01*
X57372123Y-39279501D01*
X57312516Y-39285908D01*
X57177671Y-39336202D01*
X57177664Y-39336206D01*
X57062455Y-39422452D01*
X57062452Y-39422455D01*
X56976206Y-39537664D01*
X56976202Y-39537671D01*
X56925908Y-39672517D01*
X56922891Y-39700584D01*
X56919501Y-39732123D01*
X56919500Y-39732135D01*
X56919500Y-41127870D01*
X56919501Y-41127876D01*
X56925908Y-41187483D01*
X56976202Y-41322328D01*
X56976206Y-41322335D01*
X57062452Y-41437544D01*
X57062455Y-41437547D01*
X57177664Y-41523793D01*
X57177671Y-41523797D01*
X57312517Y-41574091D01*
X57312516Y-41574091D01*
X57319444Y-41574835D01*
X57372127Y-41580500D01*
X58634547Y-41580499D01*
X58701586Y-41600184D01*
X58722228Y-41616818D01*
X61250680Y-44145270D01*
X61284165Y-44206593D01*
X61286999Y-44232951D01*
X61287000Y-48017046D01*
X61267315Y-48084085D01*
X61250681Y-48104727D01*
X59412226Y-49943181D01*
X59350903Y-49976666D01*
X59324546Y-49979500D01*
X59240819Y-49979501D01*
X59204794Y-49982335D01*
X59050611Y-50027129D01*
X59050607Y-50027130D01*
X58992628Y-50061419D01*
X58924903Y-50078600D01*
X58866388Y-50061419D01*
X58809189Y-50027592D01*
X58809188Y-50027591D01*
X58670000Y-49987153D01*
X58669999Y-49987154D01*
X58669999Y-50542017D01*
X58669809Y-50546866D01*
X58669501Y-50550801D01*
X58669500Y-50550817D01*
X58669500Y-50634546D01*
X58649815Y-50701585D01*
X58633181Y-50722227D01*
X58341727Y-51013681D01*
X58280404Y-51047166D01*
X58254046Y-51050000D01*
X57650069Y-51050000D01*
X57652832Y-51085122D01*
X57652833Y-51085128D01*
X57697592Y-51239188D01*
X57697593Y-51239191D01*
X57779261Y-51377285D01*
X57779268Y-51377294D01*
X57791009Y-51389035D01*
X57824494Y-51450358D01*
X57819510Y-51520050D01*
X57791009Y-51564397D01*
X56677228Y-52678181D01*
X56615905Y-52711666D01*
X56589547Y-52714500D01*
X54814499Y-52714500D01*
X54747460Y-52694815D01*
X54701705Y-52642011D01*
X54690499Y-52590500D01*
X54690499Y-52442129D01*
X54690498Y-52442123D01*
X54684091Y-52382516D01*
X54633797Y-52247671D01*
X54633793Y-52247664D01*
X54547547Y-52132455D01*
X54547544Y-52132452D01*
X54432335Y-52046206D01*
X54432328Y-52046202D01*
X54297482Y-51995908D01*
X54297483Y-51995908D01*
X54237883Y-51989501D01*
X54237881Y-51989500D01*
X54237873Y-51989500D01*
X54237864Y-51989500D01*
X52442129Y-51989500D01*
X52442123Y-51989501D01*
X52382516Y-51995908D01*
X52247671Y-52046202D01*
X52247664Y-52046206D01*
X52132455Y-52132452D01*
X52132452Y-52132455D01*
X52046206Y-52247664D01*
X52046203Y-52247669D01*
X51997189Y-52379083D01*
X51955317Y-52435016D01*
X51889853Y-52459433D01*
X51821580Y-52444581D01*
X51793326Y-52423430D01*
X51671402Y-52301506D01*
X51671395Y-52301501D01*
X51477834Y-52165967D01*
X51477830Y-52165965D01*
X51263663Y-52066097D01*
X51263659Y-52066096D01*
X51263655Y-52066094D01*
X51035413Y-52004938D01*
X51035403Y-52004936D01*
X50800001Y-51984341D01*
X50799999Y-51984341D01*
X50564596Y-52004936D01*
X50564586Y-52004938D01*
X50464126Y-52031856D01*
X50394276Y-52030193D01*
X50344352Y-51999762D01*
X49061845Y-50717255D01*
X48894590Y-50550000D01*
X57650069Y-50550000D01*
X58170000Y-50550000D01*
X58170000Y-49987154D01*
X58169998Y-49987153D01*
X58030811Y-50027591D01*
X58030808Y-50027593D01*
X57892714Y-50109261D01*
X57892705Y-50109268D01*
X57779268Y-50222705D01*
X57779261Y-50222714D01*
X57697593Y-50360808D01*
X57697592Y-50360811D01*
X57652833Y-50514871D01*
X57652832Y-50514877D01*
X57650069Y-50550000D01*
X48894590Y-50550000D01*
X47771819Y-49427228D01*
X47738334Y-49365905D01*
X47735500Y-49339547D01*
X47735500Y-47199663D01*
X47755185Y-47132624D01*
X47807989Y-47086869D01*
X47846248Y-47076373D01*
X47867483Y-47074091D01*
X48002331Y-47023796D01*
X48117546Y-46937546D01*
X48160734Y-46879854D01*
X48216667Y-46837984D01*
X48286359Y-46833000D01*
X48347682Y-46866485D01*
X48359263Y-46879850D01*
X48402454Y-46937546D01*
X48440735Y-46966203D01*
X48517664Y-47023793D01*
X48517671Y-47023797D01*
X48652517Y-47074091D01*
X48652516Y-47074091D01*
X48659444Y-47074835D01*
X48712127Y-47080500D01*
X50107872Y-47080499D01*
X50167483Y-47074091D01*
X50302331Y-47023796D01*
X50417546Y-46937546D01*
X50503796Y-46822331D01*
X50554091Y-46687483D01*
X50560500Y-46627873D01*
X50560499Y-45232128D01*
X50554091Y-45172517D01*
X50503796Y-45037669D01*
X50503795Y-45037668D01*
X50503793Y-45037664D01*
X50417547Y-44922455D01*
X50417544Y-44922452D01*
X50302335Y-44836206D01*
X50302328Y-44836202D01*
X50167482Y-44785908D01*
X50167483Y-44785908D01*
X50107883Y-44779501D01*
X50107881Y-44779500D01*
X50107873Y-44779500D01*
X50107864Y-44779500D01*
X48712129Y-44779500D01*
X48712123Y-44779501D01*
X48652516Y-44785908D01*
X48517671Y-44836202D01*
X48517664Y-44836206D01*
X48402455Y-44922452D01*
X48359266Y-44980145D01*
X48303332Y-45022015D01*
X48233640Y-45026999D01*
X48172317Y-44993513D01*
X48160734Y-44980145D01*
X48139376Y-44951615D01*
X48117546Y-44922454D01*
X48117544Y-44922453D01*
X48117544Y-44922452D01*
X48002335Y-44836206D01*
X48002328Y-44836202D01*
X47867482Y-44785908D01*
X47867483Y-44785908D01*
X47807883Y-44779501D01*
X47807881Y-44779500D01*
X47807873Y-44779500D01*
X47807864Y-44779500D01*
X46412129Y-44779500D01*
X46412123Y-44779501D01*
X46352516Y-44785908D01*
X46217671Y-44836202D01*
X46217664Y-44836206D01*
X46102455Y-44922452D01*
X46102452Y-44922455D01*
X46016206Y-45037664D01*
X46016202Y-45037671D01*
X45965908Y-45172516D01*
X45963625Y-45193757D01*
X45936886Y-45258308D01*
X45879493Y-45298155D01*
X45840336Y-45304500D01*
X44640243Y-45304500D01*
X44624622Y-45302775D01*
X44624595Y-45303061D01*
X44616833Y-45302326D01*
X44547672Y-45304500D01*
X44518149Y-45304500D01*
X44511278Y-45305367D01*
X44505459Y-45305825D01*
X44458874Y-45307289D01*
X44458868Y-45307290D01*
X44439626Y-45312880D01*
X44420587Y-45316823D01*
X44400717Y-45319334D01*
X44400703Y-45319337D01*
X44357383Y-45336488D01*
X44351858Y-45338380D01*
X44307113Y-45351380D01*
X44307110Y-45351381D01*
X44289866Y-45361579D01*
X44272405Y-45370133D01*
X44253774Y-45377510D01*
X44253762Y-45377517D01*
X44216070Y-45404902D01*
X44211187Y-45408109D01*
X44171080Y-45431829D01*
X44156914Y-45445995D01*
X44142124Y-45458627D01*
X44125914Y-45470404D01*
X44125911Y-45470407D01*
X44096210Y-45506309D01*
X44092277Y-45510631D01*
X43431208Y-46171699D01*
X43418951Y-46181520D01*
X43419134Y-46181741D01*
X43413123Y-46186713D01*
X43365772Y-46237136D01*
X43344889Y-46258019D01*
X43344877Y-46258032D01*
X43340621Y-46263517D01*
X43336837Y-46267947D01*
X43304937Y-46301918D01*
X43304936Y-46301920D01*
X43295284Y-46319476D01*
X43284610Y-46335726D01*
X43272329Y-46351561D01*
X43272324Y-46351568D01*
X43253815Y-46394338D01*
X43251245Y-46399584D01*
X43228803Y-46440406D01*
X43223822Y-46459807D01*
X43217521Y-46478210D01*
X43209562Y-46496602D01*
X43209561Y-46496605D01*
X43202271Y-46542627D01*
X43201087Y-46548346D01*
X43189501Y-46593472D01*
X43189500Y-46593482D01*
X43189500Y-46613516D01*
X43187973Y-46632915D01*
X43184840Y-46652694D01*
X43184840Y-46652695D01*
X43189225Y-46699083D01*
X43189500Y-46704921D01*
X43189500Y-50489547D01*
X43169815Y-50556586D01*
X43153181Y-50577228D01*
X42957228Y-50773181D01*
X42895905Y-50806666D01*
X42869547Y-50809500D01*
X41585452Y-50809500D01*
X41518413Y-50789815D01*
X41497771Y-50773181D01*
X41301819Y-50577228D01*
X41268334Y-50515905D01*
X41265500Y-50489547D01*
X41265500Y-49734499D01*
X41285185Y-49667460D01*
X41337989Y-49621705D01*
X41389500Y-49610499D01*
X41962871Y-49610499D01*
X41962872Y-49610499D01*
X42022483Y-49604091D01*
X42157331Y-49553796D01*
X42272546Y-49467546D01*
X42358796Y-49352331D01*
X42409091Y-49217483D01*
X42415500Y-49157873D01*
X42415499Y-48662128D01*
X42409091Y-48602517D01*
X42409089Y-48602513D01*
X42408632Y-48598255D01*
X42408632Y-48571745D01*
X42409089Y-48567486D01*
X42409091Y-48567483D01*
X42415500Y-48507873D01*
X42415499Y-48012128D01*
X42409091Y-47952517D01*
X42409089Y-47952513D01*
X42408632Y-47948255D01*
X42408632Y-47921745D01*
X42409089Y-47917486D01*
X42409091Y-47917483D01*
X42415500Y-47857873D01*
X42415499Y-47362128D01*
X42409091Y-47302517D01*
X42389749Y-47250659D01*
X42358797Y-47167671D01*
X42358793Y-47167664D01*
X42293540Y-47080498D01*
X42272546Y-47052454D01*
X42272542Y-47052451D01*
X42272540Y-47052449D01*
X42265187Y-47046944D01*
X42223317Y-46991009D01*
X42215500Y-46947679D01*
X42215500Y-41127870D01*
X46759500Y-41127870D01*
X46759501Y-41127876D01*
X46765908Y-41187483D01*
X46816202Y-41322328D01*
X46816206Y-41322335D01*
X46902452Y-41437544D01*
X46902455Y-41437547D01*
X47017664Y-41523793D01*
X47017671Y-41523797D01*
X47059473Y-41539388D01*
X47152517Y-41574091D01*
X47212127Y-41580500D01*
X47510499Y-41580499D01*
X47577538Y-41600183D01*
X47623293Y-41652987D01*
X47634499Y-41704499D01*
X47634499Y-41827261D01*
X47632776Y-41842878D01*
X47633060Y-41842905D01*
X47632326Y-41850664D01*
X47634500Y-41919814D01*
X47634500Y-41949343D01*
X47634501Y-41949360D01*
X47635368Y-41956231D01*
X47635826Y-41962050D01*
X47637290Y-42008624D01*
X47637291Y-42008627D01*
X47642880Y-42027867D01*
X47646824Y-42046911D01*
X47649336Y-42066791D01*
X47666490Y-42110119D01*
X47668382Y-42115647D01*
X47681381Y-42160388D01*
X47691580Y-42177634D01*
X47700138Y-42195103D01*
X47707514Y-42213732D01*
X47734898Y-42251423D01*
X47738106Y-42256307D01*
X47761827Y-42296416D01*
X47761833Y-42296424D01*
X47775990Y-42310580D01*
X47788628Y-42325376D01*
X47800405Y-42341586D01*
X47800406Y-42341587D01*
X47836309Y-42371288D01*
X47840620Y-42375210D01*
X48167240Y-42701830D01*
X49029197Y-43563788D01*
X49039022Y-43576051D01*
X49039243Y-43575869D01*
X49044214Y-43581878D01*
X49070217Y-43606295D01*
X49094635Y-43629226D01*
X49115529Y-43650120D01*
X49121011Y-43654373D01*
X49125443Y-43658157D01*
X49159418Y-43690062D01*
X49176976Y-43699714D01*
X49193235Y-43710395D01*
X49209064Y-43722673D01*
X49251838Y-43741182D01*
X49257056Y-43743738D01*
X49297908Y-43766197D01*
X49317316Y-43771180D01*
X49335717Y-43777480D01*
X49354104Y-43785437D01*
X49397488Y-43792308D01*
X49400119Y-43792725D01*
X49405839Y-43793909D01*
X49450981Y-43805500D01*
X49471016Y-43805500D01*
X49490414Y-43807026D01*
X49510194Y-43810159D01*
X49510195Y-43810160D01*
X49510195Y-43810159D01*
X49510196Y-43810160D01*
X49556583Y-43805775D01*
X49562422Y-43805500D01*
X51124548Y-43805500D01*
X51191587Y-43825185D01*
X51212229Y-43841819D01*
X51528181Y-44157771D01*
X51561666Y-44219094D01*
X51564500Y-44245452D01*
X51564500Y-44660336D01*
X51544815Y-44727375D01*
X51492011Y-44773130D01*
X51453754Y-44783626D01*
X51432516Y-44785909D01*
X51297671Y-44836202D01*
X51297664Y-44836206D01*
X51182455Y-44922452D01*
X51182452Y-44922455D01*
X51096206Y-45037664D01*
X51096202Y-45037671D01*
X51045908Y-45172517D01*
X51039501Y-45232116D01*
X51039501Y-45232123D01*
X51039500Y-45232135D01*
X51039500Y-46627870D01*
X51039501Y-46627876D01*
X51045908Y-46687483D01*
X51096202Y-46822328D01*
X51096206Y-46822335D01*
X51182452Y-46937544D01*
X51182455Y-46937547D01*
X51297664Y-47023793D01*
X51297671Y-47023797D01*
X51432517Y-47074091D01*
X51432516Y-47074091D01*
X51439444Y-47074835D01*
X51492127Y-47080500D01*
X52887872Y-47080499D01*
X52947483Y-47074091D01*
X53082331Y-47023796D01*
X53197546Y-46937546D01*
X53240734Y-46879854D01*
X53296667Y-46837984D01*
X53366359Y-46833000D01*
X53427682Y-46866485D01*
X53439263Y-46879850D01*
X53482454Y-46937546D01*
X53520735Y-46966203D01*
X53597664Y-47023793D01*
X53597671Y-47023797D01*
X53732517Y-47074091D01*
X53732516Y-47074091D01*
X53739444Y-47074835D01*
X53792127Y-47080500D01*
X55187872Y-47080499D01*
X55247483Y-47074091D01*
X55382331Y-47023796D01*
X55497546Y-46937546D01*
X55583796Y-46822331D01*
X55634091Y-46687483D01*
X55640500Y-46627873D01*
X55640499Y-45232128D01*
X55634091Y-45172517D01*
X55583796Y-45037669D01*
X55583795Y-45037668D01*
X55583793Y-45037664D01*
X55497547Y-44922455D01*
X55497544Y-44922452D01*
X55382335Y-44836206D01*
X55382328Y-44836202D01*
X55247482Y-44785908D01*
X55247483Y-44785908D01*
X55187883Y-44779501D01*
X55187881Y-44779500D01*
X55187873Y-44779500D01*
X55187864Y-44779500D01*
X53792129Y-44779500D01*
X53792123Y-44779501D01*
X53732516Y-44785908D01*
X53597671Y-44836202D01*
X53597664Y-44836206D01*
X53482455Y-44922452D01*
X53439266Y-44980145D01*
X53383332Y-45022015D01*
X53313640Y-45026999D01*
X53252317Y-44993513D01*
X53240734Y-44980145D01*
X53219376Y-44951615D01*
X53197546Y-44922454D01*
X53197544Y-44922453D01*
X53197544Y-44922452D01*
X53082335Y-44836206D01*
X53082328Y-44836202D01*
X52947483Y-44785908D01*
X52926243Y-44783625D01*
X52861692Y-44756886D01*
X52821845Y-44699493D01*
X52815500Y-44660336D01*
X52815500Y-44017737D01*
X52817224Y-44002123D01*
X52816938Y-44002096D01*
X52817672Y-43994333D01*
X52815500Y-43925203D01*
X52815500Y-43895651D01*
X52815500Y-43895650D01*
X52814629Y-43888759D01*
X52814172Y-43882945D01*
X52813962Y-43876272D01*
X52812709Y-43836373D01*
X52807122Y-43817144D01*
X52803174Y-43798084D01*
X52802497Y-43792725D01*
X52800664Y-43778208D01*
X52783507Y-43734875D01*
X52781619Y-43729359D01*
X52768619Y-43684612D01*
X52758418Y-43667363D01*
X52749860Y-43649894D01*
X52742486Y-43631268D01*
X52742483Y-43631264D01*
X52742483Y-43631263D01*
X52715098Y-43593571D01*
X52711890Y-43588687D01*
X52688172Y-43548582D01*
X52688163Y-43548571D01*
X52674005Y-43534413D01*
X52661370Y-43519620D01*
X52649593Y-43503412D01*
X52613693Y-43473713D01*
X52609381Y-43469790D01*
X51935803Y-42796211D01*
X51925980Y-42783950D01*
X51925759Y-42784134D01*
X51920786Y-42778123D01*
X51870364Y-42730773D01*
X51859919Y-42720328D01*
X51849475Y-42709883D01*
X51843986Y-42705625D01*
X51839561Y-42701847D01*
X51805582Y-42669938D01*
X51805580Y-42669936D01*
X51805577Y-42669935D01*
X51788029Y-42660288D01*
X51771763Y-42649604D01*
X51755933Y-42637325D01*
X51713168Y-42618818D01*
X51707922Y-42616248D01*
X51667093Y-42593803D01*
X51667092Y-42593802D01*
X51647693Y-42588822D01*
X51629281Y-42582518D01*
X51610898Y-42574562D01*
X51610892Y-42574560D01*
X51564874Y-42567272D01*
X51559152Y-42566087D01*
X51514021Y-42554500D01*
X51514019Y-42554500D01*
X51493984Y-42554500D01*
X51474586Y-42552973D01*
X51467162Y-42551797D01*
X51454805Y-42549840D01*
X51454804Y-42549840D01*
X51408416Y-42554225D01*
X51402578Y-42554500D01*
X49840453Y-42554500D01*
X49773414Y-42534815D01*
X49752772Y-42518181D01*
X49026772Y-41792180D01*
X48993287Y-41730857D01*
X48998271Y-41661165D01*
X49040143Y-41605232D01*
X49105607Y-41580815D01*
X49114453Y-41580499D01*
X49307871Y-41580499D01*
X49307872Y-41580499D01*
X49367483Y-41574091D01*
X49502331Y-41523796D01*
X49617546Y-41437546D01*
X49703796Y-41322331D01*
X49754091Y-41187483D01*
X49760500Y-41127873D01*
X49760500Y-41127870D01*
X51839500Y-41127870D01*
X51839501Y-41127876D01*
X51845908Y-41187483D01*
X51896202Y-41322328D01*
X51896206Y-41322335D01*
X51982452Y-41437544D01*
X51982455Y-41437547D01*
X52097664Y-41523793D01*
X52097671Y-41523797D01*
X52139473Y-41539388D01*
X52232517Y-41574091D01*
X52292127Y-41580500D01*
X52590500Y-41580499D01*
X52657539Y-41600183D01*
X52703294Y-41652987D01*
X52714500Y-41704499D01*
X52714500Y-41827255D01*
X52712775Y-41842872D01*
X52713061Y-41842899D01*
X52712326Y-41850665D01*
X52714500Y-41919814D01*
X52714500Y-41949343D01*
X52714501Y-41949360D01*
X52715368Y-41956231D01*
X52715826Y-41962050D01*
X52717290Y-42008624D01*
X52717291Y-42008627D01*
X52722880Y-42027867D01*
X52726824Y-42046911D01*
X52729336Y-42066791D01*
X52746490Y-42110119D01*
X52748382Y-42115647D01*
X52761381Y-42160388D01*
X52771580Y-42177634D01*
X52780138Y-42195103D01*
X52787514Y-42213732D01*
X52814898Y-42251423D01*
X52818106Y-42256307D01*
X52841827Y-42296416D01*
X52841833Y-42296424D01*
X52855990Y-42310580D01*
X52868628Y-42325376D01*
X52880405Y-42341586D01*
X52880406Y-42341587D01*
X52916309Y-42371288D01*
X52920620Y-42375210D01*
X53247240Y-42701830D01*
X54109197Y-43563788D01*
X54119022Y-43576051D01*
X54119243Y-43575869D01*
X54124214Y-43581878D01*
X54150217Y-43606295D01*
X54174635Y-43629226D01*
X54195529Y-43650120D01*
X54201011Y-43654373D01*
X54205443Y-43658157D01*
X54239418Y-43690062D01*
X54256976Y-43699714D01*
X54273235Y-43710395D01*
X54289064Y-43722673D01*
X54331838Y-43741182D01*
X54337056Y-43743738D01*
X54377908Y-43766197D01*
X54397316Y-43771180D01*
X54415717Y-43777480D01*
X54434104Y-43785437D01*
X54477488Y-43792308D01*
X54480119Y-43792725D01*
X54485839Y-43793909D01*
X54530981Y-43805500D01*
X54551016Y-43805500D01*
X54570414Y-43807026D01*
X54590194Y-43810159D01*
X54590195Y-43810160D01*
X54590195Y-43810159D01*
X54590196Y-43810160D01*
X54636583Y-43805775D01*
X54642422Y-43805500D01*
X56204548Y-43805500D01*
X56271587Y-43825185D01*
X56292229Y-43841819D01*
X56608180Y-44157770D01*
X56641665Y-44219093D01*
X56644499Y-44245451D01*
X56644499Y-44660336D01*
X56624814Y-44727375D01*
X56572010Y-44773130D01*
X56533753Y-44783626D01*
X56512516Y-44785909D01*
X56377671Y-44836202D01*
X56377664Y-44836206D01*
X56262455Y-44922452D01*
X56262452Y-44922455D01*
X56176206Y-45037664D01*
X56176202Y-45037671D01*
X56125908Y-45172517D01*
X56119501Y-45232116D01*
X56119501Y-45232123D01*
X56119500Y-45232135D01*
X56119500Y-46627870D01*
X56119501Y-46627876D01*
X56125908Y-46687483D01*
X56176202Y-46822328D01*
X56176206Y-46822335D01*
X56262452Y-46937544D01*
X56262455Y-46937547D01*
X56377664Y-47023793D01*
X56377671Y-47023797D01*
X56512517Y-47074091D01*
X56512516Y-47074091D01*
X56519444Y-47074835D01*
X56572127Y-47080500D01*
X57967872Y-47080499D01*
X58027483Y-47074091D01*
X58162331Y-47023796D01*
X58277546Y-46937546D01*
X58320734Y-46879854D01*
X58376667Y-46837984D01*
X58446359Y-46833000D01*
X58507682Y-46866485D01*
X58519263Y-46879850D01*
X58562454Y-46937546D01*
X58600735Y-46966203D01*
X58677664Y-47023793D01*
X58677671Y-47023797D01*
X58812517Y-47074091D01*
X58812516Y-47074091D01*
X58819444Y-47074835D01*
X58872127Y-47080500D01*
X60267872Y-47080499D01*
X60327483Y-47074091D01*
X60462331Y-47023796D01*
X60577546Y-46937546D01*
X60663796Y-46822331D01*
X60714091Y-46687483D01*
X60720500Y-46627873D01*
X60720499Y-45232128D01*
X60714091Y-45172517D01*
X60663796Y-45037669D01*
X60663795Y-45037668D01*
X60663793Y-45037664D01*
X60577547Y-44922455D01*
X60577544Y-44922452D01*
X60462335Y-44836206D01*
X60462328Y-44836202D01*
X60327482Y-44785908D01*
X60327483Y-44785908D01*
X60267883Y-44779501D01*
X60267881Y-44779500D01*
X60267873Y-44779500D01*
X60267864Y-44779500D01*
X58872129Y-44779500D01*
X58872123Y-44779501D01*
X58812516Y-44785908D01*
X58677671Y-44836202D01*
X58677664Y-44836206D01*
X58562455Y-44922452D01*
X58519266Y-44980145D01*
X58463332Y-45022015D01*
X58393640Y-45026999D01*
X58332317Y-44993513D01*
X58320734Y-44980145D01*
X58299376Y-44951615D01*
X58277546Y-44922454D01*
X58277544Y-44922453D01*
X58277544Y-44922452D01*
X58162335Y-44836206D01*
X58162328Y-44836202D01*
X58027483Y-44785908D01*
X58006243Y-44783625D01*
X57941692Y-44756886D01*
X57901845Y-44699493D01*
X57895500Y-44660336D01*
X57895500Y-44017737D01*
X57897224Y-44002123D01*
X57896938Y-44002096D01*
X57897672Y-43994333D01*
X57895500Y-43925203D01*
X57895500Y-43895651D01*
X57895500Y-43895650D01*
X57894629Y-43888759D01*
X57894172Y-43882945D01*
X57893962Y-43876272D01*
X57892709Y-43836373D01*
X57887122Y-43817144D01*
X57883174Y-43798084D01*
X57882497Y-43792725D01*
X57880664Y-43778208D01*
X57863507Y-43734875D01*
X57861619Y-43729359D01*
X57848619Y-43684612D01*
X57838418Y-43667363D01*
X57829860Y-43649894D01*
X57822486Y-43631268D01*
X57822483Y-43631264D01*
X57822483Y-43631263D01*
X57795098Y-43593571D01*
X57791890Y-43588687D01*
X57768172Y-43548582D01*
X57768163Y-43548571D01*
X57754005Y-43534413D01*
X57741370Y-43519620D01*
X57729593Y-43503412D01*
X57693693Y-43473713D01*
X57689381Y-43469790D01*
X57015803Y-42796211D01*
X57005980Y-42783950D01*
X57005759Y-42784134D01*
X57000786Y-42778123D01*
X56950364Y-42730773D01*
X56939919Y-42720328D01*
X56929475Y-42709883D01*
X56923986Y-42705625D01*
X56919561Y-42701847D01*
X56885582Y-42669938D01*
X56885580Y-42669936D01*
X56885577Y-42669935D01*
X56868029Y-42660288D01*
X56851763Y-42649604D01*
X56835933Y-42637325D01*
X56793168Y-42618818D01*
X56787922Y-42616248D01*
X56747093Y-42593803D01*
X56747092Y-42593802D01*
X56727693Y-42588822D01*
X56709281Y-42582518D01*
X56690898Y-42574562D01*
X56690892Y-42574560D01*
X56644874Y-42567272D01*
X56639152Y-42566087D01*
X56594021Y-42554500D01*
X56594019Y-42554500D01*
X56573984Y-42554500D01*
X56554586Y-42552973D01*
X56547162Y-42551797D01*
X56534805Y-42549840D01*
X56534804Y-42549840D01*
X56488416Y-42554225D01*
X56482578Y-42554500D01*
X54920453Y-42554500D01*
X54853414Y-42534815D01*
X54832772Y-42518181D01*
X54106771Y-41792180D01*
X54073286Y-41730857D01*
X54078270Y-41661165D01*
X54120142Y-41605232D01*
X54185606Y-41580815D01*
X54194452Y-41580499D01*
X54387871Y-41580499D01*
X54387872Y-41580499D01*
X54447483Y-41574091D01*
X54582331Y-41523796D01*
X54697546Y-41437546D01*
X54783796Y-41322331D01*
X54834091Y-41187483D01*
X54840500Y-41127873D01*
X54840499Y-39732128D01*
X54834091Y-39672517D01*
X54820988Y-39637387D01*
X54783797Y-39537671D01*
X54783793Y-39537664D01*
X54697547Y-39422455D01*
X54697544Y-39422452D01*
X54582335Y-39336206D01*
X54582328Y-39336202D01*
X54447482Y-39285908D01*
X54447483Y-39285908D01*
X54387883Y-39279501D01*
X54387881Y-39279500D01*
X54387873Y-39279500D01*
X54387864Y-39279500D01*
X52292129Y-39279500D01*
X52292123Y-39279501D01*
X52232516Y-39285908D01*
X52097671Y-39336202D01*
X52097664Y-39336206D01*
X51982455Y-39422452D01*
X51982452Y-39422455D01*
X51896206Y-39537664D01*
X51896202Y-39537671D01*
X51845908Y-39672517D01*
X51842891Y-39700584D01*
X51839501Y-39732123D01*
X51839500Y-39732135D01*
X51839500Y-41127870D01*
X49760500Y-41127870D01*
X49760499Y-39732128D01*
X49754091Y-39672517D01*
X49740988Y-39637387D01*
X49703797Y-39537671D01*
X49703793Y-39537664D01*
X49617547Y-39422455D01*
X49617544Y-39422452D01*
X49502335Y-39336206D01*
X49502328Y-39336202D01*
X49367482Y-39285908D01*
X49367483Y-39285908D01*
X49307883Y-39279501D01*
X49307881Y-39279500D01*
X49307873Y-39279500D01*
X49307864Y-39279500D01*
X47212129Y-39279500D01*
X47212123Y-39279501D01*
X47152516Y-39285908D01*
X47017671Y-39336202D01*
X47017664Y-39336206D01*
X46902455Y-39422452D01*
X46902452Y-39422455D01*
X46816206Y-39537664D01*
X46816202Y-39537671D01*
X46765908Y-39672517D01*
X46762891Y-39700584D01*
X46759501Y-39732123D01*
X46759500Y-39732135D01*
X46759500Y-41127870D01*
X42215500Y-41127870D01*
X42215500Y-39920242D01*
X42217224Y-39904622D01*
X42216939Y-39904596D01*
X42217671Y-39896840D01*
X42217673Y-39896833D01*
X42215500Y-39827685D01*
X42215500Y-39798150D01*
X42214631Y-39791272D01*
X42214172Y-39785443D01*
X42212709Y-39738872D01*
X42207122Y-39719644D01*
X42203174Y-39700584D01*
X42200663Y-39680704D01*
X42183512Y-39637387D01*
X42181619Y-39631858D01*
X42168618Y-39587109D01*
X42168616Y-39587106D01*
X42158423Y-39569871D01*
X42149861Y-39552394D01*
X42142487Y-39533770D01*
X42142486Y-39533768D01*
X42115079Y-39496045D01*
X42111888Y-39491186D01*
X42088172Y-39451083D01*
X42088165Y-39451074D01*
X42074006Y-39436915D01*
X42061368Y-39422119D01*
X42049594Y-39405913D01*
X42013688Y-39376209D01*
X42009376Y-39372286D01*
X41651819Y-39014728D01*
X41618334Y-38953405D01*
X41615500Y-38927047D01*
X41615500Y-38620831D01*
X41615499Y-38620818D01*
X41605436Y-38522316D01*
X41605436Y-38522315D01*
X41552549Y-38362713D01*
X41552545Y-38362707D01*
X41552544Y-38362704D01*
X41464283Y-38219612D01*
X41464280Y-38219608D01*
X41432353Y-38187681D01*
X41398868Y-38126358D01*
X41403852Y-38056666D01*
X41432353Y-38012319D01*
X41469388Y-37975284D01*
X41471471Y-37977367D01*
X41517584Y-37944714D01*
X41557832Y-37938000D01*
X51187257Y-37938000D01*
X51202877Y-37939724D01*
X51202904Y-37939439D01*
X51210660Y-37940171D01*
X51210667Y-37940173D01*
X51279814Y-37938000D01*
X51309350Y-37938000D01*
X51316228Y-37937130D01*
X51322041Y-37936672D01*
X51368627Y-37935209D01*
X51387869Y-37929617D01*
X51406912Y-37925674D01*
X51426792Y-37923164D01*
X51470122Y-37906007D01*
X51475646Y-37904117D01*
X51479396Y-37903027D01*
X51520390Y-37891118D01*
X51537629Y-37880922D01*
X51555103Y-37872362D01*
X51573727Y-37864988D01*
X51573727Y-37864987D01*
X51573732Y-37864986D01*
X51611449Y-37837582D01*
X51616305Y-37834392D01*
X51656420Y-37810670D01*
X51670589Y-37796499D01*
X51685379Y-37783868D01*
X51701587Y-37772094D01*
X51731299Y-37736176D01*
X51735212Y-37731876D01*
X53723788Y-35743301D01*
X53736042Y-35733486D01*
X53735859Y-35733264D01*
X53741866Y-35728292D01*
X53741877Y-35728286D01*
X53772775Y-35695382D01*
X53789227Y-35677864D01*
X53799671Y-35667418D01*
X53810120Y-35656971D01*
X53814379Y-35651478D01*
X53818152Y-35647061D01*
X53850062Y-35613082D01*
X53859715Y-35595520D01*
X53870389Y-35579270D01*
X53882673Y-35563436D01*
X53901180Y-35520667D01*
X53903749Y-35515424D01*
X53926196Y-35474593D01*
X53926197Y-35474592D01*
X53931177Y-35455191D01*
X53937478Y-35436788D01*
X53945438Y-35418396D01*
X53952730Y-35372349D01*
X53953911Y-35366652D01*
X53965500Y-35321519D01*
X53965500Y-35301482D01*
X53967027Y-35282082D01*
X53970160Y-35262304D01*
X53965775Y-35215915D01*
X53965500Y-35210077D01*
X53965500Y-31954499D01*
X53985185Y-31887460D01*
X54037989Y-31841705D01*
X54089500Y-31830499D01*
X54237871Y-31830499D01*
X54237872Y-31830499D01*
X54297483Y-31824091D01*
X54432331Y-31773796D01*
X54547546Y-31687546D01*
X54633796Y-31572331D01*
X54684091Y-31437483D01*
X54690500Y-31377873D01*
X54690499Y-29582128D01*
X54684091Y-29522517D01*
X54682810Y-29519083D01*
X54633797Y-29387671D01*
X54633793Y-29387664D01*
X54547547Y-29272455D01*
X54547544Y-29272452D01*
X54432335Y-29186206D01*
X54432328Y-29186202D01*
X54297482Y-29135908D01*
X54297483Y-29135908D01*
X54237883Y-29129501D01*
X54237881Y-29129500D01*
X54237873Y-29129500D01*
X54237864Y-29129500D01*
X52442129Y-29129500D01*
X52442123Y-29129501D01*
X52382516Y-29135908D01*
X52247671Y-29186202D01*
X52247664Y-29186206D01*
X52132455Y-29272452D01*
X52132452Y-29272455D01*
X52046206Y-29387664D01*
X52046203Y-29387669D01*
X51997189Y-29519083D01*
X51955317Y-29575016D01*
X51889853Y-29599433D01*
X51821580Y-29584581D01*
X51793326Y-29563430D01*
X51671402Y-29441506D01*
X51671395Y-29441501D01*
X51477834Y-29305967D01*
X51477830Y-29305965D01*
X51477828Y-29305964D01*
X51263663Y-29206097D01*
X51263659Y-29206096D01*
X51263655Y-29206094D01*
X51035413Y-29144938D01*
X51035403Y-29144936D01*
X50800001Y-29124341D01*
X50799999Y-29124341D01*
X50564596Y-29144936D01*
X50564586Y-29144938D01*
X50336344Y-29206094D01*
X50336335Y-29206098D01*
X50122171Y-29305964D01*
X50122169Y-29305965D01*
X49928597Y-29441505D01*
X49761505Y-29608597D01*
X49626348Y-29801623D01*
X49571771Y-29845248D01*
X49524773Y-29854500D01*
X44654499Y-29854500D01*
X44587460Y-29834815D01*
X44541705Y-29782011D01*
X44530499Y-29730500D01*
X44530499Y-29582129D01*
X44530498Y-29582123D01*
X44524091Y-29522516D01*
X44473797Y-29387671D01*
X44473793Y-29387664D01*
X44387547Y-29272455D01*
X44387544Y-29272452D01*
X44272335Y-29186206D01*
X44272328Y-29186202D01*
X44137482Y-29135908D01*
X44137483Y-29135908D01*
X44077883Y-29129501D01*
X44077881Y-29129500D01*
X44077873Y-29129500D01*
X44077864Y-29129500D01*
X42282129Y-29129500D01*
X42282123Y-29129501D01*
X42222516Y-29135908D01*
X42087671Y-29186202D01*
X42087664Y-29186206D01*
X41972455Y-29272452D01*
X41972452Y-29272455D01*
X41886206Y-29387664D01*
X41886203Y-29387669D01*
X41837189Y-29519083D01*
X41795317Y-29575016D01*
X41729853Y-29599433D01*
X41661580Y-29584581D01*
X41633326Y-29563430D01*
X41511402Y-29441506D01*
X41511395Y-29441501D01*
X41317834Y-29305967D01*
X41317830Y-29305965D01*
X41317830Y-29305964D01*
X41103663Y-29206097D01*
X41103659Y-29206096D01*
X41103655Y-29206094D01*
X40875413Y-29144938D01*
X40875403Y-29144936D01*
X40640001Y-29124341D01*
X40639999Y-29124341D01*
X40404596Y-29144936D01*
X40404586Y-29144938D01*
X40176344Y-29206094D01*
X40176335Y-29206098D01*
X39962171Y-29305964D01*
X39962169Y-29305965D01*
X39768597Y-29441505D01*
X39601506Y-29608596D01*
X39553874Y-29676623D01*
X39499297Y-29720248D01*
X39452299Y-29729500D01*
X34207701Y-29729500D01*
X34140662Y-29709815D01*
X34106126Y-29676623D01*
X34058494Y-29608597D01*
X33891402Y-29441506D01*
X33891395Y-29441501D01*
X33697834Y-29305967D01*
X33697830Y-29305965D01*
X33697830Y-29305964D01*
X33483663Y-29206097D01*
X33483659Y-29206096D01*
X33483655Y-29206094D01*
X33255413Y-29144938D01*
X33255403Y-29144936D01*
X33020001Y-29124341D01*
X33019999Y-29124341D01*
X32784596Y-29144936D01*
X32784586Y-29144938D01*
X32556344Y-29206094D01*
X32556335Y-29206098D01*
X32342171Y-29305964D01*
X32342169Y-29305965D01*
X32148597Y-29441505D01*
X31981505Y-29608597D01*
X31845965Y-29802169D01*
X31845964Y-29802171D01*
X31746098Y-30016335D01*
X31746094Y-30016344D01*
X31684938Y-30244586D01*
X31684936Y-30244596D01*
X31664341Y-30479999D01*
X31664341Y-30480000D01*
X25600500Y-30480000D01*
X25600500Y-25724500D01*
X25620185Y-25657461D01*
X25672989Y-25611706D01*
X25724500Y-25600500D01*
X65715500Y-25600500D01*
X65782539Y-25620185D01*
G37*
%TD.AperFunction*%
%TD*%
M02*
