%TF.GenerationSoftware,KiCad,Pcbnew,8.0.2*%
%TF.CreationDate,2024-07-16T23:04:40+08:00*%
%TF.ProjectId,ch9350,63683933-3530-42e6-9b69-6361645f7063,rev?*%
%TF.SameCoordinates,Original*%
%TF.FileFunction,Legend,Top*%
%TF.FilePolarity,Positive*%
%FSLAX46Y46*%
G04 Gerber Fmt 4.6, Leading zero omitted, Abs format (unit mm)*
G04 Created by KiCad (PCBNEW 8.0.2) date 2024-07-16 23:04:40*
%MOMM*%
%LPD*%
G01*
G04 APERTURE LIST*
G04 Aperture macros list*
%AMRoundRect*
0 Rectangle with rounded corners*
0 $1 Rounding radius*
0 $2 $3 $4 $5 $6 $7 $8 $9 X,Y pos of 4 corners*
0 Add a 4 corners polygon primitive as box body*
4,1,4,$2,$3,$4,$5,$6,$7,$8,$9,$2,$3,0*
0 Add four circle primitives for the rounded corners*
1,1,$1+$1,$2,$3*
1,1,$1+$1,$4,$5*
1,1,$1+$1,$6,$7*
1,1,$1+$1,$8,$9*
0 Add four rect primitives between the rounded corners*
20,1,$1+$1,$2,$3,$4,$5,0*
20,1,$1+$1,$4,$5,$6,$7,0*
20,1,$1+$1,$6,$7,$8,$9,0*
20,1,$1+$1,$8,$9,$2,$3,0*%
%AMHorizOval*
0 Thick line with rounded ends*
0 $1 width*
0 $2 $3 position (X,Y) of the first rounded end (center of the circle)*
0 $4 $5 position (X,Y) of the second rounded end (center of the circle)*
0 Add line between two ends*
20,1,$1,$2,$3,$4,$5,0*
0 Add two circle primitives to create the rounded ends*
1,1,$1,$2,$3*
1,1,$1,$4,$5*%
%AMRotRect*
0 Rectangle, with rotation*
0 The origin of the aperture is its center*
0 $1 length*
0 $2 width*
0 $3 Rotation angle, in degrees counterclockwise*
0 Add horizontal line*
21,1,$1,$2,0,0,$3*%
G04 Aperture macros list end*
%ADD10C,0.153000*%
%ADD11C,0.150000*%
%ADD12C,0.120000*%
%ADD13RoundRect,0.218750X-0.218750X-0.256250X0.218750X-0.256250X0.218750X0.256250X-0.218750X0.256250X0*%
%ADD14RotRect,1.700000X1.700000X225.000000*%
%ADD15HorizOval,1.700000X0.000000X0.000000X0.000000X0.000000X0*%
%ADD16RoundRect,0.150000X-0.587500X-0.150000X0.587500X-0.150000X0.587500X0.150000X-0.587500X0.150000X0*%
%ADD17RoundRect,0.140000X-0.021213X0.219203X-0.219203X0.021213X0.021213X-0.219203X0.219203X-0.021213X0*%
%ADD18RotRect,1.700000X1.700000X135.000000*%
%ADD19HorizOval,1.700000X0.000000X0.000000X0.000000X0.000000X0*%
%ADD20RoundRect,0.075000X-0.415425X-0.521491X0.521491X0.415425X0.415425X0.521491X-0.521491X-0.415425X0*%
%ADD21RoundRect,0.075000X0.415425X-0.521491X0.521491X-0.415425X-0.415425X0.521491X-0.521491X0.415425X0*%
%ADD22RotRect,1.700000X1.700000X315.000000*%
%ADD23HorizOval,1.700000X0.000000X0.000000X0.000000X0.000000X0*%
%ADD24RoundRect,0.135000X0.185000X-0.135000X0.185000X0.135000X-0.185000X0.135000X-0.185000X-0.135000X0*%
%ADD25RoundRect,0.135000X0.135000X0.185000X-0.135000X0.185000X-0.135000X-0.185000X0.135000X-0.185000X0*%
%ADD26RoundRect,0.075000X-0.521491X0.415425X0.415425X-0.521491X0.521491X-0.415425X-0.415425X0.521491X0*%
%ADD27RoundRect,0.075000X-0.521491X-0.415425X-0.415425X-0.521491X0.521491X0.415425X0.415425X0.521491X0*%
%ADD28RoundRect,0.140000X-0.140000X-0.170000X0.140000X-0.170000X0.140000X0.170000X-0.140000X0.170000X0*%
%ADD29R,1.000000X0.750000*%
%ADD30RoundRect,0.140000X0.021213X-0.219203X0.219203X-0.021213X-0.021213X0.219203X-0.219203X0.021213X0*%
%ADD31RoundRect,0.135000X-0.185000X0.135000X-0.185000X-0.135000X0.185000X-0.135000X0.185000X0.135000X0*%
%ADD32RotRect,1.700000X1.700000X45.000000*%
%ADD33HorizOval,1.700000X0.000000X0.000000X0.000000X0.000000X0*%
%ADD34RoundRect,0.140000X0.140000X0.170000X-0.140000X0.170000X-0.140000X-0.170000X0.140000X-0.170000X0*%
%ADD35R,1.500000X1.500000*%
%ADD36C,1.500000*%
%ADD37C,3.500000*%
%ADD38C,0.650000*%
%ADD39R,0.600000X1.450000*%
%ADD40R,0.300000X1.450000*%
%ADD41O,1.000000X2.100000*%
%ADD42O,1.000000X1.600000*%
G04 APERTURE END LIST*
D10*
X146367500Y-71755000D02*
X143025005Y-70553947D01*
X144462500Y-73342500D02*
X141867677Y-71704212D01*
X142557500Y-75247500D02*
X140722289Y-72874321D01*
X140970000Y-77152500D02*
X139568661Y-74036190D01*
X139065000Y-78740000D02*
X138398552Y-75181578D01*
X138095858Y-65425220D02*
X138164279Y-65562062D01*
X138164279Y-65562062D02*
X138164279Y-65630483D01*
X138164279Y-65630483D02*
X138130069Y-65733114D01*
X138130069Y-65733114D02*
X138027437Y-65835746D01*
X138027437Y-65835746D02*
X137924806Y-65869956D01*
X137924806Y-65869956D02*
X137856385Y-65869956D01*
X137856385Y-65869956D02*
X137753753Y-65835746D01*
X137753753Y-65835746D02*
X137480069Y-65562062D01*
X137480069Y-65562062D02*
X138198490Y-64843641D01*
X138198490Y-64843641D02*
X138437963Y-65083115D01*
X138437963Y-65083115D02*
X138472174Y-65185746D01*
X138472174Y-65185746D02*
X138472174Y-65254167D01*
X138472174Y-65254167D02*
X138437963Y-65356799D01*
X138437963Y-65356799D02*
X138369542Y-65425220D01*
X138369542Y-65425220D02*
X138266911Y-65459430D01*
X138266911Y-65459430D02*
X138198490Y-65459430D01*
X138198490Y-65459430D02*
X138095858Y-65425220D01*
X138095858Y-65425220D02*
X137856385Y-65185746D01*
X138369542Y-66041009D02*
X138711647Y-66383114D01*
X138095858Y-66177851D02*
X139053752Y-65698904D01*
X139053752Y-65698904D02*
X138574805Y-66656798D01*
X139532699Y-66177851D02*
X138951121Y-66759429D01*
X138951121Y-66759429D02*
X138916910Y-66862061D01*
X138916910Y-66862061D02*
X138916910Y-66930482D01*
X138916910Y-66930482D02*
X138951121Y-67033113D01*
X138951121Y-67033113D02*
X139087963Y-67169955D01*
X139087963Y-67169955D02*
X139190594Y-67204166D01*
X139190594Y-67204166D02*
X139259015Y-67204166D01*
X139259015Y-67204166D02*
X139361647Y-67169955D01*
X139361647Y-67169955D02*
X139943225Y-66588377D01*
X139566910Y-67648902D02*
X140285330Y-66930482D01*
X140285330Y-66930482D02*
X140456383Y-67101534D01*
X140456383Y-67101534D02*
X140524804Y-67238376D01*
X140524804Y-67238376D02*
X140524804Y-67375218D01*
X140524804Y-67375218D02*
X140490593Y-67477850D01*
X140490593Y-67477850D02*
X140387962Y-67648902D01*
X140387962Y-67648902D02*
X140285330Y-67751534D01*
X140285330Y-67751534D02*
X140114278Y-67854165D01*
X140114278Y-67854165D02*
X140011646Y-67888376D01*
X140011646Y-67888376D02*
X139874804Y-67888376D01*
X139874804Y-67888376D02*
X139737962Y-67819955D01*
X139737962Y-67819955D02*
X139566910Y-67648902D01*
X140661646Y-68743638D02*
X140251120Y-68333112D01*
X140456383Y-68538375D02*
X141174803Y-67819955D01*
X141174803Y-67819955D02*
X141003751Y-67854165D01*
X141003751Y-67854165D02*
X140866909Y-67854165D01*
X140866909Y-67854165D02*
X140764277Y-67819955D01*
X141277435Y-69359427D02*
X141653750Y-68983112D01*
X141653750Y-68983112D02*
X141687961Y-68880480D01*
X141687961Y-68880480D02*
X141653750Y-68777849D01*
X141653750Y-68777849D02*
X141516908Y-68641007D01*
X141516908Y-68641007D02*
X141414277Y-68606796D01*
X141311645Y-69325217D02*
X141209014Y-69291006D01*
X141209014Y-69291006D02*
X141037961Y-69119954D01*
X141037961Y-69119954D02*
X141003751Y-69017322D01*
X141003751Y-69017322D02*
X141037961Y-68914691D01*
X141037961Y-68914691D02*
X141106382Y-68846270D01*
X141106382Y-68846270D02*
X141209014Y-68812059D01*
X141209014Y-68812059D02*
X141311645Y-68846270D01*
X141311645Y-68846270D02*
X141482698Y-69017322D01*
X141482698Y-69017322D02*
X141585329Y-69051533D01*
X142440591Y-69975216D02*
X142987959Y-70522584D01*
X136939241Y-66581837D02*
X137007662Y-66718679D01*
X137007662Y-66718679D02*
X137007662Y-66787100D01*
X137007662Y-66787100D02*
X136973452Y-66889731D01*
X136973452Y-66889731D02*
X136870820Y-66992363D01*
X136870820Y-66992363D02*
X136768189Y-67026573D01*
X136768189Y-67026573D02*
X136699768Y-67026573D01*
X136699768Y-67026573D02*
X136597136Y-66992363D01*
X136597136Y-66992363D02*
X136323452Y-66718679D01*
X136323452Y-66718679D02*
X137041873Y-66000258D01*
X137041873Y-66000258D02*
X137281346Y-66239732D01*
X137281346Y-66239732D02*
X137315557Y-66342363D01*
X137315557Y-66342363D02*
X137315557Y-66410784D01*
X137315557Y-66410784D02*
X137281346Y-66513416D01*
X137281346Y-66513416D02*
X137212925Y-66581837D01*
X137212925Y-66581837D02*
X137110294Y-66616047D01*
X137110294Y-66616047D02*
X137041873Y-66616047D01*
X137041873Y-66616047D02*
X136939241Y-66581837D01*
X136939241Y-66581837D02*
X136699768Y-66342363D01*
X137212925Y-67197626D02*
X137555030Y-67539731D01*
X136939241Y-67334468D02*
X137897135Y-66855521D01*
X137897135Y-66855521D02*
X137418188Y-67813415D01*
X138376082Y-67334468D02*
X137794504Y-67916046D01*
X137794504Y-67916046D02*
X137760293Y-68018678D01*
X137760293Y-68018678D02*
X137760293Y-68087099D01*
X137760293Y-68087099D02*
X137794504Y-68189730D01*
X137794504Y-68189730D02*
X137931346Y-68326572D01*
X137931346Y-68326572D02*
X138033977Y-68360783D01*
X138033977Y-68360783D02*
X138102398Y-68360783D01*
X138102398Y-68360783D02*
X138205030Y-68326572D01*
X138205030Y-68326572D02*
X138786608Y-67744994D01*
X138410293Y-68805519D02*
X139128713Y-68087099D01*
X139128713Y-68087099D02*
X139299766Y-68258151D01*
X139299766Y-68258151D02*
X139368187Y-68394993D01*
X139368187Y-68394993D02*
X139368187Y-68531835D01*
X139368187Y-68531835D02*
X139333976Y-68634467D01*
X139333976Y-68634467D02*
X139231345Y-68805519D01*
X139231345Y-68805519D02*
X139128713Y-68908151D01*
X139128713Y-68908151D02*
X138957661Y-69010782D01*
X138957661Y-69010782D02*
X138855029Y-69044993D01*
X138855029Y-69044993D02*
X138718187Y-69044993D01*
X138718187Y-69044993D02*
X138581345Y-68976572D01*
X138581345Y-68976572D02*
X138410293Y-68805519D01*
X139983976Y-68942361D02*
X140052397Y-69010782D01*
X140052397Y-69010782D02*
X140086607Y-69113414D01*
X140086607Y-69113414D02*
X140086607Y-69181835D01*
X140086607Y-69181835D02*
X140052397Y-69284466D01*
X140052397Y-69284466D02*
X139949765Y-69455519D01*
X139949765Y-69455519D02*
X139778713Y-69626571D01*
X139778713Y-69626571D02*
X139607660Y-69729203D01*
X139607660Y-69729203D02*
X139505029Y-69763413D01*
X139505029Y-69763413D02*
X139436608Y-69763413D01*
X139436608Y-69763413D02*
X139333976Y-69729203D01*
X139333976Y-69729203D02*
X139265555Y-69660782D01*
X139265555Y-69660782D02*
X139231345Y-69558150D01*
X139231345Y-69558150D02*
X139231345Y-69489729D01*
X139231345Y-69489729D02*
X139265555Y-69387098D01*
X139265555Y-69387098D02*
X139368187Y-69216045D01*
X139368187Y-69216045D02*
X139539239Y-69044993D01*
X139539239Y-69044993D02*
X139710292Y-68942361D01*
X139710292Y-68942361D02*
X139812923Y-68908151D01*
X139812923Y-68908151D02*
X139881344Y-68908151D01*
X139881344Y-68908151D02*
X139983976Y-68942361D01*
X140120818Y-70516044D02*
X140497133Y-70139729D01*
X140497133Y-70139729D02*
X140531344Y-70037097D01*
X140531344Y-70037097D02*
X140497133Y-69934466D01*
X140497133Y-69934466D02*
X140360291Y-69797624D01*
X140360291Y-69797624D02*
X140257660Y-69763413D01*
X140155028Y-70481834D02*
X140052397Y-70447623D01*
X140052397Y-70447623D02*
X139881344Y-70276571D01*
X139881344Y-70276571D02*
X139847134Y-70173939D01*
X139847134Y-70173939D02*
X139881344Y-70071308D01*
X139881344Y-70071308D02*
X139949765Y-70002887D01*
X139949765Y-70002887D02*
X140052397Y-69968676D01*
X140052397Y-69968676D02*
X140155028Y-70002887D01*
X140155028Y-70002887D02*
X140326081Y-70173939D01*
X140326081Y-70173939D02*
X140428712Y-70208150D01*
X141283974Y-71131833D02*
X141831342Y-71679201D01*
X136501045Y-67772664D02*
X136022098Y-68730558D01*
X136022098Y-68730558D02*
X136979992Y-68251611D01*
X137116834Y-69072663D02*
X137185255Y-69209505D01*
X137185255Y-69209505D02*
X137185255Y-69277926D01*
X137185255Y-69277926D02*
X137151044Y-69380558D01*
X137151044Y-69380558D02*
X137048413Y-69483189D01*
X137048413Y-69483189D02*
X136945781Y-69517400D01*
X136945781Y-69517400D02*
X136877360Y-69517400D01*
X136877360Y-69517400D02*
X136774729Y-69483189D01*
X136774729Y-69483189D02*
X136501045Y-69209505D01*
X136501045Y-69209505D02*
X137219465Y-68491085D01*
X137219465Y-68491085D02*
X137458939Y-68730558D01*
X137458939Y-68730558D02*
X137493149Y-68833190D01*
X137493149Y-68833190D02*
X137493149Y-68901611D01*
X137493149Y-68901611D02*
X137458939Y-69004242D01*
X137458939Y-69004242D02*
X137390518Y-69072663D01*
X137390518Y-69072663D02*
X137287886Y-69106874D01*
X137287886Y-69106874D02*
X137219465Y-69106874D01*
X137219465Y-69106874D02*
X137116834Y-69072663D01*
X137116834Y-69072663D02*
X136877360Y-68833190D01*
X137937886Y-69209505D02*
X137356307Y-69791084D01*
X137356307Y-69791084D02*
X137322097Y-69893715D01*
X137322097Y-69893715D02*
X137322097Y-69962136D01*
X137322097Y-69962136D02*
X137356307Y-70064768D01*
X137356307Y-70064768D02*
X137493149Y-70201610D01*
X137493149Y-70201610D02*
X137595781Y-70235820D01*
X137595781Y-70235820D02*
X137664202Y-70235820D01*
X137664202Y-70235820D02*
X137766833Y-70201610D01*
X137766833Y-70201610D02*
X138348412Y-69620031D01*
X137972096Y-70612136D02*
X138040517Y-70748978D01*
X138040517Y-70748978D02*
X138211570Y-70920030D01*
X138211570Y-70920030D02*
X138314201Y-70954241D01*
X138314201Y-70954241D02*
X138382622Y-70954241D01*
X138382622Y-70954241D02*
X138485254Y-70920030D01*
X138485254Y-70920030D02*
X138553675Y-70851609D01*
X138553675Y-70851609D02*
X138587885Y-70748978D01*
X138587885Y-70748978D02*
X138587885Y-70680557D01*
X138587885Y-70680557D02*
X138553675Y-70577925D01*
X138553675Y-70577925D02*
X138451043Y-70406873D01*
X138451043Y-70406873D02*
X138416833Y-70304241D01*
X138416833Y-70304241D02*
X138416833Y-70235820D01*
X138416833Y-70235820D02*
X138451043Y-70133189D01*
X138451043Y-70133189D02*
X138519464Y-70064768D01*
X138519464Y-70064768D02*
X138622096Y-70030557D01*
X138622096Y-70030557D02*
X138690517Y-70030557D01*
X138690517Y-70030557D02*
X138793148Y-70064768D01*
X138793148Y-70064768D02*
X138964201Y-70235820D01*
X138964201Y-70235820D02*
X139032622Y-70372662D01*
X138964201Y-71672661D02*
X139340516Y-71296346D01*
X139340516Y-71296346D02*
X139374727Y-71193714D01*
X139374727Y-71193714D02*
X139340516Y-71091083D01*
X139340516Y-71091083D02*
X139203674Y-70954241D01*
X139203674Y-70954241D02*
X139101043Y-70920030D01*
X138998411Y-71638451D02*
X138895780Y-71604240D01*
X138895780Y-71604240D02*
X138724727Y-71433188D01*
X138724727Y-71433188D02*
X138690517Y-71330556D01*
X138690517Y-71330556D02*
X138724727Y-71227925D01*
X138724727Y-71227925D02*
X138793148Y-71159504D01*
X138793148Y-71159504D02*
X138895780Y-71125293D01*
X138895780Y-71125293D02*
X138998411Y-71159504D01*
X138998411Y-71159504D02*
X139169464Y-71330556D01*
X139169464Y-71330556D02*
X139272095Y-71364767D01*
X140127357Y-72288450D02*
X140674725Y-72835818D01*
X136062848Y-69647702D02*
X135583901Y-70605596D01*
X135583901Y-70605596D02*
X136541795Y-70126649D01*
X136062848Y-71084543D02*
X136781269Y-70366122D01*
X136781269Y-70366122D02*
X136952321Y-70537175D01*
X136952321Y-70537175D02*
X137020742Y-70674017D01*
X137020742Y-70674017D02*
X137020742Y-70810859D01*
X137020742Y-70810859D02*
X136986532Y-70913490D01*
X136986532Y-70913490D02*
X136883900Y-71084543D01*
X136883900Y-71084543D02*
X136781269Y-71187174D01*
X136781269Y-71187174D02*
X136610216Y-71289806D01*
X136610216Y-71289806D02*
X136507585Y-71324016D01*
X136507585Y-71324016D02*
X136370743Y-71324016D01*
X136370743Y-71324016D02*
X136233901Y-71255595D01*
X136233901Y-71255595D02*
X136062848Y-71084543D01*
X136781269Y-71802963D02*
X137499689Y-71084543D01*
X137499689Y-71084543D02*
X137670742Y-71255595D01*
X137670742Y-71255595D02*
X137739163Y-71392437D01*
X137739163Y-71392437D02*
X137739163Y-71529279D01*
X137739163Y-71529279D02*
X137704952Y-71631911D01*
X137704952Y-71631911D02*
X137602321Y-71802963D01*
X137602321Y-71802963D02*
X137499689Y-71905595D01*
X137499689Y-71905595D02*
X137328637Y-72008226D01*
X137328637Y-72008226D02*
X137226005Y-72042437D01*
X137226005Y-72042437D02*
X137089163Y-72042437D01*
X137089163Y-72042437D02*
X136952321Y-71974016D01*
X136952321Y-71974016D02*
X136781269Y-71802963D01*
X137807584Y-72829278D02*
X138183899Y-72452963D01*
X138183899Y-72452963D02*
X138218110Y-72350331D01*
X138218110Y-72350331D02*
X138183899Y-72247700D01*
X138183899Y-72247700D02*
X138047057Y-72110858D01*
X138047057Y-72110858D02*
X137944426Y-72076647D01*
X137841794Y-72795068D02*
X137739163Y-72760857D01*
X137739163Y-72760857D02*
X137568110Y-72589805D01*
X137568110Y-72589805D02*
X137533900Y-72487173D01*
X137533900Y-72487173D02*
X137568110Y-72384542D01*
X137568110Y-72384542D02*
X137636531Y-72316121D01*
X137636531Y-72316121D02*
X137739163Y-72281910D01*
X137739163Y-72281910D02*
X137841794Y-72316121D01*
X137841794Y-72316121D02*
X138012847Y-72487173D01*
X138012847Y-72487173D02*
X138115478Y-72521384D01*
X138970740Y-73445067D02*
X139518108Y-73992435D01*
X134427284Y-71693792D02*
X134495705Y-71830634D01*
X134495705Y-71830634D02*
X134666758Y-72001686D01*
X134666758Y-72001686D02*
X134769389Y-72035897D01*
X134769389Y-72035897D02*
X134837810Y-72035897D01*
X134837810Y-72035897D02*
X134940442Y-72001686D01*
X134940442Y-72001686D02*
X135008863Y-71933265D01*
X135008863Y-71933265D02*
X135043073Y-71830634D01*
X135043073Y-71830634D02*
X135043073Y-71762213D01*
X135043073Y-71762213D02*
X135008863Y-71659581D01*
X135008863Y-71659581D02*
X134906231Y-71488529D01*
X134906231Y-71488529D02*
X134872021Y-71385897D01*
X134872021Y-71385897D02*
X134872021Y-71317476D01*
X134872021Y-71317476D02*
X134906231Y-71214845D01*
X134906231Y-71214845D02*
X134974652Y-71146424D01*
X134974652Y-71146424D02*
X135077284Y-71112213D01*
X135077284Y-71112213D02*
X135145705Y-71112213D01*
X135145705Y-71112213D02*
X135248336Y-71146424D01*
X135248336Y-71146424D02*
X135419389Y-71317476D01*
X135419389Y-71317476D02*
X135487810Y-71454318D01*
X135487810Y-72070107D02*
X135727283Y-72309581D01*
X135453599Y-72788528D02*
X135111494Y-72446423D01*
X135111494Y-72446423D02*
X135829915Y-71728002D01*
X135829915Y-71728002D02*
X136172020Y-72070107D01*
X136103599Y-73438527D02*
X135761494Y-73096422D01*
X135761494Y-73096422D02*
X136479914Y-72378002D01*
X136650967Y-73985895D02*
X137027282Y-73609580D01*
X137027282Y-73609580D02*
X137061493Y-73506948D01*
X137061493Y-73506948D02*
X137027282Y-73404317D01*
X137027282Y-73404317D02*
X136890440Y-73267475D01*
X136890440Y-73267475D02*
X136787809Y-73233264D01*
X136685177Y-73951685D02*
X136582546Y-73917474D01*
X136582546Y-73917474D02*
X136411493Y-73746422D01*
X136411493Y-73746422D02*
X136377283Y-73643790D01*
X136377283Y-73643790D02*
X136411493Y-73541159D01*
X136411493Y-73541159D02*
X136479914Y-73472738D01*
X136479914Y-73472738D02*
X136582546Y-73438527D01*
X136582546Y-73438527D02*
X136685177Y-73472738D01*
X136685177Y-73472738D02*
X136856230Y-73643790D01*
X136856230Y-73643790D02*
X136958861Y-73678001D01*
X137814123Y-74601684D02*
X138361491Y-75149052D01*
X155892500Y-132397500D02*
X158752452Y-133432857D01*
X162560000Y-78740000D02*
X165158476Y-76692927D01*
X147002500Y-107950000D02*
X143697223Y-106357367D01*
X149860000Y-99060000D02*
X140105764Y-97343314D01*
X161290000Y-111125000D02*
X163770824Y-108752634D01*
X140017500Y-125095000D02*
X139088274Y-128054120D01*
X159385000Y-128905000D02*
X161055600Y-131113080D01*
X164465000Y-80327500D02*
X166311321Y-77854767D01*
X166370000Y-82232500D02*
X167482296Y-78998027D01*
X157797500Y-90805000D02*
X160558279Y-92597289D01*
X163195000Y-112712500D02*
X164946157Y-109880638D01*
X137795000Y-117157500D02*
X137932067Y-112169701D01*
X159385000Y-109220000D02*
X162600090Y-107591735D01*
X138112500Y-123190000D02*
X137911126Y-126913080D01*
X156210000Y-92710000D02*
X159381130Y-93731107D01*
X137811619Y-95003414D02*
X146050000Y-95250000D01*
X150495000Y-104457500D02*
X145999511Y-104045643D01*
X141605000Y-113665000D02*
X140243791Y-109876849D01*
X132025704Y-89251468D02*
X137160000Y-86360000D01*
X161607500Y-87312500D02*
X162869246Y-90286322D01*
X139700000Y-115252500D02*
X139092646Y-111009121D01*
X135467814Y-92716223D02*
X142557500Y-91757500D01*
X161290000Y-127317500D02*
X162235817Y-129971109D01*
X163195000Y-85407500D02*
X164031951Y-89138060D01*
X154305000Y-94297500D02*
X158240090Y-94908256D01*
X157797500Y-107315000D02*
X161456310Y-106428234D01*
X147002500Y-132080000D02*
X143699107Y-132697162D01*
X148590000Y-106362500D02*
X144876674Y-105206223D01*
X143510000Y-128587500D02*
X141392020Y-130379531D01*
X143192500Y-111760000D02*
X141423241Y-108716269D01*
X145097500Y-109855000D02*
X142546079Y-107527382D01*
X136622732Y-93848496D02*
X144462500Y-93662500D01*
X157797500Y-130810000D02*
X159899869Y-132277126D01*
X159702500Y-88900000D02*
X161713762Y-91441805D01*
X145097500Y-130492500D02*
X142544779Y-131542834D01*
X160972500Y-76835000D02*
X164004015Y-75526674D01*
X140652500Y-89852500D02*
X134312896Y-91561305D01*
X147955000Y-97155000D02*
X138962168Y-96188396D01*
X141605000Y-127000000D02*
X140243758Y-129216825D01*
X164782500Y-114617500D02*
X166089938Y-111063859D01*
X133169300Y-90383741D02*
X138747500Y-88265000D01*
X128207004Y-93585137D02*
X127864899Y-93927242D01*
X127864899Y-93927242D02*
X127146479Y-93208822D01*
X128070162Y-92969348D02*
X128309636Y-92729875D01*
X128788583Y-93003559D02*
X128446478Y-93345664D01*
X128446478Y-93345664D02*
X127728057Y-92627243D01*
X127728057Y-92627243D02*
X128070162Y-92285138D01*
X129096477Y-92695664D02*
X128378057Y-91977244D01*
X128378057Y-91977244D02*
X128549109Y-91806191D01*
X128549109Y-91806191D02*
X128685951Y-91737770D01*
X128685951Y-91737770D02*
X128822793Y-91737770D01*
X128822793Y-91737770D02*
X128925425Y-91771981D01*
X128925425Y-91771981D02*
X129096477Y-91874612D01*
X129096477Y-91874612D02*
X129199109Y-91977244D01*
X129199109Y-91977244D02*
X129301740Y-92148296D01*
X129301740Y-92148296D02*
X129335951Y-92250928D01*
X129335951Y-92250928D02*
X129335951Y-92387770D01*
X129335951Y-92387770D02*
X129267530Y-92524612D01*
X129267530Y-92524612D02*
X129096477Y-92695664D01*
X129233319Y-91121981D02*
X129301740Y-91053560D01*
X129301740Y-91053560D02*
X129404372Y-91019350D01*
X129404372Y-91019350D02*
X129472793Y-91019350D01*
X129472793Y-91019350D02*
X129575424Y-91053560D01*
X129575424Y-91053560D02*
X129746477Y-91156192D01*
X129746477Y-91156192D02*
X129917529Y-91327244D01*
X129917529Y-91327244D02*
X130020161Y-91498297D01*
X130020161Y-91498297D02*
X130054371Y-91600928D01*
X130054371Y-91600928D02*
X130054371Y-91669349D01*
X130054371Y-91669349D02*
X130020161Y-91771981D01*
X130020161Y-91771981D02*
X129951740Y-91840402D01*
X129951740Y-91840402D02*
X129849108Y-91874612D01*
X129849108Y-91874612D02*
X129780687Y-91874612D01*
X129780687Y-91874612D02*
X129678056Y-91840402D01*
X129678056Y-91840402D02*
X129507003Y-91737770D01*
X129507003Y-91737770D02*
X129335951Y-91566718D01*
X129335951Y-91566718D02*
X129233319Y-91395665D01*
X129233319Y-91395665D02*
X129199109Y-91293034D01*
X129199109Y-91293034D02*
X129199109Y-91224613D01*
X129199109Y-91224613D02*
X129233319Y-91121981D01*
X130807002Y-90985139D02*
X130430687Y-90608824D01*
X130430687Y-90608824D02*
X130328055Y-90574613D01*
X130328055Y-90574613D02*
X130225424Y-90608824D01*
X130225424Y-90608824D02*
X130088582Y-90745666D01*
X130088582Y-90745666D02*
X130054371Y-90848297D01*
X130772792Y-90950929D02*
X130738581Y-91053560D01*
X130738581Y-91053560D02*
X130567529Y-91224613D01*
X130567529Y-91224613D02*
X130464897Y-91258823D01*
X130464897Y-91258823D02*
X130362266Y-91224613D01*
X130362266Y-91224613D02*
X130293845Y-91156192D01*
X130293845Y-91156192D02*
X130259634Y-91053560D01*
X130259634Y-91053560D02*
X130293845Y-90950929D01*
X130293845Y-90950929D02*
X130464897Y-90779876D01*
X130464897Y-90779876D02*
X130499108Y-90677245D01*
X131422791Y-89821983D02*
X131970159Y-89274615D01*
X129363621Y-94741754D02*
X129021516Y-95083859D01*
X129021516Y-95083859D02*
X128303096Y-94365439D01*
X129226779Y-94125965D02*
X129466253Y-93886492D01*
X129945200Y-94160176D02*
X129603095Y-94502281D01*
X129603095Y-94502281D02*
X128884674Y-93783860D01*
X128884674Y-93783860D02*
X129226779Y-93441755D01*
X130253094Y-93852281D02*
X129534674Y-93133861D01*
X129534674Y-93133861D02*
X129705726Y-92962808D01*
X129705726Y-92962808D02*
X129842568Y-92894387D01*
X129842568Y-92894387D02*
X129979410Y-92894387D01*
X129979410Y-92894387D02*
X130082042Y-92928598D01*
X130082042Y-92928598D02*
X130253094Y-93031229D01*
X130253094Y-93031229D02*
X130355726Y-93133861D01*
X130355726Y-93133861D02*
X130458357Y-93304913D01*
X130458357Y-93304913D02*
X130492568Y-93407545D01*
X130492568Y-93407545D02*
X130492568Y-93544387D01*
X130492568Y-93544387D02*
X130424147Y-93681229D01*
X130424147Y-93681229D02*
X130253094Y-93852281D01*
X131347830Y-92757545D02*
X130937304Y-93168071D01*
X131142567Y-92962808D02*
X130424147Y-92244388D01*
X130424147Y-92244388D02*
X130458357Y-92415440D01*
X130458357Y-92415440D02*
X130458357Y-92552282D01*
X130458357Y-92552282D02*
X130424147Y-92654914D01*
X131963619Y-92141756D02*
X131587304Y-91765441D01*
X131587304Y-91765441D02*
X131484672Y-91731230D01*
X131484672Y-91731230D02*
X131382041Y-91765441D01*
X131382041Y-91765441D02*
X131245199Y-91902283D01*
X131245199Y-91902283D02*
X131210988Y-92004914D01*
X131929409Y-92107546D02*
X131895198Y-92210177D01*
X131895198Y-92210177D02*
X131724146Y-92381230D01*
X131724146Y-92381230D02*
X131621514Y-92415440D01*
X131621514Y-92415440D02*
X131518883Y-92381230D01*
X131518883Y-92381230D02*
X131450462Y-92312809D01*
X131450462Y-92312809D02*
X131416251Y-92210177D01*
X131416251Y-92210177D02*
X131450462Y-92107546D01*
X131450462Y-92107546D02*
X131621514Y-91936493D01*
X131621514Y-91936493D02*
X131655725Y-91833862D01*
X132579408Y-90978600D02*
X133126776Y-90431232D01*
X130520238Y-95898371D02*
X130178133Y-96240476D01*
X130178133Y-96240476D02*
X129459713Y-95522056D01*
X130383396Y-95282582D02*
X130622870Y-95043109D01*
X131101817Y-95316793D02*
X130759712Y-95658898D01*
X130759712Y-95658898D02*
X130041291Y-94940477D01*
X130041291Y-94940477D02*
X130383396Y-94598372D01*
X131409711Y-95008898D02*
X130691291Y-94290478D01*
X130691291Y-94290478D02*
X130862343Y-94119425D01*
X130862343Y-94119425D02*
X130999185Y-94051004D01*
X130999185Y-94051004D02*
X131136027Y-94051004D01*
X131136027Y-94051004D02*
X131238659Y-94085215D01*
X131238659Y-94085215D02*
X131409711Y-94187846D01*
X131409711Y-94187846D02*
X131512343Y-94290478D01*
X131512343Y-94290478D02*
X131614974Y-94461530D01*
X131614974Y-94461530D02*
X131649185Y-94564162D01*
X131649185Y-94564162D02*
X131649185Y-94701004D01*
X131649185Y-94701004D02*
X131580764Y-94837846D01*
X131580764Y-94837846D02*
X131409711Y-95008898D01*
X131443922Y-93674689D02*
X131443922Y-93606268D01*
X131443922Y-93606268D02*
X131478132Y-93503636D01*
X131478132Y-93503636D02*
X131649185Y-93332584D01*
X131649185Y-93332584D02*
X131751816Y-93298373D01*
X131751816Y-93298373D02*
X131820237Y-93298373D01*
X131820237Y-93298373D02*
X131922869Y-93332584D01*
X131922869Y-93332584D02*
X131991290Y-93401005D01*
X131991290Y-93401005D02*
X132059711Y-93537847D01*
X132059711Y-93537847D02*
X132059711Y-94358899D01*
X132059711Y-94358899D02*
X132504447Y-93914162D01*
X133120236Y-93298373D02*
X132743921Y-92922058D01*
X132743921Y-92922058D02*
X132641289Y-92887847D01*
X132641289Y-92887847D02*
X132538658Y-92922058D01*
X132538658Y-92922058D02*
X132401816Y-93058900D01*
X132401816Y-93058900D02*
X132367605Y-93161531D01*
X133086026Y-93264163D02*
X133051815Y-93366794D01*
X133051815Y-93366794D02*
X132880763Y-93537847D01*
X132880763Y-93537847D02*
X132778131Y-93572057D01*
X132778131Y-93572057D02*
X132675500Y-93537847D01*
X132675500Y-93537847D02*
X132607079Y-93469426D01*
X132607079Y-93469426D02*
X132572868Y-93366794D01*
X132572868Y-93366794D02*
X132607079Y-93264163D01*
X132607079Y-93264163D02*
X132778131Y-93093110D01*
X132778131Y-93093110D02*
X132812342Y-92990479D01*
X133736025Y-92135217D02*
X134283393Y-91587849D01*
X131129487Y-97602356D02*
X130547909Y-97499725D01*
X130718961Y-98012882D02*
X130000541Y-97294462D01*
X130000541Y-97294462D02*
X130274225Y-97020778D01*
X130274225Y-97020778D02*
X130376856Y-96986567D01*
X130376856Y-96986567D02*
X130445277Y-96986567D01*
X130445277Y-96986567D02*
X130547909Y-97020778D01*
X130547909Y-97020778D02*
X130650540Y-97123409D01*
X130650540Y-97123409D02*
X130684751Y-97226041D01*
X130684751Y-97226041D02*
X130684751Y-97294462D01*
X130684751Y-97294462D02*
X130650540Y-97397093D01*
X130650540Y-97397093D02*
X130376856Y-97670777D01*
X131061066Y-96918146D02*
X131300540Y-96678673D01*
X131779487Y-96952357D02*
X131437382Y-97294462D01*
X131437382Y-97294462D02*
X130718961Y-96576041D01*
X130718961Y-96576041D02*
X131061066Y-96233936D01*
X132018960Y-96644462D02*
X132155802Y-96576041D01*
X132155802Y-96576041D02*
X132326855Y-96404989D01*
X132326855Y-96404989D02*
X132361065Y-96302357D01*
X132361065Y-96302357D02*
X132361065Y-96233936D01*
X132361065Y-96233936D02*
X132326855Y-96131305D01*
X132326855Y-96131305D02*
X132258434Y-96062884D01*
X132258434Y-96062884D02*
X132155802Y-96028673D01*
X132155802Y-96028673D02*
X132087381Y-96028673D01*
X132087381Y-96028673D02*
X131984750Y-96062884D01*
X131984750Y-96062884D02*
X131813697Y-96165515D01*
X131813697Y-96165515D02*
X131711066Y-96199726D01*
X131711066Y-96199726D02*
X131642645Y-96199726D01*
X131642645Y-96199726D02*
X131540013Y-96165515D01*
X131540013Y-96165515D02*
X131471592Y-96097094D01*
X131471592Y-96097094D02*
X131437382Y-95994463D01*
X131437382Y-95994463D02*
X131437382Y-95926042D01*
X131437382Y-95926042D02*
X131471592Y-95823410D01*
X131471592Y-95823410D02*
X131642645Y-95652358D01*
X131642645Y-95652358D02*
X131779487Y-95583937D01*
X132395276Y-95583937D02*
X132634749Y-95344463D01*
X133113696Y-95618147D02*
X132771591Y-95960252D01*
X132771591Y-95960252D02*
X132053171Y-95241832D01*
X132053171Y-95241832D02*
X132395276Y-94899727D01*
X132600539Y-94694464D02*
X133011065Y-94283938D01*
X133524222Y-95207621D02*
X132805802Y-94489201D01*
X134276853Y-94454990D02*
X133900538Y-94078675D01*
X133900538Y-94078675D02*
X133797906Y-94044464D01*
X133797906Y-94044464D02*
X133695275Y-94078675D01*
X133695275Y-94078675D02*
X133558433Y-94215517D01*
X133558433Y-94215517D02*
X133524222Y-94318148D01*
X134242643Y-94420780D02*
X134208432Y-94523411D01*
X134208432Y-94523411D02*
X134037380Y-94694464D01*
X134037380Y-94694464D02*
X133934748Y-94728674D01*
X133934748Y-94728674D02*
X133832117Y-94694464D01*
X133832117Y-94694464D02*
X133763696Y-94626043D01*
X133763696Y-94626043D02*
X133729485Y-94523411D01*
X133729485Y-94523411D02*
X133763696Y-94420780D01*
X133763696Y-94420780D02*
X133934748Y-94249727D01*
X133934748Y-94249727D02*
X133968959Y-94147096D01*
X134892642Y-93291834D02*
X135440010Y-92744466D01*
X133688735Y-97287922D02*
X133825577Y-97219501D01*
X133825577Y-97219501D02*
X133996629Y-97048448D01*
X133996629Y-97048448D02*
X134030840Y-96945817D01*
X134030840Y-96945817D02*
X134030840Y-96877396D01*
X134030840Y-96877396D02*
X133996629Y-96774764D01*
X133996629Y-96774764D02*
X133928208Y-96706343D01*
X133928208Y-96706343D02*
X133825577Y-96672133D01*
X133825577Y-96672133D02*
X133757156Y-96672133D01*
X133757156Y-96672133D02*
X133654524Y-96706343D01*
X133654524Y-96706343D02*
X133483472Y-96808975D01*
X133483472Y-96808975D02*
X133380840Y-96843185D01*
X133380840Y-96843185D02*
X133312419Y-96843185D01*
X133312419Y-96843185D02*
X133209788Y-96808975D01*
X133209788Y-96808975D02*
X133141367Y-96740554D01*
X133141367Y-96740554D02*
X133107156Y-96637922D01*
X133107156Y-96637922D02*
X133107156Y-96569501D01*
X133107156Y-96569501D02*
X133141367Y-96466870D01*
X133141367Y-96466870D02*
X133312419Y-96295817D01*
X133312419Y-96295817D02*
X133449261Y-96227396D01*
X133859787Y-95748449D02*
X133928208Y-95680028D01*
X133928208Y-95680028D02*
X134030840Y-95645818D01*
X134030840Y-95645818D02*
X134099261Y-95645818D01*
X134099261Y-95645818D02*
X134201892Y-95680028D01*
X134201892Y-95680028D02*
X134372945Y-95782660D01*
X134372945Y-95782660D02*
X134543997Y-95953712D01*
X134543997Y-95953712D02*
X134646629Y-96124765D01*
X134646629Y-96124765D02*
X134680839Y-96227396D01*
X134680839Y-96227396D02*
X134680839Y-96295817D01*
X134680839Y-96295817D02*
X134646629Y-96398449D01*
X134646629Y-96398449D02*
X134578208Y-96466870D01*
X134578208Y-96466870D02*
X134475576Y-96501080D01*
X134475576Y-96501080D02*
X134407155Y-96501080D01*
X134407155Y-96501080D02*
X134304524Y-96466870D01*
X134304524Y-96466870D02*
X134133471Y-96364238D01*
X134133471Y-96364238D02*
X133962419Y-96193186D01*
X133962419Y-96193186D02*
X133859787Y-96022133D01*
X133859787Y-96022133D02*
X133825577Y-95919502D01*
X133825577Y-95919502D02*
X133825577Y-95851081D01*
X133825577Y-95851081D02*
X133859787Y-95748449D01*
X135433470Y-95611607D02*
X135057155Y-95235292D01*
X135057155Y-95235292D02*
X134954523Y-95201081D01*
X134954523Y-95201081D02*
X134851892Y-95235292D01*
X134851892Y-95235292D02*
X134715050Y-95372134D01*
X134715050Y-95372134D02*
X134680839Y-95474765D01*
X135399260Y-95577397D02*
X135365049Y-95680028D01*
X135365049Y-95680028D02*
X135193997Y-95851081D01*
X135193997Y-95851081D02*
X135091365Y-95885291D01*
X135091365Y-95885291D02*
X134988734Y-95851081D01*
X134988734Y-95851081D02*
X134920313Y-95782660D01*
X134920313Y-95782660D02*
X134886102Y-95680028D01*
X134886102Y-95680028D02*
X134920313Y-95577397D01*
X134920313Y-95577397D02*
X135091365Y-95406344D01*
X135091365Y-95406344D02*
X135125576Y-95303713D01*
X136049259Y-94448451D02*
X136596627Y-93901083D01*
X134845352Y-98444539D02*
X134982194Y-98376118D01*
X134982194Y-98376118D02*
X135153246Y-98205065D01*
X135153246Y-98205065D02*
X135187457Y-98102434D01*
X135187457Y-98102434D02*
X135187457Y-98034013D01*
X135187457Y-98034013D02*
X135153246Y-97931381D01*
X135153246Y-97931381D02*
X135084825Y-97862960D01*
X135084825Y-97862960D02*
X134982194Y-97828750D01*
X134982194Y-97828750D02*
X134913773Y-97828750D01*
X134913773Y-97828750D02*
X134811141Y-97862960D01*
X134811141Y-97862960D02*
X134640089Y-97965592D01*
X134640089Y-97965592D02*
X134537457Y-97999802D01*
X134537457Y-97999802D02*
X134469036Y-97999802D01*
X134469036Y-97999802D02*
X134366405Y-97965592D01*
X134366405Y-97965592D02*
X134297984Y-97897171D01*
X134297984Y-97897171D02*
X134263773Y-97794539D01*
X134263773Y-97794539D02*
X134263773Y-97726118D01*
X134263773Y-97726118D02*
X134297984Y-97623487D01*
X134297984Y-97623487D02*
X134469036Y-97452434D01*
X134469036Y-97452434D02*
X134605878Y-97384013D01*
X135974298Y-97384013D02*
X135563772Y-97794539D01*
X135769035Y-97589276D02*
X135050615Y-96870856D01*
X135050615Y-96870856D02*
X135084825Y-97041908D01*
X135084825Y-97041908D02*
X135084825Y-97178750D01*
X135084825Y-97178750D02*
X135050615Y-97281382D01*
X136590087Y-96768224D02*
X136213772Y-96391909D01*
X136213772Y-96391909D02*
X136111140Y-96357698D01*
X136111140Y-96357698D02*
X136008509Y-96391909D01*
X136008509Y-96391909D02*
X135871667Y-96528751D01*
X135871667Y-96528751D02*
X135837456Y-96631382D01*
X136555877Y-96734014D02*
X136521666Y-96836645D01*
X136521666Y-96836645D02*
X136350614Y-97007698D01*
X136350614Y-97007698D02*
X136247982Y-97041908D01*
X136247982Y-97041908D02*
X136145351Y-97007698D01*
X136145351Y-97007698D02*
X136076930Y-96939277D01*
X136076930Y-96939277D02*
X136042719Y-96836645D01*
X136042719Y-96836645D02*
X136076930Y-96734014D01*
X136076930Y-96734014D02*
X136247982Y-96562961D01*
X136247982Y-96562961D02*
X136282193Y-96460330D01*
X137205876Y-95605068D02*
X137753244Y-95057700D01*
X134633549Y-101037997D02*
X134530917Y-100182734D01*
X134154602Y-100559050D02*
X135009864Y-100661681D01*
X134701970Y-99532735D02*
X134838812Y-99395893D01*
X134838812Y-99395893D02*
X134941443Y-99361682D01*
X134941443Y-99361682D02*
X135078285Y-99361682D01*
X135078285Y-99361682D02*
X135249338Y-99464314D01*
X135249338Y-99464314D02*
X135488811Y-99703787D01*
X135488811Y-99703787D02*
X135591443Y-99874840D01*
X135591443Y-99874840D02*
X135591443Y-100011682D01*
X135591443Y-100011682D02*
X135557232Y-100114313D01*
X135557232Y-100114313D02*
X135420390Y-100251155D01*
X135420390Y-100251155D02*
X135317759Y-100285366D01*
X135317759Y-100285366D02*
X135180917Y-100285366D01*
X135180917Y-100285366D02*
X135009864Y-100182734D01*
X135009864Y-100182734D02*
X134770391Y-99943261D01*
X134770391Y-99943261D02*
X134667759Y-99772208D01*
X134667759Y-99772208D02*
X134667759Y-99635366D01*
X134667759Y-99635366D02*
X134701970Y-99532735D01*
X135967758Y-99635366D02*
X136104600Y-99566945D01*
X136104600Y-99566945D02*
X136275653Y-99395893D01*
X136275653Y-99395893D02*
X136309863Y-99293261D01*
X136309863Y-99293261D02*
X136309863Y-99224840D01*
X136309863Y-99224840D02*
X136275653Y-99122209D01*
X136275653Y-99122209D02*
X136207232Y-99053788D01*
X136207232Y-99053788D02*
X136104600Y-99019577D01*
X136104600Y-99019577D02*
X136036179Y-99019577D01*
X136036179Y-99019577D02*
X135933548Y-99053788D01*
X135933548Y-99053788D02*
X135762495Y-99156419D01*
X135762495Y-99156419D02*
X135659864Y-99190630D01*
X135659864Y-99190630D02*
X135591443Y-99190630D01*
X135591443Y-99190630D02*
X135488811Y-99156419D01*
X135488811Y-99156419D02*
X135420390Y-99087998D01*
X135420390Y-99087998D02*
X135386180Y-98985367D01*
X135386180Y-98985367D02*
X135386180Y-98916946D01*
X135386180Y-98916946D02*
X135420390Y-98814314D01*
X135420390Y-98814314D02*
X135591443Y-98643262D01*
X135591443Y-98643262D02*
X135728285Y-98574841D01*
X137062494Y-98472209D02*
X137062494Y-98540630D01*
X137062494Y-98540630D02*
X136994073Y-98677472D01*
X136994073Y-98677472D02*
X136925652Y-98745893D01*
X136925652Y-98745893D02*
X136788810Y-98814314D01*
X136788810Y-98814314D02*
X136651968Y-98814314D01*
X136651968Y-98814314D02*
X136549337Y-98780104D01*
X136549337Y-98780104D02*
X136378284Y-98677472D01*
X136378284Y-98677472D02*
X136275653Y-98574841D01*
X136275653Y-98574841D02*
X136173021Y-98403788D01*
X136173021Y-98403788D02*
X136138811Y-98301157D01*
X136138811Y-98301157D02*
X136138811Y-98164315D01*
X136138811Y-98164315D02*
X136207232Y-98027473D01*
X136207232Y-98027473D02*
X136275653Y-97959052D01*
X136275653Y-97959052D02*
X136412495Y-97890631D01*
X136412495Y-97890631D02*
X136480916Y-97890631D01*
X137746704Y-97924841D02*
X137370389Y-97548526D01*
X137370389Y-97548526D02*
X137267757Y-97514315D01*
X137267757Y-97514315D02*
X137165126Y-97548526D01*
X137165126Y-97548526D02*
X137028284Y-97685368D01*
X137028284Y-97685368D02*
X136994073Y-97787999D01*
X137712494Y-97890631D02*
X137678283Y-97993262D01*
X137678283Y-97993262D02*
X137507231Y-98164315D01*
X137507231Y-98164315D02*
X137404599Y-98198525D01*
X137404599Y-98198525D02*
X137301968Y-98164315D01*
X137301968Y-98164315D02*
X137233547Y-98095894D01*
X137233547Y-98095894D02*
X137199336Y-97993262D01*
X137199336Y-97993262D02*
X137233547Y-97890631D01*
X137233547Y-97890631D02*
X137404599Y-97719578D01*
X137404599Y-97719578D02*
X137438810Y-97616947D01*
X138362493Y-96761685D02*
X138909861Y-96214317D01*
X135037535Y-102947245D02*
X134319114Y-102228824D01*
X134319114Y-102228824D02*
X134490167Y-102057772D01*
X134490167Y-102057772D02*
X134627009Y-101989351D01*
X134627009Y-101989351D02*
X134763851Y-101989351D01*
X134763851Y-101989351D02*
X134866482Y-102023561D01*
X134866482Y-102023561D02*
X135037535Y-102126193D01*
X135037535Y-102126193D02*
X135140166Y-102228824D01*
X135140166Y-102228824D02*
X135242798Y-102399877D01*
X135242798Y-102399877D02*
X135277008Y-102502508D01*
X135277008Y-102502508D02*
X135277008Y-102639350D01*
X135277008Y-102639350D02*
X135208587Y-102776192D01*
X135208587Y-102776192D02*
X135037535Y-102947245D01*
X135379640Y-101852509D02*
X135619113Y-101613035D01*
X136098060Y-101886719D02*
X135755955Y-102228824D01*
X135755955Y-102228824D02*
X135037535Y-101510404D01*
X135037535Y-101510404D02*
X135379640Y-101168299D01*
X136269113Y-100963036D02*
X136405955Y-100894615D01*
X136405955Y-100894615D02*
X136474376Y-100894615D01*
X136474376Y-100894615D02*
X136577007Y-100928825D01*
X136577007Y-100928825D02*
X136679639Y-101031457D01*
X136679639Y-101031457D02*
X136713849Y-101134088D01*
X136713849Y-101134088D02*
X136713849Y-101202509D01*
X136713849Y-101202509D02*
X136679639Y-101305141D01*
X136679639Y-101305141D02*
X136405955Y-101578825D01*
X136405955Y-101578825D02*
X135687534Y-100860404D01*
X135687534Y-100860404D02*
X135927008Y-100620931D01*
X135927008Y-100620931D02*
X136029639Y-100586720D01*
X136029639Y-100586720D02*
X136098060Y-100586720D01*
X136098060Y-100586720D02*
X136200692Y-100620931D01*
X136200692Y-100620931D02*
X136269113Y-100689352D01*
X136269113Y-100689352D02*
X136303323Y-100791983D01*
X136303323Y-100791983D02*
X136303323Y-100860404D01*
X136303323Y-100860404D02*
X136269113Y-100963036D01*
X136269113Y-100963036D02*
X136029639Y-101202509D01*
X136405955Y-100141984D02*
X136987533Y-100723562D01*
X136987533Y-100723562D02*
X137090165Y-100757773D01*
X137090165Y-100757773D02*
X137158586Y-100757773D01*
X137158586Y-100757773D02*
X137261217Y-100723562D01*
X137261217Y-100723562D02*
X137398059Y-100586720D01*
X137398059Y-100586720D02*
X137432270Y-100484089D01*
X137432270Y-100484089D02*
X137432270Y-100415668D01*
X137432270Y-100415668D02*
X137398059Y-100313036D01*
X137398059Y-100313036D02*
X136816481Y-99731458D01*
X137569112Y-99047248D02*
X137466480Y-99081458D01*
X137466480Y-99081458D02*
X137363849Y-99184090D01*
X137363849Y-99184090D02*
X137295428Y-99320932D01*
X137295428Y-99320932D02*
X137295428Y-99457774D01*
X137295428Y-99457774D02*
X137329638Y-99560405D01*
X137329638Y-99560405D02*
X137432270Y-99731458D01*
X137432270Y-99731458D02*
X137534901Y-99834089D01*
X137534901Y-99834089D02*
X137705954Y-99936721D01*
X137705954Y-99936721D02*
X137808585Y-99970931D01*
X137808585Y-99970931D02*
X137945427Y-99970931D01*
X137945427Y-99970931D02*
X138082269Y-99902510D01*
X138082269Y-99902510D02*
X138150690Y-99834089D01*
X138150690Y-99834089D02*
X138219111Y-99697247D01*
X138219111Y-99697247D02*
X138219111Y-99628826D01*
X138219111Y-99628826D02*
X137979638Y-99389353D01*
X137979638Y-99389353D02*
X137842796Y-99526195D01*
X138903321Y-99081458D02*
X138527006Y-98705143D01*
X138527006Y-98705143D02*
X138424374Y-98670932D01*
X138424374Y-98670932D02*
X138321743Y-98705143D01*
X138321743Y-98705143D02*
X138184901Y-98841985D01*
X138184901Y-98841985D02*
X138150690Y-98944616D01*
X138869111Y-99047248D02*
X138834900Y-99149879D01*
X138834900Y-99149879D02*
X138663848Y-99320932D01*
X138663848Y-99320932D02*
X138561216Y-99355142D01*
X138561216Y-99355142D02*
X138458585Y-99320932D01*
X138458585Y-99320932D02*
X138390164Y-99252511D01*
X138390164Y-99252511D02*
X138355953Y-99149879D01*
X138355953Y-99149879D02*
X138390164Y-99047248D01*
X138390164Y-99047248D02*
X138561216Y-98876195D01*
X138561216Y-98876195D02*
X138595427Y-98773564D01*
X139519110Y-97918302D02*
X140066478Y-97370934D01*
X141682362Y-100267004D02*
X141340257Y-99924899D01*
X141340257Y-99924899D02*
X142058677Y-99206479D01*
X142298151Y-100130162D02*
X142537624Y-100369636D01*
X142263940Y-100848583D02*
X141921835Y-100506478D01*
X141921835Y-100506478D02*
X142640256Y-99788057D01*
X142640256Y-99788057D02*
X142982361Y-100130162D01*
X142571835Y-101156477D02*
X143290255Y-100438057D01*
X143290255Y-100438057D02*
X143461308Y-100609109D01*
X143461308Y-100609109D02*
X143529729Y-100745951D01*
X143529729Y-100745951D02*
X143529729Y-100882793D01*
X143529729Y-100882793D02*
X143495518Y-100985425D01*
X143495518Y-100985425D02*
X143392887Y-101156477D01*
X143392887Y-101156477D02*
X143290255Y-101259109D01*
X143290255Y-101259109D02*
X143119203Y-101361740D01*
X143119203Y-101361740D02*
X143016571Y-101395951D01*
X143016571Y-101395951D02*
X142879729Y-101395951D01*
X142879729Y-101395951D02*
X142742887Y-101327530D01*
X142742887Y-101327530D02*
X142571835Y-101156477D01*
X144145518Y-101293319D02*
X144213939Y-101361740D01*
X144213939Y-101361740D02*
X144248149Y-101464372D01*
X144248149Y-101464372D02*
X144248149Y-101532793D01*
X144248149Y-101532793D02*
X144213939Y-101635424D01*
X144213939Y-101635424D02*
X144111307Y-101806477D01*
X144111307Y-101806477D02*
X143940255Y-101977529D01*
X143940255Y-101977529D02*
X143769202Y-102080161D01*
X143769202Y-102080161D02*
X143666571Y-102114371D01*
X143666571Y-102114371D02*
X143598150Y-102114371D01*
X143598150Y-102114371D02*
X143495518Y-102080161D01*
X143495518Y-102080161D02*
X143427097Y-102011740D01*
X143427097Y-102011740D02*
X143392887Y-101909108D01*
X143392887Y-101909108D02*
X143392887Y-101840687D01*
X143392887Y-101840687D02*
X143427097Y-101738056D01*
X143427097Y-101738056D02*
X143529729Y-101567003D01*
X143529729Y-101567003D02*
X143700781Y-101395951D01*
X143700781Y-101395951D02*
X143871834Y-101293319D01*
X143871834Y-101293319D02*
X143974465Y-101259109D01*
X143974465Y-101259109D02*
X144042886Y-101259109D01*
X144042886Y-101259109D02*
X144145518Y-101293319D01*
X143974465Y-102559108D02*
X144692886Y-101840687D01*
X144419202Y-102114371D02*
X144521833Y-102148582D01*
X144521833Y-102148582D02*
X144658675Y-102285424D01*
X144658675Y-102285424D02*
X144692886Y-102388055D01*
X144692886Y-102388055D02*
X144692886Y-102456476D01*
X144692886Y-102456476D02*
X144658675Y-102559108D01*
X144658675Y-102559108D02*
X144453412Y-102764371D01*
X144453412Y-102764371D02*
X144350781Y-102798581D01*
X144350781Y-102798581D02*
X144282360Y-102798581D01*
X144282360Y-102798581D02*
X144179728Y-102764371D01*
X144179728Y-102764371D02*
X144042886Y-102627529D01*
X144042886Y-102627529D02*
X144008676Y-102524897D01*
X145445516Y-103482791D02*
X145992884Y-104030159D01*
X140525745Y-101423621D02*
X140183640Y-101081516D01*
X140183640Y-101081516D02*
X140902060Y-100363096D01*
X141141534Y-101286779D02*
X141381007Y-101526253D01*
X141107323Y-102005200D02*
X140765218Y-101663095D01*
X140765218Y-101663095D02*
X141483639Y-100944674D01*
X141483639Y-100944674D02*
X141825744Y-101286779D01*
X141415218Y-102313094D02*
X142133638Y-101594674D01*
X142133638Y-101594674D02*
X142304691Y-101765726D01*
X142304691Y-101765726D02*
X142373112Y-101902568D01*
X142373112Y-101902568D02*
X142373112Y-102039410D01*
X142373112Y-102039410D02*
X142338901Y-102142042D01*
X142338901Y-102142042D02*
X142236270Y-102313094D01*
X142236270Y-102313094D02*
X142133638Y-102415726D01*
X142133638Y-102415726D02*
X141962586Y-102518357D01*
X141962586Y-102518357D02*
X141859954Y-102552568D01*
X141859954Y-102552568D02*
X141723112Y-102552568D01*
X141723112Y-102552568D02*
X141586270Y-102484147D01*
X141586270Y-102484147D02*
X141415218Y-102313094D01*
X142509954Y-103407830D02*
X142099428Y-102997304D01*
X142304691Y-103202567D02*
X143023111Y-102484147D01*
X143023111Y-102484147D02*
X142852059Y-102518357D01*
X142852059Y-102518357D02*
X142715217Y-102518357D01*
X142715217Y-102518357D02*
X142612585Y-102484147D01*
X142817848Y-103715725D02*
X143536269Y-102997304D01*
X143262585Y-103270988D02*
X143365216Y-103305199D01*
X143365216Y-103305199D02*
X143502058Y-103442041D01*
X143502058Y-103442041D02*
X143536269Y-103544672D01*
X143536269Y-103544672D02*
X143536269Y-103613093D01*
X143536269Y-103613093D02*
X143502058Y-103715725D01*
X143502058Y-103715725D02*
X143296795Y-103920988D01*
X143296795Y-103920988D02*
X143194164Y-103955198D01*
X143194164Y-103955198D02*
X143125743Y-103955198D01*
X143125743Y-103955198D02*
X143023111Y-103920988D01*
X143023111Y-103920988D02*
X142886269Y-103784146D01*
X142886269Y-103784146D02*
X142852059Y-103681514D01*
X144288899Y-104639408D02*
X144836267Y-105186776D01*
X139369128Y-102580238D02*
X139027023Y-102238133D01*
X139027023Y-102238133D02*
X139745443Y-101519713D01*
X139984917Y-102443396D02*
X140224390Y-102682870D01*
X139950706Y-103161817D02*
X139608601Y-102819712D01*
X139608601Y-102819712D02*
X140327022Y-102101291D01*
X140327022Y-102101291D02*
X140669127Y-102443396D01*
X140258601Y-103469711D02*
X140977021Y-102751291D01*
X140977021Y-102751291D02*
X141148074Y-102922343D01*
X141148074Y-102922343D02*
X141216495Y-103059185D01*
X141216495Y-103059185D02*
X141216495Y-103196027D01*
X141216495Y-103196027D02*
X141182284Y-103298659D01*
X141182284Y-103298659D02*
X141079653Y-103469711D01*
X141079653Y-103469711D02*
X140977021Y-103572343D01*
X140977021Y-103572343D02*
X140805969Y-103674974D01*
X140805969Y-103674974D02*
X140703337Y-103709185D01*
X140703337Y-103709185D02*
X140566495Y-103709185D01*
X140566495Y-103709185D02*
X140429653Y-103640764D01*
X140429653Y-103640764D02*
X140258601Y-103469711D01*
X141592810Y-103503922D02*
X141661231Y-103503922D01*
X141661231Y-103503922D02*
X141763863Y-103538132D01*
X141763863Y-103538132D02*
X141934915Y-103709185D01*
X141934915Y-103709185D02*
X141969126Y-103811816D01*
X141969126Y-103811816D02*
X141969126Y-103880237D01*
X141969126Y-103880237D02*
X141934915Y-103982869D01*
X141934915Y-103982869D02*
X141866494Y-104051290D01*
X141866494Y-104051290D02*
X141729652Y-104119711D01*
X141729652Y-104119711D02*
X140908600Y-104119711D01*
X140908600Y-104119711D02*
X141353337Y-104564447D01*
X141661231Y-104872342D02*
X142379652Y-104153921D01*
X142105968Y-104427605D02*
X142208599Y-104461816D01*
X142208599Y-104461816D02*
X142345441Y-104598658D01*
X142345441Y-104598658D02*
X142379652Y-104701289D01*
X142379652Y-104701289D02*
X142379652Y-104769710D01*
X142379652Y-104769710D02*
X142345441Y-104872342D01*
X142345441Y-104872342D02*
X142140178Y-105077605D01*
X142140178Y-105077605D02*
X142037547Y-105111815D01*
X142037547Y-105111815D02*
X141969126Y-105111815D01*
X141969126Y-105111815D02*
X141866494Y-105077605D01*
X141866494Y-105077605D02*
X141729652Y-104940763D01*
X141729652Y-104940763D02*
X141695442Y-104838131D01*
X143132282Y-105796025D02*
X143679650Y-106343393D01*
X137665143Y-103189487D02*
X137767774Y-102607909D01*
X137254617Y-102778961D02*
X137973037Y-102060541D01*
X137973037Y-102060541D02*
X138246721Y-102334225D01*
X138246721Y-102334225D02*
X138280932Y-102436856D01*
X138280932Y-102436856D02*
X138280932Y-102505277D01*
X138280932Y-102505277D02*
X138246721Y-102607909D01*
X138246721Y-102607909D02*
X138144090Y-102710540D01*
X138144090Y-102710540D02*
X138041458Y-102744751D01*
X138041458Y-102744751D02*
X137973037Y-102744751D01*
X137973037Y-102744751D02*
X137870406Y-102710540D01*
X137870406Y-102710540D02*
X137596722Y-102436856D01*
X138349353Y-103121066D02*
X138588826Y-103360540D01*
X138315142Y-103839487D02*
X137973037Y-103497382D01*
X137973037Y-103497382D02*
X138691458Y-102778961D01*
X138691458Y-102778961D02*
X139033563Y-103121066D01*
X138623037Y-104078960D02*
X138691458Y-104215802D01*
X138691458Y-104215802D02*
X138862510Y-104386855D01*
X138862510Y-104386855D02*
X138965142Y-104421065D01*
X138965142Y-104421065D02*
X139033563Y-104421065D01*
X139033563Y-104421065D02*
X139136194Y-104386855D01*
X139136194Y-104386855D02*
X139204615Y-104318434D01*
X139204615Y-104318434D02*
X139238826Y-104215802D01*
X139238826Y-104215802D02*
X139238826Y-104147381D01*
X139238826Y-104147381D02*
X139204615Y-104044750D01*
X139204615Y-104044750D02*
X139101984Y-103873697D01*
X139101984Y-103873697D02*
X139067773Y-103771066D01*
X139067773Y-103771066D02*
X139067773Y-103702645D01*
X139067773Y-103702645D02*
X139101984Y-103600013D01*
X139101984Y-103600013D02*
X139170405Y-103531592D01*
X139170405Y-103531592D02*
X139273036Y-103497382D01*
X139273036Y-103497382D02*
X139341457Y-103497382D01*
X139341457Y-103497382D02*
X139444089Y-103531592D01*
X139444089Y-103531592D02*
X139615141Y-103702645D01*
X139615141Y-103702645D02*
X139683562Y-103839487D01*
X139683562Y-104455276D02*
X139923036Y-104694749D01*
X139649352Y-105173696D02*
X139307247Y-104831591D01*
X139307247Y-104831591D02*
X140025667Y-104113171D01*
X140025667Y-104113171D02*
X140367772Y-104455276D01*
X140573035Y-104660539D02*
X140983561Y-105071065D01*
X140059878Y-105584222D02*
X140778298Y-104865802D01*
X140504614Y-106028959D02*
X141223035Y-105310538D01*
X140949351Y-105584222D02*
X141051982Y-105618433D01*
X141051982Y-105618433D02*
X141188824Y-105755275D01*
X141188824Y-105755275D02*
X141223035Y-105857906D01*
X141223035Y-105857906D02*
X141223035Y-105926327D01*
X141223035Y-105926327D02*
X141188824Y-106028959D01*
X141188824Y-106028959D02*
X140983561Y-106234222D01*
X140983561Y-106234222D02*
X140880930Y-106268432D01*
X140880930Y-106268432D02*
X140812509Y-106268432D01*
X140812509Y-106268432D02*
X140709877Y-106234222D01*
X140709877Y-106234222D02*
X140573035Y-106097380D01*
X140573035Y-106097380D02*
X140538825Y-105994748D01*
X141975665Y-106952642D02*
X142523033Y-107500010D01*
X137979577Y-105748735D02*
X138047998Y-105885577D01*
X138047998Y-105885577D02*
X138219051Y-106056629D01*
X138219051Y-106056629D02*
X138321682Y-106090840D01*
X138321682Y-106090840D02*
X138390103Y-106090840D01*
X138390103Y-106090840D02*
X138492735Y-106056629D01*
X138492735Y-106056629D02*
X138561156Y-105988208D01*
X138561156Y-105988208D02*
X138595366Y-105885577D01*
X138595366Y-105885577D02*
X138595366Y-105817156D01*
X138595366Y-105817156D02*
X138561156Y-105714524D01*
X138561156Y-105714524D02*
X138458524Y-105543472D01*
X138458524Y-105543472D02*
X138424314Y-105440840D01*
X138424314Y-105440840D02*
X138424314Y-105372419D01*
X138424314Y-105372419D02*
X138458524Y-105269788D01*
X138458524Y-105269788D02*
X138526945Y-105201367D01*
X138526945Y-105201367D02*
X138629577Y-105167156D01*
X138629577Y-105167156D02*
X138697998Y-105167156D01*
X138697998Y-105167156D02*
X138800629Y-105201367D01*
X138800629Y-105201367D02*
X138971682Y-105372419D01*
X138971682Y-105372419D02*
X139040103Y-105509261D01*
X139519050Y-105919787D02*
X139587471Y-105988208D01*
X139587471Y-105988208D02*
X139621681Y-106090840D01*
X139621681Y-106090840D02*
X139621681Y-106159261D01*
X139621681Y-106159261D02*
X139587471Y-106261892D01*
X139587471Y-106261892D02*
X139484839Y-106432945D01*
X139484839Y-106432945D02*
X139313787Y-106603997D01*
X139313787Y-106603997D02*
X139142734Y-106706629D01*
X139142734Y-106706629D02*
X139040103Y-106740839D01*
X139040103Y-106740839D02*
X138971682Y-106740839D01*
X138971682Y-106740839D02*
X138869050Y-106706629D01*
X138869050Y-106706629D02*
X138800629Y-106638208D01*
X138800629Y-106638208D02*
X138766419Y-106535576D01*
X138766419Y-106535576D02*
X138766419Y-106467155D01*
X138766419Y-106467155D02*
X138800629Y-106364524D01*
X138800629Y-106364524D02*
X138903261Y-106193471D01*
X138903261Y-106193471D02*
X139074313Y-106022419D01*
X139074313Y-106022419D02*
X139245366Y-105919787D01*
X139245366Y-105919787D02*
X139347997Y-105885577D01*
X139347997Y-105885577D02*
X139416418Y-105885577D01*
X139416418Y-105885577D02*
X139519050Y-105919787D01*
X139347997Y-107185576D02*
X140066418Y-106467155D01*
X139792734Y-106740839D02*
X139895365Y-106775050D01*
X139895365Y-106775050D02*
X140032207Y-106911892D01*
X140032207Y-106911892D02*
X140066418Y-107014523D01*
X140066418Y-107014523D02*
X140066418Y-107082944D01*
X140066418Y-107082944D02*
X140032207Y-107185576D01*
X140032207Y-107185576D02*
X139826944Y-107390839D01*
X139826944Y-107390839D02*
X139724313Y-107425049D01*
X139724313Y-107425049D02*
X139655892Y-107425049D01*
X139655892Y-107425049D02*
X139553260Y-107390839D01*
X139553260Y-107390839D02*
X139416418Y-107253997D01*
X139416418Y-107253997D02*
X139382208Y-107151365D01*
X140819048Y-108109259D02*
X141366416Y-108656627D01*
X136822960Y-106905352D02*
X136891381Y-107042194D01*
X136891381Y-107042194D02*
X137062434Y-107213246D01*
X137062434Y-107213246D02*
X137165065Y-107247457D01*
X137165065Y-107247457D02*
X137233486Y-107247457D01*
X137233486Y-107247457D02*
X137336118Y-107213246D01*
X137336118Y-107213246D02*
X137404539Y-107144825D01*
X137404539Y-107144825D02*
X137438749Y-107042194D01*
X137438749Y-107042194D02*
X137438749Y-106973773D01*
X137438749Y-106973773D02*
X137404539Y-106871141D01*
X137404539Y-106871141D02*
X137301907Y-106700089D01*
X137301907Y-106700089D02*
X137267697Y-106597457D01*
X137267697Y-106597457D02*
X137267697Y-106529036D01*
X137267697Y-106529036D02*
X137301907Y-106426405D01*
X137301907Y-106426405D02*
X137370328Y-106357984D01*
X137370328Y-106357984D02*
X137472960Y-106323773D01*
X137472960Y-106323773D02*
X137541381Y-106323773D01*
X137541381Y-106323773D02*
X137644012Y-106357984D01*
X137644012Y-106357984D02*
X137815065Y-106529036D01*
X137815065Y-106529036D02*
X137883486Y-106665878D01*
X137883486Y-108034298D02*
X137472960Y-107623772D01*
X137678223Y-107829035D02*
X138396643Y-107110615D01*
X138396643Y-107110615D02*
X138225591Y-107144825D01*
X138225591Y-107144825D02*
X138088749Y-107144825D01*
X138088749Y-107144825D02*
X137986117Y-107110615D01*
X138191380Y-108342193D02*
X138909801Y-107623772D01*
X138636117Y-107897456D02*
X138738748Y-107931667D01*
X138738748Y-107931667D02*
X138875590Y-108068509D01*
X138875590Y-108068509D02*
X138909801Y-108171140D01*
X138909801Y-108171140D02*
X138909801Y-108239561D01*
X138909801Y-108239561D02*
X138875590Y-108342193D01*
X138875590Y-108342193D02*
X138670327Y-108547456D01*
X138670327Y-108547456D02*
X138567696Y-108581666D01*
X138567696Y-108581666D02*
X138499275Y-108581666D01*
X138499275Y-108581666D02*
X138396643Y-108547456D01*
X138396643Y-108547456D02*
X138259801Y-108410614D01*
X138259801Y-108410614D02*
X138225591Y-108307982D01*
X139662431Y-109265876D02*
X140209799Y-109813244D01*
X134229502Y-106693549D02*
X135084765Y-106590917D01*
X134708449Y-106214602D02*
X134605818Y-107069864D01*
X135734764Y-106761970D02*
X135871606Y-106898812D01*
X135871606Y-106898812D02*
X135905817Y-107001443D01*
X135905817Y-107001443D02*
X135905817Y-107138285D01*
X135905817Y-107138285D02*
X135803185Y-107309338D01*
X135803185Y-107309338D02*
X135563712Y-107548811D01*
X135563712Y-107548811D02*
X135392659Y-107651443D01*
X135392659Y-107651443D02*
X135255817Y-107651443D01*
X135255817Y-107651443D02*
X135153186Y-107617232D01*
X135153186Y-107617232D02*
X135016344Y-107480390D01*
X135016344Y-107480390D02*
X134982133Y-107377759D01*
X134982133Y-107377759D02*
X134982133Y-107240917D01*
X134982133Y-107240917D02*
X135084765Y-107069864D01*
X135084765Y-107069864D02*
X135324238Y-106830391D01*
X135324238Y-106830391D02*
X135495291Y-106727759D01*
X135495291Y-106727759D02*
X135632133Y-106727759D01*
X135632133Y-106727759D02*
X135734764Y-106761970D01*
X135632133Y-108027758D02*
X135700554Y-108164600D01*
X135700554Y-108164600D02*
X135871606Y-108335653D01*
X135871606Y-108335653D02*
X135974238Y-108369863D01*
X135974238Y-108369863D02*
X136042659Y-108369863D01*
X136042659Y-108369863D02*
X136145290Y-108335653D01*
X136145290Y-108335653D02*
X136213711Y-108267232D01*
X136213711Y-108267232D02*
X136247922Y-108164600D01*
X136247922Y-108164600D02*
X136247922Y-108096179D01*
X136247922Y-108096179D02*
X136213711Y-107993548D01*
X136213711Y-107993548D02*
X136111080Y-107822495D01*
X136111080Y-107822495D02*
X136076869Y-107719864D01*
X136076869Y-107719864D02*
X136076869Y-107651443D01*
X136076869Y-107651443D02*
X136111080Y-107548811D01*
X136111080Y-107548811D02*
X136179501Y-107480390D01*
X136179501Y-107480390D02*
X136282132Y-107446180D01*
X136282132Y-107446180D02*
X136350553Y-107446180D01*
X136350553Y-107446180D02*
X136453185Y-107480390D01*
X136453185Y-107480390D02*
X136624237Y-107651443D01*
X136624237Y-107651443D02*
X136692658Y-107788285D01*
X136795290Y-109122494D02*
X136726869Y-109122494D01*
X136726869Y-109122494D02*
X136590027Y-109054073D01*
X136590027Y-109054073D02*
X136521606Y-108985652D01*
X136521606Y-108985652D02*
X136453185Y-108848810D01*
X136453185Y-108848810D02*
X136453185Y-108711968D01*
X136453185Y-108711968D02*
X136487395Y-108609337D01*
X136487395Y-108609337D02*
X136590027Y-108438284D01*
X136590027Y-108438284D02*
X136692658Y-108335653D01*
X136692658Y-108335653D02*
X136863711Y-108233021D01*
X136863711Y-108233021D02*
X136966342Y-108198811D01*
X136966342Y-108198811D02*
X137103184Y-108198811D01*
X137103184Y-108198811D02*
X137240026Y-108267232D01*
X137240026Y-108267232D02*
X137308447Y-108335653D01*
X137308447Y-108335653D02*
X137376868Y-108472495D01*
X137376868Y-108472495D02*
X137376868Y-108540916D01*
X137034763Y-109498810D02*
X137753184Y-108780389D01*
X137479500Y-109054073D02*
X137582131Y-109088284D01*
X137582131Y-109088284D02*
X137718973Y-109225126D01*
X137718973Y-109225126D02*
X137753184Y-109327757D01*
X137753184Y-109327757D02*
X137753184Y-109396178D01*
X137753184Y-109396178D02*
X137718973Y-109498810D01*
X137718973Y-109498810D02*
X137513710Y-109704073D01*
X137513710Y-109704073D02*
X137411079Y-109738283D01*
X137411079Y-109738283D02*
X137342658Y-109738283D01*
X137342658Y-109738283D02*
X137240026Y-109704073D01*
X137240026Y-109704073D02*
X137103184Y-109567231D01*
X137103184Y-109567231D02*
X137068974Y-109464599D01*
X138505814Y-110422493D02*
X139053182Y-110969861D01*
X132320254Y-107097535D02*
X133038675Y-106379114D01*
X133038675Y-106379114D02*
X133209727Y-106550167D01*
X133209727Y-106550167D02*
X133278148Y-106687009D01*
X133278148Y-106687009D02*
X133278148Y-106823851D01*
X133278148Y-106823851D02*
X133243938Y-106926482D01*
X133243938Y-106926482D02*
X133141306Y-107097535D01*
X133141306Y-107097535D02*
X133038675Y-107200166D01*
X133038675Y-107200166D02*
X132867622Y-107302798D01*
X132867622Y-107302798D02*
X132764991Y-107337008D01*
X132764991Y-107337008D02*
X132628149Y-107337008D01*
X132628149Y-107337008D02*
X132491307Y-107268587D01*
X132491307Y-107268587D02*
X132320254Y-107097535D01*
X133414990Y-107439640D02*
X133654464Y-107679113D01*
X133380780Y-108158060D02*
X133038675Y-107815955D01*
X133038675Y-107815955D02*
X133757095Y-107097535D01*
X133757095Y-107097535D02*
X134099200Y-107439640D01*
X134304463Y-108329113D02*
X134372884Y-108465955D01*
X134372884Y-108465955D02*
X134372884Y-108534376D01*
X134372884Y-108534376D02*
X134338674Y-108637007D01*
X134338674Y-108637007D02*
X134236042Y-108739639D01*
X134236042Y-108739639D02*
X134133411Y-108773849D01*
X134133411Y-108773849D02*
X134064990Y-108773849D01*
X134064990Y-108773849D02*
X133962358Y-108739639D01*
X133962358Y-108739639D02*
X133688674Y-108465955D01*
X133688674Y-108465955D02*
X134407095Y-107747534D01*
X134407095Y-107747534D02*
X134646568Y-107987008D01*
X134646568Y-107987008D02*
X134680779Y-108089639D01*
X134680779Y-108089639D02*
X134680779Y-108158060D01*
X134680779Y-108158060D02*
X134646568Y-108260692D01*
X134646568Y-108260692D02*
X134578147Y-108329113D01*
X134578147Y-108329113D02*
X134475516Y-108363323D01*
X134475516Y-108363323D02*
X134407095Y-108363323D01*
X134407095Y-108363323D02*
X134304463Y-108329113D01*
X134304463Y-108329113D02*
X134064990Y-108089639D01*
X135125515Y-108465955D02*
X134543937Y-109047533D01*
X134543937Y-109047533D02*
X134509726Y-109150165D01*
X134509726Y-109150165D02*
X134509726Y-109218586D01*
X134509726Y-109218586D02*
X134543937Y-109321217D01*
X134543937Y-109321217D02*
X134680779Y-109458059D01*
X134680779Y-109458059D02*
X134783410Y-109492270D01*
X134783410Y-109492270D02*
X134851831Y-109492270D01*
X134851831Y-109492270D02*
X134954463Y-109458059D01*
X134954463Y-109458059D02*
X135536041Y-108876481D01*
X136220251Y-109629112D02*
X136186041Y-109526480D01*
X136186041Y-109526480D02*
X136083409Y-109423849D01*
X136083409Y-109423849D02*
X135946567Y-109355428D01*
X135946567Y-109355428D02*
X135809725Y-109355428D01*
X135809725Y-109355428D02*
X135707094Y-109389638D01*
X135707094Y-109389638D02*
X135536041Y-109492270D01*
X135536041Y-109492270D02*
X135433410Y-109594901D01*
X135433410Y-109594901D02*
X135330778Y-109765954D01*
X135330778Y-109765954D02*
X135296568Y-109868585D01*
X135296568Y-109868585D02*
X135296568Y-110005427D01*
X135296568Y-110005427D02*
X135364989Y-110142269D01*
X135364989Y-110142269D02*
X135433410Y-110210690D01*
X135433410Y-110210690D02*
X135570252Y-110279111D01*
X135570252Y-110279111D02*
X135638673Y-110279111D01*
X135638673Y-110279111D02*
X135878146Y-110039638D01*
X135878146Y-110039638D02*
X135741304Y-109902796D01*
X135878146Y-110655427D02*
X136596567Y-109937006D01*
X136322883Y-110210690D02*
X136425514Y-110244901D01*
X136425514Y-110244901D02*
X136562356Y-110381743D01*
X136562356Y-110381743D02*
X136596567Y-110484374D01*
X136596567Y-110484374D02*
X136596567Y-110552795D01*
X136596567Y-110552795D02*
X136562356Y-110655427D01*
X136562356Y-110655427D02*
X136357093Y-110860690D01*
X136357093Y-110860690D02*
X136254462Y-110894900D01*
X136254462Y-110894900D02*
X136186041Y-110894900D01*
X136186041Y-110894900D02*
X136083409Y-110860690D01*
X136083409Y-110860690D02*
X135946567Y-110723848D01*
X135946567Y-110723848D02*
X135912357Y-110621216D01*
X137349197Y-111579110D02*
X137896565Y-112126478D01*
X164041983Y-75492552D02*
X164589351Y-74945184D01*
X165444613Y-73268870D02*
X165341981Y-73303080D01*
X165341981Y-73303080D02*
X165239350Y-73405712D01*
X165239350Y-73405712D02*
X165170929Y-73542554D01*
X165170929Y-73542554D02*
X165170929Y-73679396D01*
X165170929Y-73679396D02*
X165205139Y-73782027D01*
X165205139Y-73782027D02*
X165307771Y-73953080D01*
X165307771Y-73953080D02*
X165410402Y-74055711D01*
X165410402Y-74055711D02*
X165581455Y-74158343D01*
X165581455Y-74158343D02*
X165684086Y-74192553D01*
X165684086Y-74192553D02*
X165820928Y-74192553D01*
X165820928Y-74192553D02*
X165957770Y-74124132D01*
X165957770Y-74124132D02*
X166026191Y-74055711D01*
X166026191Y-74055711D02*
X166094612Y-73918869D01*
X166094612Y-73918869D02*
X166094612Y-73850448D01*
X166094612Y-73850448D02*
X165855139Y-73610975D01*
X165855139Y-73610975D02*
X165718297Y-73747817D01*
X166470928Y-73610975D02*
X165752507Y-72892554D01*
X165752507Y-72892554D02*
X166881454Y-73200449D01*
X166881454Y-73200449D02*
X166163033Y-72482028D01*
X167223559Y-72858344D02*
X166505139Y-72139923D01*
X166505139Y-72139923D02*
X166676191Y-71968871D01*
X166676191Y-71968871D02*
X166813033Y-71900450D01*
X166813033Y-71900450D02*
X166949875Y-71900450D01*
X166949875Y-71900450D02*
X167052507Y-71934660D01*
X167052507Y-71934660D02*
X167223559Y-72037292D01*
X167223559Y-72037292D02*
X167326190Y-72139923D01*
X167326190Y-72139923D02*
X167428822Y-72310976D01*
X167428822Y-72310976D02*
X167463032Y-72413607D01*
X167463032Y-72413607D02*
X167463032Y-72550449D01*
X167463032Y-72550449D02*
X167394611Y-72687291D01*
X167394611Y-72687291D02*
X167223559Y-72858344D01*
X165198600Y-76649169D02*
X165745968Y-76101801D01*
X166088072Y-74870223D02*
X166498598Y-74459697D01*
X167011756Y-75383381D02*
X166293335Y-74664960D01*
X166669651Y-74288645D02*
X167867018Y-74528118D01*
X167148598Y-73809698D02*
X167388071Y-75007065D01*
X168140702Y-74254434D02*
X167422282Y-73536014D01*
X167422282Y-73536014D02*
X167593334Y-73364961D01*
X167593334Y-73364961D02*
X167730176Y-73296540D01*
X167730176Y-73296540D02*
X167867018Y-73296540D01*
X167867018Y-73296540D02*
X167969650Y-73330751D01*
X167969650Y-73330751D02*
X168140702Y-73433382D01*
X168140702Y-73433382D02*
X168243334Y-73536014D01*
X168243334Y-73536014D02*
X168345965Y-73707066D01*
X168345965Y-73707066D02*
X168380176Y-73809698D01*
X168380176Y-73809698D02*
X168380176Y-73946540D01*
X168380176Y-73946540D02*
X168311755Y-74083382D01*
X168311755Y-74083382D02*
X168140702Y-74254434D01*
X169167017Y-73228119D02*
X168790702Y-72851804D01*
X168790702Y-72851804D02*
X168688070Y-72817593D01*
X168688070Y-72817593D02*
X168585439Y-72851804D01*
X168585439Y-72851804D02*
X168448597Y-72988646D01*
X168448597Y-72988646D02*
X168414386Y-73091277D01*
X169132807Y-73193909D02*
X169098596Y-73296540D01*
X169098596Y-73296540D02*
X168927544Y-73467593D01*
X168927544Y-73467593D02*
X168824912Y-73501803D01*
X168824912Y-73501803D02*
X168722281Y-73467593D01*
X168722281Y-73467593D02*
X168653860Y-73399172D01*
X168653860Y-73399172D02*
X168619649Y-73296540D01*
X168619649Y-73296540D02*
X168653860Y-73193909D01*
X168653860Y-73193909D02*
X168824912Y-73022856D01*
X168824912Y-73022856D02*
X168859123Y-72920225D01*
X166355217Y-77805786D02*
X166902585Y-77258418D01*
X168476267Y-76232103D02*
X167894689Y-76129472D01*
X168065741Y-76642629D02*
X167347321Y-75924209D01*
X167347321Y-75924209D02*
X167621005Y-75650525D01*
X167621005Y-75650525D02*
X167723636Y-75616314D01*
X167723636Y-75616314D02*
X167792057Y-75616314D01*
X167792057Y-75616314D02*
X167894689Y-75650525D01*
X167894689Y-75650525D02*
X167997320Y-75753156D01*
X167997320Y-75753156D02*
X168031531Y-75855788D01*
X168031531Y-75855788D02*
X168031531Y-75924209D01*
X168031531Y-75924209D02*
X167997320Y-76026840D01*
X167997320Y-76026840D02*
X167723636Y-76300524D01*
X167997320Y-75274209D02*
X169194688Y-75513683D01*
X168476267Y-74795262D02*
X168715741Y-75992630D01*
X169468372Y-75239999D02*
X168749951Y-74521578D01*
X168749951Y-74521578D02*
X168921004Y-74350526D01*
X168921004Y-74350526D02*
X169057846Y-74282105D01*
X169057846Y-74282105D02*
X169194688Y-74282105D01*
X169194688Y-74282105D02*
X169297319Y-74316315D01*
X169297319Y-74316315D02*
X169468372Y-74418947D01*
X169468372Y-74418947D02*
X169571003Y-74521578D01*
X169571003Y-74521578D02*
X169673635Y-74692631D01*
X169673635Y-74692631D02*
X169707845Y-74795262D01*
X169707845Y-74795262D02*
X169707845Y-74932104D01*
X169707845Y-74932104D02*
X169639424Y-75068946D01*
X169639424Y-75068946D02*
X169468372Y-75239999D01*
X170494687Y-74213684D02*
X170118371Y-73837368D01*
X170118371Y-73837368D02*
X170015740Y-73803158D01*
X170015740Y-73803158D02*
X169913108Y-73837368D01*
X169913108Y-73837368D02*
X169776266Y-73974210D01*
X169776266Y-73974210D02*
X169742056Y-74076842D01*
X170460476Y-74179473D02*
X170426266Y-74282105D01*
X170426266Y-74282105D02*
X170255213Y-74453157D01*
X170255213Y-74453157D02*
X170152582Y-74487368D01*
X170152582Y-74487368D02*
X170049950Y-74453157D01*
X170049950Y-74453157D02*
X169981529Y-74384736D01*
X169981529Y-74384736D02*
X169947319Y-74282105D01*
X169947319Y-74282105D02*
X169981529Y-74179473D01*
X169981529Y-74179473D02*
X170152582Y-74008421D01*
X170152582Y-74008421D02*
X170186792Y-73905789D01*
X167511834Y-78962403D02*
X168059202Y-78415035D01*
X168401306Y-77183457D02*
X168811832Y-76772931D01*
X169324990Y-77696615D02*
X168606569Y-76978194D01*
X169769726Y-77251878D02*
X169051306Y-76533458D01*
X169051306Y-76533458D02*
X170180252Y-76841352D01*
X170180252Y-76841352D02*
X169461832Y-76122932D01*
X169940779Y-75643985D02*
X170077621Y-75507143D01*
X170077621Y-75507143D02*
X170180252Y-75472932D01*
X170180252Y-75472932D02*
X170317094Y-75472932D01*
X170317094Y-75472932D02*
X170488147Y-75575564D01*
X170488147Y-75575564D02*
X170727620Y-75815037D01*
X170727620Y-75815037D02*
X170830252Y-75986090D01*
X170830252Y-75986090D02*
X170830252Y-76122932D01*
X170830252Y-76122932D02*
X170796041Y-76225563D01*
X170796041Y-76225563D02*
X170659199Y-76362405D01*
X170659199Y-76362405D02*
X170556568Y-76396616D01*
X170556568Y-76396616D02*
X170419726Y-76396616D01*
X170419726Y-76396616D02*
X170248673Y-76293984D01*
X170248673Y-76293984D02*
X170009200Y-76054511D01*
X170009200Y-76054511D02*
X169906568Y-75883458D01*
X169906568Y-75883458D02*
X169906568Y-75746616D01*
X169906568Y-75746616D02*
X169940779Y-75643985D01*
X170488147Y-75096617D02*
X171377620Y-75643985D01*
X171377620Y-75643985D02*
X171001304Y-74993985D01*
X171001304Y-74993985D02*
X171651304Y-75370301D01*
X171651304Y-75370301D02*
X171103936Y-74480828D01*
X172403935Y-74617670D02*
X172027619Y-74241354D01*
X172027619Y-74241354D02*
X171924988Y-74207144D01*
X171924988Y-74207144D02*
X171822356Y-74241354D01*
X171822356Y-74241354D02*
X171685514Y-74378196D01*
X171685514Y-74378196D02*
X171651304Y-74480828D01*
X172369724Y-74583459D02*
X172335514Y-74686091D01*
X172335514Y-74686091D02*
X172164461Y-74857143D01*
X172164461Y-74857143D02*
X172061830Y-74891354D01*
X172061830Y-74891354D02*
X171959198Y-74857143D01*
X171959198Y-74857143D02*
X171890777Y-74788722D01*
X171890777Y-74788722D02*
X171856567Y-74686091D01*
X171856567Y-74686091D02*
X171890777Y-74583459D01*
X171890777Y-74583459D02*
X172061830Y-74412407D01*
X172061830Y-74412407D02*
X172096040Y-74309775D01*
X162261607Y-130005348D02*
X162808975Y-130552716D01*
X164485289Y-131407978D02*
X164451079Y-131305346D01*
X164451079Y-131305346D02*
X164348447Y-131202715D01*
X164348447Y-131202715D02*
X164211605Y-131134294D01*
X164211605Y-131134294D02*
X164074763Y-131134294D01*
X164074763Y-131134294D02*
X163972132Y-131168504D01*
X163972132Y-131168504D02*
X163801079Y-131271136D01*
X163801079Y-131271136D02*
X163698448Y-131373767D01*
X163698448Y-131373767D02*
X163595816Y-131544820D01*
X163595816Y-131544820D02*
X163561606Y-131647451D01*
X163561606Y-131647451D02*
X163561606Y-131784293D01*
X163561606Y-131784293D02*
X163630027Y-131921135D01*
X163630027Y-131921135D02*
X163698448Y-131989556D01*
X163698448Y-131989556D02*
X163835290Y-132057977D01*
X163835290Y-132057977D02*
X163903711Y-132057977D01*
X163903711Y-132057977D02*
X164143184Y-131818504D01*
X164143184Y-131818504D02*
X164006342Y-131681662D01*
X164143184Y-132434293D02*
X164861605Y-131715872D01*
X164861605Y-131715872D02*
X164553710Y-132844819D01*
X164553710Y-132844819D02*
X165272131Y-132126398D01*
X164895815Y-133186924D02*
X165614236Y-132468504D01*
X165614236Y-132468504D02*
X165785288Y-132639556D01*
X165785288Y-132639556D02*
X165853709Y-132776398D01*
X165853709Y-132776398D02*
X165853709Y-132913240D01*
X165853709Y-132913240D02*
X165819499Y-133015872D01*
X165819499Y-133015872D02*
X165716867Y-133186924D01*
X165716867Y-133186924D02*
X165614236Y-133289555D01*
X165614236Y-133289555D02*
X165443183Y-133392187D01*
X165443183Y-133392187D02*
X165340552Y-133426397D01*
X165340552Y-133426397D02*
X165203710Y-133426397D01*
X165203710Y-133426397D02*
X165066868Y-133357976D01*
X165066868Y-133357976D02*
X164895815Y-133186924D01*
X161104990Y-131161965D02*
X161652358Y-131709333D01*
X162883936Y-132051437D02*
X163294462Y-132461963D01*
X162370778Y-132975121D02*
X163089199Y-132256700D01*
X163465514Y-132633016D02*
X163226041Y-133830383D01*
X163944461Y-133111963D02*
X162747094Y-133351436D01*
X163499725Y-134104067D02*
X164218145Y-133385647D01*
X164218145Y-133385647D02*
X164389198Y-133556699D01*
X164389198Y-133556699D02*
X164457619Y-133693541D01*
X164457619Y-133693541D02*
X164457619Y-133830383D01*
X164457619Y-133830383D02*
X164423408Y-133933015D01*
X164423408Y-133933015D02*
X164320777Y-134104067D01*
X164320777Y-134104067D02*
X164218145Y-134206699D01*
X164218145Y-134206699D02*
X164047093Y-134309330D01*
X164047093Y-134309330D02*
X163944461Y-134343541D01*
X163944461Y-134343541D02*
X163807619Y-134343541D01*
X163807619Y-134343541D02*
X163670777Y-134275120D01*
X163670777Y-134275120D02*
X163499725Y-134104067D01*
X164218145Y-134822488D02*
X164936566Y-134104067D01*
X164662882Y-134377751D02*
X164765513Y-134411962D01*
X164765513Y-134411962D02*
X164902355Y-134548804D01*
X164902355Y-134548804D02*
X164936566Y-134651435D01*
X164936566Y-134651435D02*
X164936566Y-134719856D01*
X164936566Y-134719856D02*
X164902355Y-134822488D01*
X164902355Y-134822488D02*
X164697092Y-135027751D01*
X164697092Y-135027751D02*
X164594461Y-135061961D01*
X164594461Y-135061961D02*
X164526040Y-135061961D01*
X164526040Y-135061961D02*
X164423408Y-135027751D01*
X164423408Y-135027751D02*
X164286566Y-134890909D01*
X164286566Y-134890909D02*
X164252356Y-134788277D01*
X159948373Y-132318582D02*
X160495741Y-132865950D01*
X161522056Y-134439632D02*
X161624687Y-133858054D01*
X161111530Y-134029106D02*
X161829950Y-133310686D01*
X161829950Y-133310686D02*
X162103634Y-133584370D01*
X162103634Y-133584370D02*
X162137845Y-133687001D01*
X162137845Y-133687001D02*
X162137845Y-133755422D01*
X162137845Y-133755422D02*
X162103634Y-133858054D01*
X162103634Y-133858054D02*
X162001003Y-133960685D01*
X162001003Y-133960685D02*
X161898371Y-133994896D01*
X161898371Y-133994896D02*
X161829950Y-133994896D01*
X161829950Y-133994896D02*
X161727319Y-133960685D01*
X161727319Y-133960685D02*
X161453635Y-133687001D01*
X162479950Y-133960685D02*
X162240476Y-135158053D01*
X162958897Y-134439632D02*
X161761529Y-134679106D01*
X162514160Y-135431737D02*
X163232581Y-134713316D01*
X163232581Y-134713316D02*
X163403633Y-134884369D01*
X163403633Y-134884369D02*
X163472054Y-135021211D01*
X163472054Y-135021211D02*
X163472054Y-135158053D01*
X163472054Y-135158053D02*
X163437844Y-135260684D01*
X163437844Y-135260684D02*
X163335212Y-135431737D01*
X163335212Y-135431737D02*
X163232581Y-135534368D01*
X163232581Y-135534368D02*
X163061528Y-135637000D01*
X163061528Y-135637000D02*
X162958897Y-135671210D01*
X162958897Y-135671210D02*
X162822055Y-135671210D01*
X162822055Y-135671210D02*
X162685213Y-135602789D01*
X162685213Y-135602789D02*
X162514160Y-135431737D01*
X163232581Y-136150157D02*
X163951001Y-135431737D01*
X163677317Y-135705421D02*
X163779949Y-135739631D01*
X163779949Y-135739631D02*
X163916791Y-135876473D01*
X163916791Y-135876473D02*
X163951001Y-135979105D01*
X163951001Y-135979105D02*
X163951001Y-136047526D01*
X163951001Y-136047526D02*
X163916791Y-136150157D01*
X163916791Y-136150157D02*
X163711528Y-136355420D01*
X163711528Y-136355420D02*
X163608896Y-136389631D01*
X163608896Y-136389631D02*
X163540475Y-136389631D01*
X163540475Y-136389631D02*
X163437844Y-136355420D01*
X163437844Y-136355420D02*
X163301002Y-136218578D01*
X163301002Y-136218578D02*
X163266791Y-136115947D01*
X158791756Y-133475199D02*
X159339124Y-134022567D01*
X160570702Y-134364671D02*
X160981228Y-134775197D01*
X160057544Y-135288355D02*
X160775965Y-134569934D01*
X160502281Y-135733091D02*
X161220701Y-135014671D01*
X161220701Y-135014671D02*
X160912807Y-136143617D01*
X160912807Y-136143617D02*
X161631227Y-135425197D01*
X162110174Y-135904144D02*
X162247016Y-136040986D01*
X162247016Y-136040986D02*
X162281227Y-136143617D01*
X162281227Y-136143617D02*
X162281227Y-136280459D01*
X162281227Y-136280459D02*
X162178595Y-136451512D01*
X162178595Y-136451512D02*
X161939122Y-136690985D01*
X161939122Y-136690985D02*
X161768069Y-136793617D01*
X161768069Y-136793617D02*
X161631227Y-136793617D01*
X161631227Y-136793617D02*
X161528596Y-136759406D01*
X161528596Y-136759406D02*
X161391754Y-136622564D01*
X161391754Y-136622564D02*
X161357543Y-136519933D01*
X161357543Y-136519933D02*
X161357543Y-136383091D01*
X161357543Y-136383091D02*
X161460175Y-136212038D01*
X161460175Y-136212038D02*
X161699648Y-135972565D01*
X161699648Y-135972565D02*
X161870701Y-135869933D01*
X161870701Y-135869933D02*
X162007543Y-135869933D01*
X162007543Y-135869933D02*
X162110174Y-135904144D01*
X162657542Y-136451512D02*
X162110174Y-137340985D01*
X162110174Y-137340985D02*
X162760174Y-136964669D01*
X162760174Y-136964669D02*
X162383858Y-137614669D01*
X162383858Y-137614669D02*
X163273331Y-137067301D01*
X162828595Y-138059405D02*
X163547015Y-137340985D01*
X163273331Y-137614669D02*
X163375963Y-137648879D01*
X163375963Y-137648879D02*
X163512805Y-137785721D01*
X163512805Y-137785721D02*
X163547015Y-137888353D01*
X163547015Y-137888353D02*
X163547015Y-137956774D01*
X163547015Y-137956774D02*
X163512805Y-138059405D01*
X163512805Y-138059405D02*
X163307542Y-138264668D01*
X163307542Y-138264668D02*
X163204910Y-138298879D01*
X163204910Y-138298879D02*
X163136489Y-138298879D01*
X163136489Y-138298879D02*
X163033858Y-138264668D01*
X163033858Y-138264668D02*
X162897016Y-138127826D01*
X162897016Y-138127826D02*
X162862805Y-138025195D01*
X164053223Y-89161232D02*
X164600591Y-89708600D01*
X165216380Y-90871756D02*
X165934800Y-90153336D01*
X166413748Y-90632283D02*
X166550590Y-90769125D01*
X166550590Y-90769125D02*
X166584800Y-90871757D01*
X166584800Y-90871757D02*
X166584800Y-91008599D01*
X166584800Y-91008599D02*
X166482169Y-91179651D01*
X166482169Y-91179651D02*
X166242695Y-91419125D01*
X166242695Y-91419125D02*
X166071643Y-91521756D01*
X166071643Y-91521756D02*
X165934801Y-91521756D01*
X165934801Y-91521756D02*
X165832169Y-91487546D01*
X165832169Y-91487546D02*
X165695327Y-91350704D01*
X165695327Y-91350704D02*
X165661117Y-91248072D01*
X165661117Y-91248072D02*
X165661117Y-91111230D01*
X165661117Y-91111230D02*
X165763748Y-90940178D01*
X165763748Y-90940178D02*
X166003222Y-90700704D01*
X166003222Y-90700704D02*
X166174274Y-90598073D01*
X166174274Y-90598073D02*
X166311116Y-90598073D01*
X166311116Y-90598073D02*
X166413748Y-90632283D01*
X167097958Y-91795440D02*
X166619011Y-92274387D01*
X167200589Y-91350704D02*
X166516379Y-91692809D01*
X166516379Y-91692809D02*
X166961116Y-92137545D01*
X167303221Y-92958597D02*
X167679536Y-92582282D01*
X167679536Y-92582282D02*
X167713747Y-92479650D01*
X167713747Y-92479650D02*
X167679536Y-92377019D01*
X167679536Y-92377019D02*
X167542694Y-92240177D01*
X167542694Y-92240177D02*
X167440063Y-92205966D01*
X167337431Y-92924387D02*
X167234800Y-92890176D01*
X167234800Y-92890176D02*
X167063747Y-92719124D01*
X167063747Y-92719124D02*
X167029537Y-92616492D01*
X167029537Y-92616492D02*
X167063747Y-92513861D01*
X167063747Y-92513861D02*
X167132168Y-92445440D01*
X167132168Y-92445440D02*
X167234800Y-92411229D01*
X167234800Y-92411229D02*
X167337431Y-92445440D01*
X167337431Y-92445440D02*
X167508484Y-92616492D01*
X167508484Y-92616492D02*
X167611115Y-92650703D01*
X162896606Y-90317849D02*
X163443974Y-90865217D01*
X164059763Y-92028373D02*
X164778183Y-91309953D01*
X165257131Y-91788900D02*
X165393973Y-91925742D01*
X165393973Y-91925742D02*
X165428183Y-92028374D01*
X165428183Y-92028374D02*
X165428183Y-92165216D01*
X165428183Y-92165216D02*
X165325552Y-92336268D01*
X165325552Y-92336268D02*
X165086078Y-92575742D01*
X165086078Y-92575742D02*
X164915026Y-92678373D01*
X164915026Y-92678373D02*
X164778184Y-92678373D01*
X164778184Y-92678373D02*
X164675552Y-92644163D01*
X164675552Y-92644163D02*
X164538710Y-92507321D01*
X164538710Y-92507321D02*
X164504500Y-92404689D01*
X164504500Y-92404689D02*
X164504500Y-92267847D01*
X164504500Y-92267847D02*
X164607131Y-92096795D01*
X164607131Y-92096795D02*
X164846605Y-91857321D01*
X164846605Y-91857321D02*
X165017657Y-91754690D01*
X165017657Y-91754690D02*
X165154499Y-91754690D01*
X165154499Y-91754690D02*
X165257131Y-91788900D01*
X165804499Y-92336268D02*
X166249235Y-92781005D01*
X166249235Y-92781005D02*
X165736078Y-92815215D01*
X165736078Y-92815215D02*
X165838709Y-92917847D01*
X165838709Y-92917847D02*
X165872920Y-93020478D01*
X165872920Y-93020478D02*
X165872920Y-93088899D01*
X165872920Y-93088899D02*
X165838709Y-93191531D01*
X165838709Y-93191531D02*
X165667657Y-93362583D01*
X165667657Y-93362583D02*
X165565025Y-93396794D01*
X165565025Y-93396794D02*
X165496604Y-93396794D01*
X165496604Y-93396794D02*
X165393973Y-93362583D01*
X165393973Y-93362583D02*
X165188710Y-93157320D01*
X165188710Y-93157320D02*
X165154499Y-93054689D01*
X165154499Y-93054689D02*
X165154499Y-92986268D01*
X166146604Y-94115214D02*
X166522919Y-93738899D01*
X166522919Y-93738899D02*
X166557130Y-93636267D01*
X166557130Y-93636267D02*
X166522919Y-93533636D01*
X166522919Y-93533636D02*
X166386077Y-93396794D01*
X166386077Y-93396794D02*
X166283446Y-93362583D01*
X166180814Y-94081004D02*
X166078183Y-94046793D01*
X166078183Y-94046793D02*
X165907130Y-93875741D01*
X165907130Y-93875741D02*
X165872920Y-93773109D01*
X165872920Y-93773109D02*
X165907130Y-93670478D01*
X165907130Y-93670478D02*
X165975551Y-93602057D01*
X165975551Y-93602057D02*
X166078183Y-93567846D01*
X166078183Y-93567846D02*
X166180814Y-93602057D01*
X166180814Y-93602057D02*
X166351867Y-93773109D01*
X166351867Y-93773109D02*
X166454498Y-93807320D01*
X161739989Y-91474466D02*
X162287357Y-92021834D01*
X162903146Y-93184990D02*
X163621566Y-92466570D01*
X164100514Y-92945517D02*
X164237356Y-93082359D01*
X164237356Y-93082359D02*
X164271566Y-93184991D01*
X164271566Y-93184991D02*
X164271566Y-93321833D01*
X164271566Y-93321833D02*
X164168935Y-93492885D01*
X164168935Y-93492885D02*
X163929461Y-93732359D01*
X163929461Y-93732359D02*
X163758409Y-93834990D01*
X163758409Y-93834990D02*
X163621567Y-93834990D01*
X163621567Y-93834990D02*
X163518935Y-93800780D01*
X163518935Y-93800780D02*
X163382093Y-93663938D01*
X163382093Y-93663938D02*
X163347883Y-93561306D01*
X163347883Y-93561306D02*
X163347883Y-93424464D01*
X163347883Y-93424464D02*
X163450514Y-93253412D01*
X163450514Y-93253412D02*
X163689988Y-93013938D01*
X163689988Y-93013938D02*
X163861040Y-92911307D01*
X163861040Y-92911307D02*
X163997882Y-92911307D01*
X163997882Y-92911307D02*
X164100514Y-92945517D01*
X164613671Y-93595517D02*
X164682092Y-93595517D01*
X164682092Y-93595517D02*
X164784724Y-93629727D01*
X164784724Y-93629727D02*
X164955776Y-93800780D01*
X164955776Y-93800780D02*
X164989987Y-93903411D01*
X164989987Y-93903411D02*
X164989987Y-93971832D01*
X164989987Y-93971832D02*
X164955776Y-94074464D01*
X164955776Y-94074464D02*
X164887355Y-94142885D01*
X164887355Y-94142885D02*
X164750513Y-94211306D01*
X164750513Y-94211306D02*
X163929461Y-94211306D01*
X163929461Y-94211306D02*
X164374198Y-94656042D01*
X164989987Y-95271831D02*
X165366302Y-94895516D01*
X165366302Y-94895516D02*
X165400513Y-94792884D01*
X165400513Y-94792884D02*
X165366302Y-94690253D01*
X165366302Y-94690253D02*
X165229460Y-94553411D01*
X165229460Y-94553411D02*
X165126829Y-94519200D01*
X165024197Y-95237621D02*
X164921566Y-95203410D01*
X164921566Y-95203410D02*
X164750513Y-95032358D01*
X164750513Y-95032358D02*
X164716303Y-94929726D01*
X164716303Y-94929726D02*
X164750513Y-94827095D01*
X164750513Y-94827095D02*
X164818934Y-94758674D01*
X164818934Y-94758674D02*
X164921566Y-94724463D01*
X164921566Y-94724463D02*
X165024197Y-94758674D01*
X165024197Y-94758674D02*
X165195250Y-94929726D01*
X165195250Y-94929726D02*
X165297881Y-94963937D01*
X160583372Y-92631083D02*
X161130740Y-93178451D01*
X161746529Y-94341607D02*
X162464949Y-93623187D01*
X162943897Y-94102134D02*
X163080739Y-94238976D01*
X163080739Y-94238976D02*
X163114949Y-94341608D01*
X163114949Y-94341608D02*
X163114949Y-94478450D01*
X163114949Y-94478450D02*
X163012318Y-94649502D01*
X163012318Y-94649502D02*
X162772844Y-94888976D01*
X162772844Y-94888976D02*
X162601792Y-94991607D01*
X162601792Y-94991607D02*
X162464950Y-94991607D01*
X162464950Y-94991607D02*
X162362318Y-94957397D01*
X162362318Y-94957397D02*
X162225476Y-94820555D01*
X162225476Y-94820555D02*
X162191266Y-94717923D01*
X162191266Y-94717923D02*
X162191266Y-94581081D01*
X162191266Y-94581081D02*
X162293897Y-94410029D01*
X162293897Y-94410029D02*
X162533371Y-94170555D01*
X162533371Y-94170555D02*
X162704423Y-94067924D01*
X162704423Y-94067924D02*
X162841265Y-94067924D01*
X162841265Y-94067924D02*
X162943897Y-94102134D01*
X163217581Y-95812659D02*
X162807055Y-95402133D01*
X163012318Y-95607396D02*
X163730738Y-94888976D01*
X163730738Y-94888976D02*
X163559686Y-94923186D01*
X163559686Y-94923186D02*
X163422844Y-94923186D01*
X163422844Y-94923186D02*
X163320212Y-94888976D01*
X163833370Y-96428448D02*
X164209685Y-96052133D01*
X164209685Y-96052133D02*
X164243896Y-95949501D01*
X164243896Y-95949501D02*
X164209685Y-95846870D01*
X164209685Y-95846870D02*
X164072843Y-95710028D01*
X164072843Y-95710028D02*
X163970212Y-95675817D01*
X163867580Y-96394238D02*
X163764949Y-96360027D01*
X163764949Y-96360027D02*
X163593896Y-96188975D01*
X163593896Y-96188975D02*
X163559686Y-96086343D01*
X163559686Y-96086343D02*
X163593896Y-95983712D01*
X163593896Y-95983712D02*
X163662317Y-95915291D01*
X163662317Y-95915291D02*
X163764949Y-95881080D01*
X163764949Y-95881080D02*
X163867580Y-95915291D01*
X163867580Y-95915291D02*
X164038633Y-96086343D01*
X164038633Y-96086343D02*
X164141264Y-96120554D01*
X159426755Y-93787700D02*
X159974123Y-94335068D01*
X161239911Y-94711383D02*
X161000438Y-95908750D01*
X161718858Y-95190330D02*
X160521491Y-95429803D01*
X162129384Y-95600856D02*
X162266226Y-95737698D01*
X162266226Y-95737698D02*
X162300437Y-95840329D01*
X162300437Y-95840329D02*
X162300437Y-95977171D01*
X162300437Y-95977171D02*
X162197805Y-96148224D01*
X162197805Y-96148224D02*
X161958332Y-96387697D01*
X161958332Y-96387697D02*
X161787279Y-96490329D01*
X161787279Y-96490329D02*
X161650437Y-96490329D01*
X161650437Y-96490329D02*
X161547806Y-96456118D01*
X161547806Y-96456118D02*
X161410964Y-96319276D01*
X161410964Y-96319276D02*
X161376753Y-96216645D01*
X161376753Y-96216645D02*
X161376753Y-96079803D01*
X161376753Y-96079803D02*
X161479385Y-95908750D01*
X161479385Y-95908750D02*
X161718858Y-95669277D01*
X161718858Y-95669277D02*
X161889911Y-95566645D01*
X161889911Y-95566645D02*
X162026753Y-95566645D01*
X162026753Y-95566645D02*
X162129384Y-95600856D01*
X162334647Y-97242960D02*
X162710963Y-96866644D01*
X162710963Y-96866644D02*
X162745173Y-96764013D01*
X162745173Y-96764013D02*
X162710963Y-96661381D01*
X162710963Y-96661381D02*
X162574121Y-96524539D01*
X162574121Y-96524539D02*
X162471489Y-96490329D01*
X162368858Y-97208749D02*
X162266226Y-97174539D01*
X162266226Y-97174539D02*
X162095174Y-97003486D01*
X162095174Y-97003486D02*
X162060963Y-96900855D01*
X162060963Y-96900855D02*
X162095174Y-96798223D01*
X162095174Y-96798223D02*
X162163595Y-96729802D01*
X162163595Y-96729802D02*
X162266226Y-96695592D01*
X162266226Y-96695592D02*
X162368858Y-96729802D01*
X162368858Y-96729802D02*
X162539910Y-96900855D01*
X162539910Y-96900855D02*
X162642542Y-96935065D01*
X158270138Y-94944317D02*
X158817506Y-95491685D01*
X160083294Y-95868000D02*
X159843821Y-97065367D01*
X160562241Y-96346947D02*
X159364874Y-96586420D01*
X160117505Y-97339051D02*
X160835925Y-96620631D01*
X160767505Y-97989051D02*
X161143820Y-97612736D01*
X161143820Y-97612736D02*
X161178031Y-97510104D01*
X161178031Y-97510104D02*
X161143820Y-97407473D01*
X161143820Y-97407473D02*
X161006978Y-97270631D01*
X161006978Y-97270631D02*
X160904347Y-97236420D01*
X160801715Y-97954841D02*
X160699084Y-97920630D01*
X160699084Y-97920630D02*
X160528031Y-97749578D01*
X160528031Y-97749578D02*
X160493821Y-97646946D01*
X160493821Y-97646946D02*
X160528031Y-97544315D01*
X160528031Y-97544315D02*
X160596452Y-97475894D01*
X160596452Y-97475894D02*
X160699084Y-97441683D01*
X160699084Y-97441683D02*
X160801715Y-97475894D01*
X160801715Y-97475894D02*
X160972768Y-97646946D01*
X160972768Y-97646946D02*
X161075399Y-97681157D01*
X161494540Y-106400084D02*
X162041908Y-105852716D01*
X163136643Y-105236927D02*
X163273485Y-105168506D01*
X163273485Y-105168506D02*
X163444538Y-104997454D01*
X163444538Y-104997454D02*
X163478748Y-104894822D01*
X163478748Y-104894822D02*
X163478748Y-104826401D01*
X163478748Y-104826401D02*
X163444538Y-104723770D01*
X163444538Y-104723770D02*
X163376117Y-104655349D01*
X163376117Y-104655349D02*
X163273485Y-104621138D01*
X163273485Y-104621138D02*
X163205064Y-104621138D01*
X163205064Y-104621138D02*
X163102433Y-104655349D01*
X163102433Y-104655349D02*
X162931380Y-104757980D01*
X162931380Y-104757980D02*
X162828749Y-104792191D01*
X162828749Y-104792191D02*
X162760328Y-104792191D01*
X162760328Y-104792191D02*
X162657696Y-104757980D01*
X162657696Y-104757980D02*
X162589275Y-104689559D01*
X162589275Y-104689559D02*
X162555065Y-104586928D01*
X162555065Y-104586928D02*
X162555065Y-104518507D01*
X162555065Y-104518507D02*
X162589275Y-104415875D01*
X162589275Y-104415875D02*
X162760328Y-104244823D01*
X162760328Y-104244823D02*
X162897170Y-104176402D01*
X163512959Y-104176402D02*
X163752432Y-103936928D01*
X164231379Y-104210612D02*
X163889274Y-104552717D01*
X163889274Y-104552717D02*
X163170854Y-103834297D01*
X163170854Y-103834297D02*
X163512959Y-103492192D01*
X164881379Y-103560613D02*
X164539274Y-103902718D01*
X164539274Y-103902718D02*
X163820853Y-103184297D01*
X165120852Y-103321139D02*
X164402432Y-102602719D01*
X164676116Y-102876403D02*
X164710326Y-102773771D01*
X164710326Y-102773771D02*
X164847168Y-102636929D01*
X164847168Y-102636929D02*
X164949800Y-102602719D01*
X164949800Y-102602719D02*
X165018221Y-102602719D01*
X165018221Y-102602719D02*
X165120852Y-102636929D01*
X165120852Y-102636929D02*
X165326115Y-102842192D01*
X165326115Y-102842192D02*
X165360326Y-102944824D01*
X165360326Y-102944824D02*
X165360326Y-103013245D01*
X165360326Y-103013245D02*
X165326115Y-103115876D01*
X165326115Y-103115876D02*
X165189273Y-103252718D01*
X165189273Y-103252718D02*
X165086642Y-103286929D01*
X162651157Y-107556701D02*
X163198525Y-107009333D01*
X163540629Y-105777755D02*
X164498523Y-106256702D01*
X164498523Y-106256702D02*
X164019576Y-105298808D01*
X164977470Y-105777755D02*
X164259050Y-105059335D01*
X164259050Y-105059335D02*
X164430102Y-104888282D01*
X164430102Y-104888282D02*
X164566944Y-104819861D01*
X164566944Y-104819861D02*
X164703786Y-104819861D01*
X164703786Y-104819861D02*
X164806418Y-104854072D01*
X164806418Y-104854072D02*
X164977470Y-104956703D01*
X164977470Y-104956703D02*
X165080102Y-105059335D01*
X165080102Y-105059335D02*
X165182733Y-105230387D01*
X165182733Y-105230387D02*
X165216944Y-105333019D01*
X165216944Y-105333019D02*
X165216944Y-105469861D01*
X165216944Y-105469861D02*
X165148523Y-105606703D01*
X165148523Y-105606703D02*
X164977470Y-105777755D01*
X165695891Y-105059335D02*
X164977470Y-104340914D01*
X164977470Y-104340914D02*
X165148523Y-104169862D01*
X165148523Y-104169862D02*
X165285365Y-104101441D01*
X165285365Y-104101441D02*
X165422207Y-104101441D01*
X165422207Y-104101441D02*
X165524838Y-104135651D01*
X165524838Y-104135651D02*
X165695891Y-104238283D01*
X165695891Y-104238283D02*
X165798522Y-104340914D01*
X165798522Y-104340914D02*
X165901154Y-104511967D01*
X165901154Y-104511967D02*
X165935364Y-104614598D01*
X165935364Y-104614598D02*
X165935364Y-104751440D01*
X165935364Y-104751440D02*
X165866943Y-104888282D01*
X165866943Y-104888282D02*
X165695891Y-105059335D01*
X166414311Y-104340914D02*
X165695891Y-103622494D01*
X165969575Y-103896178D02*
X166003785Y-103793546D01*
X166003785Y-103793546D02*
X166140627Y-103656704D01*
X166140627Y-103656704D02*
X166243259Y-103622494D01*
X166243259Y-103622494D02*
X166311680Y-103622494D01*
X166311680Y-103622494D02*
X166414311Y-103656704D01*
X166414311Y-103656704D02*
X166619574Y-103861967D01*
X166619574Y-103861967D02*
X166653785Y-103964599D01*
X166653785Y-103964599D02*
X166653785Y-104033020D01*
X166653785Y-104033020D02*
X166619574Y-104135651D01*
X166619574Y-104135651D02*
X166482732Y-104272493D01*
X166482732Y-104272493D02*
X166380101Y-104306704D01*
X163807774Y-108713318D02*
X164355142Y-108165950D01*
X164697246Y-106934372D02*
X165655140Y-107413319D01*
X165655140Y-107413319D02*
X165176193Y-106455425D01*
X165997245Y-106318583D02*
X166134087Y-106250162D01*
X166134087Y-106250162D02*
X166202508Y-106250162D01*
X166202508Y-106250162D02*
X166305140Y-106284373D01*
X166305140Y-106284373D02*
X166407771Y-106387004D01*
X166407771Y-106387004D02*
X166441982Y-106489636D01*
X166441982Y-106489636D02*
X166441982Y-106558057D01*
X166441982Y-106558057D02*
X166407771Y-106660688D01*
X166407771Y-106660688D02*
X166134087Y-106934372D01*
X166134087Y-106934372D02*
X165415667Y-106215952D01*
X165415667Y-106215952D02*
X165655140Y-105976478D01*
X165655140Y-105976478D02*
X165757772Y-105942268D01*
X165757772Y-105942268D02*
X165826193Y-105942268D01*
X165826193Y-105942268D02*
X165928824Y-105976478D01*
X165928824Y-105976478D02*
X165997245Y-106044899D01*
X165997245Y-106044899D02*
X166031456Y-106147531D01*
X166031456Y-106147531D02*
X166031456Y-106215952D01*
X166031456Y-106215952D02*
X165997245Y-106318583D01*
X165997245Y-106318583D02*
X165757772Y-106558057D01*
X166134087Y-105497531D02*
X166715666Y-106079110D01*
X166715666Y-106079110D02*
X166818297Y-106113320D01*
X166818297Y-106113320D02*
X166886718Y-106113320D01*
X166886718Y-106113320D02*
X166989350Y-106079110D01*
X166989350Y-106079110D02*
X167126192Y-105942268D01*
X167126192Y-105942268D02*
X167160402Y-105839636D01*
X167160402Y-105839636D02*
X167160402Y-105771215D01*
X167160402Y-105771215D02*
X167126192Y-105668584D01*
X167126192Y-105668584D02*
X166544613Y-105087005D01*
X167536718Y-105463321D02*
X167673560Y-105394900D01*
X167673560Y-105394900D02*
X167844612Y-105223847D01*
X167844612Y-105223847D02*
X167878823Y-105121216D01*
X167878823Y-105121216D02*
X167878823Y-105052795D01*
X167878823Y-105052795D02*
X167844612Y-104950163D01*
X167844612Y-104950163D02*
X167776191Y-104881742D01*
X167776191Y-104881742D02*
X167673560Y-104847532D01*
X167673560Y-104847532D02*
X167605139Y-104847532D01*
X167605139Y-104847532D02*
X167502507Y-104881742D01*
X167502507Y-104881742D02*
X167331455Y-104984374D01*
X167331455Y-104984374D02*
X167228823Y-105018584D01*
X167228823Y-105018584D02*
X167160402Y-105018584D01*
X167160402Y-105018584D02*
X167057771Y-104984374D01*
X167057771Y-104984374D02*
X166989350Y-104915953D01*
X166989350Y-104915953D02*
X166955139Y-104813321D01*
X166955139Y-104813321D02*
X166955139Y-104744900D01*
X166955139Y-104744900D02*
X166989350Y-104642269D01*
X166989350Y-104642269D02*
X167160402Y-104471216D01*
X167160402Y-104471216D02*
X167297244Y-104402795D01*
X168289349Y-104779111D02*
X167570928Y-104060690D01*
X167844612Y-104334374D02*
X167878823Y-104231743D01*
X167878823Y-104231743D02*
X168015665Y-104094901D01*
X168015665Y-104094901D02*
X168118296Y-104060690D01*
X168118296Y-104060690D02*
X168186717Y-104060690D01*
X168186717Y-104060690D02*
X168289349Y-104094901D01*
X168289349Y-104094901D02*
X168494612Y-104300164D01*
X168494612Y-104300164D02*
X168528822Y-104402795D01*
X168528822Y-104402795D02*
X168528822Y-104471216D01*
X168528822Y-104471216D02*
X168494612Y-104573848D01*
X168494612Y-104573848D02*
X168357770Y-104710690D01*
X168357770Y-104710690D02*
X168255138Y-104744900D01*
X164964391Y-109869935D02*
X165511759Y-109322567D01*
X166538073Y-108090989D02*
X166674915Y-108022568D01*
X166674915Y-108022568D02*
X166743336Y-108022568D01*
X166743336Y-108022568D02*
X166845968Y-108056779D01*
X166845968Y-108056779D02*
X166948599Y-108159410D01*
X166948599Y-108159410D02*
X166982810Y-108262042D01*
X166982810Y-108262042D02*
X166982810Y-108330463D01*
X166982810Y-108330463D02*
X166948599Y-108433094D01*
X166948599Y-108433094D02*
X166674915Y-108706778D01*
X166674915Y-108706778D02*
X165956495Y-107988358D01*
X165956495Y-107988358D02*
X166195968Y-107748884D01*
X166195968Y-107748884D02*
X166298600Y-107714674D01*
X166298600Y-107714674D02*
X166367021Y-107714674D01*
X166367021Y-107714674D02*
X166469652Y-107748884D01*
X166469652Y-107748884D02*
X166538073Y-107817305D01*
X166538073Y-107817305D02*
X166572284Y-107919937D01*
X166572284Y-107919937D02*
X166572284Y-107988358D01*
X166572284Y-107988358D02*
X166538073Y-108090989D01*
X166538073Y-108090989D02*
X166298600Y-108330463D01*
X167153862Y-107817305D02*
X167495967Y-107475200D01*
X167290704Y-108090989D02*
X166811757Y-107133095D01*
X166811757Y-107133095D02*
X167769651Y-107612042D01*
X167290704Y-106654148D02*
X167872283Y-107235727D01*
X167872283Y-107235727D02*
X167974914Y-107269937D01*
X167974914Y-107269937D02*
X168043335Y-107269937D01*
X168043335Y-107269937D02*
X168145967Y-107235727D01*
X168145967Y-107235727D02*
X168282809Y-107098885D01*
X168282809Y-107098885D02*
X168317019Y-106996253D01*
X168317019Y-106996253D02*
X168317019Y-106927832D01*
X168317019Y-106927832D02*
X168282809Y-106825201D01*
X168282809Y-106825201D02*
X167701230Y-106243622D01*
X168761756Y-106619938D02*
X168043335Y-105901517D01*
X168043335Y-105901517D02*
X168214388Y-105730465D01*
X168214388Y-105730465D02*
X168351230Y-105662044D01*
X168351230Y-105662044D02*
X168488072Y-105662044D01*
X168488072Y-105662044D02*
X168590703Y-105696254D01*
X168590703Y-105696254D02*
X168761756Y-105798886D01*
X168761756Y-105798886D02*
X168864387Y-105901517D01*
X168864387Y-105901517D02*
X168967019Y-106072570D01*
X168967019Y-106072570D02*
X169001229Y-106175201D01*
X169001229Y-106175201D02*
X169001229Y-106312043D01*
X169001229Y-106312043D02*
X168932808Y-106448885D01*
X168932808Y-106448885D02*
X168761756Y-106619938D01*
X168898598Y-105046255D02*
X168967019Y-104977834D01*
X168967019Y-104977834D02*
X169069650Y-104943623D01*
X169069650Y-104943623D02*
X169138071Y-104943623D01*
X169138071Y-104943623D02*
X169240703Y-104977834D01*
X169240703Y-104977834D02*
X169411755Y-105080465D01*
X169411755Y-105080465D02*
X169582808Y-105251518D01*
X169582808Y-105251518D02*
X169685439Y-105422570D01*
X169685439Y-105422570D02*
X169719650Y-105525202D01*
X169719650Y-105525202D02*
X169719650Y-105593623D01*
X169719650Y-105593623D02*
X169685439Y-105696254D01*
X169685439Y-105696254D02*
X169617018Y-105764675D01*
X169617018Y-105764675D02*
X169514387Y-105798886D01*
X169514387Y-105798886D02*
X169445966Y-105798886D01*
X169445966Y-105798886D02*
X169343334Y-105764675D01*
X169343334Y-105764675D02*
X169172282Y-105662044D01*
X169172282Y-105662044D02*
X169001229Y-105490991D01*
X169001229Y-105490991D02*
X168898598Y-105319939D01*
X168898598Y-105319939D02*
X168864387Y-105217307D01*
X168864387Y-105217307D02*
X168864387Y-105148886D01*
X168864387Y-105148886D02*
X168898598Y-105046255D01*
X170164386Y-105217307D02*
X169445966Y-104498887D01*
X169719650Y-104772571D02*
X169753860Y-104669939D01*
X169753860Y-104669939D02*
X169890702Y-104533097D01*
X169890702Y-104533097D02*
X169993334Y-104498887D01*
X169993334Y-104498887D02*
X170061755Y-104498887D01*
X170061755Y-104498887D02*
X170164386Y-104533097D01*
X170164386Y-104533097D02*
X170369649Y-104738360D01*
X170369649Y-104738360D02*
X170403860Y-104840992D01*
X170403860Y-104840992D02*
X170403860Y-104909413D01*
X170403860Y-104909413D02*
X170369649Y-105012044D01*
X170369649Y-105012044D02*
X170232807Y-105148886D01*
X170232807Y-105148886D02*
X170130176Y-105183097D01*
X166121008Y-111026552D02*
X166668376Y-110479184D01*
X167694690Y-109247606D02*
X167831532Y-109179185D01*
X167831532Y-109179185D02*
X167899953Y-109179185D01*
X167899953Y-109179185D02*
X168002585Y-109213396D01*
X168002585Y-109213396D02*
X168105216Y-109316027D01*
X168105216Y-109316027D02*
X168139427Y-109418659D01*
X168139427Y-109418659D02*
X168139427Y-109487080D01*
X168139427Y-109487080D02*
X168105216Y-109589711D01*
X168105216Y-109589711D02*
X167831532Y-109863395D01*
X167831532Y-109863395D02*
X167113112Y-109144975D01*
X167113112Y-109144975D02*
X167352585Y-108905501D01*
X167352585Y-108905501D02*
X167455217Y-108871291D01*
X167455217Y-108871291D02*
X167523638Y-108871291D01*
X167523638Y-108871291D02*
X167626269Y-108905501D01*
X167626269Y-108905501D02*
X167694690Y-108973922D01*
X167694690Y-108973922D02*
X167728901Y-109076554D01*
X167728901Y-109076554D02*
X167728901Y-109144975D01*
X167728901Y-109144975D02*
X167694690Y-109247606D01*
X167694690Y-109247606D02*
X167455217Y-109487080D01*
X168310479Y-108973922D02*
X168652584Y-108631817D01*
X168447321Y-109247606D02*
X167968374Y-108289712D01*
X167968374Y-108289712D02*
X168926268Y-108768659D01*
X168447321Y-107810765D02*
X169028900Y-108392344D01*
X169028900Y-108392344D02*
X169131531Y-108426554D01*
X169131531Y-108426554D02*
X169199952Y-108426554D01*
X169199952Y-108426554D02*
X169302584Y-108392344D01*
X169302584Y-108392344D02*
X169439426Y-108255502D01*
X169439426Y-108255502D02*
X169473636Y-108152870D01*
X169473636Y-108152870D02*
X169473636Y-108084449D01*
X169473636Y-108084449D02*
X169439426Y-107981818D01*
X169439426Y-107981818D02*
X168857847Y-107400239D01*
X169918373Y-107776555D02*
X169199952Y-107058134D01*
X169199952Y-107058134D02*
X169371005Y-106887082D01*
X169371005Y-106887082D02*
X169507847Y-106818661D01*
X169507847Y-106818661D02*
X169644689Y-106818661D01*
X169644689Y-106818661D02*
X169747320Y-106852871D01*
X169747320Y-106852871D02*
X169918373Y-106955503D01*
X169918373Y-106955503D02*
X170021004Y-107058134D01*
X170021004Y-107058134D02*
X170123636Y-107229187D01*
X170123636Y-107229187D02*
X170157846Y-107331818D01*
X170157846Y-107331818D02*
X170157846Y-107468660D01*
X170157846Y-107468660D02*
X170089425Y-107605502D01*
X170089425Y-107605502D02*
X169918373Y-107776555D01*
X171013109Y-106681819D02*
X170602583Y-107092345D01*
X170807846Y-106887082D02*
X170089425Y-106168661D01*
X170089425Y-106168661D02*
X170123636Y-106339714D01*
X170123636Y-106339714D02*
X170123636Y-106476556D01*
X170123636Y-106476556D02*
X170089425Y-106579187D01*
X171321003Y-106373924D02*
X170602583Y-105655504D01*
X170876267Y-105929188D02*
X170910477Y-105826556D01*
X170910477Y-105826556D02*
X171047319Y-105689714D01*
X171047319Y-105689714D02*
X171149951Y-105655504D01*
X171149951Y-105655504D02*
X171218372Y-105655504D01*
X171218372Y-105655504D02*
X171321003Y-105689714D01*
X171321003Y-105689714D02*
X171526266Y-105894977D01*
X171526266Y-105894977D02*
X171560477Y-105997609D01*
X171560477Y-105997609D02*
X171560477Y-106066030D01*
X171560477Y-106066030D02*
X171526266Y-106168661D01*
X171526266Y-106168661D02*
X171389424Y-106305503D01*
X171389424Y-106305503D02*
X171286793Y-106339714D01*
X134605068Y-129338467D02*
X135802435Y-129577940D01*
X135084015Y-128859520D02*
X135323488Y-130056887D01*
X136076119Y-129304256D02*
X135357699Y-128585836D01*
X136418225Y-128962151D02*
X135699804Y-128243730D01*
X135973488Y-128517414D02*
X136007699Y-128414783D01*
X136007699Y-128414783D02*
X136144541Y-128277941D01*
X136144541Y-128277941D02*
X136247172Y-128243730D01*
X136247172Y-128243730D02*
X136315593Y-128243730D01*
X136315593Y-128243730D02*
X136418225Y-128277941D01*
X136418225Y-128277941D02*
X136623488Y-128483204D01*
X136623488Y-128483204D02*
X136657698Y-128585835D01*
X136657698Y-128585835D02*
X136657698Y-128654256D01*
X136657698Y-128654256D02*
X136623488Y-128756888D01*
X136623488Y-128756888D02*
X136486646Y-128893730D01*
X136486646Y-128893730D02*
X136384014Y-128927940D01*
X137341908Y-127491100D02*
X137889276Y-126943732D01*
X135351159Y-130905609D02*
X136548527Y-131145083D01*
X135830106Y-130426662D02*
X136069580Y-131624030D01*
X136240632Y-130016136D02*
X136377474Y-129879294D01*
X136377474Y-129879294D02*
X136480106Y-129845084D01*
X136480106Y-129845084D02*
X136616948Y-129845084D01*
X136616948Y-129845084D02*
X136788000Y-129947715D01*
X136788000Y-129947715D02*
X137027474Y-130187189D01*
X137027474Y-130187189D02*
X137130105Y-130358241D01*
X137130105Y-130358241D02*
X137130105Y-130495083D01*
X137130105Y-130495083D02*
X137095895Y-130597715D01*
X137095895Y-130597715D02*
X136959053Y-130734557D01*
X136959053Y-130734557D02*
X136856421Y-130768767D01*
X136856421Y-130768767D02*
X136719579Y-130768767D01*
X136719579Y-130768767D02*
X136548527Y-130666136D01*
X136548527Y-130666136D02*
X136309053Y-130426662D01*
X136309053Y-130426662D02*
X136206422Y-130255610D01*
X136206422Y-130255610D02*
X136206422Y-130118768D01*
X136206422Y-130118768D02*
X136240632Y-130016136D01*
X137574842Y-130118768D02*
X136856421Y-129400347D01*
X137130105Y-129674031D02*
X137164316Y-129571400D01*
X137164316Y-129571400D02*
X137301158Y-129434558D01*
X137301158Y-129434558D02*
X137403789Y-129400347D01*
X137403789Y-129400347D02*
X137472210Y-129400347D01*
X137472210Y-129400347D02*
X137574842Y-129434558D01*
X137574842Y-129434558D02*
X137780105Y-129639821D01*
X137780105Y-129639821D02*
X137814315Y-129742452D01*
X137814315Y-129742452D02*
X137814315Y-129810873D01*
X137814315Y-129810873D02*
X137780105Y-129913505D01*
X137780105Y-129913505D02*
X137643263Y-130050347D01*
X137643263Y-130050347D02*
X137540631Y-130084557D01*
X138498525Y-128647717D02*
X139045893Y-128100349D01*
X136952512Y-133054331D02*
X136234092Y-132335911D01*
X136713039Y-131856963D02*
X136849881Y-131720121D01*
X136849881Y-131720121D02*
X136952513Y-131685911D01*
X136952513Y-131685911D02*
X137089355Y-131685911D01*
X137089355Y-131685911D02*
X137260407Y-131788542D01*
X137260407Y-131788542D02*
X137499881Y-132028016D01*
X137499881Y-132028016D02*
X137602512Y-132199068D01*
X137602512Y-132199068D02*
X137602512Y-132335910D01*
X137602512Y-132335910D02*
X137568302Y-132438542D01*
X137568302Y-132438542D02*
X137431460Y-132575384D01*
X137431460Y-132575384D02*
X137328828Y-132609594D01*
X137328828Y-132609594D02*
X137191986Y-132609594D01*
X137191986Y-132609594D02*
X137020934Y-132506963D01*
X137020934Y-132506963D02*
X136781460Y-132267489D01*
X136781460Y-132267489D02*
X136678829Y-132096437D01*
X136678829Y-132096437D02*
X136678829Y-131959595D01*
X136678829Y-131959595D02*
X136713039Y-131856963D01*
X138423564Y-131583279D02*
X138013038Y-131993805D01*
X138218301Y-131788542D02*
X137499881Y-131070122D01*
X137499881Y-131070122D02*
X137534091Y-131241174D01*
X137534091Y-131241174D02*
X137534091Y-131378016D01*
X137534091Y-131378016D02*
X137499881Y-131480648D01*
X138731459Y-131275385D02*
X138013038Y-130556964D01*
X138286722Y-130830648D02*
X138320933Y-130728017D01*
X138320933Y-130728017D02*
X138457775Y-130591175D01*
X138457775Y-130591175D02*
X138560406Y-130556964D01*
X138560406Y-130556964D02*
X138628827Y-130556964D01*
X138628827Y-130556964D02*
X138731459Y-130591175D01*
X138731459Y-130591175D02*
X138936722Y-130796438D01*
X138936722Y-130796438D02*
X138970932Y-130899069D01*
X138970932Y-130899069D02*
X138970932Y-130967490D01*
X138970932Y-130967490D02*
X138936722Y-131070122D01*
X138936722Y-131070122D02*
X138799880Y-131206964D01*
X138799880Y-131206964D02*
X138697248Y-131241174D01*
X139655142Y-129804334D02*
X140202510Y-129256966D01*
X138109129Y-134210948D02*
X137390709Y-133492528D01*
X137869656Y-133013580D02*
X138006498Y-132876738D01*
X138006498Y-132876738D02*
X138109130Y-132842528D01*
X138109130Y-132842528D02*
X138245972Y-132842528D01*
X138245972Y-132842528D02*
X138417024Y-132945159D01*
X138417024Y-132945159D02*
X138656498Y-133184633D01*
X138656498Y-133184633D02*
X138759129Y-133355685D01*
X138759129Y-133355685D02*
X138759129Y-133492527D01*
X138759129Y-133492527D02*
X138724919Y-133595159D01*
X138724919Y-133595159D02*
X138588077Y-133732001D01*
X138588077Y-133732001D02*
X138485445Y-133766211D01*
X138485445Y-133766211D02*
X138348603Y-133766211D01*
X138348603Y-133766211D02*
X138177551Y-133663580D01*
X138177551Y-133663580D02*
X137938077Y-133424106D01*
X137938077Y-133424106D02*
X137835446Y-133253054D01*
X137835446Y-133253054D02*
X137835446Y-133116212D01*
X137835446Y-133116212D02*
X137869656Y-133013580D01*
X138519656Y-132500423D02*
X138519656Y-132432002D01*
X138519656Y-132432002D02*
X138553866Y-132329370D01*
X138553866Y-132329370D02*
X138724919Y-132158318D01*
X138724919Y-132158318D02*
X138827550Y-132124107D01*
X138827550Y-132124107D02*
X138895971Y-132124107D01*
X138895971Y-132124107D02*
X138998603Y-132158318D01*
X138998603Y-132158318D02*
X139067024Y-132226739D01*
X139067024Y-132226739D02*
X139135445Y-132363581D01*
X139135445Y-132363581D02*
X139135445Y-133184633D01*
X139135445Y-133184633D02*
X139580181Y-132739896D01*
X139888076Y-132432002D02*
X139169655Y-131713581D01*
X139443339Y-131987265D02*
X139477550Y-131884634D01*
X139477550Y-131884634D02*
X139614392Y-131747792D01*
X139614392Y-131747792D02*
X139717023Y-131713581D01*
X139717023Y-131713581D02*
X139785444Y-131713581D01*
X139785444Y-131713581D02*
X139888076Y-131747792D01*
X139888076Y-131747792D02*
X140093339Y-131953055D01*
X140093339Y-131953055D02*
X140127549Y-132055686D01*
X140127549Y-132055686D02*
X140127549Y-132124107D01*
X140127549Y-132124107D02*
X140093339Y-132226739D01*
X140093339Y-132226739D02*
X139956497Y-132363581D01*
X139956497Y-132363581D02*
X139853865Y-132397791D01*
X140811759Y-130960951D02*
X141359127Y-130413583D01*
X139265746Y-135367565D02*
X138547326Y-134649145D01*
X139026273Y-134170197D02*
X139163115Y-134033355D01*
X139163115Y-134033355D02*
X139265747Y-133999145D01*
X139265747Y-133999145D02*
X139402589Y-133999145D01*
X139402589Y-133999145D02*
X139573641Y-134101776D01*
X139573641Y-134101776D02*
X139813115Y-134341250D01*
X139813115Y-134341250D02*
X139915746Y-134512302D01*
X139915746Y-134512302D02*
X139915746Y-134649144D01*
X139915746Y-134649144D02*
X139881536Y-134751776D01*
X139881536Y-134751776D02*
X139744694Y-134888618D01*
X139744694Y-134888618D02*
X139642062Y-134922828D01*
X139642062Y-134922828D02*
X139505220Y-134922828D01*
X139505220Y-134922828D02*
X139334168Y-134820197D01*
X139334168Y-134820197D02*
X139094694Y-134580723D01*
X139094694Y-134580723D02*
X138992063Y-134409671D01*
X138992063Y-134409671D02*
X138992063Y-134272829D01*
X138992063Y-134272829D02*
X139026273Y-134170197D01*
X139573641Y-133622829D02*
X140018378Y-133178093D01*
X140018378Y-133178093D02*
X140052588Y-133691250D01*
X140052588Y-133691250D02*
X140155220Y-133588619D01*
X140155220Y-133588619D02*
X140257851Y-133554408D01*
X140257851Y-133554408D02*
X140326272Y-133554408D01*
X140326272Y-133554408D02*
X140428904Y-133588619D01*
X140428904Y-133588619D02*
X140599956Y-133759671D01*
X140599956Y-133759671D02*
X140634167Y-133862303D01*
X140634167Y-133862303D02*
X140634167Y-133930724D01*
X140634167Y-133930724D02*
X140599956Y-134033355D01*
X140599956Y-134033355D02*
X140394693Y-134238618D01*
X140394693Y-134238618D02*
X140292062Y-134272829D01*
X140292062Y-134272829D02*
X140223641Y-134272829D01*
X141044693Y-133588619D02*
X140326272Y-132870198D01*
X140599956Y-133143882D02*
X140634167Y-133041251D01*
X140634167Y-133041251D02*
X140771009Y-132904409D01*
X140771009Y-132904409D02*
X140873640Y-132870198D01*
X140873640Y-132870198D02*
X140942061Y-132870198D01*
X140942061Y-132870198D02*
X141044693Y-132904409D01*
X141044693Y-132904409D02*
X141249956Y-133109672D01*
X141249956Y-133109672D02*
X141284166Y-133212303D01*
X141284166Y-133212303D02*
X141284166Y-133280724D01*
X141284166Y-133280724D02*
X141249956Y-133383356D01*
X141249956Y-133383356D02*
X141113114Y-133520198D01*
X141113114Y-133520198D02*
X141010482Y-133554408D01*
X141968376Y-132117568D02*
X142515744Y-131570200D01*
X140422363Y-136524182D02*
X139703943Y-135805762D01*
X140182890Y-135326814D02*
X140319732Y-135189972D01*
X140319732Y-135189972D02*
X140422364Y-135155762D01*
X140422364Y-135155762D02*
X140559206Y-135155762D01*
X140559206Y-135155762D02*
X140730258Y-135258393D01*
X140730258Y-135258393D02*
X140969732Y-135497867D01*
X140969732Y-135497867D02*
X141072363Y-135668919D01*
X141072363Y-135668919D02*
X141072363Y-135805761D01*
X141072363Y-135805761D02*
X141038153Y-135908393D01*
X141038153Y-135908393D02*
X140901311Y-136045235D01*
X140901311Y-136045235D02*
X140798679Y-136079445D01*
X140798679Y-136079445D02*
X140661837Y-136079445D01*
X140661837Y-136079445D02*
X140490785Y-135976814D01*
X140490785Y-135976814D02*
X140251311Y-135737340D01*
X140251311Y-135737340D02*
X140148680Y-135566288D01*
X140148680Y-135566288D02*
X140148680Y-135429446D01*
X140148680Y-135429446D02*
X140182890Y-135326814D01*
X141346047Y-134642604D02*
X141824994Y-135121551D01*
X140901311Y-134539973D02*
X141243416Y-135224183D01*
X141243416Y-135224183D02*
X141688152Y-134779446D01*
X142201310Y-134745236D02*
X141482889Y-134026815D01*
X141756573Y-134300499D02*
X141790784Y-134197868D01*
X141790784Y-134197868D02*
X141927626Y-134061026D01*
X141927626Y-134061026D02*
X142030257Y-134026815D01*
X142030257Y-134026815D02*
X142098678Y-134026815D01*
X142098678Y-134026815D02*
X142201310Y-134061026D01*
X142201310Y-134061026D02*
X142406573Y-134266289D01*
X142406573Y-134266289D02*
X142440783Y-134368920D01*
X142440783Y-134368920D02*
X142440783Y-134437341D01*
X142440783Y-134437341D02*
X142406573Y-134539973D01*
X142406573Y-134539973D02*
X142269731Y-134676815D01*
X142269731Y-134676815D02*
X142167099Y-134711025D01*
X143124993Y-133274185D02*
X143672361Y-132726817D01*
D11*
X164910829Y-117013285D02*
X165415905Y-117518361D01*
X165415905Y-117518361D02*
X165483249Y-117653048D01*
X165483249Y-117653048D02*
X165483249Y-117787735D01*
X165483249Y-117787735D02*
X165415905Y-117922422D01*
X165415905Y-117922422D02*
X165348562Y-117989766D01*
X165988325Y-117350002D02*
X166123012Y-117215315D01*
X166123012Y-117215315D02*
X166156684Y-117114300D01*
X166156684Y-117114300D02*
X166156684Y-117046956D01*
X166156684Y-117046956D02*
X166123012Y-116878598D01*
X166123012Y-116878598D02*
X166021997Y-116710239D01*
X166021997Y-116710239D02*
X165752623Y-116440865D01*
X165752623Y-116440865D02*
X165651608Y-116407193D01*
X165651608Y-116407193D02*
X165584264Y-116407193D01*
X165584264Y-116407193D02*
X165483249Y-116440865D01*
X165483249Y-116440865D02*
X165348562Y-116575552D01*
X165348562Y-116575552D02*
X165314890Y-116676567D01*
X165314890Y-116676567D02*
X165314890Y-116743911D01*
X165314890Y-116743911D02*
X165348562Y-116844926D01*
X165348562Y-116844926D02*
X165516921Y-117013285D01*
X165516921Y-117013285D02*
X165617936Y-117046956D01*
X165617936Y-117046956D02*
X165685279Y-117046956D01*
X165685279Y-117046956D02*
X165786295Y-117013285D01*
X165786295Y-117013285D02*
X165920982Y-116878598D01*
X165920982Y-116878598D02*
X165954653Y-116777582D01*
X165954653Y-116777582D02*
X165954653Y-116710239D01*
X165954653Y-116710239D02*
X165920982Y-116609224D01*
X153958420Y-133186740D02*
X153453344Y-133691816D01*
X153453344Y-133691816D02*
X153318657Y-133759160D01*
X153318657Y-133759160D02*
X153183970Y-133759160D01*
X153183970Y-133759160D02*
X153049283Y-133691816D01*
X153049283Y-133691816D02*
X152981939Y-133624473D01*
X153958420Y-134600954D02*
X153554359Y-134196893D01*
X153756390Y-134398923D02*
X154463497Y-133691816D01*
X154463497Y-133691816D02*
X154295138Y-133725488D01*
X154295138Y-133725488D02*
X154160451Y-133725488D01*
X154160451Y-133725488D02*
X154059436Y-133691816D01*
X155103260Y-134331580D02*
X155170603Y-134398923D01*
X155170603Y-134398923D02*
X155204275Y-134499938D01*
X155204275Y-134499938D02*
X155204275Y-134567282D01*
X155204275Y-134567282D02*
X155170603Y-134668297D01*
X155170603Y-134668297D02*
X155069588Y-134836656D01*
X155069588Y-134836656D02*
X154901229Y-135005015D01*
X154901229Y-135005015D02*
X154732871Y-135106030D01*
X154732871Y-135106030D02*
X154631855Y-135139702D01*
X154631855Y-135139702D02*
X154564512Y-135139702D01*
X154564512Y-135139702D02*
X154463497Y-135106030D01*
X154463497Y-135106030D02*
X154396153Y-135038686D01*
X154396153Y-135038686D02*
X154362481Y-134937671D01*
X154362481Y-134937671D02*
X154362481Y-134870328D01*
X154362481Y-134870328D02*
X154396153Y-134769312D01*
X154396153Y-134769312D02*
X154497168Y-134600954D01*
X154497168Y-134600954D02*
X154665527Y-134432595D01*
X154665527Y-134432595D02*
X154833886Y-134331580D01*
X154833886Y-134331580D02*
X154934901Y-134297908D01*
X154934901Y-134297908D02*
X155002245Y-134297908D01*
X155002245Y-134297908D02*
X155103260Y-134331580D01*
X144808250Y-83655746D02*
X145380670Y-84228166D01*
X145380670Y-84228166D02*
X145481685Y-84261838D01*
X145481685Y-84261838D02*
X145549029Y-84261838D01*
X145549029Y-84261838D02*
X145650044Y-84228166D01*
X145650044Y-84228166D02*
X145784731Y-84093479D01*
X145784731Y-84093479D02*
X145818403Y-83992464D01*
X145818403Y-83992464D02*
X145818403Y-83925120D01*
X145818403Y-83925120D02*
X145784731Y-83824105D01*
X145784731Y-83824105D02*
X145212311Y-83251685D01*
X146626525Y-83251685D02*
X146222464Y-83655746D01*
X146424494Y-83453716D02*
X145717388Y-82746609D01*
X145717388Y-82746609D02*
X145751059Y-82914968D01*
X145751059Y-82914968D02*
X145751059Y-83049655D01*
X145751059Y-83049655D02*
X145717388Y-83150670D01*
X153190382Y-103086763D02*
X152685306Y-103591839D01*
X152685306Y-103591839D02*
X152550619Y-103659183D01*
X152550619Y-103659183D02*
X152415932Y-103659183D01*
X152415932Y-103659183D02*
X152281245Y-103591839D01*
X152281245Y-103591839D02*
X152213901Y-103524496D01*
X153325069Y-103827542D02*
X153291398Y-103726526D01*
X153291398Y-103726526D02*
X153291398Y-103659183D01*
X153291398Y-103659183D02*
X153325069Y-103558168D01*
X153325069Y-103558168D02*
X153358741Y-103524496D01*
X153358741Y-103524496D02*
X153459756Y-103490824D01*
X153459756Y-103490824D02*
X153527100Y-103490824D01*
X153527100Y-103490824D02*
X153628115Y-103524496D01*
X153628115Y-103524496D02*
X153762802Y-103659183D01*
X153762802Y-103659183D02*
X153796474Y-103760198D01*
X153796474Y-103760198D02*
X153796474Y-103827542D01*
X153796474Y-103827542D02*
X153762802Y-103928557D01*
X153762802Y-103928557D02*
X153729130Y-103962229D01*
X153729130Y-103962229D02*
X153628115Y-103995900D01*
X153628115Y-103995900D02*
X153560772Y-103995900D01*
X153560772Y-103995900D02*
X153459756Y-103962229D01*
X153459756Y-103962229D02*
X153325069Y-103827542D01*
X153325069Y-103827542D02*
X153224054Y-103793870D01*
X153224054Y-103793870D02*
X153156711Y-103793870D01*
X153156711Y-103793870D02*
X153055695Y-103827542D01*
X153055695Y-103827542D02*
X152921008Y-103962229D01*
X152921008Y-103962229D02*
X152887337Y-104063244D01*
X152887337Y-104063244D02*
X152887337Y-104130587D01*
X152887337Y-104130587D02*
X152921008Y-104231603D01*
X152921008Y-104231603D02*
X153055695Y-104366290D01*
X153055695Y-104366290D02*
X153156711Y-104399961D01*
X153156711Y-104399961D02*
X153224054Y-104399961D01*
X153224054Y-104399961D02*
X153325069Y-104366290D01*
X153325069Y-104366290D02*
X153459756Y-104231603D01*
X153459756Y-104231603D02*
X153493428Y-104130587D01*
X153493428Y-104130587D02*
X153493428Y-104063244D01*
X153493428Y-104063244D02*
X153459756Y-103962229D01*
X167178457Y-83829862D02*
X167683533Y-84334938D01*
X167683533Y-84334938D02*
X167750877Y-84469625D01*
X167750877Y-84469625D02*
X167750877Y-84604312D01*
X167750877Y-84604312D02*
X167683533Y-84738999D01*
X167683533Y-84738999D02*
X167616190Y-84806343D01*
X167818220Y-83190098D02*
X167683533Y-83324785D01*
X167683533Y-83324785D02*
X167649862Y-83425801D01*
X167649862Y-83425801D02*
X167649862Y-83493144D01*
X167649862Y-83493144D02*
X167683533Y-83661503D01*
X167683533Y-83661503D02*
X167784549Y-83829862D01*
X167784549Y-83829862D02*
X168053923Y-84099236D01*
X168053923Y-84099236D02*
X168154938Y-84132907D01*
X168154938Y-84132907D02*
X168222281Y-84132907D01*
X168222281Y-84132907D02*
X168323297Y-84099236D01*
X168323297Y-84099236D02*
X168457984Y-83964549D01*
X168457984Y-83964549D02*
X168491655Y-83863533D01*
X168491655Y-83863533D02*
X168491655Y-83796190D01*
X168491655Y-83796190D02*
X168457984Y-83695175D01*
X168457984Y-83695175D02*
X168289625Y-83526816D01*
X168289625Y-83526816D02*
X168188610Y-83493144D01*
X168188610Y-83493144D02*
X168121266Y-83493144D01*
X168121266Y-83493144D02*
X168020251Y-83526816D01*
X168020251Y-83526816D02*
X167885564Y-83661503D01*
X167885564Y-83661503D02*
X167851892Y-83762518D01*
X167851892Y-83762518D02*
X167851892Y-83829862D01*
X167851892Y-83829862D02*
X167885564Y-83930877D01*
X152246753Y-111470750D02*
X151674333Y-112043170D01*
X151674333Y-112043170D02*
X151640661Y-112144185D01*
X151640661Y-112144185D02*
X151640661Y-112211529D01*
X151640661Y-112211529D02*
X151674333Y-112312544D01*
X151674333Y-112312544D02*
X151809020Y-112447231D01*
X151809020Y-112447231D02*
X151910035Y-112480903D01*
X151910035Y-112480903D02*
X151977379Y-112480903D01*
X151977379Y-112480903D02*
X152078394Y-112447231D01*
X152078394Y-112447231D02*
X152650814Y-111874811D01*
X152886516Y-112245201D02*
X152953859Y-112245201D01*
X152953859Y-112245201D02*
X153054875Y-112278872D01*
X153054875Y-112278872D02*
X153223233Y-112447231D01*
X153223233Y-112447231D02*
X153256905Y-112548246D01*
X153256905Y-112548246D02*
X153256905Y-112615590D01*
X153256905Y-112615590D02*
X153223233Y-112716605D01*
X153223233Y-112716605D02*
X153155890Y-112783949D01*
X153155890Y-112783949D02*
X153021203Y-112851292D01*
X153021203Y-112851292D02*
X152213081Y-112851292D01*
X152213081Y-112851292D02*
X152650814Y-113289025D01*
X149062882Y-70384263D02*
X148557806Y-70889339D01*
X148557806Y-70889339D02*
X148423119Y-70956683D01*
X148423119Y-70956683D02*
X148288432Y-70956683D01*
X148288432Y-70956683D02*
X148153745Y-70889339D01*
X148153745Y-70889339D02*
X148086401Y-70821996D01*
X149736317Y-71057698D02*
X149399600Y-70720981D01*
X149399600Y-70720981D02*
X149029211Y-71024026D01*
X149029211Y-71024026D02*
X149096554Y-71024026D01*
X149096554Y-71024026D02*
X149197569Y-71057698D01*
X149197569Y-71057698D02*
X149365928Y-71226057D01*
X149365928Y-71226057D02*
X149399600Y-71327072D01*
X149399600Y-71327072D02*
X149399600Y-71394416D01*
X149399600Y-71394416D02*
X149365928Y-71495431D01*
X149365928Y-71495431D02*
X149197569Y-71663790D01*
X149197569Y-71663790D02*
X149096554Y-71697461D01*
X149096554Y-71697461D02*
X149029211Y-71697461D01*
X149029211Y-71697461D02*
X148928195Y-71663790D01*
X148928195Y-71663790D02*
X148759837Y-71495431D01*
X148759837Y-71495431D02*
X148726165Y-71394416D01*
X148726165Y-71394416D02*
X148726165Y-71327072D01*
X119316667Y-83532199D02*
X119459524Y-83579818D01*
X119459524Y-83579818D02*
X119697619Y-83579818D01*
X119697619Y-83579818D02*
X119792857Y-83532199D01*
X119792857Y-83532199D02*
X119840476Y-83484579D01*
X119840476Y-83484579D02*
X119888095Y-83389341D01*
X119888095Y-83389341D02*
X119888095Y-83294103D01*
X119888095Y-83294103D02*
X119840476Y-83198865D01*
X119840476Y-83198865D02*
X119792857Y-83151246D01*
X119792857Y-83151246D02*
X119697619Y-83103627D01*
X119697619Y-83103627D02*
X119507143Y-83056008D01*
X119507143Y-83056008D02*
X119411905Y-83008389D01*
X119411905Y-83008389D02*
X119364286Y-82960770D01*
X119364286Y-82960770D02*
X119316667Y-82865532D01*
X119316667Y-82865532D02*
X119316667Y-82770294D01*
X119316667Y-82770294D02*
X119364286Y-82675056D01*
X119364286Y-82675056D02*
X119411905Y-82627437D01*
X119411905Y-82627437D02*
X119507143Y-82579818D01*
X119507143Y-82579818D02*
X119745238Y-82579818D01*
X119745238Y-82579818D02*
X119888095Y-82627437D01*
X120221429Y-82579818D02*
X120459524Y-83579818D01*
X120459524Y-83579818D02*
X120650000Y-82865532D01*
X120650000Y-82865532D02*
X120840476Y-83579818D01*
X120840476Y-83579818D02*
X121078572Y-82579818D01*
X121983333Y-83579818D02*
X121411905Y-83579818D01*
X121697619Y-83579818D02*
X121697619Y-82579818D01*
X121697619Y-82579818D02*
X121602381Y-82722675D01*
X121602381Y-82722675D02*
X121507143Y-82817913D01*
X121507143Y-82817913D02*
X121411905Y-82865532D01*
X155089799Y-96533796D02*
X154584723Y-97038872D01*
X154584723Y-97038872D02*
X154450036Y-97106216D01*
X154450036Y-97106216D02*
X154315349Y-97106216D01*
X154315349Y-97106216D02*
X154180662Y-97038872D01*
X154180662Y-97038872D02*
X154113318Y-96971529D01*
X155359173Y-96803170D02*
X155796906Y-97240903D01*
X155796906Y-97240903D02*
X155291830Y-97274575D01*
X155291830Y-97274575D02*
X155392845Y-97375590D01*
X155392845Y-97375590D02*
X155426517Y-97476605D01*
X155426517Y-97476605D02*
X155426517Y-97543949D01*
X155426517Y-97543949D02*
X155392845Y-97644964D01*
X155392845Y-97644964D02*
X155224486Y-97813323D01*
X155224486Y-97813323D02*
X155123471Y-97846994D01*
X155123471Y-97846994D02*
X155056128Y-97846994D01*
X155056128Y-97846994D02*
X154955112Y-97813323D01*
X154955112Y-97813323D02*
X154753082Y-97611292D01*
X154753082Y-97611292D02*
X154719410Y-97510277D01*
X154719410Y-97510277D02*
X154719410Y-97442933D01*
X135843737Y-121392642D02*
X136348813Y-121897718D01*
X136348813Y-121897718D02*
X136416157Y-122032405D01*
X136416157Y-122032405D02*
X136416157Y-122167092D01*
X136416157Y-122167092D02*
X136348813Y-122301779D01*
X136348813Y-122301779D02*
X136281470Y-122369123D01*
X136113111Y-121123268D02*
X136584516Y-120651863D01*
X136584516Y-120651863D02*
X136988577Y-121662016D01*
X135699007Y-83673963D02*
X136204083Y-84179039D01*
X136204083Y-84179039D02*
X136271427Y-84313726D01*
X136271427Y-84313726D02*
X136271427Y-84448413D01*
X136271427Y-84448413D02*
X136204083Y-84583100D01*
X136204083Y-84583100D02*
X136136740Y-84650444D01*
X136574473Y-83269902D02*
X137045877Y-83741306D01*
X136136740Y-83168886D02*
X136473457Y-83842321D01*
X136473457Y-83842321D02*
X136911190Y-83404589D01*
X119316667Y-126394699D02*
X119459524Y-126442318D01*
X119459524Y-126442318D02*
X119697619Y-126442318D01*
X119697619Y-126442318D02*
X119792857Y-126394699D01*
X119792857Y-126394699D02*
X119840476Y-126347079D01*
X119840476Y-126347079D02*
X119888095Y-126251841D01*
X119888095Y-126251841D02*
X119888095Y-126156603D01*
X119888095Y-126156603D02*
X119840476Y-126061365D01*
X119840476Y-126061365D02*
X119792857Y-126013746D01*
X119792857Y-126013746D02*
X119697619Y-125966127D01*
X119697619Y-125966127D02*
X119507143Y-125918508D01*
X119507143Y-125918508D02*
X119411905Y-125870889D01*
X119411905Y-125870889D02*
X119364286Y-125823270D01*
X119364286Y-125823270D02*
X119316667Y-125728032D01*
X119316667Y-125728032D02*
X119316667Y-125632794D01*
X119316667Y-125632794D02*
X119364286Y-125537556D01*
X119364286Y-125537556D02*
X119411905Y-125489937D01*
X119411905Y-125489937D02*
X119507143Y-125442318D01*
X119507143Y-125442318D02*
X119745238Y-125442318D01*
X119745238Y-125442318D02*
X119888095Y-125489937D01*
X120221429Y-125442318D02*
X120459524Y-126442318D01*
X120459524Y-126442318D02*
X120650000Y-125728032D01*
X120650000Y-125728032D02*
X120840476Y-126442318D01*
X120840476Y-126442318D02*
X121078572Y-125442318D01*
X121411905Y-125537556D02*
X121459524Y-125489937D01*
X121459524Y-125489937D02*
X121554762Y-125442318D01*
X121554762Y-125442318D02*
X121792857Y-125442318D01*
X121792857Y-125442318D02*
X121888095Y-125489937D01*
X121888095Y-125489937D02*
X121935714Y-125537556D01*
X121935714Y-125537556D02*
X121983333Y-125632794D01*
X121983333Y-125632794D02*
X121983333Y-125728032D01*
X121983333Y-125728032D02*
X121935714Y-125870889D01*
X121935714Y-125870889D02*
X121364286Y-126442318D01*
X121364286Y-126442318D02*
X121983333Y-126442318D01*
D12*
%TO.C,D2*%
X121295000Y-93635000D02*
X121295000Y-95105000D01*
X121295000Y-95105000D02*
X123580000Y-95105000D01*
X123580000Y-93635000D02*
X121295000Y-93635000D01*
%TO.C,J9*%
X157598295Y-105552391D02*
X153921340Y-109229346D01*
X162986449Y-114617500D02*
X164824926Y-116455978D01*
X162986449Y-118294455D02*
X153921340Y-109229346D01*
X164824926Y-112779022D02*
X157598295Y-105552391D01*
X164824926Y-112779022D02*
X162986449Y-114617500D01*
X164824926Y-116455978D02*
X162986449Y-118294455D01*
X165722952Y-113677048D02*
X166663404Y-114617500D01*
X166663404Y-114617500D02*
X165722952Y-115557952D01*
%TO.C,Q2*%
X120910000Y-90002500D02*
X120260000Y-90002500D01*
X120910000Y-90002500D02*
X121560000Y-90002500D01*
X120910000Y-93122500D02*
X120260000Y-93122500D01*
X120910000Y-93122500D02*
X121560000Y-93122500D01*
X119747500Y-90052500D02*
X119507500Y-89722500D01*
X119987500Y-89722500D01*
X119747500Y-90052500D01*
G36*
X119747500Y-90052500D02*
G01*
X119507500Y-89722500D01*
X119987500Y-89722500D01*
X119747500Y-90052500D01*
G37*
%TO.C,Q1*%
X120910000Y-84372500D02*
X120260000Y-84372500D01*
X120910000Y-84372500D02*
X121560000Y-84372500D01*
X120910000Y-87492500D02*
X120260000Y-87492500D01*
X120910000Y-87492500D02*
X121560000Y-87492500D01*
X119747500Y-84422500D02*
X119507500Y-84092500D01*
X119987500Y-84092500D01*
X119747500Y-84422500D01*
G36*
X119747500Y-84422500D02*
G01*
X119507500Y-84092500D01*
X119987500Y-84092500D01*
X119747500Y-84422500D01*
G37*
%TO.C,D4*%
X121295000Y-105065000D02*
X121295000Y-106535000D01*
X121295000Y-106535000D02*
X123580000Y-106535000D01*
X123580000Y-105065000D02*
X121295000Y-105065000D01*
%TO.C,C4*%
X157301693Y-115239190D02*
X157149190Y-115391693D01*
X157810810Y-115748307D02*
X157658307Y-115900810D01*
%TO.C,J10*%
X155750472Y-130658624D02*
X161181052Y-125228044D01*
X155792898Y-134378006D02*
X154852446Y-133437554D01*
X156733350Y-133437554D02*
X155792898Y-134378006D01*
X157631376Y-132539528D02*
X155750472Y-130658624D01*
X157631376Y-132539528D02*
X163061956Y-127108948D01*
X163061956Y-127108948D02*
X161181052Y-125228044D01*
%TO.C,D3*%
X121295000Y-99215000D02*
X121295000Y-100685000D01*
X121295000Y-100685000D02*
X123580000Y-100685000D01*
X123580000Y-99215000D02*
X121295000Y-99215000D01*
%TO.C,Q4*%
X120910000Y-101432500D02*
X120260000Y-101432500D01*
X120910000Y-101432500D02*
X121560000Y-101432500D01*
X120910000Y-104552500D02*
X120260000Y-104552500D01*
X120910000Y-104552500D02*
X121560000Y-104552500D01*
X119747500Y-101482500D02*
X119507500Y-101152500D01*
X119987500Y-101152500D01*
X119747500Y-101482500D01*
G36*
X119747500Y-101482500D02*
G01*
X119507500Y-101152500D01*
X119987500Y-101152500D01*
X119747500Y-101482500D01*
G37*
%TO.C,U1*%
X147294689Y-83820000D02*
X147612887Y-84138198D01*
X147612887Y-83501802D02*
X147294689Y-83820000D01*
X152081802Y-79032887D02*
X152400000Y-78714689D01*
X152400000Y-78714689D02*
X152718198Y-79032887D01*
X152400000Y-88925311D02*
X152081802Y-88607113D01*
X152718198Y-88607113D02*
X152400000Y-88925311D01*
X157187113Y-84138198D02*
X157505311Y-83820000D01*
X157505311Y-83820000D02*
X157187113Y-83501802D01*
X147195694Y-84555391D02*
X146622938Y-84463467D01*
X147103770Y-83982635D01*
X147195694Y-84555391D01*
G36*
X147195694Y-84555391D02*
G01*
X146622938Y-84463467D01*
X147103770Y-83982635D01*
X147195694Y-84555391D01*
G37*
%TO.C,J8*%
X136041737Y-117029859D02*
X139718693Y-120706814D01*
X148656522Y-104415074D02*
X136041737Y-117029859D01*
X148656522Y-104415074D02*
X150495000Y-106253551D01*
X149554548Y-103517048D02*
X150495000Y-102576596D01*
X150495000Y-102576596D02*
X151435452Y-103517048D01*
X150495000Y-106253551D02*
X152333478Y-104415074D01*
X152333478Y-104415074D02*
X154171955Y-106253551D01*
X154171955Y-106253551D02*
X139718693Y-120706814D01*
%TO.C,R3*%
X123352500Y-86586141D02*
X123352500Y-86278859D01*
X124112500Y-86586141D02*
X124112500Y-86278859D01*
%TO.C,R6*%
X120076141Y-93672500D02*
X119768859Y-93672500D01*
X120076141Y-94432500D02*
X119768859Y-94432500D01*
%TO.C,D6*%
X121295000Y-116495000D02*
X121295000Y-117965000D01*
X121295000Y-117965000D02*
X123580000Y-117965000D01*
X123580000Y-116495000D02*
X121295000Y-116495000D01*
%TO.C,J6*%
X160763948Y-75063044D02*
X158883044Y-76943948D01*
X164313624Y-82374528D02*
X158883044Y-76943948D01*
X166194528Y-80493624D02*
X160763948Y-75063044D01*
X166194528Y-80493624D02*
X164313624Y-82374528D01*
X167092554Y-81391650D02*
X168033006Y-82332102D01*
X168033006Y-82332102D02*
X167092554Y-83272554D01*
%TO.C,U2*%
X147294689Y-119380000D02*
X147612887Y-119061802D01*
X147612887Y-119698198D02*
X147294689Y-119380000D01*
X152081802Y-124167113D02*
X152400000Y-124485311D01*
X152400000Y-114274689D02*
X152081802Y-114592887D01*
X152400000Y-124485311D02*
X152718198Y-124167113D01*
X152718198Y-114592887D02*
X152400000Y-114274689D01*
X157187113Y-119061802D02*
X157505311Y-119380000D01*
X157505311Y-119380000D02*
X157187113Y-119698198D01*
X152237365Y-114083770D02*
X151664609Y-114175694D01*
X151756533Y-113602938D01*
X152237365Y-114083770D01*
G36*
X152237365Y-114083770D02*
G01*
X151664609Y-114175694D01*
X151756533Y-113602938D01*
X152237365Y-114083770D01*
G37*
%TO.C,C2*%
X147529664Y-78062500D02*
X147745336Y-78062500D01*
X147529664Y-78782500D02*
X147745336Y-78782500D01*
%TO.C,R4*%
X120076141Y-87957500D02*
X119768859Y-87957500D01*
X120076141Y-88717500D02*
X119768859Y-88717500D01*
%TO.C,J5*%
X137302391Y-78939205D02*
X140979346Y-82616160D01*
X144529022Y-71712574D02*
X137302391Y-78939205D01*
X144529022Y-71712574D02*
X146367500Y-73551051D01*
X145427048Y-70814548D02*
X146367500Y-69874096D01*
X146367500Y-69874096D02*
X147307952Y-70814548D01*
X146367500Y-73551051D02*
X148205978Y-71712574D01*
X148205978Y-71712574D02*
X150044455Y-73551051D01*
X150044455Y-73551051D02*
X140979346Y-82616160D01*
%TO.C,SW1*%
X117900000Y-80375000D02*
X117900000Y-78375000D01*
X118900001Y-77075000D02*
X119350000Y-76625000D01*
X118900001Y-81675000D02*
X119350000Y-82125000D01*
X121950000Y-76625000D02*
X119350000Y-76625000D01*
X121950000Y-82125000D02*
X119350000Y-82125000D01*
X122399999Y-77075000D02*
X121950000Y-76625000D01*
X122399999Y-81675000D02*
X121950000Y-82125000D01*
X123400000Y-80375000D02*
X123400000Y-78375000D01*
%TO.C,C3*%
X156514190Y-114439193D02*
X156666693Y-114286690D01*
X157023307Y-114948310D02*
X157175810Y-114795807D01*
%TO.C,Q3*%
X120910000Y-95667500D02*
X120260000Y-95667500D01*
X120910000Y-95667500D02*
X121560000Y-95667500D01*
X120910000Y-98787500D02*
X120260000Y-98787500D01*
X120910000Y-98787500D02*
X121560000Y-98787500D01*
X119747500Y-95717500D02*
X119507500Y-95387500D01*
X119987500Y-95387500D01*
X119747500Y-95717500D01*
G36*
X119747500Y-95717500D02*
G01*
X119507500Y-95387500D01*
X119987500Y-95387500D01*
X119747500Y-95717500D01*
G37*
%TO.C,R8*%
X120076141Y-99252500D02*
X119768859Y-99252500D01*
X120076141Y-100012500D02*
X119768859Y-100012500D01*
%TO.C,D1*%
X121295000Y-87920000D02*
X121295000Y-89390000D01*
X121295000Y-89390000D02*
X123580000Y-89390000D01*
X123580000Y-87920000D02*
X121295000Y-87920000D01*
%TO.C,R1*%
X153607500Y-61123859D02*
X153607500Y-61431141D01*
X154367500Y-61123859D02*
X154367500Y-61431141D01*
%TO.C,R14*%
X120076141Y-116532500D02*
X119768859Y-116532500D01*
X120076141Y-117292500D02*
X119768859Y-117292500D01*
%TO.C,Q5*%
X120910000Y-107232500D02*
X120260000Y-107232500D01*
X120910000Y-107232500D02*
X121560000Y-107232500D01*
X120910000Y-110352500D02*
X120260000Y-110352500D01*
X120910000Y-110352500D02*
X121560000Y-110352500D01*
X119747500Y-107282500D02*
X119507500Y-106952500D01*
X119987500Y-106952500D01*
X119747500Y-107282500D01*
G36*
X119747500Y-107282500D02*
G01*
X119507500Y-106952500D01*
X119987500Y-106952500D01*
X119747500Y-107282500D01*
G37*
%TO.C,J3*%
X154217446Y-92504151D02*
X163240128Y-83481469D01*
X154259872Y-96223533D02*
X153319420Y-95283081D01*
X155200324Y-95283081D02*
X154259872Y-96223533D01*
X156098350Y-94385055D02*
X154217446Y-92504151D01*
X156098350Y-94385055D02*
X165121032Y-85362373D01*
X165121032Y-85362373D02*
X163240128Y-83481469D01*
%TO.C,R10*%
X120076141Y-105102500D02*
X119768859Y-105102500D01*
X120076141Y-105862500D02*
X119768859Y-105862500D01*
%TO.C,R5*%
X123352500Y-91983641D02*
X123352500Y-91676359D01*
X124112500Y-91983641D02*
X124112500Y-91676359D01*
%TO.C,J7*%
X136231596Y-123190000D02*
X137172048Y-122249548D01*
X137172048Y-124130452D02*
X136231596Y-123190000D01*
X138070074Y-125028478D02*
X139950978Y-123147574D01*
X138070074Y-125028478D02*
X147092756Y-134051160D01*
X139950978Y-123147574D02*
X148973660Y-132170256D01*
X147092756Y-134051160D02*
X148973660Y-132170256D01*
%TO.C,Q6*%
X120910000Y-112947500D02*
X120260000Y-112947500D01*
X120910000Y-112947500D02*
X121560000Y-112947500D01*
X120910000Y-116067500D02*
X120260000Y-116067500D01*
X120910000Y-116067500D02*
X121560000Y-116067500D01*
X119747500Y-112997500D02*
X119507500Y-112667500D01*
X119987500Y-112667500D01*
X119747500Y-112997500D01*
G36*
X119747500Y-112997500D02*
G01*
X119507500Y-112667500D01*
X119987500Y-112667500D01*
X119747500Y-112997500D01*
G37*
%TO.C,D5*%
X121295000Y-110780000D02*
X121295000Y-112250000D01*
X121295000Y-112250000D02*
X123580000Y-112250000D01*
X123580000Y-110780000D02*
X121295000Y-110780000D01*
%TO.C,R9*%
X123352500Y-103413641D02*
X123352500Y-103106359D01*
X124112500Y-103413641D02*
X124112500Y-103106359D01*
%TO.C,C1*%
X147427836Y-79015000D02*
X147212164Y-79015000D01*
X147427836Y-79735000D02*
X147212164Y-79735000D01*
%TO.C,R11*%
X123352500Y-109128641D02*
X123352500Y-108821359D01*
X124112500Y-109128641D02*
X124112500Y-108821359D01*
%TO.C,J2*%
X145149998Y-145217684D02*
X145149998Y-146217684D01*
X145149998Y-146217684D02*
X145649998Y-145717684D01*
X145649998Y-145717684D02*
X145149998Y-145217684D01*
X145769998Y-150447684D02*
X145769998Y-157297684D01*
X157299998Y-141647683D02*
X147499998Y-141647684D01*
X159029998Y-157297684D02*
X159029998Y-150447684D01*
%TO.C,R12*%
X120076141Y-110817500D02*
X119768859Y-110817500D01*
X120076141Y-111577500D02*
X119768859Y-111577500D01*
%TO.C,R13*%
X123352500Y-114843641D02*
X123352500Y-114536359D01*
X124112500Y-114843641D02*
X124112500Y-114536359D01*
%TO.C,J4*%
X135188840Y-86369346D02*
X136129292Y-85428894D01*
X136129292Y-87309798D02*
X135188840Y-86369346D01*
X137027318Y-84530868D02*
X138865795Y-82692391D01*
X137027318Y-88207824D02*
X138865795Y-86369346D01*
X137027318Y-88207824D02*
X149642103Y-100822609D01*
X138865795Y-82692391D02*
X153319058Y-97145653D01*
X138865795Y-86369346D02*
X137027318Y-84530868D01*
X149642103Y-100822609D02*
X153319058Y-97145653D01*
%TO.C,R7*%
X123352500Y-97563641D02*
X123352500Y-97256359D01*
X124112500Y-97563641D02*
X124112500Y-97256359D01*
%TO.C,SW2*%
X117900000Y-123237500D02*
X117900000Y-121237500D01*
X118900001Y-119937500D02*
X119350000Y-119487500D01*
X118900001Y-124537500D02*
X119350000Y-124987500D01*
X121950000Y-119487500D02*
X119350000Y-119487500D01*
X121950000Y-124987500D02*
X119350000Y-124987500D01*
X122399999Y-119937500D02*
X121950000Y-119487500D01*
X122399999Y-124537500D02*
X121950000Y-124987500D01*
X123400000Y-123237500D02*
X123400000Y-121237500D01*
%TO.C,R2*%
X151385000Y-61123859D02*
X151385000Y-61431141D01*
X152145000Y-61123859D02*
X152145000Y-61431141D01*
%TO.C,J1*%
X147700000Y-56510000D02*
X147700000Y-54510000D01*
X147700001Y-52610000D02*
X147700001Y-50710000D01*
X157099999Y-50710000D02*
X147700001Y-50710000D01*
X157099999Y-52610000D02*
X157099999Y-50710000D01*
X157100000Y-56510000D02*
X157100000Y-54510000D01*
%TD*%
%LPC*%
D13*
%TO.C,D2*%
X121992500Y-94370000D03*
X123567500Y-94370000D03*
%TD*%
D14*
%TO.C,J9*%
X164782500Y-114617500D03*
D15*
X162986449Y-116413551D03*
X162986449Y-112821449D03*
X161190398Y-114617500D03*
X161190398Y-111025398D03*
X159394346Y-112821449D03*
X159394346Y-109229346D03*
X157598295Y-111025398D03*
X157598295Y-107433295D03*
X155802244Y-109229346D03*
%TD*%
D16*
%TO.C,Q2*%
X119972500Y-90612500D03*
X119972500Y-92512500D03*
X121847500Y-91562500D03*
%TD*%
%TO.C,Q1*%
X119972500Y-84982500D03*
X119972500Y-86882500D03*
X121847500Y-85932500D03*
%TD*%
D13*
%TO.C,D4*%
X121992500Y-105800000D03*
X123567500Y-105800000D03*
%TD*%
D17*
%TO.C,C4*%
X157819411Y-115230589D03*
X157140589Y-115909411D03*
%TD*%
D18*
%TO.C,J10*%
X155792898Y-132497102D03*
D19*
X157588949Y-130701051D03*
X159385000Y-128905000D03*
X161181052Y-127108948D03*
%TD*%
D13*
%TO.C,D3*%
X121992500Y-99950000D03*
X123567500Y-99950000D03*
%TD*%
D16*
%TO.C,Q4*%
X119972500Y-102042500D03*
X119972500Y-103942500D03*
X121847500Y-102992500D03*
%TD*%
D20*
%TO.C,U1*%
X147512124Y-84818788D03*
X147865678Y-85172342D03*
X148219231Y-85525895D03*
X148572785Y-85879449D03*
X148926338Y-86233002D03*
X149279891Y-86586555D03*
X149633445Y-86940109D03*
X149986998Y-87293662D03*
X150340551Y-87647215D03*
X150694105Y-88000769D03*
X151047658Y-88354322D03*
X151401212Y-88707876D03*
D21*
X153398788Y-88707876D03*
X153752342Y-88354322D03*
X154105895Y-88000769D03*
X154459449Y-87647215D03*
X154813002Y-87293662D03*
X155166555Y-86940109D03*
X155520109Y-86586555D03*
X155873662Y-86233002D03*
X156227215Y-85879449D03*
X156580769Y-85525895D03*
X156934322Y-85172342D03*
X157287876Y-84818788D03*
D20*
X157287876Y-82821212D03*
X156934322Y-82467658D03*
X156580769Y-82114105D03*
X156227215Y-81760551D03*
X155873662Y-81406998D03*
X155520109Y-81053445D03*
X155166555Y-80699891D03*
X154813002Y-80346338D03*
X154459449Y-79992785D03*
X154105895Y-79639231D03*
X153752342Y-79285678D03*
X153398788Y-78932124D03*
D21*
X151401212Y-78932124D03*
X151047658Y-79285678D03*
X150694105Y-79639231D03*
X150340551Y-79992785D03*
X149986998Y-80346338D03*
X149633445Y-80699891D03*
X149279891Y-81053445D03*
X148926338Y-81406998D03*
X148572785Y-81760551D03*
X148219231Y-82114105D03*
X147865678Y-82467658D03*
X147512124Y-82821212D03*
%TD*%
D22*
%TO.C,J8*%
X150495000Y-104457500D03*
D23*
X152291051Y-106253551D03*
X148698949Y-106253551D03*
X150495000Y-108049602D03*
X146902898Y-108049602D03*
X148698949Y-109845654D03*
X145106846Y-109845654D03*
X146902898Y-111641705D03*
X143310795Y-111641705D03*
X145106846Y-113437756D03*
X141514744Y-113437756D03*
X143310795Y-115233807D03*
X139718693Y-115233807D03*
X141514744Y-117029859D03*
X137922641Y-117029859D03*
X139718693Y-118825910D03*
%TD*%
D24*
%TO.C,R3*%
X123732500Y-86942499D03*
X123732500Y-85922501D03*
%TD*%
D25*
%TO.C,R6*%
X120432499Y-94052500D03*
X119412501Y-94052500D03*
%TD*%
D13*
%TO.C,D6*%
X121992500Y-117230000D03*
X123567500Y-117230000D03*
%TD*%
D14*
%TO.C,J6*%
X166152102Y-82332102D03*
D15*
X164356051Y-80536051D03*
X162560000Y-78740000D03*
X160763948Y-76943948D03*
%TD*%
D26*
%TO.C,U2*%
X151401212Y-114492124D03*
X151047658Y-114845678D03*
X150694105Y-115199231D03*
X150340551Y-115552785D03*
X149986998Y-115906338D03*
X149633445Y-116259891D03*
X149279891Y-116613445D03*
X148926338Y-116966998D03*
X148572785Y-117320551D03*
X148219231Y-117674105D03*
X147865678Y-118027658D03*
X147512124Y-118381212D03*
D27*
X147512124Y-120378788D03*
X147865678Y-120732342D03*
X148219231Y-121085895D03*
X148572785Y-121439449D03*
X148926338Y-121793002D03*
X149279891Y-122146555D03*
X149633445Y-122500109D03*
X149986998Y-122853662D03*
X150340551Y-123207215D03*
X150694105Y-123560769D03*
X151047658Y-123914322D03*
X151401212Y-124267876D03*
D26*
X153398788Y-124267876D03*
X153752342Y-123914322D03*
X154105895Y-123560769D03*
X154459449Y-123207215D03*
X154813002Y-122853662D03*
X155166555Y-122500109D03*
X155520109Y-122146555D03*
X155873662Y-121793002D03*
X156227215Y-121439449D03*
X156580769Y-121085895D03*
X156934322Y-120732342D03*
X157287876Y-120378788D03*
D27*
X157287876Y-118381212D03*
X156934322Y-118027658D03*
X156580769Y-117674105D03*
X156227215Y-117320551D03*
X155873662Y-116966998D03*
X155520109Y-116613445D03*
X155166555Y-116259891D03*
X154813002Y-115906338D03*
X154459449Y-115552785D03*
X154105895Y-115199231D03*
X153752342Y-114845678D03*
X153398788Y-114492124D03*
%TD*%
D28*
%TO.C,C2*%
X147157500Y-78422500D03*
X148117500Y-78422500D03*
%TD*%
D25*
%TO.C,R4*%
X120432499Y-88337500D03*
X119412501Y-88337500D03*
%TD*%
D22*
%TO.C,J5*%
X146367500Y-71755000D03*
D23*
X148163551Y-73551051D03*
X144571449Y-73551051D03*
X146367500Y-75347102D03*
X142775398Y-75347102D03*
X144571449Y-77143154D03*
X140979346Y-77143154D03*
X142775398Y-78939205D03*
X139183295Y-78939205D03*
X140979346Y-80735256D03*
%TD*%
D29*
%TO.C,SW1*%
X123650000Y-81250000D03*
X117650000Y-81250000D03*
X123650000Y-77500000D03*
X117650000Y-77500000D03*
%TD*%
D30*
%TO.C,C3*%
X156505589Y-114956911D03*
X157184411Y-114278089D03*
%TD*%
D16*
%TO.C,Q3*%
X119972500Y-96277500D03*
X119972500Y-98177500D03*
X121847500Y-97227500D03*
%TD*%
D25*
%TO.C,R8*%
X120432499Y-99632500D03*
X119412501Y-99632500D03*
%TD*%
D13*
%TO.C,D1*%
X121992499Y-88655000D03*
X123567501Y-88655000D03*
%TD*%
D31*
%TO.C,R1*%
X153987500Y-60767501D03*
X153987500Y-61787499D03*
%TD*%
D25*
%TO.C,R14*%
X120432499Y-116912500D03*
X119412501Y-116912500D03*
%TD*%
D16*
%TO.C,Q5*%
X119972500Y-107842500D03*
X119972500Y-109742500D03*
X121847500Y-108792500D03*
%TD*%
D18*
%TO.C,J3*%
X154259872Y-94342629D03*
D19*
X156055923Y-92546578D03*
X157851974Y-90750527D03*
X159648026Y-88954475D03*
X161444077Y-87158424D03*
X163240128Y-85362373D03*
%TD*%
D25*
%TO.C,R10*%
X120432499Y-105482500D03*
X119412501Y-105482500D03*
%TD*%
D24*
%TO.C,R5*%
X123732500Y-92339999D03*
X123732500Y-91320001D03*
%TD*%
D32*
%TO.C,J7*%
X138112500Y-123190000D03*
D33*
X139908551Y-124986051D03*
X141704602Y-126782102D03*
X143500654Y-128578154D03*
X145296705Y-130374205D03*
X147092756Y-132170256D03*
%TD*%
D16*
%TO.C,Q6*%
X119972500Y-113557500D03*
X119972500Y-115457500D03*
X121847500Y-114507500D03*
%TD*%
D13*
%TO.C,D5*%
X121992500Y-111515000D03*
X123567500Y-111515000D03*
%TD*%
D24*
%TO.C,R9*%
X123732500Y-103769999D03*
X123732500Y-102750001D03*
%TD*%
D34*
%TO.C,C1*%
X147800000Y-79375000D03*
X146840000Y-79375000D03*
%TD*%
D24*
%TO.C,R11*%
X123732500Y-109484999D03*
X123732500Y-108465001D03*
%TD*%
D35*
%TO.C,J2*%
X148899998Y-145717684D03*
D36*
X151399998Y-145717684D03*
X153399999Y-145717684D03*
X155899997Y-145717684D03*
X148899998Y-143097684D03*
X151399998Y-143097684D03*
X153399998Y-143097684D03*
X155899998Y-143097684D03*
D37*
X145829998Y-148427684D03*
X158969998Y-148427684D03*
X145829998Y-142747684D03*
X158969998Y-142747684D03*
%TD*%
D25*
%TO.C,R12*%
X120432499Y-111197500D03*
X119412501Y-111197500D03*
%TD*%
D24*
%TO.C,R13*%
X123732500Y-115199999D03*
X123732500Y-114180001D03*
%TD*%
D32*
%TO.C,J4*%
X137069744Y-86369346D03*
D33*
X138865795Y-84573295D03*
X138865795Y-88165397D03*
X140661846Y-86369346D03*
X140661846Y-89961448D03*
X142457898Y-88165397D03*
X142457898Y-91757500D03*
X144253949Y-89961448D03*
X144253949Y-93553551D03*
X146050000Y-91757500D03*
X146050000Y-95349602D03*
X147846051Y-93553551D03*
X147846051Y-97145653D03*
X149642103Y-95349602D03*
X149642103Y-98941705D03*
X151438154Y-97145653D03*
%TD*%
D24*
%TO.C,R7*%
X123732500Y-97919999D03*
X123732500Y-96900001D03*
%TD*%
D29*
%TO.C,SW2*%
X123650000Y-124112500D03*
X117650000Y-124112500D03*
X123650000Y-120362500D03*
X117650000Y-120362500D03*
%TD*%
D31*
%TO.C,R2*%
X151765000Y-60767501D03*
X151765000Y-61787499D03*
%TD*%
D38*
%TO.C,J1*%
X155290000Y-57210000D03*
X149510000Y-57210000D03*
D39*
X155650000Y-58655000D03*
X154850001Y-58655000D03*
D40*
X153650000Y-58654999D03*
X152650000Y-58655000D03*
X152150000Y-58655000D03*
X151150000Y-58654999D03*
D39*
X149949999Y-58655000D03*
X149150000Y-58655000D03*
X149150000Y-58655000D03*
X149949999Y-58655000D03*
D40*
X150650000Y-58655000D03*
X151650000Y-58655000D03*
X153150000Y-58655000D03*
X154150000Y-58655000D03*
D39*
X154850001Y-58655000D03*
X155650000Y-58655000D03*
D41*
X156720000Y-57740000D03*
D42*
X156720000Y-53560000D03*
D41*
X148080000Y-57740000D03*
D42*
X148080000Y-53560000D03*
%TD*%
%LPD*%
M02*
