%TF.GenerationSoftware,KiCad,Pcbnew,8.0.2*%
%TF.CreationDate,2024-07-16T23:04:40+08:00*%
%TF.ProjectId,ch9350,63683933-3530-42e6-9b69-6361645f7063,rev?*%
%TF.SameCoordinates,Original*%
%TF.FileFunction,Soldermask,Bot*%
%TF.FilePolarity,Negative*%
%FSLAX46Y46*%
G04 Gerber Fmt 4.6, Leading zero omitted, Abs format (unit mm)*
G04 Created by KiCad (PCBNEW 8.0.2) date 2024-07-16 23:04:40*
%MOMM*%
%LPD*%
G01*
G04 APERTURE LIST*
G04 Aperture macros list*
%AMHorizOval*
0 Thick line with rounded ends*
0 $1 width*
0 $2 $3 position (X,Y) of the first rounded end (center of the circle)*
0 $4 $5 position (X,Y) of the second rounded end (center of the circle)*
0 Add line between two ends*
20,1,$1,$2,$3,$4,$5,0*
0 Add two circle primitives to create the rounded ends*
1,1,$1,$2,$3*
1,1,$1,$4,$5*%
%AMRotRect*
0 Rectangle, with rotation*
0 The origin of the aperture is its center*
0 $1 length*
0 $2 width*
0 $3 Rotation angle, in degrees counterclockwise*
0 Add horizontal line*
21,1,$1,$2,0,0,$3*%
G04 Aperture macros list end*
%ADD10RotRect,1.700000X1.700000X225.000000*%
%ADD11HorizOval,1.700000X0.000000X0.000000X0.000000X0.000000X0*%
%ADD12RotRect,1.700000X1.700000X135.000000*%
%ADD13HorizOval,1.700000X0.000000X0.000000X0.000000X0.000000X0*%
%ADD14RotRect,1.700000X1.700000X315.000000*%
%ADD15HorizOval,1.700000X0.000000X0.000000X0.000000X0.000000X0*%
%ADD16RotRect,1.700000X1.700000X45.000000*%
%ADD17HorizOval,1.700000X0.000000X0.000000X0.000000X0.000000X0*%
%ADD18R,1.500000X1.500000*%
%ADD19C,1.500000*%
%ADD20C,3.500000*%
%ADD21C,0.650000*%
%ADD22O,1.000000X2.100000*%
%ADD23O,1.000000X1.600000*%
G04 APERTURE END LIST*
D10*
%TO.C,J9*%
X164782500Y-114617500D03*
D11*
X162986449Y-116413551D03*
X162986449Y-112821449D03*
X161190398Y-114617500D03*
X161190398Y-111025398D03*
X159394346Y-112821449D03*
X159394346Y-109229346D03*
X157598295Y-111025398D03*
X157598295Y-107433295D03*
X155802244Y-109229346D03*
%TD*%
D12*
%TO.C,J10*%
X155792898Y-132497102D03*
D13*
X157588949Y-130701051D03*
X159385000Y-128905000D03*
X161181052Y-127108948D03*
%TD*%
D14*
%TO.C,J8*%
X150495000Y-104457500D03*
D15*
X152291051Y-106253551D03*
X148698949Y-106253551D03*
X150495000Y-108049602D03*
X146902898Y-108049602D03*
X148698949Y-109845654D03*
X145106846Y-109845654D03*
X146902898Y-111641705D03*
X143310795Y-111641705D03*
X145106846Y-113437756D03*
X141514744Y-113437756D03*
X143310795Y-115233807D03*
X139718693Y-115233807D03*
X141514744Y-117029859D03*
X137922641Y-117029859D03*
X139718693Y-118825910D03*
%TD*%
D10*
%TO.C,J6*%
X166152102Y-82332102D03*
D11*
X164356051Y-80536051D03*
X162560000Y-78740000D03*
X160763948Y-76943948D03*
%TD*%
D14*
%TO.C,J5*%
X146367500Y-71755000D03*
D15*
X148163551Y-73551051D03*
X144571449Y-73551051D03*
X146367500Y-75347102D03*
X142775398Y-75347102D03*
X144571449Y-77143154D03*
X140979346Y-77143154D03*
X142775398Y-78939205D03*
X139183295Y-78939205D03*
X140979346Y-80735256D03*
%TD*%
D12*
%TO.C,J3*%
X154259872Y-94342629D03*
D13*
X156055923Y-92546578D03*
X157851974Y-90750527D03*
X159648026Y-88954475D03*
X161444077Y-87158424D03*
X163240128Y-85362373D03*
%TD*%
D16*
%TO.C,J7*%
X138112500Y-123190000D03*
D17*
X139908551Y-124986051D03*
X141704602Y-126782102D03*
X143500654Y-128578154D03*
X145296705Y-130374205D03*
X147092756Y-132170256D03*
%TD*%
D18*
%TO.C,J2*%
X148899998Y-145717684D03*
D19*
X151399998Y-145717684D03*
X153399999Y-145717684D03*
X155899997Y-145717684D03*
X148899998Y-143097684D03*
X151399998Y-143097684D03*
X153399998Y-143097684D03*
X155899998Y-143097684D03*
D20*
X145829998Y-148427684D03*
X158969998Y-148427684D03*
X145829998Y-142747684D03*
X158969998Y-142747684D03*
%TD*%
D16*
%TO.C,J4*%
X137069744Y-86369346D03*
D17*
X138865795Y-84573295D03*
X138865795Y-88165397D03*
X140661846Y-86369346D03*
X140661846Y-89961448D03*
X142457898Y-88165397D03*
X142457898Y-91757500D03*
X144253949Y-89961448D03*
X144253949Y-93553551D03*
X146050000Y-91757500D03*
X146050000Y-95349602D03*
X147846051Y-93553551D03*
X147846051Y-97145653D03*
X149642103Y-95349602D03*
X149642103Y-98941705D03*
X151438154Y-97145653D03*
%TD*%
D21*
%TO.C,J1*%
X155290000Y-57210000D03*
X149510000Y-57210000D03*
D22*
X156720000Y-57740000D03*
D23*
X156720000Y-53560000D03*
D22*
X148080000Y-57740000D03*
D23*
X148080000Y-53560000D03*
%TD*%
M02*
