%TF.GenerationSoftware,KiCad,Pcbnew,8.0.2*%
%TF.CreationDate,2024-07-16T23:04:40+08:00*%
%TF.ProjectId,ch9350,63683933-3530-42e6-9b69-6361645f7063,rev?*%
%TF.SameCoordinates,Original*%
%TF.FileFunction,Copper,L2,Bot*%
%TF.FilePolarity,Positive*%
%FSLAX46Y46*%
G04 Gerber Fmt 4.6, Leading zero omitted, Abs format (unit mm)*
G04 Created by KiCad (PCBNEW 8.0.2) date 2024-07-16 23:04:40*
%MOMM*%
%LPD*%
G01*
G04 APERTURE LIST*
G04 Aperture macros list*
%AMHorizOval*
0 Thick line with rounded ends*
0 $1 width*
0 $2 $3 position (X,Y) of the first rounded end (center of the circle)*
0 $4 $5 position (X,Y) of the second rounded end (center of the circle)*
0 Add line between two ends*
20,1,$1,$2,$3,$4,$5,0*
0 Add two circle primitives to create the rounded ends*
1,1,$1,$2,$3*
1,1,$1,$4,$5*%
%AMRotRect*
0 Rectangle, with rotation*
0 The origin of the aperture is its center*
0 $1 length*
0 $2 width*
0 $3 Rotation angle, in degrees counterclockwise*
0 Add horizontal line*
21,1,$1,$2,0,0,$3*%
G04 Aperture macros list end*
%TA.AperFunction,ComponentPad*%
%ADD10RotRect,1.700000X1.700000X225.000000*%
%TD*%
%TA.AperFunction,ComponentPad*%
%ADD11HorizOval,1.700000X0.000000X0.000000X0.000000X0.000000X0*%
%TD*%
%TA.AperFunction,ComponentPad*%
%ADD12RotRect,1.700000X1.700000X135.000000*%
%TD*%
%TA.AperFunction,ComponentPad*%
%ADD13HorizOval,1.700000X0.000000X0.000000X0.000000X0.000000X0*%
%TD*%
%TA.AperFunction,ComponentPad*%
%ADD14RotRect,1.700000X1.700000X315.000000*%
%TD*%
%TA.AperFunction,ComponentPad*%
%ADD15HorizOval,1.700000X0.000000X0.000000X0.000000X0.000000X0*%
%TD*%
%TA.AperFunction,ComponentPad*%
%ADD16RotRect,1.700000X1.700000X45.000000*%
%TD*%
%TA.AperFunction,ComponentPad*%
%ADD17HorizOval,1.700000X0.000000X0.000000X0.000000X0.000000X0*%
%TD*%
%TA.AperFunction,ComponentPad*%
%ADD18R,1.500000X1.500000*%
%TD*%
%TA.AperFunction,ComponentPad*%
%ADD19C,1.500000*%
%TD*%
%TA.AperFunction,ComponentPad*%
%ADD20C,3.500000*%
%TD*%
%TA.AperFunction,ComponentPad*%
%ADD21O,1.000000X2.100000*%
%TD*%
%TA.AperFunction,ComponentPad*%
%ADD22O,1.000000X1.600000*%
%TD*%
%TA.AperFunction,ViaPad*%
%ADD23C,0.800000*%
%TD*%
%TA.AperFunction,Conductor*%
%ADD24C,0.500000*%
%TD*%
%TA.AperFunction,Conductor*%
%ADD25C,0.250000*%
%TD*%
%TA.AperFunction,Conductor*%
%ADD26C,0.200000*%
%TD*%
G04 APERTURE END LIST*
D10*
%TO.P,J9,1,Pin_1*%
%TO.N,GND*%
X164782500Y-114617500D03*
D11*
%TO.P,J9,2,Pin_2*%
%TO.N,/BAUD1b*%
X162986449Y-116413551D03*
%TO.P,J9,3,Pin_3*%
%TO.N,GND*%
X162986449Y-112821449D03*
%TO.P,J9,4,Pin_4*%
%TO.N,/BAUD0b*%
X161190398Y-114617500D03*
%TO.P,J9,5,Pin_5*%
%TO.N,/VBUS*%
X161190398Y-111025398D03*
%TO.P,J9,6,Pin_6*%
%TO.N,/VBUSb*%
X159394346Y-112821449D03*
%TO.P,J9,7,Pin_7*%
%TO.N,/JVDDb*%
X159394346Y-109229346D03*
%TO.P,J9,8,Pin_8*%
%TO.N,/VDDb*%
X157598295Y-111025398D03*
%TO.P,J9,9,Pin_9*%
%TO.N,GND*%
X157598295Y-107433295D03*
%TO.P,J9,10,Pin_10*%
%TO.N,/SELb*%
X155802244Y-109229346D03*
%TD*%
D12*
%TO.P,J10,1,Pin_1*%
%TO.N,/TNOWb*%
X155792898Y-132497102D03*
D13*
%TO.P,J10,2,Pin_2*%
%TO.N,/RXDb*%
X157588949Y-130701051D03*
%TO.P,J10,3,Pin_3*%
%TO.N,/TXDb*%
X159385000Y-128905000D03*
%TO.P,J10,4,Pin_4*%
%TO.N,GND*%
X161181052Y-127108948D03*
%TD*%
D14*
%TO.P,J8,1,Pin_1*%
%TO.N,/JLED0b*%
X150495000Y-104457500D03*
D15*
%TO.P,J8,2,Pin_2*%
%TO.N,/LED0b*%
X152291051Y-106253551D03*
%TO.P,J8,3,Pin_3*%
%TO.N,/JLED1b*%
X148698949Y-106253551D03*
%TO.P,J8,4,Pin_4*%
%TO.N,/LED1b*%
X150495000Y-108049602D03*
%TO.P,J8,5,Pin_5*%
%TO.N,/JLED2b*%
X146902898Y-108049602D03*
%TO.P,J8,6,Pin_6*%
%TO.N,/LED2b*%
X148698949Y-109845654D03*
%TO.P,J8,7,Pin_7*%
%TO.N,/VDDb*%
X145106846Y-109845654D03*
%TO.P,J8,8,Pin_8*%
%TO.N,/RESETb*%
X146902898Y-111641705D03*
%TO.P,J8,9,Pin_9*%
%TO.N,GND*%
X143310795Y-111641705D03*
%TO.P,J8,10,Pin_10*%
%TO.N,/S0b*%
X145106846Y-113437756D03*
%TO.P,J8,11,Pin_11*%
%TO.N,GND*%
X141514744Y-113437756D03*
%TO.P,J8,12,Pin_12*%
%TO.N,/S1b*%
X143310795Y-115233807D03*
%TO.P,J8,13,Pin_13*%
%TO.N,GND*%
X139718693Y-115233807D03*
%TO.P,J8,14,Pin_14*%
%TO.N,/xOSCb*%
X141514744Y-117029859D03*
%TO.P,J8,15,Pin_15*%
%TO.N,unconnected-(J8-Pin_15-Pad15)*%
X137922641Y-117029859D03*
%TO.P,J8,16,Pin_16*%
%TO.N,/DEBUGb*%
X139718693Y-118825910D03*
%TD*%
D10*
%TO.P,J6,1,Pin_1*%
%TO.N,/TNOWa*%
X166152102Y-82332102D03*
D11*
%TO.P,J6,2,Pin_2*%
%TO.N,/RXDa*%
X164356051Y-80536051D03*
%TO.P,J6,3,Pin_3*%
%TO.N,/TXDa*%
X162560000Y-78740000D03*
%TO.P,J6,4,Pin_4*%
%TO.N,GND*%
X160763948Y-76943948D03*
%TD*%
D14*
%TO.P,J5,1,Pin_1*%
%TO.N,GND*%
X146367500Y-71755000D03*
D15*
%TO.P,J5,2,Pin_2*%
%TO.N,/BAUD1a*%
X148163551Y-73551051D03*
%TO.P,J5,3,Pin_3*%
%TO.N,GND*%
X144571449Y-73551051D03*
%TO.P,J5,4,Pin_4*%
%TO.N,/BAUD0a*%
X146367500Y-75347102D03*
%TO.P,J5,5,Pin_5*%
%TO.N,/VBUS*%
X142775398Y-75347102D03*
%TO.P,J5,6,Pin_6*%
%TO.N,/VBUSa*%
X144571449Y-77143154D03*
%TO.P,J5,7,Pin_7*%
%TO.N,/JVDDa*%
X140979346Y-77143154D03*
%TO.P,J5,8,Pin_8*%
%TO.N,/VDDa*%
X142775398Y-78939205D03*
%TO.P,J5,9,Pin_9*%
%TO.N,GND*%
X139183295Y-78939205D03*
%TO.P,J5,10,Pin_10*%
%TO.N,/SELa*%
X140979346Y-80735256D03*
%TD*%
D12*
%TO.P,J3,1,Pin_1*%
%TO.N,/XIa*%
X154259872Y-94342629D03*
D13*
%TO.P,J3,2,Pin_2*%
%TO.N,/XOa*%
X156055923Y-92546578D03*
%TO.P,J3,3,Pin_3*%
%TO.N,/IO1a*%
X157851974Y-90750527D03*
%TO.P,J3,4,Pin_4*%
%TO.N,/IO2a*%
X159648026Y-88954475D03*
%TO.P,J3,5,Pin_5*%
%TO.N,/IO3a*%
X161444077Y-87158424D03*
%TO.P,J3,6,Pin_6*%
%TO.N,/IO4a*%
X163240128Y-85362373D03*
%TD*%
D16*
%TO.P,J7,1,Pin_1*%
%TO.N,/XIb*%
X138112500Y-123190000D03*
D17*
%TO.P,J7,2,Pin_2*%
%TO.N,/XOb*%
X139908551Y-124986051D03*
%TO.P,J7,3,Pin_3*%
%TO.N,/IO1b*%
X141704602Y-126782102D03*
%TO.P,J7,4,Pin_4*%
%TO.N,/IO2b*%
X143500654Y-128578154D03*
%TO.P,J7,5,Pin_5*%
%TO.N,/IO3b*%
X145296705Y-130374205D03*
%TO.P,J7,6,Pin_6*%
%TO.N,/IO4b*%
X147092756Y-132170256D03*
%TD*%
D18*
%TO.P,J2,1,VBUS1*%
%TO.N,/VBUS*%
X148899998Y-145717684D03*
D19*
%TO.P,J2,2,D1-*%
%TO.N,/D1-*%
X151399998Y-145717684D03*
%TO.P,J2,3,D1+*%
%TO.N,/D1+*%
X153399999Y-145717684D03*
%TO.P,J2,4,GND1*%
%TO.N,GND*%
X155899997Y-145717684D03*
%TO.P,J2,5,VBUS2*%
%TO.N,/VBUS*%
X148899998Y-143097684D03*
%TO.P,J2,6,D2-*%
%TO.N,/D2-*%
X151399998Y-143097684D03*
%TO.P,J2,7,D2+*%
%TO.N,/D2+*%
X153399998Y-143097684D03*
%TO.P,J2,8,GND2*%
%TO.N,GND*%
X155899998Y-143097684D03*
D20*
%TO.P,J2,9,Shield*%
%TO.N,GNDPWR*%
X145829998Y-148427684D03*
X158969998Y-148427684D03*
X145829998Y-142747684D03*
X158969998Y-142747684D03*
%TD*%
D16*
%TO.P,J4,1,Pin_1*%
%TO.N,/JLED0a*%
X137069744Y-86369346D03*
D17*
%TO.P,J4,2,Pin_2*%
%TO.N,/LED0a*%
X138865795Y-84573295D03*
%TO.P,J4,3,Pin_3*%
%TO.N,/JLED1a*%
X138865795Y-88165397D03*
%TO.P,J4,4,Pin_4*%
%TO.N,/LED1a*%
X140661846Y-86369346D03*
%TO.P,J4,5,Pin_5*%
%TO.N,/JLED2a*%
X140661846Y-89961448D03*
%TO.P,J4,6,Pin_6*%
%TO.N,/LED2a*%
X142457898Y-88165397D03*
%TO.P,J4,7,Pin_7*%
%TO.N,/VDDa*%
X142457898Y-91757500D03*
%TO.P,J4,8,Pin_8*%
%TO.N,/RESETa*%
X144253949Y-89961448D03*
%TO.P,J4,9,Pin_9*%
%TO.N,GND*%
X144253949Y-93553551D03*
%TO.P,J4,10,Pin_10*%
%TO.N,/S0a*%
X146050000Y-91757500D03*
%TO.P,J4,11,Pin_11*%
%TO.N,GND*%
X146050000Y-95349602D03*
%TO.P,J4,12,Pin_12*%
%TO.N,/S1a*%
X147846051Y-93553551D03*
%TO.P,J4,13,Pin_13*%
%TO.N,GND*%
X147846051Y-97145653D03*
%TO.P,J4,14,Pin_14*%
%TO.N,/xOSCa*%
X149642103Y-95349602D03*
%TO.P,J4,15,Pin_15*%
%TO.N,unconnected-(J4-Pin_15-Pad15)*%
X149642103Y-98941705D03*
%TO.P,J4,16,Pin_16*%
%TO.N,/DEBUGa*%
X151438154Y-97145653D03*
%TD*%
D21*
%TO.P,J1,S1,SHIELD*%
%TO.N,unconnected-(J1-SHIELD-PadS1)_2*%
X156720000Y-57740000D03*
D22*
%TO.N,unconnected-(J1-SHIELD-PadS1)*%
X156720000Y-53560000D03*
D21*
%TO.N,unconnected-(J1-SHIELD-PadS1)_0*%
X148080000Y-57740000D03*
D22*
%TO.N,unconnected-(J1-SHIELD-PadS1)_1*%
X148080000Y-53560000D03*
%TD*%
D23*
%TO.N,GND*%
X156210000Y-113347500D03*
X153987500Y-85725000D03*
X150495000Y-120967500D03*
X145732500Y-79375000D03*
%TO.N,/VBUS*%
X148590000Y-63182500D03*
X155892500Y-64135000D03*
%TO.N,/RESETa*%
X131445000Y-82867500D03*
%TO.N,/VDDa*%
X131445000Y-81597500D03*
%TO.N,/RESETb*%
X131762500Y-124142500D03*
%TO.N,/VDDb*%
X131762500Y-123142497D03*
%TO.N,/D-*%
X152290000Y-68393439D03*
X153352500Y-81072500D03*
%TO.N,/D+*%
X151240000Y-68393439D03*
X153352500Y-82122500D03*
%TO.N,/D2+*%
X153259930Y-122340328D03*
%TO.N,/D2-*%
X153259930Y-121290328D03*
%TD*%
D24*
%TO.N,/VBUS*%
X155892500Y-64135000D02*
X154940000Y-65087500D01*
X161190398Y-111025398D02*
X162560000Y-109655796D01*
X148907500Y-142029522D02*
X148907500Y-140335000D01*
X146050000Y-139065000D02*
X131762500Y-139065000D01*
X162560000Y-103505000D02*
X160972500Y-101917500D01*
X148899998Y-142037024D02*
X148907500Y-142029522D01*
X131445000Y-63817500D02*
X131762500Y-63500000D01*
X149225000Y-63817500D02*
X148590000Y-63182500D01*
X154940000Y-65087500D02*
X153035000Y-65087500D01*
X130175000Y-137477500D02*
X130175000Y-132397500D01*
X130175000Y-101917500D02*
X130175000Y-75247500D01*
X148272500Y-63500000D02*
X148590000Y-63182500D01*
X130175000Y-75247500D02*
X130175000Y-65087500D01*
X130175000Y-132397500D02*
X130175000Y-101917500D01*
X160972500Y-101917500D02*
X130175000Y-101917500D01*
X131762500Y-139065000D02*
X131445000Y-138747500D01*
X131762500Y-63500000D02*
X141922500Y-63500000D01*
X142775398Y-75347102D02*
X130274602Y-75347102D01*
X131445000Y-138747500D02*
X130175000Y-137477500D01*
X148907500Y-140335000D02*
X147637500Y-139065000D01*
X153035000Y-65087500D02*
X151765000Y-63817500D01*
X130175000Y-65087500D02*
X131445000Y-63817500D01*
X148899998Y-143097684D02*
X148899998Y-142037024D01*
X148899998Y-145717684D02*
X148899998Y-143097684D01*
X147637500Y-139065000D02*
X146050000Y-139065000D01*
X141922500Y-63500000D02*
X148272500Y-63500000D01*
X130274602Y-75347102D02*
X130175000Y-75247500D01*
X162560000Y-109655796D02*
X162560000Y-103505000D01*
X151765000Y-63817500D02*
X149225000Y-63817500D01*
%TO.N,GNDPWR*%
X158969998Y-148427684D02*
X158969998Y-142747684D01*
X145829998Y-148427684D02*
X158969998Y-148427684D01*
X145829998Y-142747684D02*
X145829998Y-148427684D01*
D25*
%TO.N,/RESETa*%
X136525000Y-92392500D02*
X135255000Y-92392500D01*
X135255000Y-92392500D02*
X133667500Y-90805000D01*
X133350000Y-83820000D02*
X132397500Y-82867500D01*
X144253949Y-91891850D02*
X143213299Y-92932500D01*
X140970000Y-92392500D02*
X136525000Y-92392500D01*
X132397500Y-82867500D02*
X131445000Y-82867500D01*
X143213299Y-92932500D02*
X141510000Y-92932500D01*
X133667500Y-90805000D02*
X133350000Y-90487500D01*
X141510000Y-92932500D02*
X140970000Y-92392500D01*
X133350000Y-90487500D02*
X133350000Y-84137500D01*
X133350000Y-84137500D02*
X133350000Y-83820000D01*
X144253949Y-89961448D02*
X144253949Y-91891850D01*
%TO.N,/VDDa*%
X133985000Y-90170000D02*
X133985000Y-83185000D01*
X134937500Y-91122500D02*
X133985000Y-90170000D01*
X141113696Y-78939205D02*
X142775398Y-78939205D01*
X133985000Y-83185000D02*
X132397500Y-81597500D01*
X136829799Y-84467701D02*
X136829799Y-83223102D01*
X136829799Y-83223102D02*
X141113696Y-78939205D01*
X142457898Y-90095799D02*
X136829799Y-84467701D01*
X132397500Y-81597500D02*
X131445000Y-81597500D01*
X142457898Y-91757500D02*
X135572500Y-91757500D01*
X142457898Y-91757500D02*
X142457898Y-90095799D01*
X135572500Y-91757500D02*
X134937500Y-91122500D01*
%TO.N,/RESETb*%
X144972496Y-111641705D02*
X146902898Y-111641705D01*
X132471701Y-124142500D02*
X144972496Y-111641705D01*
X131762500Y-124142500D02*
X132471701Y-124142500D01*
%TO.N,/VDDb*%
X144481192Y-109220000D02*
X145106846Y-109845654D01*
X152400000Y-110172500D02*
X154622500Y-112395000D01*
X142875000Y-109220000D02*
X144481192Y-109220000D01*
X149000394Y-112077500D02*
X149542500Y-112077500D01*
X154622500Y-112395000D02*
X156228693Y-112395000D01*
X132445003Y-123142497D02*
X134937500Y-120650000D01*
X151447500Y-110172500D02*
X152400000Y-110172500D01*
X146768548Y-109845654D02*
X149000394Y-112077500D01*
X145106846Y-109845654D02*
X146768548Y-109845654D01*
X156228693Y-112395000D02*
X157598295Y-111025398D01*
X149542500Y-112077500D02*
X151447500Y-110172500D01*
X134937500Y-117157500D02*
X142875000Y-109220000D01*
X131762500Y-123142497D02*
X132445003Y-123142497D01*
X134937500Y-120650000D02*
X134937500Y-117157500D01*
D26*
%TO.N,/D-*%
X151990001Y-68693438D02*
X152290000Y-68393439D01*
X151990001Y-68897499D02*
X151990001Y-68693438D01*
X152493200Y-81372500D02*
X151990000Y-80869300D01*
X153052500Y-81372500D02*
X152493200Y-81372500D01*
X151990000Y-80869300D02*
X151990000Y-68897500D01*
X151990000Y-68897500D02*
X151990001Y-68897499D01*
X153352500Y-81072500D02*
X153052500Y-81372500D01*
%TO.N,/D+*%
X152306800Y-81822500D02*
X151540000Y-81055700D01*
X151539999Y-68693438D02*
X151240000Y-68393439D01*
X153052500Y-81822500D02*
X152306800Y-81822500D01*
X151540000Y-81055700D02*
X151540000Y-68897500D01*
X151539999Y-68897499D02*
X151539999Y-68693438D01*
X151540000Y-68897500D02*
X151539999Y-68897499D01*
X153352500Y-82122500D02*
X153052500Y-81822500D01*
%TO.N,/D2+*%
X152579666Y-122040328D02*
X151990000Y-122629994D01*
X152624999Y-137578047D02*
X152624999Y-142322685D01*
X151990000Y-122629994D02*
X151990000Y-122979534D01*
X152624999Y-142322685D02*
X153399998Y-143097684D01*
X151990000Y-122979534D02*
X152625000Y-123614534D01*
X153259930Y-122340328D02*
X152959930Y-122040328D01*
X152959930Y-122040328D02*
X152579666Y-122040328D01*
X152625000Y-123614534D02*
X152625000Y-137578046D01*
X152625000Y-137578046D02*
X152624999Y-137578047D01*
%TO.N,/D2-*%
X152174997Y-142322685D02*
X151399998Y-143097684D01*
X152175000Y-137578046D02*
X152174997Y-137578049D01*
X152174997Y-137578049D02*
X152174997Y-142322685D01*
X151540000Y-122443594D02*
X151540000Y-123165934D01*
X152959930Y-121590328D02*
X152393266Y-121590328D01*
X151540000Y-123165934D02*
X152175000Y-123800934D01*
X152175000Y-123800934D02*
X152175000Y-137578046D01*
X153259930Y-121290328D02*
X152959930Y-121590328D01*
X152393266Y-121590328D02*
X151540000Y-122443594D01*
%TD*%
%TA.AperFunction,Conductor*%
%TO.N,GND*%
G36*
X156984009Y-143828142D02*
G01*
X156981599Y-143830551D01*
X157006295Y-143854463D01*
X157009649Y-143860796D01*
X157016823Y-143875345D01*
X157037738Y-143906646D01*
X157177830Y-144116309D01*
X157180726Y-144120642D01*
X157375239Y-144342442D01*
X157597042Y-144536958D01*
X157842330Y-144700854D01*
X157842337Y-144700858D01*
X158106914Y-144831333D01*
X158106916Y-144831333D01*
X158106921Y-144831336D01*
X158135358Y-144840989D01*
X158192510Y-144881175D01*
X158218864Y-144945884D01*
X158219498Y-144958407D01*
X158219498Y-146216959D01*
X158199813Y-146283998D01*
X158147009Y-146329753D01*
X158135361Y-146334377D01*
X158106924Y-146344031D01*
X158106920Y-146344032D01*
X157842332Y-146474512D01*
X157597039Y-146638412D01*
X157375239Y-146832925D01*
X157180726Y-147054725D01*
X157016826Y-147300018D01*
X156886348Y-147564601D01*
X156876693Y-147593044D01*
X156836503Y-147650198D01*
X156771794Y-147676550D01*
X156759274Y-147677184D01*
X148040722Y-147677184D01*
X147973683Y-147657499D01*
X147927928Y-147604695D01*
X147923303Y-147593044D01*
X147913650Y-147564607D01*
X147783170Y-147300020D01*
X147619271Y-147054727D01*
X147530404Y-146953394D01*
X147424756Y-146832925D01*
X147202953Y-146638409D01*
X146957665Y-146474513D01*
X146957658Y-146474509D01*
X146693080Y-146344034D01*
X146693076Y-146344032D01*
X146693075Y-146344032D01*
X146683574Y-146340807D01*
X146664635Y-146334377D01*
X146607482Y-146294185D01*
X146581131Y-146229475D01*
X146580498Y-146216959D01*
X146580498Y-144958407D01*
X146600183Y-144891368D01*
X146652987Y-144845613D01*
X146664621Y-144840994D01*
X146693075Y-144831336D01*
X146957663Y-144700856D01*
X147202955Y-144536957D01*
X147424756Y-144342442D01*
X147619271Y-144120641D01*
X147749702Y-143925436D01*
X147803314Y-143880631D01*
X147872639Y-143871924D01*
X147935666Y-143902078D01*
X147940466Y-143906627D01*
X148093116Y-144059277D01*
X148093121Y-144059282D01*
X148096620Y-144061732D01*
X148140246Y-144116309D01*
X148149498Y-144163308D01*
X148149498Y-144350707D01*
X148129813Y-144417746D01*
X148077009Y-144463501D01*
X148049863Y-144470950D01*
X148050066Y-144471808D01*
X148042518Y-144473591D01*
X147907669Y-144523886D01*
X147907662Y-144523890D01*
X147792453Y-144610136D01*
X147792450Y-144610139D01*
X147706204Y-144725348D01*
X147706200Y-144725355D01*
X147655906Y-144860201D01*
X147652164Y-144895013D01*
X147649499Y-144919807D01*
X147649498Y-144919819D01*
X147649498Y-146515554D01*
X147649499Y-146515560D01*
X147655906Y-146575167D01*
X147706200Y-146710012D01*
X147706204Y-146710019D01*
X147792450Y-146825228D01*
X147792453Y-146825231D01*
X147907662Y-146911477D01*
X147907669Y-146911481D01*
X148042515Y-146961775D01*
X148042514Y-146961775D01*
X148049442Y-146962519D01*
X148102125Y-146968184D01*
X149697870Y-146968183D01*
X149757481Y-146961775D01*
X149892329Y-146911480D01*
X150007544Y-146825230D01*
X150093794Y-146710015D01*
X150144089Y-146575167D01*
X150150498Y-146515557D01*
X150150497Y-146506677D01*
X150170176Y-146439640D01*
X150222976Y-146393881D01*
X150292134Y-146383932D01*
X150355692Y-146412951D01*
X150376071Y-146435547D01*
X150399997Y-146469716D01*
X150438400Y-146524561D01*
X150593121Y-146679282D01*
X150772359Y-146804786D01*
X150970668Y-146897259D01*
X151182021Y-146953891D01*
X151364924Y-146969892D01*
X151399996Y-146972961D01*
X151399998Y-146972961D01*
X151400000Y-146972961D01*
X151428252Y-146970489D01*
X151617975Y-146953891D01*
X151829328Y-146897259D01*
X152027637Y-146804786D01*
X152206875Y-146679282D01*
X152312320Y-146573836D01*
X152373639Y-146540354D01*
X152443331Y-146545338D01*
X152487679Y-146573839D01*
X152593122Y-146679282D01*
X152772360Y-146804786D01*
X152970669Y-146897259D01*
X153182022Y-146953891D01*
X153364925Y-146969892D01*
X153399997Y-146972961D01*
X153399999Y-146972961D01*
X153400001Y-146972961D01*
X153428253Y-146970489D01*
X153617976Y-146953891D01*
X153829329Y-146897259D01*
X154027638Y-146804786D01*
X154206876Y-146679282D01*
X154361597Y-146524561D01*
X154487101Y-146345323D01*
X154537892Y-146236400D01*
X154584064Y-146183961D01*
X154651257Y-146164809D01*
X154718139Y-146185025D01*
X154762656Y-146236401D01*
X154813328Y-146345068D01*
X154813329Y-146345070D01*
X154856871Y-146407255D01*
X155449694Y-145814432D01*
X155471346Y-145895237D01*
X155531906Y-146000130D01*
X155617551Y-146085775D01*
X155722444Y-146146335D01*
X155803247Y-146167986D01*
X155210424Y-146760808D01*
X155272609Y-146804350D01*
X155470837Y-146896785D01*
X155470846Y-146896789D01*
X155682102Y-146953394D01*
X155682112Y-146953396D01*
X155899996Y-146972459D01*
X155899998Y-146972459D01*
X156117881Y-146953396D01*
X156117891Y-146953394D01*
X156329147Y-146896789D01*
X156329161Y-146896784D01*
X156527380Y-146804353D01*
X156527382Y-146804352D01*
X156589568Y-146760808D01*
X155996747Y-146167986D01*
X156077550Y-146146335D01*
X156182443Y-146085775D01*
X156268088Y-146000130D01*
X156328648Y-145895237D01*
X156350299Y-145814433D01*
X156943121Y-146407254D01*
X156986665Y-146345069D01*
X156986666Y-146345067D01*
X157079097Y-146146848D01*
X157079102Y-146146834D01*
X157135707Y-145935578D01*
X157135709Y-145935568D01*
X157154772Y-145717684D01*
X157154772Y-145717683D01*
X157135709Y-145499799D01*
X157135707Y-145499789D01*
X157079102Y-145288533D01*
X157079098Y-145288524D01*
X156986664Y-145090298D01*
X156986663Y-145090296D01*
X156943121Y-145028112D01*
X156943121Y-145028111D01*
X156350299Y-145620933D01*
X156328648Y-145540131D01*
X156268088Y-145435238D01*
X156182443Y-145349593D01*
X156077550Y-145289033D01*
X155996746Y-145267381D01*
X156589568Y-144674558D01*
X156527384Y-144631017D01*
X156329156Y-144538582D01*
X156329147Y-144538578D01*
X156287648Y-144527459D01*
X156227987Y-144491094D01*
X156197458Y-144428247D01*
X156205753Y-144358872D01*
X156250238Y-144304994D01*
X156287648Y-144287909D01*
X156329148Y-144276789D01*
X156329162Y-144276784D01*
X156527381Y-144184353D01*
X156527383Y-144184352D01*
X156589569Y-144140808D01*
X155996748Y-143547986D01*
X156077551Y-143526335D01*
X156182444Y-143465775D01*
X156268089Y-143380130D01*
X156328649Y-143275237D01*
X156350300Y-143194433D01*
X156984009Y-143828142D01*
G37*
%TD.AperFunction*%
%TA.AperFunction,Conductor*%
G36*
X155471347Y-143275237D02*
G01*
X155531907Y-143380130D01*
X155617552Y-143465775D01*
X155722445Y-143526335D01*
X155803248Y-143547986D01*
X155210425Y-144140808D01*
X155272610Y-144184350D01*
X155470838Y-144276785D01*
X155470852Y-144276791D01*
X155512344Y-144287908D01*
X155572006Y-144324272D01*
X155602536Y-144387118D01*
X155594242Y-144456494D01*
X155549758Y-144510372D01*
X155512349Y-144527457D01*
X155470849Y-144538577D01*
X155470837Y-144538582D01*
X155272610Y-144631017D01*
X155210425Y-144674558D01*
X155803248Y-145267381D01*
X155722444Y-145289033D01*
X155617551Y-145349593D01*
X155531906Y-145435238D01*
X155471346Y-145540131D01*
X155449694Y-145620934D01*
X154856871Y-145028112D01*
X154813330Y-145090297D01*
X154762656Y-145198967D01*
X154716483Y-145251406D01*
X154649290Y-145270558D01*
X154582409Y-145250342D01*
X154537892Y-145198967D01*
X154533509Y-145189568D01*
X154487101Y-145090046D01*
X154487099Y-145090043D01*
X154487098Y-145090041D01*
X154361598Y-144910808D01*
X154291777Y-144840987D01*
X154206876Y-144756086D01*
X154068977Y-144659528D01*
X154027637Y-144630581D01*
X153928483Y-144584345D01*
X153829329Y-144538109D01*
X153829324Y-144538107D01*
X153829315Y-144538104D01*
X153789581Y-144527457D01*
X153729921Y-144491092D01*
X153699393Y-144428244D01*
X153707688Y-144358869D01*
X153752175Y-144304991D01*
X153789585Y-144287908D01*
X153829315Y-144277263D01*
X153829318Y-144277261D01*
X153829328Y-144277259D01*
X154027637Y-144184786D01*
X154206875Y-144059282D01*
X154361596Y-143904561D01*
X154487100Y-143725323D01*
X154537892Y-143616398D01*
X154584064Y-143563959D01*
X154651257Y-143544807D01*
X154718139Y-143565023D01*
X154762656Y-143616399D01*
X154813329Y-143725068D01*
X154813330Y-143725070D01*
X154856872Y-143787255D01*
X155449695Y-143194432D01*
X155471347Y-143275237D01*
G37*
%TD.AperFunction*%
%TA.AperFunction,Conductor*%
G36*
X141048819Y-113630749D02*
G01*
X141114645Y-113744763D01*
X141207737Y-113837855D01*
X141321751Y-113903681D01*
X141385334Y-113920718D01*
X140201655Y-115104397D01*
X140184618Y-115040814D01*
X140118792Y-114926800D01*
X140025700Y-114833708D01*
X139911686Y-114767882D01*
X139848102Y-114750844D01*
X141031781Y-113567165D01*
X141048819Y-113630749D01*
G37*
%TD.AperFunction*%
%TA.AperFunction,Conductor*%
G36*
X164653090Y-114134537D02*
G01*
X164589507Y-114151575D01*
X164475493Y-114217401D01*
X164382401Y-114310493D01*
X164316575Y-114424507D01*
X164299537Y-114488090D01*
X163115858Y-113304411D01*
X163179442Y-113287374D01*
X163293456Y-113221548D01*
X163386548Y-113128456D01*
X163452374Y-113014442D01*
X163469411Y-112950858D01*
X164653090Y-114134537D01*
G37*
%TD.AperFunction*%
%TA.AperFunction,Conductor*%
G36*
X142844870Y-111834698D02*
G01*
X142910696Y-111948712D01*
X143003788Y-112041804D01*
X143117802Y-112107630D01*
X143181385Y-112124667D01*
X141997706Y-113308346D01*
X141980669Y-113244763D01*
X141914843Y-113130749D01*
X141821751Y-113037657D01*
X141707737Y-112971831D01*
X141644153Y-112954793D01*
X142827832Y-111771114D01*
X142844870Y-111834698D01*
G37*
%TD.AperFunction*%
%TA.AperFunction,Conductor*%
G36*
X160677309Y-102687685D02*
G01*
X160697951Y-102704319D01*
X161773181Y-103779549D01*
X161806666Y-103840872D01*
X161809500Y-103867230D01*
X161809500Y-109293565D01*
X161789815Y-109360604D01*
X161773181Y-109381246D01*
X161501898Y-109652528D01*
X161440575Y-109686013D01*
X161403410Y-109688375D01*
X161190400Y-109669739D01*
X161190397Y-109669739D01*
X160954994Y-109690334D01*
X160954984Y-109690336D01*
X160854296Y-109717315D01*
X160784446Y-109715652D01*
X160726583Y-109676489D01*
X160699080Y-109612260D01*
X160702427Y-109565451D01*
X160729409Y-109464754D01*
X160750005Y-109229346D01*
X160749505Y-109223636D01*
X160729409Y-108993942D01*
X160729409Y-108993938D01*
X160672526Y-108781645D01*
X160668251Y-108765690D01*
X160668250Y-108765689D01*
X160668249Y-108765683D01*
X160568381Y-108551517D01*
X160560961Y-108540919D01*
X160432840Y-108357943D01*
X160265748Y-108190852D01*
X160265741Y-108190847D01*
X160072180Y-108055313D01*
X160072176Y-108055311D01*
X160059931Y-108049601D01*
X159858009Y-107955443D01*
X159858005Y-107955442D01*
X159858001Y-107955440D01*
X159629759Y-107894284D01*
X159629749Y-107894282D01*
X159394347Y-107873687D01*
X159394345Y-107873687D01*
X159158942Y-107894282D01*
X159158932Y-107894284D01*
X159057688Y-107921412D01*
X158987838Y-107919749D01*
X158929975Y-107880586D01*
X158902472Y-107816357D01*
X158905820Y-107769543D01*
X158932863Y-107668617D01*
X158932864Y-107668610D01*
X158953452Y-107433296D01*
X158953452Y-107433293D01*
X158932864Y-107197979D01*
X158932862Y-107197968D01*
X158871728Y-106969811D01*
X158871724Y-106969802D01*
X158771895Y-106755718D01*
X158771894Y-106755716D01*
X158713220Y-106671921D01*
X158713220Y-106671920D01*
X158081256Y-107303883D01*
X158064220Y-107240302D01*
X157998394Y-107126288D01*
X157905302Y-107033196D01*
X157791288Y-106967370D01*
X157727705Y-106950332D01*
X158359668Y-106318368D01*
X158359668Y-106318367D01*
X158275878Y-106259697D01*
X158275874Y-106259695D01*
X158061787Y-106159865D01*
X158061778Y-106159861D01*
X157833621Y-106098727D01*
X157833610Y-106098725D01*
X157598297Y-106078138D01*
X157598293Y-106078138D01*
X157362979Y-106098725D01*
X157362968Y-106098727D01*
X157134811Y-106159861D01*
X157134802Y-106159865D01*
X156920714Y-106259696D01*
X156836920Y-106318367D01*
X157468885Y-106950332D01*
X157405302Y-106967370D01*
X157291288Y-107033196D01*
X157198196Y-107126288D01*
X157132370Y-107240302D01*
X157115332Y-107303885D01*
X156483367Y-106671920D01*
X156424696Y-106755714D01*
X156324865Y-106969802D01*
X156324861Y-106969811D01*
X156263727Y-107197968D01*
X156263725Y-107197979D01*
X156243138Y-107433293D01*
X156243138Y-107433296D01*
X156263725Y-107668610D01*
X156263727Y-107668621D01*
X156290769Y-107769544D01*
X156289106Y-107839394D01*
X156249943Y-107897256D01*
X156185714Y-107924760D01*
X156138901Y-107921412D01*
X156037657Y-107894284D01*
X156037647Y-107894282D01*
X155802245Y-107873687D01*
X155802243Y-107873687D01*
X155566840Y-107894282D01*
X155566830Y-107894284D01*
X155338588Y-107955440D01*
X155338579Y-107955444D01*
X155124415Y-108055310D01*
X155124413Y-108055311D01*
X154930841Y-108190851D01*
X154763749Y-108357943D01*
X154628209Y-108551515D01*
X154628208Y-108551517D01*
X154528342Y-108765681D01*
X154528338Y-108765690D01*
X154467182Y-108993932D01*
X154467180Y-108993942D01*
X154446585Y-109229345D01*
X154446585Y-109229346D01*
X154467180Y-109464749D01*
X154467182Y-109464759D01*
X154528338Y-109693001D01*
X154528340Y-109693005D01*
X154528341Y-109693009D01*
X154608628Y-109865185D01*
X154628209Y-109907176D01*
X154628211Y-109907180D01*
X154701110Y-110011289D01*
X154763749Y-110100747D01*
X154930843Y-110267841D01*
X154991085Y-110310023D01*
X155124409Y-110403378D01*
X155124411Y-110403379D01*
X155124414Y-110403381D01*
X155338581Y-110503249D01*
X155566836Y-110564409D01*
X155755162Y-110580885D01*
X155802243Y-110585005D01*
X155802244Y-110585005D01*
X155802245Y-110585005D01*
X155841478Y-110581572D01*
X156037652Y-110564409D01*
X156138344Y-110537429D01*
X156208194Y-110539092D01*
X156266056Y-110578255D01*
X156293560Y-110642483D01*
X156290212Y-110689297D01*
X156263233Y-110789984D01*
X156263231Y-110789994D01*
X156242636Y-111025397D01*
X156242636Y-111025398D01*
X156263231Y-111260801D01*
X156263233Y-111260811D01*
X156290151Y-111361270D01*
X156288488Y-111431120D01*
X156258057Y-111481044D01*
X156005920Y-111733182D01*
X155944600Y-111766666D01*
X155918241Y-111769500D01*
X154932953Y-111769500D01*
X154865914Y-111749815D01*
X154845272Y-111733181D01*
X152892928Y-109780838D01*
X152892925Y-109780834D01*
X152892925Y-109780835D01*
X152885858Y-109773768D01*
X152885858Y-109773767D01*
X152798733Y-109686642D01*
X152798732Y-109686641D01*
X152798731Y-109686640D01*
X152747509Y-109652415D01*
X152721810Y-109635243D01*
X152696286Y-109618188D01*
X152696283Y-109618186D01*
X152696280Y-109618185D01*
X152608627Y-109581879D01*
X152598957Y-109577873D01*
X152582452Y-109571037D01*
X152495889Y-109553819D01*
X152478748Y-109550409D01*
X152461608Y-109547000D01*
X152461607Y-109547000D01*
X152461606Y-109547000D01*
X151509107Y-109547000D01*
X151385893Y-109547000D01*
X151385892Y-109547000D01*
X151368752Y-109550409D01*
X151351611Y-109553819D01*
X151293162Y-109565445D01*
X151265047Y-109571037D01*
X151238873Y-109581879D01*
X151151219Y-109618186D01*
X151151211Y-109618190D01*
X151134120Y-109629610D01*
X151125690Y-109635243D01*
X151125689Y-109635244D01*
X151125688Y-109635243D01*
X151048766Y-109686642D01*
X151048765Y-109686643D01*
X151019759Y-109715650D01*
X150961642Y-109773767D01*
X150074101Y-110661308D01*
X150012778Y-110694793D01*
X149943086Y-110689809D01*
X149887153Y-110647937D01*
X149862736Y-110582473D01*
X149874037Y-110521224D01*
X149972852Y-110309317D01*
X150034012Y-110081062D01*
X150054608Y-109845654D01*
X150034012Y-109610246D01*
X150007031Y-109509550D01*
X150008694Y-109439704D01*
X150047856Y-109381841D01*
X150112085Y-109354337D01*
X150158899Y-109357685D01*
X150200857Y-109368927D01*
X150259592Y-109384665D01*
X150447918Y-109401141D01*
X150494999Y-109405261D01*
X150495000Y-109405261D01*
X150495001Y-109405261D01*
X150534234Y-109401828D01*
X150730408Y-109384665D01*
X150958663Y-109323505D01*
X151172830Y-109223637D01*
X151366401Y-109088097D01*
X151533495Y-108921003D01*
X151669035Y-108727432D01*
X151768903Y-108513265D01*
X151830063Y-108285010D01*
X151850659Y-108049602D01*
X151830063Y-107814194D01*
X151803083Y-107713501D01*
X151804746Y-107643652D01*
X151843909Y-107585790D01*
X151908137Y-107558286D01*
X151954951Y-107561634D01*
X152055643Y-107588614D01*
X152243969Y-107605090D01*
X152291050Y-107609210D01*
X152291051Y-107609210D01*
X152291052Y-107609210D01*
X152330285Y-107605777D01*
X152526459Y-107588614D01*
X152754714Y-107527454D01*
X152968881Y-107427586D01*
X153162452Y-107292046D01*
X153329546Y-107124952D01*
X153465086Y-106931381D01*
X153564954Y-106717214D01*
X153626114Y-106488959D01*
X153646710Y-106253551D01*
X153626114Y-106018143D01*
X153564954Y-105789888D01*
X153465086Y-105575722D01*
X153329546Y-105382150D01*
X153329545Y-105382148D01*
X153162453Y-105215057D01*
X153162446Y-105215052D01*
X152968885Y-105079518D01*
X152968881Y-105079516D01*
X152968879Y-105079515D01*
X152754714Y-104979648D01*
X152754710Y-104979647D01*
X152754706Y-104979645D01*
X152526464Y-104918489D01*
X152526454Y-104918487D01*
X152291052Y-104897892D01*
X152291049Y-104897892D01*
X152248003Y-104901658D01*
X152179503Y-104887891D01*
X152129320Y-104839276D01*
X152113387Y-104771247D01*
X152124402Y-104726618D01*
X152182246Y-104599959D01*
X152182245Y-104599959D01*
X152182247Y-104599957D01*
X152202728Y-104457500D01*
X152182247Y-104315043D01*
X152122459Y-104184127D01*
X152084840Y-104137444D01*
X152084835Y-104137439D01*
X152084831Y-104137434D01*
X150827075Y-102879681D01*
X150793590Y-102818358D01*
X150798574Y-102748667D01*
X150840445Y-102692733D01*
X150905910Y-102668316D01*
X150914756Y-102668000D01*
X160610270Y-102668000D01*
X160677309Y-102687685D01*
G37*
%TD.AperFunction*%
%TA.AperFunction,Conductor*%
G36*
X147716641Y-96662690D02*
G01*
X147653058Y-96679728D01*
X147539044Y-96745554D01*
X147445952Y-96838646D01*
X147380126Y-96952660D01*
X147363088Y-97016243D01*
X146179409Y-95832564D01*
X146242993Y-95815527D01*
X146357007Y-95749701D01*
X146450099Y-95656609D01*
X146515925Y-95542595D01*
X146532962Y-95479011D01*
X147716641Y-96662690D01*
G37*
%TD.AperFunction*%
%TA.AperFunction,Conductor*%
G36*
X145920590Y-94866639D02*
G01*
X145857007Y-94883677D01*
X145742993Y-94949503D01*
X145649901Y-95042595D01*
X145584075Y-95156609D01*
X145567037Y-95220192D01*
X144383358Y-94036513D01*
X144446942Y-94019476D01*
X144560956Y-93953650D01*
X144654048Y-93860558D01*
X144719874Y-93746544D01*
X144736911Y-93682960D01*
X145920590Y-94866639D01*
G37*
%TD.AperFunction*%
%TA.AperFunction,Conductor*%
G36*
X139891630Y-76117287D02*
G01*
X139937385Y-76170091D01*
X139947329Y-76239249D01*
X139926166Y-76292725D01*
X139805311Y-76465323D01*
X139805310Y-76465325D01*
X139705444Y-76679489D01*
X139705440Y-76679498D01*
X139644284Y-76907740D01*
X139644282Y-76907750D01*
X139623687Y-77143153D01*
X139623687Y-77143154D01*
X139644282Y-77378557D01*
X139644284Y-77378567D01*
X139671412Y-77479811D01*
X139669749Y-77549661D01*
X139630586Y-77607523D01*
X139566357Y-77635027D01*
X139519544Y-77631679D01*
X139418621Y-77604637D01*
X139418610Y-77604635D01*
X139183297Y-77584048D01*
X139183293Y-77584048D01*
X138947979Y-77604635D01*
X138947968Y-77604637D01*
X138719811Y-77665771D01*
X138719802Y-77665775D01*
X138505714Y-77765606D01*
X138421920Y-77824277D01*
X139053885Y-78456242D01*
X138990302Y-78473280D01*
X138876288Y-78539106D01*
X138783196Y-78632198D01*
X138717370Y-78746212D01*
X138700332Y-78809795D01*
X138068367Y-78177830D01*
X138009696Y-78261624D01*
X137909865Y-78475712D01*
X137909861Y-78475721D01*
X137848727Y-78703878D01*
X137848725Y-78703889D01*
X137828138Y-78939203D01*
X137828138Y-78939206D01*
X137848725Y-79174520D01*
X137848727Y-79174531D01*
X137909861Y-79402688D01*
X137909865Y-79402697D01*
X138009695Y-79616784D01*
X138009697Y-79616788D01*
X138068367Y-79700578D01*
X138068368Y-79700578D01*
X138700332Y-79068614D01*
X138717370Y-79132198D01*
X138783196Y-79246212D01*
X138876288Y-79339304D01*
X138990302Y-79405130D01*
X139053883Y-79422166D01*
X138421920Y-80054130D01*
X138505716Y-80112804D01*
X138720165Y-80212804D01*
X138772604Y-80258976D01*
X138791756Y-80326170D01*
X138771540Y-80393051D01*
X138755441Y-80412867D01*
X136981436Y-82186874D01*
X136431069Y-82737241D01*
X136431066Y-82737244D01*
X136387502Y-82780807D01*
X136343939Y-82824370D01*
X136315124Y-82867497D01*
X136315122Y-82867500D01*
X136300947Y-82888714D01*
X136275486Y-82926817D01*
X136275484Y-82926820D01*
X136244118Y-83002548D01*
X136228338Y-83040643D01*
X136228334Y-83040657D01*
X136204299Y-83161491D01*
X136204299Y-84529307D01*
X136213047Y-84573293D01*
X136228334Y-84650148D01*
X136228337Y-84650156D01*
X136241567Y-84682094D01*
X136241568Y-84682098D01*
X136275484Y-84763981D01*
X136275489Y-84763990D01*
X136305365Y-84808701D01*
X136305366Y-84808703D01*
X136343940Y-84866433D01*
X136343943Y-84866437D01*
X136415669Y-84938163D01*
X136449154Y-84999486D01*
X136444170Y-85069178D01*
X136415669Y-85113525D01*
X135479909Y-86049286D01*
X135479900Y-86049296D01*
X135442284Y-86095972D01*
X135382497Y-86226886D01*
X135382496Y-86226890D01*
X135362016Y-86369346D01*
X135382496Y-86511801D01*
X135382497Y-86511805D01*
X135442283Y-86642716D01*
X135442284Y-86642717D01*
X135442285Y-86642719D01*
X135479904Y-86689402D01*
X135479907Y-86689405D01*
X135479912Y-86689411D01*
X136567860Y-87777356D01*
X136749688Y-87959184D01*
X136749692Y-87959187D01*
X136749694Y-87959189D01*
X136796370Y-87996805D01*
X136927284Y-88056592D01*
X136927285Y-88056592D01*
X136927287Y-88056593D01*
X137069744Y-88077074D01*
X137212201Y-88056593D01*
X137338862Y-87998747D01*
X137408020Y-87988804D01*
X137471576Y-88017828D01*
X137509351Y-88076606D01*
X137513902Y-88122349D01*
X137510136Y-88165394D01*
X137510136Y-88165397D01*
X137530731Y-88400800D01*
X137530733Y-88400810D01*
X137591889Y-88629052D01*
X137591891Y-88629056D01*
X137591892Y-88629060D01*
X137691760Y-88843227D01*
X137691762Y-88843231D01*
X137747585Y-88922954D01*
X137827300Y-89036798D01*
X137994394Y-89203892D01*
X138091179Y-89271662D01*
X138187960Y-89339429D01*
X138187962Y-89339430D01*
X138187965Y-89339432D01*
X138402132Y-89439300D01*
X138402138Y-89439301D01*
X138402139Y-89439302D01*
X138426361Y-89445792D01*
X138630387Y-89500460D01*
X138818713Y-89516936D01*
X138865794Y-89521056D01*
X138865795Y-89521056D01*
X138865796Y-89521056D01*
X138905029Y-89517623D01*
X139101203Y-89500460D01*
X139201894Y-89473480D01*
X139271744Y-89475143D01*
X139329606Y-89514306D01*
X139357110Y-89578534D01*
X139353762Y-89625347D01*
X139326785Y-89726031D01*
X139326782Y-89726044D01*
X139306187Y-89961447D01*
X139306187Y-89961448D01*
X139326782Y-90196851D01*
X139326784Y-90196861D01*
X139387940Y-90425103D01*
X139387942Y-90425107D01*
X139387943Y-90425111D01*
X139454914Y-90568730D01*
X139487811Y-90639278D01*
X139487813Y-90639282D01*
X139623347Y-90832843D01*
X139623352Y-90832850D01*
X139710821Y-90920319D01*
X139744306Y-90981642D01*
X139739322Y-91051334D01*
X139697450Y-91107267D01*
X139631986Y-91131684D01*
X139623140Y-91132000D01*
X135882953Y-91132000D01*
X135815914Y-91112315D01*
X135795272Y-91095681D01*
X135430427Y-90730837D01*
X135430425Y-90730834D01*
X134646819Y-89947228D01*
X134613334Y-89885905D01*
X134610500Y-89859547D01*
X134610500Y-83123396D01*
X134610500Y-83123394D01*
X134586463Y-83002548D01*
X134572652Y-82969207D01*
X134539312Y-82888714D01*
X134495402Y-82823000D01*
X134495400Y-82822997D01*
X134470859Y-82786268D01*
X134470855Y-82786263D01*
X134380637Y-82696045D01*
X134380606Y-82696016D01*
X132887698Y-81203108D01*
X132887678Y-81203086D01*
X132796236Y-81111644D01*
X132796228Y-81111638D01*
X132737654Y-81072500D01*
X132737652Y-81072499D01*
X132693786Y-81043188D01*
X132693787Y-81043188D01*
X132693785Y-81043187D01*
X132653539Y-81026517D01*
X132613292Y-81009847D01*
X132579952Y-80996037D01*
X132579948Y-80996036D01*
X132579944Y-80996035D01*
X132482458Y-80976643D01*
X132482449Y-80976643D01*
X132459107Y-80972000D01*
X132459106Y-80972000D01*
X132148748Y-80972000D01*
X132081709Y-80952315D01*
X132056600Y-80930974D01*
X132050873Y-80924614D01*
X132050869Y-80924610D01*
X131897734Y-80813351D01*
X131897729Y-80813348D01*
X131724807Y-80736357D01*
X131724802Y-80736355D01*
X131566458Y-80702699D01*
X131539646Y-80697000D01*
X131350354Y-80697000D01*
X131323542Y-80702699D01*
X131165197Y-80736355D01*
X131165192Y-80736357D01*
X131099936Y-80765412D01*
X131030686Y-80774697D01*
X130967409Y-80745069D01*
X130930196Y-80685934D01*
X130925500Y-80652133D01*
X130925500Y-76221602D01*
X130945185Y-76154563D01*
X130997989Y-76108808D01*
X131049500Y-76097602D01*
X139824591Y-76097602D01*
X139891630Y-76117287D01*
G37*
%TD.AperFunction*%
%TA.AperFunction,Conductor*%
G36*
X145901575Y-71947993D02*
G01*
X145967401Y-72062007D01*
X146060493Y-72155099D01*
X146174507Y-72220925D01*
X146238090Y-72237962D01*
X145054411Y-73421641D01*
X145037374Y-73358058D01*
X144971548Y-73244044D01*
X144878456Y-73150952D01*
X144764442Y-73085126D01*
X144700858Y-73068088D01*
X145884537Y-71884409D01*
X145901575Y-71947993D01*
G37*
%TD.AperFunction*%
%TA.AperFunction,Conductor*%
G36*
X177542539Y-51020185D02*
G01*
X177588294Y-51072989D01*
X177599500Y-51124500D01*
X177599500Y-157155500D01*
X177579815Y-157222539D01*
X177527011Y-157268294D01*
X177475500Y-157279500D01*
X114624500Y-157279500D01*
X114557461Y-157259815D01*
X114511706Y-157207011D01*
X114500500Y-157155500D01*
X114500500Y-137551420D01*
X129424499Y-137551420D01*
X129453340Y-137696407D01*
X129453343Y-137696417D01*
X129509914Y-137832992D01*
X129542812Y-137882227D01*
X129542813Y-137882230D01*
X129592046Y-137955914D01*
X129592052Y-137955921D01*
X130857707Y-139221574D01*
X130857728Y-139221597D01*
X131284084Y-139647952D01*
X131284086Y-139647954D01*
X131313558Y-139667645D01*
X131357770Y-139697186D01*
X131407005Y-139730084D01*
X131407006Y-139730084D01*
X131407007Y-139730085D01*
X131407009Y-139730086D01*
X131543582Y-139786656D01*
X131543587Y-139786658D01*
X131543591Y-139786658D01*
X131543592Y-139786659D01*
X131688579Y-139815500D01*
X131688582Y-139815500D01*
X131688583Y-139815500D01*
X131836418Y-139815500D01*
X145976082Y-139815500D01*
X147275270Y-139815500D01*
X147342309Y-139835185D01*
X147362951Y-139851819D01*
X148120681Y-140609548D01*
X148154166Y-140670871D01*
X148157000Y-140697229D01*
X148157000Y-141850436D01*
X148137315Y-141917475D01*
X148084511Y-141963230D01*
X148015353Y-141973174D01*
X147951797Y-141944149D01*
X147915582Y-141890298D01*
X147915214Y-141889217D01*
X147913650Y-141884607D01*
X147783170Y-141620020D01*
X147619271Y-141374727D01*
X147576653Y-141326131D01*
X147424756Y-141152925D01*
X147202953Y-140958409D01*
X146957665Y-140794513D01*
X146957658Y-140794509D01*
X146693078Y-140664033D01*
X146413728Y-140569205D01*
X146413722Y-140569203D01*
X146413720Y-140569203D01*
X146124378Y-140511650D01*
X146124371Y-140511649D01*
X146124361Y-140511648D01*
X145830005Y-140492355D01*
X145829991Y-140492355D01*
X145535634Y-140511648D01*
X145535622Y-140511649D01*
X145535618Y-140511650D01*
X145535610Y-140511651D01*
X145535607Y-140511652D01*
X145246281Y-140569202D01*
X145246267Y-140569205D01*
X144966917Y-140664033D01*
X144702332Y-140794512D01*
X144457039Y-140958412D01*
X144235239Y-141152925D01*
X144040726Y-141374725D01*
X143876826Y-141620018D01*
X143746347Y-141884603D01*
X143651519Y-142163953D01*
X143651516Y-142163967D01*
X143593966Y-142453293D01*
X143593962Y-142453320D01*
X143574669Y-142747676D01*
X143574669Y-142747691D01*
X143593962Y-143042047D01*
X143593963Y-143042057D01*
X143593964Y-143042064D01*
X143640344Y-143275237D01*
X143651516Y-143331400D01*
X143651519Y-143331414D01*
X143746347Y-143610764D01*
X143876823Y-143875344D01*
X143876827Y-143875351D01*
X144040723Y-144120639D01*
X144235239Y-144342442D01*
X144457042Y-144536958D01*
X144702330Y-144700854D01*
X144702337Y-144700858D01*
X144966914Y-144831333D01*
X144966916Y-144831333D01*
X144966921Y-144831336D01*
X144995358Y-144840989D01*
X145052510Y-144881175D01*
X145078864Y-144945884D01*
X145079498Y-144958407D01*
X145079498Y-146216959D01*
X145059813Y-146283998D01*
X145007009Y-146329753D01*
X144995361Y-146334377D01*
X144966924Y-146344031D01*
X144966920Y-146344032D01*
X144702332Y-146474512D01*
X144457039Y-146638412D01*
X144235239Y-146832925D01*
X144040726Y-147054725D01*
X143876826Y-147300018D01*
X143746347Y-147564603D01*
X143651519Y-147843953D01*
X143651516Y-147843967D01*
X143593966Y-148133293D01*
X143593962Y-148133320D01*
X143574669Y-148427676D01*
X143574669Y-148427691D01*
X143593962Y-148722047D01*
X143593963Y-148722057D01*
X143593964Y-148722064D01*
X143593966Y-148722074D01*
X143651516Y-149011400D01*
X143651519Y-149011414D01*
X143746347Y-149290764D01*
X143876823Y-149555344D01*
X143876827Y-149555351D01*
X144040723Y-149800639D01*
X144235239Y-150022442D01*
X144457041Y-150216957D01*
X144702333Y-150380856D01*
X144966921Y-150511336D01*
X145246276Y-150606165D01*
X145535618Y-150663718D01*
X145563886Y-150665570D01*
X145829991Y-150683013D01*
X145829998Y-150683013D01*
X145830005Y-150683013D01*
X146065673Y-150667565D01*
X146124378Y-150663718D01*
X146413720Y-150606165D01*
X146693075Y-150511336D01*
X146957663Y-150380856D01*
X147202955Y-150216957D01*
X147424756Y-150022442D01*
X147619271Y-149800641D01*
X147783170Y-149555349D01*
X147913650Y-149290761D01*
X147923303Y-149262323D01*
X147963493Y-149205170D01*
X148028202Y-149178818D01*
X148040722Y-149178184D01*
X156759274Y-149178184D01*
X156826313Y-149197869D01*
X156872068Y-149250673D01*
X156876693Y-149262324D01*
X156886348Y-149290766D01*
X157016823Y-149555344D01*
X157016827Y-149555351D01*
X157180723Y-149800639D01*
X157375239Y-150022442D01*
X157597041Y-150216957D01*
X157842333Y-150380856D01*
X158106921Y-150511336D01*
X158386276Y-150606165D01*
X158675618Y-150663718D01*
X158703886Y-150665570D01*
X158969991Y-150683013D01*
X158969998Y-150683013D01*
X158970005Y-150683013D01*
X159205673Y-150667565D01*
X159264378Y-150663718D01*
X159553720Y-150606165D01*
X159833075Y-150511336D01*
X160097663Y-150380856D01*
X160342955Y-150216957D01*
X160564756Y-150022442D01*
X160759271Y-149800641D01*
X160923170Y-149555349D01*
X161053650Y-149290761D01*
X161148479Y-149011406D01*
X161206032Y-148722064D01*
X161225327Y-148427684D01*
X161225327Y-148427676D01*
X161206033Y-148133320D01*
X161206032Y-148133304D01*
X161148479Y-147843962D01*
X161053650Y-147564607D01*
X160923170Y-147300020D01*
X160759271Y-147054727D01*
X160670404Y-146953394D01*
X160564756Y-146832925D01*
X160342953Y-146638409D01*
X160097665Y-146474513D01*
X160097658Y-146474509D01*
X159833080Y-146344034D01*
X159833076Y-146344032D01*
X159833075Y-146344032D01*
X159823574Y-146340807D01*
X159804635Y-146334377D01*
X159747482Y-146294185D01*
X159721131Y-146229475D01*
X159720498Y-146216959D01*
X159720498Y-144958407D01*
X159740183Y-144891368D01*
X159792987Y-144845613D01*
X159804621Y-144840994D01*
X159833075Y-144831336D01*
X160097663Y-144700856D01*
X160342955Y-144536957D01*
X160564756Y-144342442D01*
X160759271Y-144120641D01*
X160923170Y-143875349D01*
X161053650Y-143610761D01*
X161148479Y-143331406D01*
X161206032Y-143042064D01*
X161216674Y-142879707D01*
X161225327Y-142747691D01*
X161225327Y-142747676D01*
X161206033Y-142453320D01*
X161206032Y-142453304D01*
X161148479Y-142163962D01*
X161053650Y-141884607D01*
X160923170Y-141620020D01*
X160759271Y-141374727D01*
X160716653Y-141326131D01*
X160564756Y-141152925D01*
X160342953Y-140958409D01*
X160097665Y-140794513D01*
X160097658Y-140794509D01*
X159833078Y-140664033D01*
X159553728Y-140569205D01*
X159553722Y-140569203D01*
X159553720Y-140569203D01*
X159264378Y-140511650D01*
X159264371Y-140511649D01*
X159264361Y-140511648D01*
X158970005Y-140492355D01*
X158969991Y-140492355D01*
X158675634Y-140511648D01*
X158675622Y-140511649D01*
X158675618Y-140511650D01*
X158675610Y-140511651D01*
X158675607Y-140511652D01*
X158386281Y-140569202D01*
X158386267Y-140569205D01*
X158106917Y-140664033D01*
X157842332Y-140794512D01*
X157597039Y-140958412D01*
X157375239Y-141152925D01*
X157180726Y-141374725D01*
X157016826Y-141620018D01*
X156886348Y-141884601D01*
X156835874Y-142033289D01*
X156795684Y-142090443D01*
X156730975Y-142116795D01*
X156662291Y-142103980D01*
X156647331Y-142095004D01*
X156527385Y-142011017D01*
X156329157Y-141918582D01*
X156329148Y-141918578D01*
X156117892Y-141861973D01*
X156117882Y-141861971D01*
X155899999Y-141842909D01*
X155899997Y-141842909D01*
X155682113Y-141861971D01*
X155682103Y-141861973D01*
X155470847Y-141918578D01*
X155470838Y-141918582D01*
X155272611Y-142011017D01*
X155210425Y-142054558D01*
X155803248Y-142647381D01*
X155722445Y-142669033D01*
X155617552Y-142729593D01*
X155531907Y-142815238D01*
X155471347Y-142920131D01*
X155449695Y-143000935D01*
X154856872Y-142408112D01*
X154813331Y-142470297D01*
X154762656Y-142578969D01*
X154716483Y-142631408D01*
X154649290Y-142650560D01*
X154582409Y-142630344D01*
X154537892Y-142578969D01*
X154532539Y-142567491D01*
X154487100Y-142470046D01*
X154487097Y-142470042D01*
X154487097Y-142470041D01*
X154361597Y-142290808D01*
X154361594Y-142290805D01*
X154206875Y-142136086D01*
X154060066Y-142033289D01*
X154027636Y-142010581D01*
X153925824Y-141963106D01*
X153829328Y-141918109D01*
X153829324Y-141918108D01*
X153829320Y-141918106D01*
X153617975Y-141861477D01*
X153400000Y-141842407D01*
X153399994Y-141842407D01*
X153360305Y-141845879D01*
X153291805Y-141832112D01*
X153241623Y-141783496D01*
X153225499Y-141722351D01*
X153225499Y-137667105D01*
X153225500Y-137667092D01*
X153225500Y-132497102D01*
X154085170Y-132497102D01*
X154105650Y-132639557D01*
X154105651Y-132639561D01*
X154165437Y-132770472D01*
X154165438Y-132770473D01*
X154165439Y-132770475D01*
X154203058Y-132817158D01*
X154203061Y-132817161D01*
X154203066Y-132817167D01*
X154891218Y-133505317D01*
X155472842Y-134086940D01*
X155472846Y-134086943D01*
X155472848Y-134086945D01*
X155519524Y-134124561D01*
X155650438Y-134184348D01*
X155650439Y-134184348D01*
X155650441Y-134184349D01*
X155792898Y-134204830D01*
X155935355Y-134184349D01*
X156066271Y-134124561D01*
X156112954Y-134086942D01*
X157382736Y-132817158D01*
X157420357Y-132770475D01*
X157480145Y-132639559D01*
X157500626Y-132497102D01*
X157480145Y-132354645D01*
X157422300Y-132227983D01*
X157412356Y-132158825D01*
X157441381Y-132095269D01*
X157500159Y-132057494D01*
X157545898Y-132052943D01*
X157588949Y-132056710D01*
X157824357Y-132036114D01*
X158052612Y-131974954D01*
X158266779Y-131875086D01*
X158460350Y-131739546D01*
X158627444Y-131572452D01*
X158762984Y-131378881D01*
X158862852Y-131164714D01*
X158924012Y-130936459D01*
X158944608Y-130701051D01*
X158924012Y-130465643D01*
X158897032Y-130364951D01*
X158898695Y-130295101D01*
X158937858Y-130237239D01*
X159002086Y-130209735D01*
X159048900Y-130213083D01*
X159149592Y-130240063D01*
X159337918Y-130256539D01*
X159384999Y-130260659D01*
X159385000Y-130260659D01*
X159385001Y-130260659D01*
X159424234Y-130257226D01*
X159620408Y-130240063D01*
X159848663Y-130178903D01*
X160062830Y-130079035D01*
X160256401Y-129943495D01*
X160423495Y-129776401D01*
X160559035Y-129582830D01*
X160658903Y-129368663D01*
X160720063Y-129140408D01*
X160740659Y-128905000D01*
X160720063Y-128669592D01*
X160692933Y-128568340D01*
X160694596Y-128498491D01*
X160733759Y-128440629D01*
X160797987Y-128413125D01*
X160844801Y-128416473D01*
X160945725Y-128443515D01*
X160945736Y-128443517D01*
X161181050Y-128464105D01*
X161181054Y-128464105D01*
X161416367Y-128443517D01*
X161416378Y-128443515D01*
X161644535Y-128382381D01*
X161644544Y-128382377D01*
X161858630Y-128282548D01*
X161858634Y-128282546D01*
X161942425Y-128223874D01*
X161942425Y-128223873D01*
X161310461Y-127591910D01*
X161374045Y-127574873D01*
X161488059Y-127509047D01*
X161581151Y-127415955D01*
X161646977Y-127301941D01*
X161664014Y-127238358D01*
X162295977Y-127870321D01*
X162295978Y-127870321D01*
X162354650Y-127786530D01*
X162354652Y-127786526D01*
X162454481Y-127572440D01*
X162454485Y-127572431D01*
X162515619Y-127344274D01*
X162515621Y-127344263D01*
X162536209Y-127108949D01*
X162536209Y-127108946D01*
X162515621Y-126873632D01*
X162515619Y-126873621D01*
X162454485Y-126645464D01*
X162454481Y-126645455D01*
X162354652Y-126431371D01*
X162354651Y-126431369D01*
X162295977Y-126347574D01*
X162295977Y-126347573D01*
X161664014Y-126979537D01*
X161646977Y-126915955D01*
X161581151Y-126801941D01*
X161488059Y-126708849D01*
X161374045Y-126643023D01*
X161310462Y-126625985D01*
X161942425Y-125994021D01*
X161942425Y-125994020D01*
X161858635Y-125935350D01*
X161858631Y-125935348D01*
X161644544Y-125835518D01*
X161644535Y-125835514D01*
X161416378Y-125774380D01*
X161416367Y-125774378D01*
X161181054Y-125753791D01*
X161181050Y-125753791D01*
X160945736Y-125774378D01*
X160945725Y-125774380D01*
X160717568Y-125835514D01*
X160717559Y-125835518D01*
X160503471Y-125935349D01*
X160419677Y-125994020D01*
X161051642Y-126625985D01*
X160988059Y-126643023D01*
X160874045Y-126708849D01*
X160780953Y-126801941D01*
X160715127Y-126915955D01*
X160698089Y-126979538D01*
X160066124Y-126347573D01*
X160007453Y-126431367D01*
X159907622Y-126645455D01*
X159907618Y-126645464D01*
X159846484Y-126873621D01*
X159846482Y-126873632D01*
X159825895Y-127108946D01*
X159825895Y-127108949D01*
X159846482Y-127344263D01*
X159846484Y-127344274D01*
X159873526Y-127445198D01*
X159871863Y-127515048D01*
X159832700Y-127572911D01*
X159768471Y-127600414D01*
X159721658Y-127597066D01*
X159620413Y-127569938D01*
X159620403Y-127569936D01*
X159385001Y-127549341D01*
X159384999Y-127549341D01*
X159149596Y-127569936D01*
X159149586Y-127569938D01*
X158921344Y-127631094D01*
X158921335Y-127631098D01*
X158707171Y-127730964D01*
X158707169Y-127730965D01*
X158513597Y-127866505D01*
X158346505Y-128033597D01*
X158210965Y-128227169D01*
X158210964Y-128227171D01*
X158111098Y-128441335D01*
X158111094Y-128441344D01*
X158049938Y-128669586D01*
X158049936Y-128669596D01*
X158029341Y-128904999D01*
X158029341Y-128905000D01*
X158049936Y-129140403D01*
X158049939Y-129140416D01*
X158076916Y-129241100D01*
X158075253Y-129310950D01*
X158036090Y-129368812D01*
X157971861Y-129396315D01*
X157925049Y-129392967D01*
X157824365Y-129365990D01*
X157824361Y-129365989D01*
X157824357Y-129365988D01*
X157824355Y-129365987D01*
X157824352Y-129365987D01*
X157588950Y-129345392D01*
X157588948Y-129345392D01*
X157353545Y-129365987D01*
X157353535Y-129365989D01*
X157125293Y-129427145D01*
X157125284Y-129427149D01*
X156911120Y-129527015D01*
X156911118Y-129527016D01*
X156717546Y-129662556D01*
X156550454Y-129829648D01*
X156414914Y-130023220D01*
X156414913Y-130023222D01*
X156361020Y-130138797D01*
X156315116Y-130237239D01*
X156315047Y-130237386D01*
X156315043Y-130237395D01*
X156253887Y-130465637D01*
X156253885Y-130465647D01*
X156233290Y-130701050D01*
X156233290Y-130701052D01*
X156237056Y-130744098D01*
X156223289Y-130812598D01*
X156174674Y-130862781D01*
X156106646Y-130878714D01*
X156062016Y-130867699D01*
X155935358Y-130809855D01*
X155935353Y-130809854D01*
X155792898Y-130789374D01*
X155650442Y-130809854D01*
X155650438Y-130809855D01*
X155519527Y-130869641D01*
X155472832Y-130907270D01*
X154203063Y-132177042D01*
X154203054Y-132177052D01*
X154165438Y-132223728D01*
X154105651Y-132354642D01*
X154105650Y-132354646D01*
X154085170Y-132497102D01*
X153225500Y-132497102D01*
X153225500Y-123703594D01*
X153225501Y-123703581D01*
X153225501Y-123535478D01*
X153225501Y-123535477D01*
X153188374Y-123396920D01*
X153190037Y-123327072D01*
X153229199Y-123269210D01*
X153293427Y-123241705D01*
X153308149Y-123240828D01*
X153354574Y-123240828D01*
X153354576Y-123240828D01*
X153539733Y-123201472D01*
X153712660Y-123124479D01*
X153865801Y-123013216D01*
X153992463Y-122872544D01*
X154087109Y-122708612D01*
X154145604Y-122528584D01*
X154165390Y-122340328D01*
X154145604Y-122152072D01*
X154087109Y-121972044D01*
X154032423Y-121877325D01*
X154015951Y-121809428D01*
X154032423Y-121753330D01*
X154087109Y-121658612D01*
X154145604Y-121478584D01*
X154165390Y-121290328D01*
X154145604Y-121102072D01*
X154087109Y-120922044D01*
X153992463Y-120758112D01*
X153865801Y-120617440D01*
X153865800Y-120617439D01*
X153712664Y-120506179D01*
X153712659Y-120506176D01*
X153539737Y-120429185D01*
X153539732Y-120429183D01*
X153359666Y-120390910D01*
X153354576Y-120389828D01*
X153165284Y-120389828D01*
X153160194Y-120390910D01*
X152980127Y-120429183D01*
X152980122Y-120429185D01*
X152807200Y-120506176D01*
X152807195Y-120506179D01*
X152654059Y-120617439D01*
X152527395Y-120758113D01*
X152429501Y-120927672D01*
X152426855Y-120926144D01*
X152390327Y-120969334D01*
X152323528Y-120989819D01*
X152322045Y-120989828D01*
X152314206Y-120989828D01*
X152273285Y-121000792D01*
X152273285Y-121000793D01*
X152236017Y-121010779D01*
X152161480Y-121030751D01*
X152161475Y-121030754D01*
X152024556Y-121109803D01*
X152024548Y-121109809D01*
X151059481Y-122074876D01*
X151059480Y-122074878D01*
X151014913Y-122152072D01*
X151009361Y-122161688D01*
X151009359Y-122161690D01*
X150980425Y-122211803D01*
X150980424Y-122211804D01*
X150980423Y-122211809D01*
X150939499Y-122364537D01*
X150939499Y-122364539D01*
X150939499Y-122532640D01*
X150939500Y-122532653D01*
X150939500Y-123079264D01*
X150939499Y-123079282D01*
X150939499Y-123244988D01*
X150939498Y-123244988D01*
X150980424Y-123397723D01*
X150980425Y-123397724D01*
X151000340Y-123432217D01*
X151000341Y-123432218D01*
X151059477Y-123534646D01*
X151059481Y-123534651D01*
X151178349Y-123653519D01*
X151178355Y-123653524D01*
X151538181Y-124013350D01*
X151571666Y-124074673D01*
X151574500Y-124101031D01*
X151574500Y-137490871D01*
X151574496Y-137490933D01*
X151574496Y-137667095D01*
X151574497Y-137667108D01*
X151574497Y-141722351D01*
X151554812Y-141789390D01*
X151502008Y-141835145D01*
X151439691Y-141845879D01*
X151400002Y-141842407D01*
X151399996Y-141842407D01*
X151254680Y-141855120D01*
X151182021Y-141861477D01*
X151182018Y-141861477D01*
X150970675Y-141918106D01*
X150970666Y-141918110D01*
X150772359Y-142010582D01*
X150772355Y-142010584D01*
X150593119Y-142136086D01*
X150438400Y-142290805D01*
X150312898Y-142470041D01*
X150312896Y-142470046D01*
X150262380Y-142578377D01*
X150216207Y-142630816D01*
X150149014Y-142649968D01*
X150082133Y-142629752D01*
X150037616Y-142578377D01*
X150030154Y-142562376D01*
X149987100Y-142470046D01*
X149987097Y-142470042D01*
X149987097Y-142470041D01*
X149861597Y-142290808D01*
X149861594Y-142290805D01*
X149706875Y-142136086D01*
X149706871Y-142136083D01*
X149702725Y-142132604D01*
X149704324Y-142130697D01*
X149667244Y-142084291D01*
X149658000Y-142037313D01*
X149658000Y-140261079D01*
X149629159Y-140116092D01*
X149629158Y-140116091D01*
X149629158Y-140116087D01*
X149629156Y-140116082D01*
X149572587Y-139979511D01*
X149572580Y-139979498D01*
X149490452Y-139856585D01*
X149449367Y-139815500D01*
X149385916Y-139752049D01*
X149281819Y-139647952D01*
X148115921Y-138482052D01*
X148115914Y-138482046D01*
X148042229Y-138432812D01*
X148042229Y-138432813D01*
X147992991Y-138399913D01*
X147856417Y-138343343D01*
X147856407Y-138343340D01*
X147711420Y-138314500D01*
X147711418Y-138314500D01*
X146123918Y-138314500D01*
X132124730Y-138314500D01*
X132057691Y-138294815D01*
X132037053Y-138278185D01*
X131923416Y-138164548D01*
X131923415Y-138164547D01*
X131919085Y-138160217D01*
X131919074Y-138160207D01*
X130961819Y-137202951D01*
X130928334Y-137141628D01*
X130925500Y-137115270D01*
X130925500Y-124881724D01*
X130945185Y-124814685D01*
X130997989Y-124768930D01*
X131067147Y-124758986D01*
X131130703Y-124788011D01*
X131141650Y-124798752D01*
X131156629Y-124815388D01*
X131309765Y-124926648D01*
X131309770Y-124926651D01*
X131482692Y-125003642D01*
X131482697Y-125003644D01*
X131667854Y-125043000D01*
X131667855Y-125043000D01*
X131857144Y-125043000D01*
X131857146Y-125043000D01*
X132042303Y-125003644D01*
X132215230Y-124926651D01*
X132368371Y-124815388D01*
X132371288Y-124812147D01*
X132374100Y-124809026D01*
X132433587Y-124772379D01*
X132466248Y-124768000D01*
X132533309Y-124768000D01*
X132533309Y-124767999D01*
X132620569Y-124750643D01*
X132620570Y-124750643D01*
X132631865Y-124748396D01*
X132654153Y-124743963D01*
X132704197Y-124723234D01*
X132767987Y-124696812D01*
X132819210Y-124662584D01*
X132870434Y-124628358D01*
X132957559Y-124541233D01*
X132957560Y-124541231D01*
X132964626Y-124534165D01*
X132964629Y-124534161D01*
X134308790Y-123190000D01*
X136404772Y-123190000D01*
X136425252Y-123332455D01*
X136425253Y-123332459D01*
X136485039Y-123463370D01*
X136485040Y-123463371D01*
X136485041Y-123463373D01*
X136522660Y-123510056D01*
X136522663Y-123510059D01*
X136522668Y-123510065D01*
X137610616Y-124598010D01*
X137792444Y-124779838D01*
X137792448Y-124779841D01*
X137792450Y-124779843D01*
X137839126Y-124817459D01*
X137970040Y-124877246D01*
X137970041Y-124877246D01*
X137970043Y-124877247D01*
X138112500Y-124897728D01*
X138254957Y-124877247D01*
X138381618Y-124819401D01*
X138450776Y-124809458D01*
X138514332Y-124838482D01*
X138552107Y-124897260D01*
X138556658Y-124943003D01*
X138552892Y-124986048D01*
X138552892Y-124986051D01*
X138573487Y-125221454D01*
X138573489Y-125221464D01*
X138634645Y-125449706D01*
X138634647Y-125449710D01*
X138634648Y-125449714D01*
X138734516Y-125663881D01*
X138734518Y-125663885D01*
X138811887Y-125774378D01*
X138870056Y-125857452D01*
X139037150Y-126024546D01*
X139133935Y-126092316D01*
X139230716Y-126160083D01*
X139230718Y-126160084D01*
X139230721Y-126160086D01*
X139444888Y-126259954D01*
X139673143Y-126321114D01*
X139861469Y-126337590D01*
X139908550Y-126341710D01*
X139908551Y-126341710D01*
X139908552Y-126341710D01*
X139947785Y-126338277D01*
X140143959Y-126321114D01*
X140244650Y-126294134D01*
X140314500Y-126295797D01*
X140372362Y-126334960D01*
X140399866Y-126399188D01*
X140396518Y-126446001D01*
X140369541Y-126546685D01*
X140369538Y-126546698D01*
X140348943Y-126782101D01*
X140348943Y-126782102D01*
X140369538Y-127017505D01*
X140369540Y-127017515D01*
X140430696Y-127245757D01*
X140430698Y-127245761D01*
X140430699Y-127245765D01*
X140457972Y-127304251D01*
X140530567Y-127459932D01*
X140530569Y-127459936D01*
X140626589Y-127597066D01*
X140666107Y-127653503D01*
X140833201Y-127820597D01*
X140904214Y-127870321D01*
X141026767Y-127956134D01*
X141026769Y-127956135D01*
X141026772Y-127956137D01*
X141240939Y-128056005D01*
X141469194Y-128117165D01*
X141657520Y-128133641D01*
X141704601Y-128137761D01*
X141704602Y-128137761D01*
X141704603Y-128137761D01*
X141743836Y-128134328D01*
X141940010Y-128117165D01*
X142040705Y-128090184D01*
X142110552Y-128091847D01*
X142168415Y-128131009D01*
X142195919Y-128195238D01*
X142192571Y-128242052D01*
X142165592Y-128342740D01*
X142165590Y-128342750D01*
X142144995Y-128578153D01*
X142144995Y-128578154D01*
X142165590Y-128813557D01*
X142165592Y-128813567D01*
X142226748Y-129041809D01*
X142226750Y-129041813D01*
X142226751Y-129041817D01*
X142319678Y-129241100D01*
X142326619Y-129255984D01*
X142326621Y-129255988D01*
X142403645Y-129365989D01*
X142462159Y-129449555D01*
X142629253Y-129616649D01*
X142694815Y-129662556D01*
X142822819Y-129752186D01*
X142822821Y-129752187D01*
X142822824Y-129752189D01*
X143036991Y-129852057D01*
X143265246Y-129913217D01*
X143453572Y-129929693D01*
X143500653Y-129933813D01*
X143500654Y-129933813D01*
X143500655Y-129933813D01*
X143539888Y-129930380D01*
X143736062Y-129913217D01*
X143836753Y-129886237D01*
X143906603Y-129887900D01*
X143964465Y-129927063D01*
X143991969Y-129991291D01*
X143988621Y-130038104D01*
X143961644Y-130138788D01*
X143961641Y-130138801D01*
X143941046Y-130374204D01*
X143941046Y-130374205D01*
X143961641Y-130609608D01*
X143961643Y-130609618D01*
X144022799Y-130837860D01*
X144022801Y-130837864D01*
X144022802Y-130837868D01*
X144122670Y-131052035D01*
X144122672Y-131052039D01*
X144178495Y-131131762D01*
X144258210Y-131245606D01*
X144425304Y-131412700D01*
X144522089Y-131480470D01*
X144618870Y-131548237D01*
X144618872Y-131548238D01*
X144618875Y-131548240D01*
X144833042Y-131648108D01*
X145061297Y-131709268D01*
X145249623Y-131725744D01*
X145296704Y-131729864D01*
X145296705Y-131729864D01*
X145296706Y-131729864D01*
X145335939Y-131726431D01*
X145532113Y-131709268D01*
X145632804Y-131682288D01*
X145702654Y-131683951D01*
X145760516Y-131723114D01*
X145788020Y-131787342D01*
X145784672Y-131834155D01*
X145757695Y-131934839D01*
X145757692Y-131934852D01*
X145737097Y-132170255D01*
X145737097Y-132170256D01*
X145757692Y-132405659D01*
X145757694Y-132405669D01*
X145818850Y-132633911D01*
X145818852Y-132633915D01*
X145818853Y-132633919D01*
X145821484Y-132639561D01*
X145918721Y-132848086D01*
X145918723Y-132848090D01*
X146027037Y-133002777D01*
X146054261Y-133041657D01*
X146221355Y-133208751D01*
X146318140Y-133276521D01*
X146414921Y-133344288D01*
X146414923Y-133344289D01*
X146414926Y-133344291D01*
X146629093Y-133444159D01*
X146857348Y-133505319D01*
X147045674Y-133521795D01*
X147092755Y-133525915D01*
X147092756Y-133525915D01*
X147092757Y-133525915D01*
X147131990Y-133522482D01*
X147328164Y-133505319D01*
X147556419Y-133444159D01*
X147770586Y-133344291D01*
X147964157Y-133208751D01*
X148131251Y-133041657D01*
X148266791Y-132848086D01*
X148366659Y-132633919D01*
X148427819Y-132405664D01*
X148448415Y-132170256D01*
X148427819Y-131934848D01*
X148366659Y-131706593D01*
X148266791Y-131492427D01*
X148210965Y-131412698D01*
X148131250Y-131298853D01*
X147964158Y-131131762D01*
X147964151Y-131131757D01*
X147770590Y-130996223D01*
X147770586Y-130996221D01*
X147666005Y-130947454D01*
X147556419Y-130896353D01*
X147556415Y-130896352D01*
X147556411Y-130896350D01*
X147328169Y-130835194D01*
X147328159Y-130835192D01*
X147092757Y-130814597D01*
X147092755Y-130814597D01*
X146857352Y-130835192D01*
X146857339Y-130835195D01*
X146756655Y-130862172D01*
X146686805Y-130860509D01*
X146628943Y-130821345D01*
X146601440Y-130757117D01*
X146604788Y-130710304D01*
X146607267Y-130701052D01*
X146631768Y-130609613D01*
X146652364Y-130374205D01*
X146631768Y-130138797D01*
X146570608Y-129910542D01*
X146470740Y-129696376D01*
X146414914Y-129616647D01*
X146335199Y-129502802D01*
X146168107Y-129335711D01*
X146168100Y-129335706D01*
X145974539Y-129200172D01*
X145974535Y-129200170D01*
X145869954Y-129151403D01*
X145760368Y-129100302D01*
X145760364Y-129100301D01*
X145760360Y-129100299D01*
X145532118Y-129039143D01*
X145532108Y-129039141D01*
X145296706Y-129018546D01*
X145296704Y-129018546D01*
X145061301Y-129039141D01*
X145061288Y-129039144D01*
X144960604Y-129066121D01*
X144890754Y-129064458D01*
X144832892Y-129025294D01*
X144805389Y-128961066D01*
X144808737Y-128914253D01*
X144835717Y-128813562D01*
X144856313Y-128578154D01*
X144855454Y-128568341D01*
X144846335Y-128464105D01*
X144835717Y-128342746D01*
X144778983Y-128131009D01*
X144774559Y-128114498D01*
X144774558Y-128114497D01*
X144774557Y-128114491D01*
X144674689Y-127900325D01*
X144618866Y-127820600D01*
X144539148Y-127706751D01*
X144372056Y-127539660D01*
X144372049Y-127539655D01*
X144178488Y-127404121D01*
X144178484Y-127404119D01*
X144050146Y-127344274D01*
X143964317Y-127304251D01*
X143964313Y-127304250D01*
X143964309Y-127304248D01*
X143736067Y-127243092D01*
X143736057Y-127243090D01*
X143500655Y-127222495D01*
X143500653Y-127222495D01*
X143265250Y-127243090D01*
X143265240Y-127243092D01*
X143164552Y-127270071D01*
X143094702Y-127268408D01*
X143036839Y-127229245D01*
X143009336Y-127165016D01*
X143012683Y-127118207D01*
X143039665Y-127017510D01*
X143060261Y-126782102D01*
X143039665Y-126546694D01*
X142978505Y-126318439D01*
X142878637Y-126104273D01*
X142822811Y-126024544D01*
X142743096Y-125910699D01*
X142576004Y-125743608D01*
X142575997Y-125743603D01*
X142382436Y-125608069D01*
X142382432Y-125608067D01*
X142277851Y-125559300D01*
X142168265Y-125508199D01*
X142168261Y-125508198D01*
X142168257Y-125508196D01*
X141940015Y-125447040D01*
X141940005Y-125447038D01*
X141704603Y-125426443D01*
X141704601Y-125426443D01*
X141469198Y-125447038D01*
X141469185Y-125447041D01*
X141368501Y-125474018D01*
X141298651Y-125472355D01*
X141240789Y-125433191D01*
X141213286Y-125368963D01*
X141216634Y-125322150D01*
X141243614Y-125221459D01*
X141264210Y-124986051D01*
X141243614Y-124750643D01*
X141197177Y-124577336D01*
X141182456Y-124522395D01*
X141182455Y-124522394D01*
X141182454Y-124522388D01*
X141082586Y-124308222D01*
X140947046Y-124114650D01*
X140947045Y-124114648D01*
X140779953Y-123947557D01*
X140779946Y-123947552D01*
X140586385Y-123812018D01*
X140586381Y-123812016D01*
X140570136Y-123804441D01*
X140372214Y-123712148D01*
X140372210Y-123712147D01*
X140372206Y-123712145D01*
X140143964Y-123650989D01*
X140143954Y-123650987D01*
X139908552Y-123630392D01*
X139908549Y-123630392D01*
X139865503Y-123634158D01*
X139797003Y-123620391D01*
X139746820Y-123571776D01*
X139730887Y-123503747D01*
X139741902Y-123459118D01*
X139754188Y-123432217D01*
X139799747Y-123332457D01*
X139820228Y-123190000D01*
X139799747Y-123047543D01*
X139784070Y-123013216D01*
X139739960Y-122916629D01*
X139739959Y-122916628D01*
X139739959Y-122916627D01*
X139702340Y-122869944D01*
X139702335Y-122869939D01*
X139702331Y-122869934D01*
X138432559Y-121600165D01*
X138432553Y-121600160D01*
X138432549Y-121600156D01*
X138385873Y-121562540D01*
X138254959Y-121502753D01*
X138254955Y-121502752D01*
X138112500Y-121482272D01*
X137970044Y-121502752D01*
X137970040Y-121502753D01*
X137839129Y-121562539D01*
X137792434Y-121600168D01*
X136522665Y-122869940D01*
X136522656Y-122869950D01*
X136485040Y-122916626D01*
X136425253Y-123047540D01*
X136425252Y-123047544D01*
X136404772Y-123190000D01*
X134308790Y-123190000D01*
X138244654Y-119254135D01*
X138305975Y-119220652D01*
X138375667Y-119225636D01*
X138431600Y-119267508D01*
X138444715Y-119289413D01*
X138544658Y-119503740D01*
X138544660Y-119503744D01*
X138652974Y-119658431D01*
X138680198Y-119697311D01*
X138847292Y-119864405D01*
X138863986Y-119876094D01*
X139040858Y-119999942D01*
X139040860Y-119999943D01*
X139040863Y-119999945D01*
X139255030Y-120099813D01*
X139483285Y-120160973D01*
X139671611Y-120177449D01*
X139718692Y-120181569D01*
X139718693Y-120181569D01*
X139718694Y-120181569D01*
X139757927Y-120178136D01*
X139954101Y-120160973D01*
X140182356Y-120099813D01*
X140396523Y-119999945D01*
X140590094Y-119864405D01*
X140757188Y-119697311D01*
X140892728Y-119503740D01*
X140992596Y-119289573D01*
X141053756Y-119061318D01*
X141074352Y-118825910D01*
X141053756Y-118590502D01*
X141026776Y-118489810D01*
X141028439Y-118419960D01*
X141067602Y-118362098D01*
X141131830Y-118334594D01*
X141178644Y-118337942D01*
X141279336Y-118364922D01*
X141467662Y-118381398D01*
X141514743Y-118385518D01*
X141514744Y-118385518D01*
X141514745Y-118385518D01*
X141553978Y-118382085D01*
X141750152Y-118364922D01*
X141978407Y-118303762D01*
X142192574Y-118203894D01*
X142386145Y-118068354D01*
X142553239Y-117901260D01*
X142688779Y-117707689D01*
X142788647Y-117493522D01*
X142849807Y-117265267D01*
X142870403Y-117029859D01*
X142849807Y-116794451D01*
X142822826Y-116693755D01*
X142824489Y-116623909D01*
X142863651Y-116566046D01*
X142927880Y-116538542D01*
X142974694Y-116541890D01*
X142981084Y-116543602D01*
X143075387Y-116568870D01*
X143263304Y-116585311D01*
X143310794Y-116589466D01*
X143310795Y-116589466D01*
X143310796Y-116589466D01*
X143358286Y-116585311D01*
X143546203Y-116568870D01*
X143774458Y-116507710D01*
X143988625Y-116407842D01*
X144182196Y-116272302D01*
X144349290Y-116105208D01*
X144484830Y-115911637D01*
X144584698Y-115697470D01*
X144645858Y-115469215D01*
X144666454Y-115233807D01*
X144645858Y-114998399D01*
X144618878Y-114897707D01*
X144620541Y-114827857D01*
X144659704Y-114769995D01*
X144723932Y-114742491D01*
X144770746Y-114745839D01*
X144871438Y-114772819D01*
X145051263Y-114788552D01*
X145106845Y-114793415D01*
X145106846Y-114793415D01*
X145106847Y-114793415D01*
X145162429Y-114788552D01*
X145342254Y-114772819D01*
X145570509Y-114711659D01*
X145784676Y-114611791D01*
X145978247Y-114476251D01*
X146145341Y-114309157D01*
X146280881Y-114115586D01*
X146380749Y-113901419D01*
X146441909Y-113673164D01*
X146462505Y-113437756D01*
X146441909Y-113202348D01*
X146414929Y-113101655D01*
X146416592Y-113031805D01*
X146455755Y-112973943D01*
X146519984Y-112946439D01*
X146566792Y-112949786D01*
X146667490Y-112976768D01*
X146847315Y-112992501D01*
X146902897Y-112997364D01*
X146902898Y-112997364D01*
X146902899Y-112997364D01*
X146958481Y-112992501D01*
X147138306Y-112976768D01*
X147366561Y-112915608D01*
X147580728Y-112815740D01*
X147774299Y-112680200D01*
X147941393Y-112513106D01*
X148076933Y-112319535D01*
X148091425Y-112288456D01*
X148137592Y-112236021D01*
X148204785Y-112216867D01*
X148271667Y-112237081D01*
X148291486Y-112253182D01*
X148511410Y-112473106D01*
X148511439Y-112473137D01*
X148601658Y-112563356D01*
X148601661Y-112563358D01*
X148662119Y-112603754D01*
X148662120Y-112603756D01*
X148678938Y-112614993D01*
X148704109Y-112631812D01*
X148770790Y-112659431D01*
X148770792Y-112659433D01*
X148811034Y-112676101D01*
X148817942Y-112678963D01*
X148878365Y-112690981D01*
X148938787Y-112703000D01*
X149604107Y-112703000D01*
X149664529Y-112690981D01*
X149724952Y-112678963D01*
X149769243Y-112660617D01*
X149838786Y-112631812D01*
X149890009Y-112597584D01*
X149941233Y-112563358D01*
X150028358Y-112476233D01*
X150028359Y-112476231D01*
X150035425Y-112469165D01*
X150035427Y-112469161D01*
X151670271Y-110834319D01*
X151731594Y-110800834D01*
X151757952Y-110798000D01*
X152089548Y-110798000D01*
X152156587Y-110817685D01*
X152177229Y-110834319D01*
X154223763Y-112880855D01*
X154223767Y-112880858D01*
X154326208Y-112949308D01*
X154326221Y-112949315D01*
X154392499Y-112976768D01*
X154421811Y-112988909D01*
X154440048Y-112996463D01*
X154460097Y-113000451D01*
X154493696Y-113007134D01*
X154560892Y-113020501D01*
X154560894Y-113020501D01*
X154690221Y-113020501D01*
X154690241Y-113020500D01*
X156290300Y-113020500D01*
X156350722Y-113008481D01*
X156411145Y-112996463D01*
X156458693Y-112976768D01*
X156524979Y-112949312D01*
X156576202Y-112915084D01*
X156582243Y-112911048D01*
X156588964Y-112906556D01*
X156627426Y-112880858D01*
X156714551Y-112793733D01*
X156714551Y-112793731D01*
X156724759Y-112783524D01*
X156724761Y-112783521D01*
X157142648Y-112365633D01*
X157203969Y-112332150D01*
X157262420Y-112333541D01*
X157267843Y-112334994D01*
X157362887Y-112360461D01*
X157551213Y-112376937D01*
X157598294Y-112381057D01*
X157598295Y-112381057D01*
X157598296Y-112381057D01*
X157637529Y-112377624D01*
X157833703Y-112360461D01*
X157934394Y-112333481D01*
X158004244Y-112335144D01*
X158062106Y-112374307D01*
X158089610Y-112438535D01*
X158086262Y-112485348D01*
X158059285Y-112586032D01*
X158059282Y-112586045D01*
X158038687Y-112821448D01*
X158038687Y-112821449D01*
X158059282Y-113056852D01*
X158059284Y-113056862D01*
X158120440Y-113285104D01*
X158120442Y-113285108D01*
X158120443Y-113285112D01*
X158214179Y-113486128D01*
X158220311Y-113499279D01*
X158220313Y-113499283D01*
X158312367Y-113630749D01*
X158355851Y-113692850D01*
X158522945Y-113859944D01*
X158585408Y-113903681D01*
X158716511Y-113995481D01*
X158716513Y-113995482D01*
X158716516Y-113995484D01*
X158930683Y-114095352D01*
X159158938Y-114156512D01*
X159344741Y-114172768D01*
X159394345Y-114177108D01*
X159394346Y-114177108D01*
X159394347Y-114177108D01*
X159443951Y-114172768D01*
X159629754Y-114156512D01*
X159730449Y-114129531D01*
X159800295Y-114131194D01*
X159858157Y-114170356D01*
X159885662Y-114234584D01*
X159882314Y-114281398D01*
X159855337Y-114382083D01*
X159855334Y-114382096D01*
X159834739Y-114617499D01*
X159834739Y-114617500D01*
X159855334Y-114852903D01*
X159855336Y-114852913D01*
X159916492Y-115081155D01*
X159916494Y-115081159D01*
X159916495Y-115081163D01*
X159999965Y-115260165D01*
X160016363Y-115295330D01*
X160016365Y-115295334D01*
X160108419Y-115426800D01*
X160151903Y-115488901D01*
X160318997Y-115655995D01*
X160378231Y-115697471D01*
X160512563Y-115791532D01*
X160512565Y-115791533D01*
X160512568Y-115791535D01*
X160726735Y-115891403D01*
X160954990Y-115952563D01*
X161143316Y-115969039D01*
X161190397Y-115973159D01*
X161190398Y-115973159D01*
X161190399Y-115973159D01*
X161229632Y-115969726D01*
X161425806Y-115952563D01*
X161526497Y-115925583D01*
X161596347Y-115927246D01*
X161654209Y-115966409D01*
X161681713Y-116030637D01*
X161678365Y-116077450D01*
X161651388Y-116178134D01*
X161651385Y-116178147D01*
X161630790Y-116413550D01*
X161630790Y-116413551D01*
X161651385Y-116648954D01*
X161651387Y-116648964D01*
X161712543Y-116877206D01*
X161712545Y-116877210D01*
X161712546Y-116877214D01*
X161812414Y-117091380D01*
X161812416Y-117091385D01*
X161920730Y-117246072D01*
X161947954Y-117284952D01*
X162115048Y-117452046D01*
X162186711Y-117502225D01*
X162308614Y-117587583D01*
X162308616Y-117587584D01*
X162308619Y-117587586D01*
X162522786Y-117687454D01*
X162751041Y-117748614D01*
X162939367Y-117765090D01*
X162986448Y-117769210D01*
X162986449Y-117769210D01*
X162986450Y-117769210D01*
X163025683Y-117765777D01*
X163221857Y-117748614D01*
X163450112Y-117687454D01*
X163664279Y-117587586D01*
X163857850Y-117452046D01*
X164024944Y-117284952D01*
X164160484Y-117091381D01*
X164260352Y-116877214D01*
X164321512Y-116648959D01*
X164342108Y-116413551D01*
X164338291Y-116369929D01*
X164352057Y-116301432D01*
X164400671Y-116251248D01*
X164468699Y-116235314D01*
X164513331Y-116246329D01*
X164640182Y-116304261D01*
X164640186Y-116304262D01*
X164782500Y-116324722D01*
X164924813Y-116304262D01*
X164924818Y-116304261D01*
X165055597Y-116244535D01*
X165102232Y-116206955D01*
X165560317Y-115748870D01*
X164911909Y-115100462D01*
X164975493Y-115083425D01*
X165089507Y-115017599D01*
X165182599Y-114924507D01*
X165248425Y-114810493D01*
X165265462Y-114746910D01*
X165913869Y-115395317D01*
X165913870Y-115395317D01*
X166371955Y-114937232D01*
X166409535Y-114890597D01*
X166469261Y-114759818D01*
X166469262Y-114759813D01*
X166489722Y-114617500D01*
X166469262Y-114475186D01*
X166469261Y-114475181D01*
X166409535Y-114344402D01*
X166371955Y-114297767D01*
X165913870Y-113839682D01*
X165913869Y-113839682D01*
X165265462Y-114488089D01*
X165248425Y-114424507D01*
X165182599Y-114310493D01*
X165089507Y-114217401D01*
X164975493Y-114151575D01*
X164911910Y-114134537D01*
X165560317Y-113486129D01*
X165560317Y-113486128D01*
X165102236Y-113028048D01*
X165102232Y-113028044D01*
X165055597Y-112990464D01*
X164924818Y-112930738D01*
X164924813Y-112930737D01*
X164782500Y-112910277D01*
X164640186Y-112930737D01*
X164640184Y-112930738D01*
X164512807Y-112988909D01*
X164443648Y-112998852D01*
X164380093Y-112969827D01*
X164342319Y-112911048D01*
X164337768Y-112865304D01*
X164341605Y-112821446D01*
X164321018Y-112586133D01*
X164321016Y-112586122D01*
X164259882Y-112357965D01*
X164259878Y-112357956D01*
X164160049Y-112143872D01*
X164160048Y-112143870D01*
X164101374Y-112060075D01*
X164101374Y-112060074D01*
X163469411Y-112692038D01*
X163452374Y-112628456D01*
X163386548Y-112514442D01*
X163293456Y-112421350D01*
X163179442Y-112355524D01*
X163115858Y-112338486D01*
X163747822Y-111706522D01*
X163747822Y-111706521D01*
X163664032Y-111647851D01*
X163664028Y-111647849D01*
X163449941Y-111548019D01*
X163449932Y-111548015D01*
X163221775Y-111486881D01*
X163221764Y-111486879D01*
X162986451Y-111466292D01*
X162986447Y-111466292D01*
X162751133Y-111486879D01*
X162751122Y-111486881D01*
X162650199Y-111513923D01*
X162580349Y-111512260D01*
X162522486Y-111473097D01*
X162494983Y-111408868D01*
X162498330Y-111362059D01*
X162525461Y-111260806D01*
X162546057Y-111025398D01*
X162527420Y-110812383D01*
X162541186Y-110743884D01*
X162563264Y-110713899D01*
X163142952Y-110134212D01*
X163192186Y-110060525D01*
X163225084Y-110011291D01*
X163281035Y-109876214D01*
X163281659Y-109874708D01*
X163310500Y-109729713D01*
X163310500Y-109581878D01*
X163310500Y-103431082D01*
X163310500Y-103431079D01*
X163281659Y-103286092D01*
X163281658Y-103286091D01*
X163281658Y-103286087D01*
X163225084Y-103149505D01*
X163192186Y-103100270D01*
X163192185Y-103100268D01*
X163142956Y-103026589D01*
X163142952Y-103026584D01*
X161450921Y-101334552D01*
X161450914Y-101334546D01*
X161377229Y-101285312D01*
X161377229Y-101285313D01*
X161327991Y-101252413D01*
X161191417Y-101195843D01*
X161191407Y-101195840D01*
X161046420Y-101167000D01*
X161046418Y-101167000D01*
X131049500Y-101167000D01*
X130982461Y-101147315D01*
X130936706Y-101094511D01*
X130925500Y-101043000D01*
X130925500Y-83812867D01*
X130945185Y-83745828D01*
X130997989Y-83700073D01*
X131067147Y-83690129D01*
X131099936Y-83699588D01*
X131165192Y-83728642D01*
X131165197Y-83728644D01*
X131350354Y-83768000D01*
X131350355Y-83768000D01*
X131539644Y-83768000D01*
X131539646Y-83768000D01*
X131724803Y-83728644D01*
X131897730Y-83651651D01*
X132043342Y-83545857D01*
X132109146Y-83522379D01*
X132177200Y-83538204D01*
X132203906Y-83558496D01*
X132688181Y-84042771D01*
X132721666Y-84104094D01*
X132724500Y-84130452D01*
X132724500Y-90549109D01*
X132728403Y-90568730D01*
X132728403Y-90568732D01*
X132728404Y-90568732D01*
X132728404Y-90568733D01*
X132744963Y-90651986D01*
X132748537Y-90669951D01*
X132795688Y-90783786D01*
X132828470Y-90832846D01*
X132828471Y-90832850D01*
X132828473Y-90832850D01*
X132864143Y-90886235D01*
X132955586Y-90977678D01*
X132955608Y-90977698D01*
X134766016Y-92788106D01*
X134766045Y-92788137D01*
X134856264Y-92878356D01*
X134856267Y-92878358D01*
X134907490Y-92912584D01*
X134958714Y-92946812D01*
X135039207Y-92980152D01*
X135072548Y-92993963D01*
X135132971Y-93005981D01*
X135193393Y-93018000D01*
X135193394Y-93018000D01*
X136463394Y-93018000D01*
X140659548Y-93018000D01*
X140726587Y-93037685D01*
X140747228Y-93054318D01*
X141024141Y-93331232D01*
X141024142Y-93331233D01*
X141110882Y-93417973D01*
X141111268Y-93418359D01*
X141213707Y-93486807D01*
X141213716Y-93486812D01*
X141234739Y-93495520D01*
X141327548Y-93533963D01*
X141387971Y-93545981D01*
X141448393Y-93558000D01*
X142785556Y-93558000D01*
X142852595Y-93577685D01*
X142898350Y-93630489D01*
X142909084Y-93671192D01*
X142919379Y-93788867D01*
X142919381Y-93788877D01*
X142980515Y-94017034D01*
X142980519Y-94017043D01*
X143080349Y-94231130D01*
X143080351Y-94231134D01*
X143139021Y-94314924D01*
X143139022Y-94314924D01*
X143770986Y-93682960D01*
X143788024Y-93746544D01*
X143853850Y-93860558D01*
X143946942Y-93953650D01*
X144060956Y-94019476D01*
X144124539Y-94036513D01*
X143492574Y-94668476D01*
X143576370Y-94727150D01*
X143790456Y-94826980D01*
X143790465Y-94826984D01*
X144018622Y-94888118D01*
X144018633Y-94888120D01*
X144253947Y-94908708D01*
X144253951Y-94908708D01*
X144489264Y-94888120D01*
X144489271Y-94888119D01*
X144590754Y-94860927D01*
X144660604Y-94862590D01*
X144718467Y-94901752D01*
X144745971Y-94965981D01*
X144742623Y-95012794D01*
X144715433Y-95114272D01*
X144715430Y-95114286D01*
X144694843Y-95349600D01*
X144694843Y-95349603D01*
X144715430Y-95584917D01*
X144715432Y-95584928D01*
X144776566Y-95813085D01*
X144776570Y-95813094D01*
X144876400Y-96027181D01*
X144876402Y-96027185D01*
X144935072Y-96110975D01*
X144935073Y-96110975D01*
X145567037Y-95479011D01*
X145584075Y-95542595D01*
X145649901Y-95656609D01*
X145742993Y-95749701D01*
X145857007Y-95815527D01*
X145920590Y-95832564D01*
X145288625Y-96464527D01*
X145372421Y-96523201D01*
X145586507Y-96623031D01*
X145586516Y-96623035D01*
X145814673Y-96684169D01*
X145814684Y-96684171D01*
X146049998Y-96704759D01*
X146050002Y-96704759D01*
X146285315Y-96684171D01*
X146285322Y-96684170D01*
X146386805Y-96656978D01*
X146456655Y-96658641D01*
X146514518Y-96697803D01*
X146542022Y-96762032D01*
X146538674Y-96808845D01*
X146511484Y-96910323D01*
X146511481Y-96910337D01*
X146490894Y-97145651D01*
X146490894Y-97145654D01*
X146511481Y-97380968D01*
X146511483Y-97380979D01*
X146572617Y-97609136D01*
X146572621Y-97609145D01*
X146672451Y-97823232D01*
X146672453Y-97823236D01*
X146731123Y-97907026D01*
X146731124Y-97907026D01*
X147363088Y-97275062D01*
X147380126Y-97338646D01*
X147445952Y-97452660D01*
X147539044Y-97545752D01*
X147653058Y-97611578D01*
X147716639Y-97628614D01*
X147084676Y-98260578D01*
X147168472Y-98319252D01*
X147382558Y-98419082D01*
X147382567Y-98419086D01*
X147610724Y-98480220D01*
X147610735Y-98480222D01*
X147846049Y-98500810D01*
X147846053Y-98500810D01*
X148081366Y-98480222D01*
X148081373Y-98480221D01*
X148182300Y-98453178D01*
X148252150Y-98454841D01*
X148310013Y-98494003D01*
X148337517Y-98558232D01*
X148334169Y-98605045D01*
X148307042Y-98706288D01*
X148307039Y-98706301D01*
X148286444Y-98941704D01*
X148286444Y-98941705D01*
X148307039Y-99177108D01*
X148307041Y-99177118D01*
X148368197Y-99405360D01*
X148368199Y-99405364D01*
X148368200Y-99405368D01*
X148468068Y-99619535D01*
X148468070Y-99619539D01*
X148576384Y-99774226D01*
X148603608Y-99813106D01*
X148770702Y-99980200D01*
X148867487Y-100047970D01*
X148964268Y-100115737D01*
X148964270Y-100115738D01*
X148964273Y-100115740D01*
X149178440Y-100215608D01*
X149406695Y-100276768D01*
X149595021Y-100293244D01*
X149642102Y-100297364D01*
X149642103Y-100297364D01*
X149642104Y-100297364D01*
X149681337Y-100293931D01*
X149877511Y-100276768D01*
X150105766Y-100215608D01*
X150319933Y-100115740D01*
X150513504Y-99980200D01*
X150680598Y-99813106D01*
X150816138Y-99619535D01*
X150916006Y-99405368D01*
X150977166Y-99177113D01*
X150997762Y-98941705D01*
X150977166Y-98706297D01*
X150950185Y-98605601D01*
X150951848Y-98535755D01*
X150991010Y-98477892D01*
X151055239Y-98450388D01*
X151102053Y-98453736D01*
X151144011Y-98464978D01*
X151202746Y-98480716D01*
X151354614Y-98494003D01*
X151438153Y-98501312D01*
X151438154Y-98501312D01*
X151438155Y-98501312D01*
X151477388Y-98497879D01*
X151673562Y-98480716D01*
X151901817Y-98419556D01*
X152115984Y-98319688D01*
X152309555Y-98184148D01*
X152476649Y-98017054D01*
X152612189Y-97823483D01*
X152712057Y-97609316D01*
X152773217Y-97381061D01*
X152793813Y-97145653D01*
X152773217Y-96910245D01*
X152712773Y-96684663D01*
X152712059Y-96681997D01*
X152712058Y-96681996D01*
X152712057Y-96681990D01*
X152612189Y-96467824D01*
X152609881Y-96464527D01*
X152476648Y-96274250D01*
X152309556Y-96107159D01*
X152309549Y-96107154D01*
X152115988Y-95971620D01*
X152115984Y-95971618D01*
X152032035Y-95932472D01*
X151901817Y-95871750D01*
X151901813Y-95871749D01*
X151901809Y-95871747D01*
X151673567Y-95810591D01*
X151673557Y-95810589D01*
X151438155Y-95789994D01*
X151438153Y-95789994D01*
X151202750Y-95810589D01*
X151202737Y-95810592D01*
X151102053Y-95837569D01*
X151032203Y-95835906D01*
X150974341Y-95796742D01*
X150946838Y-95732514D01*
X150950186Y-95685701D01*
X150957981Y-95656609D01*
X150977166Y-95585010D01*
X150997762Y-95349602D01*
X150977166Y-95114194D01*
X150916723Y-94888614D01*
X150916008Y-94885946D01*
X150916007Y-94885945D01*
X150916006Y-94885939D01*
X150816138Y-94671773D01*
X150813830Y-94668476D01*
X150680597Y-94478199D01*
X150545026Y-94342629D01*
X152552144Y-94342629D01*
X152572624Y-94485084D01*
X152572625Y-94485088D01*
X152632411Y-94615999D01*
X152632412Y-94616000D01*
X152632413Y-94616002D01*
X152670032Y-94662685D01*
X152670035Y-94662688D01*
X152670040Y-94662694D01*
X153739863Y-95732514D01*
X153939816Y-95932467D01*
X153939820Y-95932470D01*
X153939822Y-95932472D01*
X153986498Y-95970088D01*
X154117412Y-96029875D01*
X154117413Y-96029875D01*
X154117415Y-96029876D01*
X154259872Y-96050357D01*
X154402329Y-96029876D01*
X154533245Y-95970088D01*
X154579928Y-95932469D01*
X155849710Y-94662685D01*
X155887331Y-94616002D01*
X155947119Y-94485086D01*
X155967600Y-94342629D01*
X155947119Y-94200172D01*
X155890273Y-94075699D01*
X155889274Y-94073510D01*
X155879330Y-94004352D01*
X155908355Y-93940796D01*
X155967133Y-93903021D01*
X156012872Y-93898470D01*
X156055923Y-93902237D01*
X156291331Y-93881641D01*
X156519586Y-93820481D01*
X156733753Y-93720613D01*
X156927324Y-93585073D01*
X157094418Y-93417979D01*
X157229958Y-93224408D01*
X157329826Y-93010241D01*
X157390986Y-92781986D01*
X157411582Y-92546578D01*
X157390986Y-92311170D01*
X157364006Y-92210478D01*
X157365669Y-92140628D01*
X157404832Y-92082766D01*
X157469060Y-92055262D01*
X157515874Y-92058610D01*
X157616566Y-92085590D01*
X157804892Y-92102066D01*
X157851973Y-92106186D01*
X157851974Y-92106186D01*
X157851975Y-92106186D01*
X157891208Y-92102753D01*
X158087382Y-92085590D01*
X158315637Y-92024430D01*
X158529804Y-91924562D01*
X158723375Y-91789022D01*
X158890469Y-91621928D01*
X159026009Y-91428357D01*
X159125877Y-91214190D01*
X159187037Y-90985935D01*
X159207633Y-90750527D01*
X159187037Y-90515119D01*
X159160056Y-90414423D01*
X159161719Y-90344576D01*
X159200881Y-90286713D01*
X159265110Y-90259209D01*
X159311921Y-90262556D01*
X159412618Y-90289538D01*
X159600944Y-90306014D01*
X159648025Y-90310134D01*
X159648026Y-90310134D01*
X159648027Y-90310134D01*
X159687260Y-90306701D01*
X159883434Y-90289538D01*
X160111689Y-90228378D01*
X160325856Y-90128510D01*
X160519427Y-89992970D01*
X160686521Y-89825876D01*
X160822061Y-89632305D01*
X160921929Y-89418138D01*
X160983089Y-89189883D01*
X161003685Y-88954475D01*
X160983089Y-88719067D01*
X160956109Y-88618375D01*
X160957772Y-88548525D01*
X160996935Y-88490663D01*
X161061163Y-88463159D01*
X161107977Y-88466507D01*
X161208669Y-88493487D01*
X161396995Y-88509963D01*
X161444076Y-88514083D01*
X161444077Y-88514083D01*
X161444078Y-88514083D01*
X161483311Y-88510650D01*
X161679485Y-88493487D01*
X161907740Y-88432327D01*
X162121907Y-88332459D01*
X162315478Y-88196919D01*
X162482572Y-88029825D01*
X162618112Y-87836254D01*
X162717980Y-87622087D01*
X162779140Y-87393832D01*
X162799736Y-87158424D01*
X162779140Y-86923016D01*
X162752160Y-86822324D01*
X162753823Y-86752474D01*
X162792986Y-86694612D01*
X162857214Y-86667108D01*
X162904028Y-86670456D01*
X163004720Y-86697436D01*
X163193046Y-86713912D01*
X163240127Y-86718032D01*
X163240128Y-86718032D01*
X163240129Y-86718032D01*
X163279362Y-86714599D01*
X163475536Y-86697436D01*
X163703791Y-86636276D01*
X163917958Y-86536408D01*
X164111529Y-86400868D01*
X164278623Y-86233774D01*
X164414163Y-86040203D01*
X164514031Y-85826036D01*
X164575191Y-85597781D01*
X164595787Y-85362373D01*
X164575191Y-85126965D01*
X164514031Y-84898710D01*
X164414163Y-84684544D01*
X164412451Y-84682098D01*
X164278622Y-84490970D01*
X164111530Y-84323879D01*
X164111523Y-84323874D01*
X163917962Y-84188340D01*
X163917958Y-84188338D01*
X163793821Y-84130452D01*
X163703791Y-84088470D01*
X163703787Y-84088469D01*
X163703783Y-84088467D01*
X163475541Y-84027311D01*
X163475531Y-84027309D01*
X163240129Y-84006714D01*
X163240127Y-84006714D01*
X163004724Y-84027309D01*
X163004714Y-84027311D01*
X162776472Y-84088467D01*
X162776463Y-84088471D01*
X162562299Y-84188337D01*
X162562297Y-84188338D01*
X162368725Y-84323878D01*
X162201633Y-84490970D01*
X162066093Y-84684542D01*
X162066092Y-84684544D01*
X161966226Y-84898708D01*
X161966222Y-84898717D01*
X161905066Y-85126959D01*
X161905064Y-85126969D01*
X161884469Y-85362372D01*
X161884469Y-85362373D01*
X161905064Y-85597776D01*
X161905067Y-85597789D01*
X161932044Y-85698473D01*
X161930381Y-85768323D01*
X161891218Y-85826185D01*
X161826989Y-85853688D01*
X161780177Y-85850340D01*
X161679493Y-85823363D01*
X161679489Y-85823362D01*
X161679485Y-85823361D01*
X161679483Y-85823360D01*
X161679480Y-85823360D01*
X161444078Y-85802765D01*
X161444076Y-85802765D01*
X161208673Y-85823360D01*
X161208663Y-85823362D01*
X160980421Y-85884518D01*
X160980412Y-85884522D01*
X160766248Y-85984388D01*
X160766246Y-85984389D01*
X160572674Y-86119929D01*
X160405582Y-86287021D01*
X160270042Y-86480593D01*
X160270041Y-86480595D01*
X160212145Y-86604754D01*
X160170244Y-86694612D01*
X160170175Y-86694759D01*
X160170171Y-86694768D01*
X160109015Y-86923010D01*
X160109013Y-86923020D01*
X160088418Y-87158423D01*
X160088418Y-87158424D01*
X160109013Y-87393827D01*
X160109016Y-87393840D01*
X160135993Y-87494524D01*
X160134330Y-87564374D01*
X160095167Y-87622236D01*
X160030938Y-87649739D01*
X159984126Y-87646391D01*
X159883442Y-87619414D01*
X159883438Y-87619413D01*
X159883434Y-87619412D01*
X159883432Y-87619411D01*
X159883429Y-87619411D01*
X159648027Y-87598816D01*
X159648025Y-87598816D01*
X159412622Y-87619411D01*
X159412612Y-87619413D01*
X159184370Y-87680569D01*
X159184361Y-87680573D01*
X158970197Y-87780439D01*
X158970195Y-87780440D01*
X158776623Y-87915980D01*
X158609531Y-88083072D01*
X158473991Y-88276644D01*
X158473990Y-88276646D01*
X158416094Y-88400805D01*
X158374193Y-88490663D01*
X158374124Y-88490810D01*
X158374120Y-88490819D01*
X158312964Y-88719061D01*
X158312962Y-88719071D01*
X158292367Y-88954474D01*
X158292367Y-88954475D01*
X158312962Y-89189878D01*
X158312964Y-89189888D01*
X158339943Y-89290576D01*
X158338280Y-89360426D01*
X158299117Y-89418288D01*
X158234888Y-89445792D01*
X158188075Y-89442444D01*
X158087387Y-89415465D01*
X158087377Y-89415463D01*
X157851975Y-89394868D01*
X157851973Y-89394868D01*
X157616570Y-89415463D01*
X157616560Y-89415465D01*
X157388318Y-89476621D01*
X157388309Y-89476625D01*
X157174145Y-89576491D01*
X157174143Y-89576492D01*
X156980571Y-89712032D01*
X156813479Y-89879124D01*
X156677939Y-90072696D01*
X156677938Y-90072698D01*
X156578072Y-90286862D01*
X156578068Y-90286871D01*
X156516912Y-90515113D01*
X156516910Y-90515123D01*
X156496315Y-90750526D01*
X156496315Y-90750527D01*
X156516910Y-90985930D01*
X156516913Y-90985943D01*
X156543890Y-91086627D01*
X156542227Y-91156477D01*
X156503064Y-91214339D01*
X156438835Y-91241842D01*
X156392023Y-91238494D01*
X156291339Y-91211517D01*
X156291335Y-91211516D01*
X156291331Y-91211515D01*
X156291329Y-91211514D01*
X156291326Y-91211514D01*
X156055924Y-91190919D01*
X156055922Y-91190919D01*
X155820519Y-91211514D01*
X155820509Y-91211516D01*
X155592267Y-91272672D01*
X155592258Y-91272676D01*
X155378094Y-91372542D01*
X155378092Y-91372543D01*
X155184520Y-91508083D01*
X155017428Y-91675175D01*
X154881888Y-91868747D01*
X154881887Y-91868749D01*
X154823991Y-91992908D01*
X154782090Y-92082766D01*
X154782021Y-92082913D01*
X154782017Y-92082922D01*
X154720861Y-92311164D01*
X154720859Y-92311174D01*
X154700264Y-92546577D01*
X154700264Y-92546579D01*
X154704030Y-92589625D01*
X154690263Y-92658125D01*
X154641648Y-92708308D01*
X154573620Y-92724241D01*
X154528990Y-92713226D01*
X154402332Y-92655382D01*
X154402327Y-92655381D01*
X154259872Y-92634901D01*
X154117416Y-92655381D01*
X154117412Y-92655382D01*
X153986501Y-92715168D01*
X153939806Y-92752797D01*
X152670037Y-94022569D01*
X152670028Y-94022579D01*
X152632412Y-94069255D01*
X152572625Y-94200169D01*
X152572624Y-94200173D01*
X152552144Y-94342629D01*
X150545026Y-94342629D01*
X150513505Y-94311108D01*
X150513498Y-94311103D01*
X150319937Y-94175569D01*
X150319933Y-94175567D01*
X150215352Y-94126800D01*
X150105766Y-94075699D01*
X150105762Y-94075698D01*
X150105758Y-94075696D01*
X149877516Y-94014540D01*
X149877506Y-94014538D01*
X149642104Y-93993943D01*
X149642102Y-93993943D01*
X149406699Y-94014538D01*
X149406689Y-94014540D01*
X149306002Y-94041519D01*
X149236152Y-94039856D01*
X149178290Y-94000693D01*
X149150786Y-93936464D01*
X149154134Y-93889651D01*
X149161929Y-93860558D01*
X149181114Y-93788959D01*
X149201710Y-93553551D01*
X149181114Y-93318143D01*
X149120671Y-93092563D01*
X149119956Y-93089895D01*
X149119955Y-93089894D01*
X149119954Y-93089888D01*
X149020086Y-92875722D01*
X148960927Y-92791233D01*
X148884545Y-92682148D01*
X148717453Y-92515057D01*
X148717446Y-92515052D01*
X148523885Y-92379518D01*
X148523881Y-92379516D01*
X148419300Y-92330749D01*
X148309714Y-92279648D01*
X148309710Y-92279647D01*
X148309706Y-92279645D01*
X148081464Y-92218489D01*
X148081454Y-92218487D01*
X147846052Y-92197892D01*
X147846050Y-92197892D01*
X147610647Y-92218487D01*
X147610634Y-92218490D01*
X147509950Y-92245467D01*
X147440100Y-92243804D01*
X147382238Y-92204640D01*
X147354735Y-92140412D01*
X147358083Y-92093599D01*
X147360229Y-92085590D01*
X147385063Y-91992908D01*
X147405659Y-91757500D01*
X147385063Y-91522092D01*
X147323903Y-91293837D01*
X147224035Y-91079671D01*
X147204194Y-91051334D01*
X147088494Y-90886097D01*
X146921402Y-90719006D01*
X146921395Y-90719001D01*
X146727834Y-90583467D01*
X146727830Y-90583465D01*
X146696231Y-90568730D01*
X146513663Y-90483597D01*
X146513659Y-90483596D01*
X146513655Y-90483594D01*
X146285413Y-90422438D01*
X146285403Y-90422436D01*
X146050001Y-90401841D01*
X146049999Y-90401841D01*
X145814596Y-90422436D01*
X145814583Y-90422439D01*
X145713898Y-90449416D01*
X145644048Y-90447752D01*
X145586186Y-90408589D01*
X145558683Y-90344360D01*
X145562030Y-90297553D01*
X145589012Y-90196856D01*
X145609608Y-89961448D01*
X145589012Y-89726040D01*
X145527852Y-89497785D01*
X145427984Y-89283619D01*
X145372158Y-89203890D01*
X145292443Y-89090045D01*
X145125351Y-88922954D01*
X145125344Y-88922949D01*
X144931783Y-88787415D01*
X144931779Y-88787413D01*
X144827198Y-88738646D01*
X144717612Y-88687545D01*
X144717608Y-88687544D01*
X144717604Y-88687542D01*
X144489362Y-88626386D01*
X144489352Y-88626384D01*
X144253950Y-88605789D01*
X144253948Y-88605789D01*
X144018545Y-88626384D01*
X144018532Y-88626387D01*
X143917848Y-88653364D01*
X143847998Y-88651701D01*
X143790136Y-88612537D01*
X143762633Y-88548309D01*
X143765981Y-88501496D01*
X143768127Y-88493487D01*
X143792961Y-88400805D01*
X143813557Y-88165397D01*
X143792961Y-87929989D01*
X143731801Y-87701734D01*
X143631933Y-87487568D01*
X143566305Y-87393840D01*
X143496392Y-87293994D01*
X143329300Y-87126903D01*
X143329293Y-87126898D01*
X143135732Y-86991364D01*
X143135728Y-86991362D01*
X143031147Y-86942595D01*
X142921561Y-86891494D01*
X142921557Y-86891493D01*
X142921553Y-86891491D01*
X142693311Y-86830335D01*
X142693301Y-86830333D01*
X142457899Y-86809738D01*
X142457897Y-86809738D01*
X142222494Y-86830333D01*
X142222484Y-86830335D01*
X142121797Y-86857314D01*
X142051947Y-86855651D01*
X141994085Y-86816488D01*
X141966581Y-86752259D01*
X141969929Y-86705446D01*
X141972792Y-86694761D01*
X141996909Y-86604754D01*
X142017505Y-86369346D01*
X141996909Y-86133938D01*
X141935749Y-85905683D01*
X141835881Y-85691517D01*
X141770253Y-85597789D01*
X141700340Y-85497943D01*
X141533248Y-85330852D01*
X141533241Y-85330847D01*
X141339680Y-85195313D01*
X141339676Y-85195311D01*
X141235095Y-85146544D01*
X141125509Y-85095443D01*
X141125505Y-85095442D01*
X141125501Y-85095440D01*
X140897259Y-85034284D01*
X140897249Y-85034282D01*
X140661847Y-85013687D01*
X140661845Y-85013687D01*
X140426442Y-85034282D01*
X140426429Y-85034285D01*
X140325745Y-85061262D01*
X140255895Y-85059599D01*
X140198033Y-85020435D01*
X140170530Y-84956207D01*
X140173878Y-84909394D01*
X140176741Y-84898710D01*
X140200858Y-84808703D01*
X140221454Y-84573295D01*
X140217605Y-84529307D01*
X140214588Y-84494825D01*
X140200858Y-84337887D01*
X140139698Y-84109632D01*
X140039830Y-83895466D01*
X140003255Y-83843230D01*
X139904289Y-83701892D01*
X139737197Y-83534801D01*
X139737190Y-83534796D01*
X139543629Y-83399262D01*
X139543625Y-83399260D01*
X139543623Y-83399259D01*
X139329458Y-83299392D01*
X139329454Y-83299391D01*
X139329450Y-83299389D01*
X139101208Y-83238233D01*
X139101198Y-83238231D01*
X138865796Y-83217636D01*
X138865794Y-83217636D01*
X138630391Y-83238231D01*
X138630381Y-83238233D01*
X138402139Y-83299389D01*
X138402130Y-83299393D01*
X138187966Y-83399259D01*
X138187964Y-83399260D01*
X137994392Y-83534800D01*
X137827300Y-83701892D01*
X137691760Y-83895464D01*
X137691759Y-83895466D01*
X137691681Y-83895635D01*
X137691626Y-83895696D01*
X137689052Y-83900156D01*
X137688155Y-83899638D01*
X137645508Y-83948074D01*
X137578315Y-83967226D01*
X137511434Y-83947010D01*
X137466099Y-83893845D01*
X137455299Y-83843230D01*
X137455299Y-83533553D01*
X137474984Y-83466514D01*
X137491613Y-83445877D01*
X139590758Y-81346731D01*
X139652079Y-81313248D01*
X139721771Y-81318232D01*
X139777704Y-81360104D01*
X139790819Y-81382008D01*
X139805312Y-81413088D01*
X139813244Y-81424416D01*
X139940851Y-81606657D01*
X140107945Y-81773751D01*
X140159651Y-81809956D01*
X140301511Y-81909288D01*
X140301513Y-81909289D01*
X140301516Y-81909291D01*
X140515683Y-82009159D01*
X140515689Y-82009160D01*
X140515690Y-82009161D01*
X140549988Y-82018351D01*
X140743938Y-82070319D01*
X140932264Y-82086795D01*
X140979345Y-82090915D01*
X140979346Y-82090915D01*
X140979347Y-82090915D01*
X141018580Y-82087482D01*
X141214754Y-82070319D01*
X141443009Y-82009159D01*
X141657176Y-81909291D01*
X141850747Y-81773751D01*
X142017841Y-81606657D01*
X142153381Y-81413086D01*
X142253249Y-81198919D01*
X142314409Y-80970664D01*
X142335005Y-80735256D01*
X142314409Y-80499848D01*
X142287429Y-80399155D01*
X142289092Y-80329305D01*
X142328255Y-80271443D01*
X142392484Y-80243939D01*
X142439292Y-80247286D01*
X142539990Y-80274268D01*
X142700933Y-80288349D01*
X142775397Y-80294864D01*
X142775398Y-80294864D01*
X142775399Y-80294864D01*
X142814632Y-80291431D01*
X143010806Y-80274268D01*
X143239061Y-80213108D01*
X143453228Y-80113240D01*
X143646799Y-79977700D01*
X143813893Y-79810606D01*
X143949433Y-79617035D01*
X144049301Y-79402868D01*
X144110461Y-79174613D01*
X144131057Y-78939205D01*
X144110461Y-78703797D01*
X144083481Y-78603105D01*
X144085144Y-78533255D01*
X144124307Y-78475393D01*
X144188535Y-78447889D01*
X144235349Y-78451237D01*
X144336041Y-78478217D01*
X144524367Y-78494693D01*
X144571448Y-78498813D01*
X144571449Y-78498813D01*
X144571450Y-78498813D01*
X144610683Y-78495380D01*
X144806857Y-78478217D01*
X145035112Y-78417057D01*
X145249279Y-78317189D01*
X145442850Y-78181649D01*
X145609944Y-78014555D01*
X145745484Y-77820984D01*
X145845352Y-77606817D01*
X145906512Y-77378562D01*
X145927108Y-77143154D01*
X145906512Y-76907746D01*
X145879531Y-76807050D01*
X145881194Y-76737204D01*
X145920356Y-76679341D01*
X145984585Y-76651837D01*
X146031399Y-76655185D01*
X146073357Y-76666427D01*
X146132092Y-76682165D01*
X146320418Y-76698641D01*
X146367499Y-76702761D01*
X146367500Y-76702761D01*
X146367501Y-76702761D01*
X146406734Y-76699328D01*
X146602908Y-76682165D01*
X146831163Y-76621005D01*
X147045330Y-76521137D01*
X147238901Y-76385597D01*
X147405995Y-76218503D01*
X147541535Y-76024932D01*
X147641403Y-75810765D01*
X147702563Y-75582510D01*
X147723159Y-75347102D01*
X147702563Y-75111694D01*
X147675583Y-75011002D01*
X147677246Y-74941152D01*
X147716409Y-74883290D01*
X147780637Y-74855786D01*
X147827451Y-74859134D01*
X147928143Y-74886114D01*
X148080011Y-74899401D01*
X148163550Y-74906710D01*
X148163551Y-74906710D01*
X148163552Y-74906710D01*
X148202785Y-74903277D01*
X148398959Y-74886114D01*
X148627214Y-74824954D01*
X148841381Y-74725086D01*
X149034952Y-74589546D01*
X149202046Y-74422452D01*
X149337586Y-74228881D01*
X149437454Y-74014714D01*
X149498614Y-73786459D01*
X149519210Y-73551051D01*
X149498614Y-73315643D01*
X149437454Y-73087388D01*
X149337586Y-72873222D01*
X149202046Y-72679650D01*
X149202045Y-72679648D01*
X149034953Y-72512557D01*
X149034946Y-72512552D01*
X148841385Y-72377018D01*
X148841381Y-72377016D01*
X148627214Y-72277148D01*
X148627210Y-72277147D01*
X148627206Y-72277145D01*
X148398964Y-72215989D01*
X148398954Y-72215987D01*
X148163552Y-72195392D01*
X148163549Y-72195392D01*
X148119930Y-72199208D01*
X148051430Y-72185441D01*
X148001247Y-72136826D01*
X147985314Y-72068797D01*
X147996329Y-72024167D01*
X148054261Y-71897314D01*
X148054262Y-71897313D01*
X148074722Y-71755000D01*
X148054262Y-71612686D01*
X148054261Y-71612681D01*
X147994535Y-71481902D01*
X147956955Y-71435267D01*
X147498870Y-70977182D01*
X147498869Y-70977182D01*
X146850462Y-71625589D01*
X146833425Y-71562007D01*
X146767599Y-71447993D01*
X146674507Y-71354901D01*
X146560493Y-71289075D01*
X146496910Y-71272037D01*
X147145317Y-70623629D01*
X146687232Y-70165544D01*
X146640597Y-70127964D01*
X146509818Y-70068238D01*
X146509813Y-70068237D01*
X146367500Y-70047777D01*
X146225186Y-70068237D01*
X146225181Y-70068238D01*
X146094402Y-70127964D01*
X146047762Y-70165548D01*
X145589682Y-70623628D01*
X145589682Y-70623629D01*
X146238090Y-71272037D01*
X146174507Y-71289075D01*
X146060493Y-71354901D01*
X145967401Y-71447993D01*
X145901575Y-71562007D01*
X145884537Y-71625590D01*
X145236129Y-70977182D01*
X145236128Y-70977182D01*
X144778048Y-71435262D01*
X144740464Y-71481902D01*
X144680738Y-71612681D01*
X144680737Y-71612686D01*
X144660277Y-71755000D01*
X144680737Y-71897313D01*
X144680739Y-71897321D01*
X144738908Y-72024692D01*
X144748852Y-72093850D01*
X144719827Y-72157406D01*
X144661049Y-72195180D01*
X144615306Y-72199731D01*
X144571450Y-72195894D01*
X144571447Y-72195894D01*
X144336133Y-72216481D01*
X144336122Y-72216483D01*
X144107965Y-72277617D01*
X144107956Y-72277621D01*
X143893868Y-72377452D01*
X143810074Y-72436123D01*
X144442039Y-73068088D01*
X144378456Y-73085126D01*
X144264442Y-73150952D01*
X144171350Y-73244044D01*
X144105524Y-73358058D01*
X144088486Y-73421641D01*
X143456521Y-72789676D01*
X143397850Y-72873470D01*
X143298019Y-73087558D01*
X143298015Y-73087567D01*
X143236881Y-73315724D01*
X143236879Y-73315735D01*
X143216292Y-73551049D01*
X143216292Y-73551052D01*
X143236879Y-73786366D01*
X143236881Y-73786377D01*
X143263923Y-73887300D01*
X143262260Y-73957150D01*
X143223097Y-74015012D01*
X143158868Y-74042516D01*
X143112055Y-74039168D01*
X143010811Y-74012040D01*
X143010801Y-74012038D01*
X142775399Y-73991443D01*
X142775397Y-73991443D01*
X142539994Y-74012038D01*
X142539984Y-74012040D01*
X142311742Y-74073196D01*
X142311733Y-74073200D01*
X142097569Y-74173066D01*
X142097567Y-74173067D01*
X141903995Y-74308607D01*
X141736904Y-74475698D01*
X141689272Y-74543725D01*
X141634695Y-74587350D01*
X141587697Y-74596602D01*
X131049500Y-74596602D01*
X130982461Y-74576917D01*
X130936706Y-74524113D01*
X130925500Y-74472602D01*
X130925500Y-68393439D01*
X150334540Y-68393439D01*
X150354326Y-68581695D01*
X150354327Y-68581698D01*
X150412818Y-68761716D01*
X150412821Y-68761723D01*
X150507467Y-68925655D01*
X150634129Y-69066327D01*
X150787265Y-69177587D01*
X150787267Y-69177588D01*
X150787270Y-69177590D01*
X150865937Y-69212614D01*
X150919172Y-69257863D01*
X150939494Y-69324712D01*
X150939500Y-69325893D01*
X150939500Y-80969030D01*
X150939499Y-80969048D01*
X150939499Y-81134754D01*
X150939498Y-81134754D01*
X150939499Y-81134757D01*
X150980423Y-81287485D01*
X150983863Y-81293443D01*
X150983864Y-81293444D01*
X150983864Y-81293445D01*
X151059477Y-81424412D01*
X151059481Y-81424417D01*
X151178349Y-81543285D01*
X151178355Y-81543290D01*
X151821939Y-82186874D01*
X151821949Y-82186885D01*
X151826279Y-82191215D01*
X151826280Y-82191216D01*
X151938084Y-82303020D01*
X151988457Y-82332102D01*
X152024895Y-82353139D01*
X152024897Y-82353141D01*
X152062951Y-82375111D01*
X152075015Y-82382077D01*
X152227743Y-82423001D01*
X152227746Y-82423001D01*
X152393453Y-82423001D01*
X152393469Y-82423000D01*
X152414615Y-82423000D01*
X152481654Y-82442685D01*
X152519661Y-82486547D01*
X152522071Y-82485156D01*
X152619965Y-82654714D01*
X152746629Y-82795388D01*
X152899765Y-82906648D01*
X152899770Y-82906651D01*
X153072692Y-82983642D01*
X153072697Y-82983644D01*
X153257854Y-83023000D01*
X153257855Y-83023000D01*
X153447144Y-83023000D01*
X153447146Y-83023000D01*
X153632303Y-82983644D01*
X153805230Y-82906651D01*
X153958371Y-82795388D01*
X154085033Y-82654716D01*
X154179679Y-82490784D01*
X154238174Y-82310756D01*
X154257960Y-82122500D01*
X154238174Y-81934244D01*
X154179679Y-81754216D01*
X154124993Y-81659497D01*
X154108521Y-81591600D01*
X154124993Y-81535502D01*
X154179679Y-81440784D01*
X154238174Y-81260756D01*
X154257960Y-81072500D01*
X154238174Y-80884244D01*
X154179679Y-80704216D01*
X154085033Y-80540284D01*
X153958371Y-80399612D01*
X153949341Y-80393051D01*
X153805234Y-80288351D01*
X153805229Y-80288348D01*
X153632307Y-80211357D01*
X153632302Y-80211355D01*
X153486501Y-80180365D01*
X153447146Y-80172000D01*
X153257854Y-80172000D01*
X153225397Y-80178898D01*
X153072697Y-80211355D01*
X153072692Y-80211357D01*
X152899770Y-80288348D01*
X152899765Y-80288351D01*
X152787385Y-80370000D01*
X152721578Y-80393480D01*
X152653525Y-80377654D01*
X152604830Y-80327548D01*
X152590500Y-80269682D01*
X152590500Y-76943946D01*
X159408791Y-76943946D01*
X159408791Y-76943949D01*
X159429378Y-77179263D01*
X159429380Y-77179274D01*
X159490514Y-77407431D01*
X159490518Y-77407440D01*
X159590348Y-77621527D01*
X159590350Y-77621531D01*
X159649020Y-77705321D01*
X159649021Y-77705321D01*
X160280985Y-77073357D01*
X160298023Y-77136941D01*
X160363849Y-77250955D01*
X160456941Y-77344047D01*
X160570955Y-77409873D01*
X160634538Y-77426910D01*
X160002573Y-78058873D01*
X160086369Y-78117547D01*
X160300455Y-78217377D01*
X160300464Y-78217381D01*
X160528621Y-78278515D01*
X160528632Y-78278517D01*
X160763946Y-78299105D01*
X160763950Y-78299105D01*
X160999263Y-78278517D01*
X160999270Y-78278516D01*
X161100197Y-78251473D01*
X161170047Y-78253136D01*
X161227910Y-78292298D01*
X161255414Y-78356527D01*
X161252066Y-78403340D01*
X161224939Y-78504583D01*
X161224936Y-78504596D01*
X161204341Y-78739999D01*
X161204341Y-78740000D01*
X161224936Y-78975403D01*
X161224938Y-78975413D01*
X161286094Y-79203655D01*
X161286096Y-79203659D01*
X161286097Y-79203663D01*
X161378904Y-79402688D01*
X161385965Y-79417830D01*
X161385967Y-79417834D01*
X161441790Y-79497557D01*
X161521505Y-79611401D01*
X161688599Y-79778495D01*
X161734460Y-79810607D01*
X161882165Y-79914032D01*
X161882167Y-79914033D01*
X161882170Y-79914035D01*
X162096337Y-80013903D01*
X162324592Y-80075063D01*
X162512918Y-80091539D01*
X162559999Y-80095659D01*
X162560000Y-80095659D01*
X162560001Y-80095659D01*
X162599234Y-80092226D01*
X162795408Y-80075063D01*
X162896099Y-80048083D01*
X162965949Y-80049746D01*
X163023811Y-80088909D01*
X163051315Y-80153137D01*
X163047967Y-80199950D01*
X163020990Y-80300634D01*
X163020987Y-80300647D01*
X163000392Y-80536050D01*
X163000392Y-80536051D01*
X163020987Y-80771454D01*
X163020989Y-80771464D01*
X163082145Y-80999706D01*
X163082147Y-80999710D01*
X163082148Y-80999714D01*
X163145120Y-81134757D01*
X163182016Y-81213881D01*
X163182018Y-81213885D01*
X163290332Y-81368572D01*
X163317556Y-81407452D01*
X163484650Y-81574546D01*
X163530511Y-81606658D01*
X163678216Y-81710083D01*
X163678218Y-81710084D01*
X163678221Y-81710086D01*
X163892388Y-81809954D01*
X164120643Y-81871114D01*
X164356051Y-81891710D01*
X164399098Y-81887943D01*
X164467595Y-81901708D01*
X164517779Y-81950323D01*
X164533714Y-82018351D01*
X164522699Y-82062982D01*
X164464856Y-82189638D01*
X164464854Y-82189646D01*
X164444374Y-82332102D01*
X164464854Y-82474557D01*
X164464855Y-82474561D01*
X164524641Y-82605472D01*
X164524642Y-82605473D01*
X164524643Y-82605475D01*
X164562262Y-82652158D01*
X164562265Y-82652161D01*
X164562270Y-82652167D01*
X165638748Y-83728642D01*
X165832046Y-83921940D01*
X165832050Y-83921943D01*
X165832052Y-83921945D01*
X165878728Y-83959561D01*
X166009642Y-84019348D01*
X166009643Y-84019348D01*
X166009645Y-84019349D01*
X166152102Y-84039830D01*
X166294559Y-84019349D01*
X166425475Y-83959561D01*
X166472158Y-83921942D01*
X167741940Y-82652158D01*
X167779561Y-82605475D01*
X167839349Y-82474559D01*
X167859830Y-82332102D01*
X167839349Y-82189645D01*
X167779561Y-82058729D01*
X167741942Y-82012046D01*
X167741937Y-82012041D01*
X167741933Y-82012036D01*
X166472161Y-80742267D01*
X166472155Y-80742262D01*
X166472151Y-80742258D01*
X166425475Y-80704642D01*
X166294561Y-80644855D01*
X166294557Y-80644854D01*
X166152102Y-80624374D01*
X166009646Y-80644854D01*
X166009638Y-80644856D01*
X165882982Y-80702699D01*
X165813824Y-80712643D01*
X165750268Y-80683618D01*
X165712494Y-80624840D01*
X165707943Y-80579100D01*
X165711710Y-80536051D01*
X165691114Y-80300643D01*
X165629954Y-80072388D01*
X165530086Y-79858222D01*
X165474260Y-79778493D01*
X165394545Y-79664648D01*
X165227453Y-79497557D01*
X165227446Y-79497552D01*
X165033885Y-79362018D01*
X165033881Y-79362016D01*
X164929300Y-79313249D01*
X164819714Y-79262148D01*
X164819710Y-79262147D01*
X164819706Y-79262145D01*
X164591464Y-79200989D01*
X164591454Y-79200987D01*
X164356052Y-79180392D01*
X164356050Y-79180392D01*
X164120647Y-79200987D01*
X164120634Y-79200990D01*
X164019950Y-79227967D01*
X163950100Y-79226304D01*
X163892238Y-79187140D01*
X163864735Y-79122912D01*
X163868083Y-79076099D01*
X163895063Y-78975408D01*
X163915659Y-78740000D01*
X163895063Y-78504592D01*
X163833903Y-78276337D01*
X163734035Y-78062171D01*
X163598495Y-77868599D01*
X163598494Y-77868597D01*
X163431402Y-77701506D01*
X163431395Y-77701501D01*
X163237834Y-77565967D01*
X163237830Y-77565965D01*
X163202866Y-77549661D01*
X163023663Y-77466097D01*
X163023659Y-77466096D01*
X163023655Y-77466094D01*
X162795413Y-77404938D01*
X162795403Y-77404936D01*
X162560001Y-77384341D01*
X162559999Y-77384341D01*
X162324596Y-77404936D01*
X162324583Y-77404939D01*
X162223340Y-77432066D01*
X162153490Y-77430403D01*
X162095628Y-77391240D01*
X162068125Y-77327011D01*
X162071473Y-77280197D01*
X162098516Y-77179270D01*
X162098517Y-77179263D01*
X162119105Y-76943949D01*
X162119105Y-76943946D01*
X162098517Y-76708632D01*
X162098515Y-76708621D01*
X162037381Y-76480464D01*
X162037377Y-76480455D01*
X161937548Y-76266371D01*
X161937547Y-76266369D01*
X161878873Y-76182574D01*
X161878873Y-76182573D01*
X161246910Y-76814537D01*
X161229873Y-76750955D01*
X161164047Y-76636941D01*
X161070955Y-76543849D01*
X160956941Y-76478023D01*
X160893358Y-76460985D01*
X161525321Y-75829021D01*
X161525321Y-75829020D01*
X161441531Y-75770350D01*
X161441527Y-75770348D01*
X161227440Y-75670518D01*
X161227431Y-75670514D01*
X160999274Y-75609380D01*
X160999263Y-75609378D01*
X160763950Y-75588791D01*
X160763946Y-75588791D01*
X160528632Y-75609378D01*
X160528621Y-75609380D01*
X160300464Y-75670514D01*
X160300455Y-75670518D01*
X160086367Y-75770349D01*
X160002573Y-75829020D01*
X160634538Y-76460985D01*
X160570955Y-76478023D01*
X160456941Y-76543849D01*
X160363849Y-76636941D01*
X160298023Y-76750955D01*
X160280985Y-76814538D01*
X159649020Y-76182573D01*
X159590349Y-76266367D01*
X159490518Y-76480455D01*
X159490514Y-76480464D01*
X159429380Y-76708621D01*
X159429378Y-76708632D01*
X159408791Y-76943946D01*
X152590500Y-76943946D01*
X152590500Y-69325893D01*
X152610185Y-69258854D01*
X152662989Y-69213099D01*
X152663936Y-69212671D01*
X152742730Y-69177590D01*
X152895871Y-69066327D01*
X153022533Y-68925655D01*
X153117179Y-68761723D01*
X153175674Y-68581695D01*
X153195460Y-68393439D01*
X153175674Y-68205183D01*
X153117179Y-68025155D01*
X153022533Y-67861223D01*
X152895871Y-67720551D01*
X152895870Y-67720550D01*
X152742734Y-67609290D01*
X152742729Y-67609287D01*
X152569807Y-67532296D01*
X152569802Y-67532294D01*
X152424001Y-67501304D01*
X152384646Y-67492939D01*
X152195354Y-67492939D01*
X152162897Y-67499837D01*
X152010197Y-67532294D01*
X152010192Y-67532296D01*
X151837270Y-67609287D01*
X151831637Y-67612540D01*
X151830934Y-67611322D01*
X151772068Y-67632320D01*
X151704016Y-67616489D01*
X151693526Y-67609747D01*
X151692729Y-67609287D01*
X151519807Y-67532296D01*
X151519802Y-67532294D01*
X151374001Y-67501304D01*
X151334646Y-67492939D01*
X151145354Y-67492939D01*
X151112897Y-67499837D01*
X150960197Y-67532294D01*
X150960192Y-67532296D01*
X150787270Y-67609287D01*
X150787265Y-67609290D01*
X150634129Y-67720550D01*
X150507466Y-67861224D01*
X150412821Y-68025154D01*
X150412818Y-68025161D01*
X150354327Y-68205179D01*
X150354326Y-68205183D01*
X150334540Y-68393439D01*
X130925500Y-68393439D01*
X130925500Y-65449728D01*
X130945185Y-65382689D01*
X130961815Y-65362051D01*
X131913206Y-64410659D01*
X131913211Y-64410656D01*
X131923414Y-64400452D01*
X131923416Y-64400452D01*
X132037049Y-64286819D01*
X132098372Y-64253334D01*
X132124730Y-64250500D01*
X148346420Y-64250500D01*
X148490113Y-64221917D01*
X148559705Y-64228144D01*
X148601986Y-64255853D01*
X148642049Y-64295916D01*
X148746584Y-64400451D01*
X148746585Y-64400452D01*
X148869498Y-64482580D01*
X148869504Y-64482583D01*
X148869505Y-64482584D01*
X148919479Y-64503284D01*
X149006088Y-64539159D01*
X149122241Y-64562263D01*
X149141468Y-64566087D01*
X149151081Y-64568000D01*
X149151082Y-64568000D01*
X149151083Y-64568000D01*
X149298918Y-64568000D01*
X151402770Y-64568000D01*
X151469809Y-64587685D01*
X151490451Y-64604319D01*
X152556580Y-65670448D01*
X152556584Y-65670451D01*
X152679498Y-65752580D01*
X152679511Y-65752587D01*
X152816082Y-65809156D01*
X152816087Y-65809158D01*
X152816091Y-65809158D01*
X152816092Y-65809159D01*
X152961079Y-65838000D01*
X152961082Y-65838000D01*
X155013920Y-65838000D01*
X155111462Y-65818596D01*
X155158913Y-65809158D01*
X155295495Y-65752584D01*
X155344729Y-65719686D01*
X155418416Y-65670452D01*
X156045270Y-65043595D01*
X156106591Y-65010112D01*
X156106927Y-65010039D01*
X156172303Y-64996144D01*
X156345230Y-64919151D01*
X156498371Y-64807888D01*
X156625033Y-64667216D01*
X156719679Y-64503284D01*
X156778174Y-64323256D01*
X156797960Y-64135000D01*
X156778174Y-63946744D01*
X156719679Y-63766716D01*
X156625033Y-63602784D01*
X156498371Y-63462112D01*
X156498370Y-63462111D01*
X156345234Y-63350851D01*
X156345229Y-63350848D01*
X156172307Y-63273857D01*
X156172302Y-63273855D01*
X156026501Y-63242865D01*
X155987146Y-63234500D01*
X155797854Y-63234500D01*
X155765397Y-63241398D01*
X155612697Y-63273855D01*
X155612692Y-63273857D01*
X155439770Y-63350848D01*
X155439765Y-63350851D01*
X155286629Y-63462111D01*
X155159966Y-63602785D01*
X155065321Y-63766715D01*
X155065319Y-63766719D01*
X155009978Y-63937041D01*
X154979728Y-63986403D01*
X154665451Y-64300681D01*
X154604128Y-64334166D01*
X154577770Y-64337000D01*
X153397229Y-64337000D01*
X153330190Y-64317315D01*
X153309548Y-64300681D01*
X152243421Y-63234552D01*
X152243414Y-63234546D01*
X152165519Y-63182499D01*
X152165518Y-63182499D01*
X152120501Y-63152419D01*
X152120488Y-63152412D01*
X151983917Y-63095843D01*
X151983907Y-63095840D01*
X151838920Y-63067000D01*
X151838918Y-63067000D01*
X149589405Y-63067000D01*
X149522366Y-63047315D01*
X149476611Y-62994511D01*
X149471474Y-62981318D01*
X149417181Y-62814221D01*
X149417178Y-62814215D01*
X149322533Y-62650284D01*
X149195871Y-62509612D01*
X149195870Y-62509611D01*
X149042734Y-62398351D01*
X149042729Y-62398348D01*
X148869807Y-62321357D01*
X148869802Y-62321355D01*
X148724001Y-62290365D01*
X148684646Y-62282000D01*
X148495354Y-62282000D01*
X148462897Y-62288898D01*
X148310197Y-62321355D01*
X148310192Y-62321357D01*
X148137270Y-62398348D01*
X148137265Y-62398351D01*
X147984129Y-62509611D01*
X147857465Y-62650285D01*
X147835980Y-62687500D01*
X147785413Y-62735716D01*
X147728593Y-62749500D01*
X131688580Y-62749500D01*
X131543592Y-62778340D01*
X131543582Y-62778343D01*
X131407009Y-62834913D01*
X131377591Y-62854570D01*
X131284079Y-62917051D01*
X131284078Y-62917052D01*
X130862048Y-63339084D01*
X130862046Y-63339086D01*
X129592050Y-64609080D01*
X129592044Y-64609088D01*
X129542812Y-64682768D01*
X129542813Y-64682769D01*
X129509921Y-64731996D01*
X129509914Y-64732008D01*
X129453342Y-64868586D01*
X129453340Y-64868592D01*
X129424500Y-65013579D01*
X129424500Y-65013582D01*
X129424500Y-75173582D01*
X129424500Y-101843582D01*
X129424500Y-132323582D01*
X129424500Y-137551418D01*
X129424500Y-137551420D01*
X129424499Y-137551420D01*
X114500500Y-137551420D01*
X114500500Y-58388543D01*
X147079499Y-58388543D01*
X147117947Y-58581829D01*
X147117950Y-58581839D01*
X147193364Y-58763907D01*
X147193371Y-58763920D01*
X147302860Y-58927781D01*
X147302863Y-58927785D01*
X147442214Y-59067136D01*
X147442218Y-59067139D01*
X147606079Y-59176628D01*
X147606092Y-59176635D01*
X147788160Y-59252049D01*
X147788165Y-59252051D01*
X147788169Y-59252051D01*
X147788170Y-59252052D01*
X147981456Y-59290500D01*
X147981459Y-59290500D01*
X148178543Y-59290500D01*
X148308582Y-59264632D01*
X148371835Y-59252051D01*
X148553914Y-59176632D01*
X148717782Y-59067139D01*
X148857139Y-58927782D01*
X148966632Y-58763914D01*
X149042051Y-58581835D01*
X149080500Y-58388541D01*
X149080500Y-57845951D01*
X149100185Y-57778912D01*
X149152989Y-57733157D01*
X149222147Y-57723213D01*
X149266499Y-57738563D01*
X149286322Y-57750008D01*
X149433707Y-57789500D01*
X149433710Y-57789500D01*
X149586290Y-57789500D01*
X149586293Y-57789500D01*
X149733678Y-57750008D01*
X149865821Y-57673715D01*
X149973715Y-57565821D01*
X150050008Y-57433678D01*
X150089500Y-57286293D01*
X150089500Y-57133707D01*
X154710500Y-57133707D01*
X154710500Y-57286293D01*
X154749992Y-57433678D01*
X154749993Y-57433681D01*
X154826282Y-57565817D01*
X154826284Y-57565819D01*
X154826285Y-57565821D01*
X154934179Y-57673715D01*
X154934180Y-57673716D01*
X154934182Y-57673717D01*
X155066318Y-57750006D01*
X155066319Y-57750006D01*
X155066322Y-57750008D01*
X155213707Y-57789500D01*
X155213710Y-57789500D01*
X155366290Y-57789500D01*
X155366293Y-57789500D01*
X155513678Y-57750008D01*
X155533499Y-57738563D01*
X155601399Y-57722091D01*
X155667426Y-57744943D01*
X155710617Y-57799864D01*
X155719500Y-57845951D01*
X155719500Y-58388541D01*
X155719500Y-58388543D01*
X155719499Y-58388543D01*
X155757947Y-58581829D01*
X155757950Y-58581839D01*
X155833364Y-58763907D01*
X155833371Y-58763920D01*
X155942860Y-58927781D01*
X155942863Y-58927785D01*
X156082214Y-59067136D01*
X156082218Y-59067139D01*
X156246079Y-59176628D01*
X156246092Y-59176635D01*
X156428160Y-59252049D01*
X156428165Y-59252051D01*
X156428169Y-59252051D01*
X156428170Y-59252052D01*
X156621456Y-59290500D01*
X156621459Y-59290500D01*
X156818543Y-59290500D01*
X156948582Y-59264632D01*
X157011835Y-59252051D01*
X157193914Y-59176632D01*
X157357782Y-59067139D01*
X157497139Y-58927782D01*
X157606632Y-58763914D01*
X157682051Y-58581835D01*
X157720500Y-58388541D01*
X157720500Y-57091459D01*
X157720500Y-57091456D01*
X157682052Y-56898170D01*
X157682051Y-56898169D01*
X157682051Y-56898165D01*
X157663830Y-56854176D01*
X157606635Y-56716092D01*
X157606628Y-56716079D01*
X157497139Y-56552218D01*
X157497136Y-56552214D01*
X157357785Y-56412863D01*
X157357781Y-56412860D01*
X157193920Y-56303371D01*
X157193907Y-56303364D01*
X157011839Y-56227950D01*
X157011829Y-56227947D01*
X156818543Y-56189500D01*
X156818541Y-56189500D01*
X156621459Y-56189500D01*
X156621457Y-56189500D01*
X156428170Y-56227947D01*
X156428160Y-56227950D01*
X156246092Y-56303364D01*
X156246079Y-56303371D01*
X156082218Y-56412860D01*
X156082214Y-56412863D01*
X155942863Y-56552214D01*
X155942860Y-56552218D01*
X155830015Y-56721102D01*
X155776403Y-56765907D01*
X155707078Y-56774614D01*
X155651424Y-56750585D01*
X155645818Y-56746283D01*
X155513681Y-56669993D01*
X155513682Y-56669993D01*
X155501595Y-56666754D01*
X155366293Y-56630500D01*
X155213707Y-56630500D01*
X155078404Y-56666754D01*
X155066318Y-56669993D01*
X154934182Y-56746282D01*
X154934176Y-56746287D01*
X154826287Y-56854176D01*
X154826282Y-56854182D01*
X154749993Y-56986318D01*
X154749992Y-56986322D01*
X154710500Y-57133707D01*
X150089500Y-57133707D01*
X150050008Y-56986322D01*
X149999113Y-56898170D01*
X149973717Y-56854182D01*
X149973712Y-56854176D01*
X149865823Y-56746287D01*
X149865817Y-56746282D01*
X149733681Y-56669993D01*
X149733682Y-56669993D01*
X149721595Y-56666754D01*
X149586293Y-56630500D01*
X149433707Y-56630500D01*
X149298404Y-56666754D01*
X149286318Y-56669993D01*
X149154179Y-56746284D01*
X149148571Y-56750588D01*
X149083401Y-56775781D01*
X149014956Y-56761742D01*
X148969984Y-56721102D01*
X148857139Y-56552218D01*
X148857136Y-56552214D01*
X148717785Y-56412863D01*
X148717781Y-56412860D01*
X148553920Y-56303371D01*
X148553907Y-56303364D01*
X148371839Y-56227950D01*
X148371829Y-56227947D01*
X148178543Y-56189500D01*
X148178541Y-56189500D01*
X147981459Y-56189500D01*
X147981457Y-56189500D01*
X147788170Y-56227947D01*
X147788160Y-56227950D01*
X147606092Y-56303364D01*
X147606079Y-56303371D01*
X147442218Y-56412860D01*
X147442214Y-56412863D01*
X147302863Y-56552214D01*
X147302860Y-56552218D01*
X147193371Y-56716079D01*
X147193364Y-56716092D01*
X147117950Y-56898160D01*
X147117947Y-56898170D01*
X147079500Y-57091456D01*
X147079500Y-57091459D01*
X147079500Y-58388541D01*
X147079500Y-58388543D01*
X147079499Y-58388543D01*
X114500500Y-58388543D01*
X114500500Y-53958543D01*
X147079499Y-53958543D01*
X147117947Y-54151829D01*
X147117950Y-54151839D01*
X147193364Y-54333907D01*
X147193371Y-54333920D01*
X147302860Y-54497781D01*
X147302863Y-54497785D01*
X147442214Y-54637136D01*
X147442218Y-54637139D01*
X147606079Y-54746628D01*
X147606092Y-54746635D01*
X147788160Y-54822049D01*
X147788165Y-54822051D01*
X147788169Y-54822051D01*
X147788170Y-54822052D01*
X147981456Y-54860500D01*
X147981459Y-54860500D01*
X148178543Y-54860500D01*
X148308582Y-54834632D01*
X148371835Y-54822051D01*
X148553914Y-54746632D01*
X148717782Y-54637139D01*
X148857139Y-54497782D01*
X148966632Y-54333914D01*
X149042051Y-54151835D01*
X149080500Y-53958543D01*
X155719499Y-53958543D01*
X155757947Y-54151829D01*
X155757950Y-54151839D01*
X155833364Y-54333907D01*
X155833371Y-54333920D01*
X155942860Y-54497781D01*
X155942863Y-54497785D01*
X156082214Y-54637136D01*
X156082218Y-54637139D01*
X156246079Y-54746628D01*
X156246092Y-54746635D01*
X156428160Y-54822049D01*
X156428165Y-54822051D01*
X156428169Y-54822051D01*
X156428170Y-54822052D01*
X156621456Y-54860500D01*
X156621459Y-54860500D01*
X156818543Y-54860500D01*
X156948582Y-54834632D01*
X157011835Y-54822051D01*
X157193914Y-54746632D01*
X157357782Y-54637139D01*
X157497139Y-54497782D01*
X157606632Y-54333914D01*
X157682051Y-54151835D01*
X157720500Y-53958541D01*
X157720500Y-53161459D01*
X157720500Y-53161456D01*
X157682052Y-52968170D01*
X157682051Y-52968169D01*
X157682051Y-52968165D01*
X157682049Y-52968160D01*
X157606635Y-52786092D01*
X157606628Y-52786079D01*
X157497139Y-52622218D01*
X157497136Y-52622214D01*
X157357785Y-52482863D01*
X157357781Y-52482860D01*
X157193920Y-52373371D01*
X157193907Y-52373364D01*
X157011839Y-52297950D01*
X157011829Y-52297947D01*
X156818543Y-52259500D01*
X156818541Y-52259500D01*
X156621459Y-52259500D01*
X156621457Y-52259500D01*
X156428170Y-52297947D01*
X156428160Y-52297950D01*
X156246092Y-52373364D01*
X156246079Y-52373371D01*
X156082218Y-52482860D01*
X156082214Y-52482863D01*
X155942863Y-52622214D01*
X155942860Y-52622218D01*
X155833371Y-52786079D01*
X155833364Y-52786092D01*
X155757950Y-52968160D01*
X155757947Y-52968170D01*
X155719500Y-53161456D01*
X155719500Y-53161459D01*
X155719500Y-53958541D01*
X155719500Y-53958543D01*
X155719499Y-53958543D01*
X149080500Y-53958543D01*
X149080500Y-53958541D01*
X149080500Y-53161459D01*
X149080500Y-53161456D01*
X149042052Y-52968170D01*
X149042051Y-52968169D01*
X149042051Y-52968165D01*
X149042049Y-52968160D01*
X148966635Y-52786092D01*
X148966628Y-52786079D01*
X148857139Y-52622218D01*
X148857136Y-52622214D01*
X148717785Y-52482863D01*
X148717781Y-52482860D01*
X148553920Y-52373371D01*
X148553907Y-52373364D01*
X148371839Y-52297950D01*
X148371829Y-52297947D01*
X148178543Y-52259500D01*
X148178541Y-52259500D01*
X147981459Y-52259500D01*
X147981457Y-52259500D01*
X147788170Y-52297947D01*
X147788160Y-52297950D01*
X147606092Y-52373364D01*
X147606079Y-52373371D01*
X147442218Y-52482860D01*
X147442214Y-52482863D01*
X147302863Y-52622214D01*
X147302860Y-52622218D01*
X147193371Y-52786079D01*
X147193364Y-52786092D01*
X147117950Y-52968160D01*
X147117947Y-52968170D01*
X147079500Y-53161456D01*
X147079500Y-53161459D01*
X147079500Y-53958541D01*
X147079500Y-53958543D01*
X147079499Y-53958543D01*
X114500500Y-53958543D01*
X114500500Y-51124500D01*
X114520185Y-51057461D01*
X114572989Y-51011706D01*
X114624500Y-51000500D01*
X177475500Y-51000500D01*
X177542539Y-51020185D01*
G37*
%TD.AperFunction*%
%TD*%
M02*
