M48
; DRILL file {KiCad 8.0.2} date 2024-07-16T23:04:40+0800
; FORMAT={-:-/ absolute / inch / decimal}
; #@! TF.CreationDate,2024-07-16T23:04:40+08:00
; #@! TF.GenerationSoftware,Kicad,Pcbnew,8.0.2
; #@! TF.FileFunction,Plated,1,2,PTH
FMAT,2
INCH
; #@! TA.AperFunction,Plated,PTH,ViaDrill
T1C0.0157
; #@! TA.AperFunction,Plated,PTH,ComponentDrill
T2C0.0236
; #@! TA.AperFunction,Plated,PTH,ComponentDrill
T3C0.0362
; #@! TA.AperFunction,Plated,PTH,ComponentDrill
T4C0.0394
; #@! TA.AperFunction,Plated,PTH,ComponentDrill
T5C0.0906
%
G90
G05
T1
X5.175Y-3.2125
X5.175Y-3.2625
X5.1875Y-4.8481
X5.1875Y-4.8875
X5.7375Y-3.125
X5.85Y-2.4875
X5.925Y-4.7625
X5.9543Y-2.6927
X5.9957Y-2.6927
X6.0339Y-4.7752
X6.0339Y-4.8165
X6.0375Y-3.1918
X6.0375Y-3.2332
X6.0625Y-3.375
X6.1375Y-2.525
X6.15Y-4.4625
T3
X5.8622Y-5.6338
X5.8622Y-5.7369
X5.9606Y-5.6338
X5.9606Y-5.7369
X6.0394Y-5.6338
X6.0394Y-5.7369
X6.1378Y-5.7369
X6.1378Y-5.6338
T4
X5.3964Y-3.4004
X5.43Y-4.6075
X5.4375Y-4.85
X5.4672Y-3.3297
X5.4672Y-3.4711
X5.4797Y-3.1078
X5.5007Y-4.5368
X5.5007Y-4.6782
X5.5082Y-4.9207
X5.5379Y-3.4004
X5.5379Y-3.5418
X5.5504Y-3.0371
X5.5504Y-3.1786
X5.5714Y-4.4661
X5.5714Y-4.6075
X5.5789Y-4.9914
X5.6086Y-3.4711
X5.6086Y-3.6125
X5.6211Y-2.9664
X5.6211Y-3.1078
X5.6422Y-4.3953
X5.6422Y-4.5368
X5.6496Y-5.0621
X5.6793Y-3.5418
X5.6793Y-3.6832
X5.6918Y-2.8957
X5.6918Y-3.0371
X5.7129Y-4.3246
X5.7129Y-4.4661
X5.7203Y-5.1328
X5.75Y-3.6125
X5.75Y-3.7539
X5.7625Y-2.825
X5.7625Y-2.9664
X5.7836Y-4.2539
X5.7836Y-4.3953
X5.7911Y-5.2036
X5.8207Y-3.6832
X5.8207Y-3.8246
X5.8332Y-2.8957
X5.8543Y-4.1832
X5.8543Y-4.3246
X5.8914Y-3.7539
X5.8914Y-3.8953
X5.925Y-4.1125
X5.925Y-4.2539
X5.9621Y-3.8246
X5.9957Y-4.1832
X6.0732Y-3.7143
X6.1336Y-5.2164
X6.1339Y-4.3004
X6.1439Y-3.6436
X6.2043Y-5.1457
X6.2047Y-4.2297
X6.2047Y-4.3711
X6.2146Y-3.5729
X6.275Y-5.075
X6.2754Y-4.3004
X6.2754Y-4.4418
X6.2854Y-3.5021
X6.3293Y-3.0293
X6.3457Y-5.0043
X6.3461Y-4.3711
X6.3461Y-4.5125
X6.3561Y-3.4314
X6.4Y-3.1
X6.4168Y-4.4418
X6.4168Y-4.5832
X6.4268Y-3.3607
X6.4707Y-3.1707
X6.4875Y-4.5125
X6.5414Y-3.2414
T5
X5.7413Y-5.62
X5.7413Y-5.8436
X6.2587Y-5.62
X6.2587Y-5.8436
T2
G00X5.8299Y-2.1205
M15
G01X5.8299Y-2.0969
M16
G05
G00X5.8299Y-2.2949
M15
G01X5.8299Y-2.2516
M16
G05
G00X6.1701Y-2.1205
M15
G01X6.1701Y-2.0969
M16
G05
G00X6.1701Y-2.2949
M15
G01X6.1701Y-2.2516
M16
G05
M30
