%TF.GenerationSoftware,KiCad,Pcbnew,8.0.2*%
%TF.CreationDate,2024-07-16T23:04:40+08:00*%
%TF.ProjectId,ch9350,63683933-3530-42e6-9b69-6361645f7063,rev?*%
%TF.SameCoordinates,Original*%
%TF.FileFunction,Paste,Top*%
%TF.FilePolarity,Positive*%
%FSLAX46Y46*%
G04 Gerber Fmt 4.6, Leading zero omitted, Abs format (unit mm)*
G04 Created by KiCad (PCBNEW 8.0.2) date 2024-07-16 23:04:40*
%MOMM*%
%LPD*%
G01*
G04 APERTURE LIST*
G04 Aperture macros list*
%AMRoundRect*
0 Rectangle with rounded corners*
0 $1 Rounding radius*
0 $2 $3 $4 $5 $6 $7 $8 $9 X,Y pos of 4 corners*
0 Add a 4 corners polygon primitive as box body*
4,1,4,$2,$3,$4,$5,$6,$7,$8,$9,$2,$3,0*
0 Add four circle primitives for the rounded corners*
1,1,$1+$1,$2,$3*
1,1,$1+$1,$4,$5*
1,1,$1+$1,$6,$7*
1,1,$1+$1,$8,$9*
0 Add four rect primitives between the rounded corners*
20,1,$1+$1,$2,$3,$4,$5,0*
20,1,$1+$1,$4,$5,$6,$7,0*
20,1,$1+$1,$6,$7,$8,$9,0*
20,1,$1+$1,$8,$9,$2,$3,0*%
G04 Aperture macros list end*
%ADD10RoundRect,0.218750X-0.218750X-0.256250X0.218750X-0.256250X0.218750X0.256250X-0.218750X0.256250X0*%
%ADD11RoundRect,0.150000X-0.587500X-0.150000X0.587500X-0.150000X0.587500X0.150000X-0.587500X0.150000X0*%
%ADD12RoundRect,0.140000X-0.021213X0.219203X-0.219203X0.021213X0.021213X-0.219203X0.219203X-0.021213X0*%
%ADD13RoundRect,0.075000X-0.415425X-0.521491X0.521491X0.415425X0.415425X0.521491X-0.521491X-0.415425X0*%
%ADD14RoundRect,0.075000X0.415425X-0.521491X0.521491X-0.415425X-0.415425X0.521491X-0.521491X0.415425X0*%
%ADD15RoundRect,0.135000X0.185000X-0.135000X0.185000X0.135000X-0.185000X0.135000X-0.185000X-0.135000X0*%
%ADD16RoundRect,0.135000X0.135000X0.185000X-0.135000X0.185000X-0.135000X-0.185000X0.135000X-0.185000X0*%
%ADD17RoundRect,0.075000X-0.521491X0.415425X0.415425X-0.521491X0.521491X-0.415425X-0.415425X0.521491X0*%
%ADD18RoundRect,0.075000X-0.521491X-0.415425X-0.415425X-0.521491X0.521491X0.415425X0.415425X0.521491X0*%
%ADD19RoundRect,0.140000X-0.140000X-0.170000X0.140000X-0.170000X0.140000X0.170000X-0.140000X0.170000X0*%
%ADD20R,1.000000X0.750000*%
%ADD21RoundRect,0.140000X0.021213X-0.219203X0.219203X-0.021213X-0.021213X0.219203X-0.219203X0.021213X0*%
%ADD22RoundRect,0.135000X-0.185000X0.135000X-0.185000X-0.135000X0.185000X-0.135000X0.185000X0.135000X0*%
%ADD23RoundRect,0.140000X0.140000X0.170000X-0.140000X0.170000X-0.140000X-0.170000X0.140000X-0.170000X0*%
%ADD24R,0.600000X1.450000*%
%ADD25R,0.300000X1.450000*%
G04 APERTURE END LIST*
D10*
%TO.C,D2*%
X121992500Y-94370000D03*
X123567500Y-94370000D03*
%TD*%
D11*
%TO.C,Q2*%
X119972500Y-90612500D03*
X119972500Y-92512500D03*
X121847500Y-91562500D03*
%TD*%
%TO.C,Q1*%
X119972500Y-84982500D03*
X119972500Y-86882500D03*
X121847500Y-85932500D03*
%TD*%
D10*
%TO.C,D4*%
X121992500Y-105800000D03*
X123567500Y-105800000D03*
%TD*%
D12*
%TO.C,C4*%
X157819411Y-115230589D03*
X157140589Y-115909411D03*
%TD*%
D10*
%TO.C,D3*%
X121992500Y-99950000D03*
X123567500Y-99950000D03*
%TD*%
D11*
%TO.C,Q4*%
X119972500Y-102042500D03*
X119972500Y-103942500D03*
X121847500Y-102992500D03*
%TD*%
D13*
%TO.C,U1*%
X147512124Y-84818788D03*
X147865678Y-85172342D03*
X148219231Y-85525895D03*
X148572785Y-85879449D03*
X148926338Y-86233002D03*
X149279891Y-86586555D03*
X149633445Y-86940109D03*
X149986998Y-87293662D03*
X150340551Y-87647215D03*
X150694105Y-88000769D03*
X151047658Y-88354322D03*
X151401212Y-88707876D03*
D14*
X153398788Y-88707876D03*
X153752342Y-88354322D03*
X154105895Y-88000769D03*
X154459449Y-87647215D03*
X154813002Y-87293662D03*
X155166555Y-86940109D03*
X155520109Y-86586555D03*
X155873662Y-86233002D03*
X156227215Y-85879449D03*
X156580769Y-85525895D03*
X156934322Y-85172342D03*
X157287876Y-84818788D03*
D13*
X157287876Y-82821212D03*
X156934322Y-82467658D03*
X156580769Y-82114105D03*
X156227215Y-81760551D03*
X155873662Y-81406998D03*
X155520109Y-81053445D03*
X155166555Y-80699891D03*
X154813002Y-80346338D03*
X154459449Y-79992785D03*
X154105895Y-79639231D03*
X153752342Y-79285678D03*
X153398788Y-78932124D03*
D14*
X151401212Y-78932124D03*
X151047658Y-79285678D03*
X150694105Y-79639231D03*
X150340551Y-79992785D03*
X149986998Y-80346338D03*
X149633445Y-80699891D03*
X149279891Y-81053445D03*
X148926338Y-81406998D03*
X148572785Y-81760551D03*
X148219231Y-82114105D03*
X147865678Y-82467658D03*
X147512124Y-82821212D03*
%TD*%
D15*
%TO.C,R3*%
X123732500Y-86942499D03*
X123732500Y-85922501D03*
%TD*%
D16*
%TO.C,R6*%
X120432499Y-94052500D03*
X119412501Y-94052500D03*
%TD*%
D10*
%TO.C,D6*%
X121992500Y-117230000D03*
X123567500Y-117230000D03*
%TD*%
D17*
%TO.C,U2*%
X151401212Y-114492124D03*
X151047658Y-114845678D03*
X150694105Y-115199231D03*
X150340551Y-115552785D03*
X149986998Y-115906338D03*
X149633445Y-116259891D03*
X149279891Y-116613445D03*
X148926338Y-116966998D03*
X148572785Y-117320551D03*
X148219231Y-117674105D03*
X147865678Y-118027658D03*
X147512124Y-118381212D03*
D18*
X147512124Y-120378788D03*
X147865678Y-120732342D03*
X148219231Y-121085895D03*
X148572785Y-121439449D03*
X148926338Y-121793002D03*
X149279891Y-122146555D03*
X149633445Y-122500109D03*
X149986998Y-122853662D03*
X150340551Y-123207215D03*
X150694105Y-123560769D03*
X151047658Y-123914322D03*
X151401212Y-124267876D03*
D17*
X153398788Y-124267876D03*
X153752342Y-123914322D03*
X154105895Y-123560769D03*
X154459449Y-123207215D03*
X154813002Y-122853662D03*
X155166555Y-122500109D03*
X155520109Y-122146555D03*
X155873662Y-121793002D03*
X156227215Y-121439449D03*
X156580769Y-121085895D03*
X156934322Y-120732342D03*
X157287876Y-120378788D03*
D18*
X157287876Y-118381212D03*
X156934322Y-118027658D03*
X156580769Y-117674105D03*
X156227215Y-117320551D03*
X155873662Y-116966998D03*
X155520109Y-116613445D03*
X155166555Y-116259891D03*
X154813002Y-115906338D03*
X154459449Y-115552785D03*
X154105895Y-115199231D03*
X153752342Y-114845678D03*
X153398788Y-114492124D03*
%TD*%
D19*
%TO.C,C2*%
X147157500Y-78422500D03*
X148117500Y-78422500D03*
%TD*%
D16*
%TO.C,R4*%
X120432499Y-88337500D03*
X119412501Y-88337500D03*
%TD*%
D20*
%TO.C,SW1*%
X123650000Y-81250000D03*
X117650000Y-81250000D03*
X123650000Y-77500000D03*
X117650000Y-77500000D03*
%TD*%
D21*
%TO.C,C3*%
X156505589Y-114956911D03*
X157184411Y-114278089D03*
%TD*%
D11*
%TO.C,Q3*%
X119972500Y-96277500D03*
X119972500Y-98177500D03*
X121847500Y-97227500D03*
%TD*%
D16*
%TO.C,R8*%
X120432499Y-99632500D03*
X119412501Y-99632500D03*
%TD*%
D10*
%TO.C,D1*%
X121992499Y-88655000D03*
X123567501Y-88655000D03*
%TD*%
D22*
%TO.C,R1*%
X153987500Y-60767501D03*
X153987500Y-61787499D03*
%TD*%
D16*
%TO.C,R14*%
X120432499Y-116912500D03*
X119412501Y-116912500D03*
%TD*%
D11*
%TO.C,Q5*%
X119972500Y-107842500D03*
X119972500Y-109742500D03*
X121847500Y-108792500D03*
%TD*%
D16*
%TO.C,R10*%
X120432499Y-105482500D03*
X119412501Y-105482500D03*
%TD*%
D15*
%TO.C,R5*%
X123732500Y-92339999D03*
X123732500Y-91320001D03*
%TD*%
D11*
%TO.C,Q6*%
X119972500Y-113557500D03*
X119972500Y-115457500D03*
X121847500Y-114507500D03*
%TD*%
D10*
%TO.C,D5*%
X121992500Y-111515000D03*
X123567500Y-111515000D03*
%TD*%
D15*
%TO.C,R9*%
X123732500Y-103769999D03*
X123732500Y-102750001D03*
%TD*%
D23*
%TO.C,C1*%
X147800000Y-79375000D03*
X146840000Y-79375000D03*
%TD*%
D15*
%TO.C,R11*%
X123732500Y-109484999D03*
X123732500Y-108465001D03*
%TD*%
D16*
%TO.C,R12*%
X120432499Y-111197500D03*
X119412501Y-111197500D03*
%TD*%
D15*
%TO.C,R13*%
X123732500Y-115199999D03*
X123732500Y-114180001D03*
%TD*%
%TO.C,R7*%
X123732500Y-97919999D03*
X123732500Y-96900001D03*
%TD*%
D20*
%TO.C,SW2*%
X123650000Y-124112500D03*
X117650000Y-124112500D03*
X123650000Y-120362500D03*
X117650000Y-120362500D03*
%TD*%
D22*
%TO.C,R2*%
X151765000Y-60767501D03*
X151765000Y-61787499D03*
%TD*%
D24*
%TO.C,J1*%
X155650000Y-58655000D03*
X154850001Y-58655000D03*
D25*
X153650000Y-58654999D03*
X152650000Y-58655000D03*
X152150000Y-58655000D03*
X151150000Y-58654999D03*
D24*
X149949999Y-58655000D03*
X149150000Y-58655000D03*
X149150000Y-58655000D03*
X149949999Y-58655000D03*
D25*
X150650000Y-58655000D03*
X151650000Y-58655000D03*
X153150000Y-58655000D03*
X154150000Y-58655000D03*
D24*
X154850001Y-58655000D03*
X155650000Y-58655000D03*
%TD*%
M02*
