%TF.GenerationSoftware,KiCad,Pcbnew,8.0.8*%
%TF.CreationDate,2025-03-13T15:49:53+08:00*%
%TF.ProjectId,usb3sun,75736233-7375-46e2-9e6b-696361645f70,B1*%
%TF.SameCoordinates,Original*%
%TF.FileFunction,Profile,NP*%
%FSLAX46Y46*%
G04 Gerber Fmt 4.6, Leading zero omitted, Abs format (unit mm)*
G04 Created by KiCad (PCBNEW 8.0.8) date 2025-03-13 15:49:53*
%MOMM*%
%LPD*%
G01*
G04 APERTURE LIST*
%TA.AperFunction,Profile*%
%ADD10C,0.100000*%
%TD*%
G04 APERTURE END LIST*
D10*
X83185000Y-29845000D02*
G75*
G02*
X84455000Y-31115000I0J-1270000D01*
G01*
X63500000Y-34290000D02*
X71120000Y-34290000D01*
X84455000Y-33020000D02*
X84455000Y-31115000D01*
X85090000Y-120650000D02*
X85090000Y-123190000D01*
X60960000Y-36830000D02*
G75*
G02*
X63500000Y-34290000I2540000J0D01*
G01*
X93980000Y-119380000D02*
X86360000Y-119380000D01*
X72390000Y-120650000D02*
X72390000Y-123190000D01*
X60960000Y-116840000D02*
X60960000Y-36830000D01*
X93980000Y-34290000D02*
G75*
G02*
X96520000Y-36830000I0J-2540000D01*
G01*
X85090000Y-120650000D02*
G75*
G02*
X86360000Y-119380000I1270000J0D01*
G01*
X83185000Y-29845000D02*
X73660000Y-29845000D01*
X96520000Y-116840000D02*
G75*
G02*
X93980000Y-119380000I-2540000J0D01*
G01*
X71120000Y-119380000D02*
G75*
G02*
X72390000Y-120650000I0J-1270000D01*
G01*
X63500000Y-119380000D02*
X71120000Y-119380000D01*
X72390000Y-33020000D02*
G75*
G02*
X71120000Y-34290000I-1270000J0D01*
G01*
X85725000Y-34290000D02*
G75*
G02*
X84455000Y-33020000I0J1270000D01*
G01*
X72390000Y-33020000D02*
X72390000Y-31115000D01*
X85090000Y-123190000D02*
G75*
G02*
X83820000Y-124460000I-1270000J0D01*
G01*
X96520000Y-36830000D02*
X96520000Y-116840000D01*
X73660000Y-124460000D02*
G75*
G02*
X72390000Y-123190000I0J1270000D01*
G01*
X63500000Y-119380000D02*
G75*
G02*
X60960000Y-116840000I0J2540000D01*
G01*
X72390000Y-31115000D02*
G75*
G02*
X73660000Y-29845000I1270000J0D01*
G01*
X93980000Y-34290000D02*
X85725000Y-34290000D01*
X73660000Y-124460000D02*
X83820000Y-124460000D01*
M02*
