M48
; DRILL file {KiCad 7.0.9} date Mon 19 Feb 2024 16:26:54
; FORMAT={-:-/ absolute / inch / decimal}
; #@! TF.CreationDate,2024-02-19T16:26:54+08:00
; #@! TF.GenerationSoftware,Kicad,Pcbnew,7.0.9
; #@! TF.FileFunction,Plated,1,2,PTH
FMAT,2
INCH
; #@! TA.AperFunction,Plated,PTH,ViaDrill
T1C0.0157
; #@! TA.AperFunction,Plated,PTH,ComponentDrill
T2C0.0236
; #@! TA.AperFunction,Plated,PTH,ComponentDrill
T3C0.0354
; #@! TA.AperFunction,Plated,PTH,ComponentDrill
T4C0.0362
; #@! TA.AperFunction,Plated,PTH,ComponentDrill
T5C0.0394
; #@! TA.AperFunction,Plated,PTH,ComponentDrill
T6C0.0866
; #@! TA.AperFunction,Plated,PTH,ComponentDrill
T7C0.0906
; #@! TA.AperFunction,Plated,PTH,ComponentDrill
T8C0.1260
%
G90
G05
T1
X2.475Y-2.1125
X2.4875Y-2.5625
X2.5125Y-1.7625
X2.5125Y-2.825
X2.5688Y-3.975
X2.5688Y-4.25
X2.5875Y-3.9
X2.5875Y-4.325
X2.6Y-2.2875
X2.625Y-1.75
X2.625Y-2.0
X2.625Y-2.1
X2.625Y-2.5
X2.6625Y-1.7125
X2.6625Y-1.7875
X2.7Y-1.75
X2.7875Y-3.9375
X2.7875Y-4.325
X2.8125Y-2.9
X2.8125Y-3.1
X2.8125Y-3.6
X2.8368Y-4.0257
X2.85Y-1.95
X2.85Y-2.05
X2.8625Y-4.2375
X2.8625Y-4.3125
X2.8875Y-2.1313
X2.9Y-3.7625
X2.9Y-3.8375
X2.9Y-4.275
X2.9Y-4.325
X2.9169Y-3.35
X2.9169Y-3.475
X2.9293Y-3.7994
X2.9463Y-3.6121
X2.95Y-3.3125
X2.95Y-4.2
X2.9625Y-3.7
X2.9625Y-4.0875
X2.974Y-3.5209
X2.9857Y-3.6168
X2.9875Y-3.3
X3.0125Y-3.5375
X3.0125Y-4.0625
X3.025Y-2.1313
X3.025Y-2.3
X3.0336Y-3.3
X3.0375Y-3.6168
X3.05Y-2.0875
X3.0625Y-1.95
X3.0625Y-3.5375
X3.0625Y-4.2875
X3.075Y-3.3875
X3.0906Y-3.275
X3.1Y-3.6856
X3.1Y-3.725
X3.112Y-3.5377
X3.125Y-4.15
X3.134Y-3.1875
X3.1375Y-1.95
X3.1375Y-3.1375
X3.1375Y-3.2375
X3.15Y-2.0875
X3.15Y-3.6739
X3.175Y-1.7875
X3.175Y-3.5
X3.2087Y-3.175
X3.2087Y-3.2143
X3.2125Y-3.3875
X3.2625Y-3.3125
X3.2975Y-3.9753
X3.3Y-2.05
X3.3Y-3.1538
X3.3Y-3.2285
X3.3Y-3.4079
X3.3Y-3.4649
X3.3Y-3.6875
X3.3052Y-3.8323
X3.3125Y-4.0875
X3.3139Y-3.9111
X3.3188Y-2.3687
X3.3264Y-4.0206
X3.3361Y-2.909
X3.3375Y-2.9875
X3.3375Y-3.35
X3.3385Y-3.3998
X3.341Y-1.8739
X3.35Y-2.275
X3.3549Y-3.9125
X3.3577Y-4.0854
X3.3625Y-3.475
X3.375Y-3.7
X3.375Y-3.8
X3.3875Y-2.1
X3.3875Y-2.2
X3.3875Y-2.3
X3.3875Y-2.4
X3.3875Y-2.5
X3.3875Y-2.6
X3.3875Y-2.8
X3.3875Y-2.9231
X3.3875Y-2.975
X3.3875Y-3.4
X3.3989Y-3.9875
X3.3989Y-3.9375
X3.4Y-4.2625
X3.4875Y-1.825
X3.5875Y-3.7
X3.5875Y-3.9709
X3.6125Y-3.5
X3.6375Y-1.875
X3.6375Y-2.1
X3.6375Y-2.2
X3.6375Y-2.3
X3.6375Y-2.4
X3.6875Y-3.575
X3.7625Y-4.2375
T3
X2.9661Y-4.502
X2.9661Y-4.6004
X3.0488Y-4.502
X3.0488Y-4.6004
X3.1512Y-4.502
X3.1512Y-4.6004
X3.2339Y-4.502
X3.2339Y-4.6004
T4
X2.9494Y-1.6
X2.9494Y-1.7031
X3.0478Y-1.6
X3.0478Y-1.7031
X3.1266Y-1.6
X3.1266Y-1.7031
X3.225Y-1.6
X3.225Y-1.7031
T5
X2.9138Y-3.9685
X3.0138Y-3.9685
X3.0606Y-1.8933
X3.1Y-2.0232
X3.1138Y-3.9685
X3.1394Y-1.8933
X3.2138Y-3.9685
X3.7Y-3.8
X3.7Y-3.9
X3.7Y-4.0
X3.7Y-4.1
X3.7Y-4.2
X3.7Y-4.3
T6
X3.1Y-4.75
T7
X2.8285Y-1.4933
X2.8285Y-1.7169
X3.3459Y-1.4933
X3.3459Y-1.7169
T8
X2.6Y-1.55
X2.6Y-4.5
X3.6Y-1.55
X3.6Y-4.5
T2
G00X2.508Y-3.9424
M15
G01X2.4844Y-3.9424
M16
G05
G00X2.508Y-4.2826
M15
G01X2.4844Y-4.2826
M16
G05
G00X2.6824Y-3.9424
M15
G01X2.6391Y-3.9424
M16
G05
G00X2.6824Y-4.2826
M15
G01X2.6391Y-4.2826
M16
G05
T0
M30
