%TF.GenerationSoftware,KiCad,Pcbnew,7.0.7*%
%TF.CreationDate,2023-09-26T18:26:53+08:00*%
%TF.ProjectId,usb3sun,75736233-7375-46e2-9e6b-696361645f70,A3*%
%TF.SameCoordinates,Original*%
%TF.FileFunction,Soldermask,Top*%
%TF.FilePolarity,Negative*%
%FSLAX46Y46*%
G04 Gerber Fmt 4.6, Leading zero omitted, Abs format (unit mm)*
G04 Created by KiCad (PCBNEW 7.0.7) date 2023-09-26 18:26:53*
%MOMM*%
%LPD*%
G01*
G04 APERTURE LIST*
G04 Aperture macros list*
%AMRoundRect*
0 Rectangle with rounded corners*
0 $1 Rounding radius*
0 $2 $3 $4 $5 $6 $7 $8 $9 X,Y pos of 4 corners*
0 Add a 4 corners polygon primitive as box body*
4,1,4,$2,$3,$4,$5,$6,$7,$8,$9,$2,$3,0*
0 Add four circle primitives for the rounded corners*
1,1,$1+$1,$2,$3*
1,1,$1+$1,$4,$5*
1,1,$1+$1,$6,$7*
1,1,$1+$1,$8,$9*
0 Add four rect primitives between the rounded corners*
20,1,$1+$1,$2,$3,$4,$5,0*
20,1,$1+$1,$4,$5,$6,$7,0*
20,1,$1+$1,$6,$7,$8,$9,0*
20,1,$1+$1,$8,$9,$2,$3,0*%
G04 Aperture macros list end*
%ADD10RoundRect,0.135000X-0.185000X0.135000X-0.185000X-0.135000X0.185000X-0.135000X0.185000X0.135000X0*%
%ADD11RoundRect,0.150000X0.512500X0.150000X-0.512500X0.150000X-0.512500X-0.150000X0.512500X-0.150000X0*%
%ADD12RoundRect,0.218750X-0.381250X0.218750X-0.381250X-0.218750X0.381250X-0.218750X0.381250X0.218750X0*%
%ADD13RoundRect,0.250000X0.412500X0.925000X-0.412500X0.925000X-0.412500X-0.925000X0.412500X-0.925000X0*%
%ADD14R,1.408000X1.408000*%
%ADD15C,1.408000*%
%ADD16C,3.200000*%
%ADD17RoundRect,0.150000X-0.512500X-0.150000X0.512500X-0.150000X0.512500X0.150000X-0.512500X0.150000X0*%
%ADD18R,1.500000X1.500000*%
%ADD19C,1.500000*%
%ADD20C,3.500000*%
%ADD21RoundRect,0.150000X0.475000X0.150000X-0.475000X0.150000X-0.475000X-0.150000X0.475000X-0.150000X0*%
%ADD22RoundRect,0.250000X0.375000X0.625000X-0.375000X0.625000X-0.375000X-0.625000X0.375000X-0.625000X0*%
%ADD23RoundRect,0.150000X-0.150000X0.475000X-0.150000X-0.475000X0.150000X-0.475000X0.150000X0.475000X0*%
%ADD24RoundRect,0.218750X-0.256250X0.218750X-0.256250X-0.218750X0.256250X-0.218750X0.256250X0.218750X0*%
%ADD25R,1.700000X1.700000*%
%ADD26O,1.700000X1.700000*%
%ADD27RoundRect,0.135000X-0.135000X-0.185000X0.135000X-0.185000X0.135000X0.185000X-0.135000X0.185000X0*%
%ADD28RoundRect,0.225000X0.250000X-0.225000X0.250000X0.225000X-0.250000X0.225000X-0.250000X-0.225000X0*%
%ADD29RoundRect,0.135000X0.185000X-0.135000X0.185000X0.135000X-0.185000X0.135000X-0.185000X-0.135000X0*%
%ADD30RoundRect,0.150000X-0.200000X0.150000X-0.200000X-0.150000X0.200000X-0.150000X0.200000X0.150000X0*%
%ADD31RoundRect,0.150000X-0.587500X-0.150000X0.587500X-0.150000X0.587500X0.150000X-0.587500X0.150000X0*%
%ADD32RoundRect,0.250000X-0.375000X-0.625000X0.375000X-0.625000X0.375000X0.625000X-0.375000X0.625000X0*%
%ADD33C,0.650000*%
%ADD34R,1.450000X0.600000*%
%ADD35R,1.450000X0.300000*%
%ADD36O,2.100000X1.000000*%
%ADD37O,1.600000X1.000000*%
%ADD38RoundRect,0.112500X0.112500X-0.187500X0.112500X0.187500X-0.112500X0.187500X-0.112500X-0.187500X0*%
%ADD39RoundRect,0.150000X-0.150000X0.587500X-0.150000X-0.587500X0.150000X-0.587500X0.150000X0.587500X0*%
%ADD40R,2.000000X2.000000*%
%ADD41RoundRect,0.150000X-0.150000X-0.200000X0.150000X-0.200000X0.150000X0.200000X-0.150000X0.200000X0*%
%ADD42RoundRect,0.150000X0.150000X0.200000X-0.150000X0.200000X-0.150000X-0.200000X0.150000X-0.200000X0*%
%ADD43RoundRect,0.135000X0.135000X0.185000X-0.135000X0.185000X-0.135000X-0.185000X0.135000X-0.185000X0*%
%ADD44RoundRect,0.225000X-0.250000X0.225000X-0.250000X-0.225000X0.250000X-0.225000X0.250000X0.225000X0*%
%ADD45RoundRect,0.150000X-0.475000X-0.150000X0.475000X-0.150000X0.475000X0.150000X-0.475000X0.150000X0*%
%ADD46R,1.000000X0.750000*%
%ADD47C,3.600000*%
%ADD48C,5.600000*%
G04 APERTURE END LIST*
D10*
%TO.C,R15*%
X70802500Y-107757500D03*
X70802500Y-108777500D03*
%TD*%
D11*
%TO.C,U4*%
X78925000Y-109852500D03*
X78925000Y-108902500D03*
X78925000Y-107952500D03*
X76650000Y-107952500D03*
X76650000Y-109852500D03*
%TD*%
D12*
%TO.C,FB1*%
X62547500Y-42117500D03*
X62547500Y-44242500D03*
%TD*%
D13*
%TO.C,C5*%
X65990000Y-55880000D03*
X62915000Y-55880000D03*
%TD*%
D14*
%TO.C,J2*%
X80040000Y-116850000D03*
D15*
X77440000Y-116850000D03*
X82140000Y-116850000D03*
X80040000Y-114350000D03*
X75340000Y-116850000D03*
X82140000Y-114350000D03*
X77440000Y-114350000D03*
X75340000Y-114350000D03*
D16*
X78740000Y-120650000D03*
%TD*%
D17*
%TO.C,U3*%
X78237500Y-104460000D03*
X78237500Y-105410000D03*
X78237500Y-106360000D03*
X80512500Y-106360000D03*
X80512500Y-104460000D03*
%TD*%
D10*
%TO.C,R3*%
X85090000Y-85532500D03*
X85090000Y-86552500D03*
%TD*%
D18*
%TO.C,J1*%
X81915000Y-40640000D03*
D19*
X79415000Y-40640000D03*
X77415000Y-40640000D03*
X74915000Y-40640000D03*
X81915000Y-43260000D03*
X79415000Y-43260000D03*
X77415000Y-43260000D03*
X74915000Y-43260000D03*
D20*
X84985000Y-37930000D03*
X71845000Y-37930000D03*
X84985000Y-43610000D03*
X71845000Y-43610000D03*
%TD*%
D21*
%TO.C,U6*%
X87217500Y-50480000D03*
X87217500Y-49530000D03*
X87217500Y-48580000D03*
X84867500Y-48580000D03*
X84867500Y-49530000D03*
X84867500Y-50480000D03*
%TD*%
D22*
%TO.C,F2*%
X70932500Y-52070000D03*
X68132500Y-52070000D03*
%TD*%
D23*
%TO.C,U7*%
X72705000Y-103695000D03*
X71755000Y-103695000D03*
X70805000Y-103695000D03*
X70805000Y-106045000D03*
X71755000Y-106045000D03*
X72705000Y-106045000D03*
%TD*%
D24*
%TO.C,D3*%
X83820000Y-108115000D03*
X83820000Y-109690000D03*
%TD*%
D25*
%TO.C,J3*%
X93980000Y-109220000D03*
D26*
X93980000Y-106680000D03*
X93980000Y-104140000D03*
X93980000Y-101600000D03*
X93980000Y-99060000D03*
X93980000Y-96520000D03*
%TD*%
D27*
%TO.C,R16*%
X74703750Y-58896250D03*
X75723750Y-58896250D03*
%TD*%
D28*
%TO.C,C3*%
X82232500Y-109677500D03*
X82232500Y-108127500D03*
%TD*%
D29*
%TO.C,R2*%
X92392500Y-90045000D03*
X92392500Y-89025000D03*
%TD*%
D30*
%TO.C,D1*%
X80645000Y-109667500D03*
X80645000Y-108267500D03*
%TD*%
D31*
%TO.C,Q4*%
X86692500Y-95570000D03*
X86692500Y-97470000D03*
X88567500Y-96520000D03*
%TD*%
D28*
%TO.C,C4*%
X74930000Y-109677500D03*
X74930000Y-108127500D03*
%TD*%
D10*
%TO.C,R7*%
X85090000Y-96010000D03*
X85090000Y-97030000D03*
%TD*%
D31*
%TO.C,Q1*%
X86692500Y-88585000D03*
X86692500Y-90485000D03*
X88567500Y-89535000D03*
%TD*%
D29*
%TO.C,R14*%
X70802500Y-102110000D03*
X70802500Y-101090000D03*
%TD*%
%TO.C,R6*%
X92392500Y-74170000D03*
X92392500Y-73150000D03*
%TD*%
D31*
%TO.C,Q2*%
X86692500Y-85092500D03*
X86692500Y-86992500D03*
X88567500Y-86042500D03*
%TD*%
D32*
%TO.C,F3*%
X84007500Y-105727500D03*
X86807500Y-105727500D03*
%TD*%
D10*
%TO.C,R12*%
X78740000Y-60132500D03*
X78740000Y-61152500D03*
%TD*%
D33*
%TO.C,J4*%
X67052500Y-101567500D03*
X67052500Y-107347500D03*
D34*
X68497500Y-101207500D03*
X68497500Y-102007500D03*
D35*
X68497500Y-103207500D03*
X68497500Y-104207500D03*
X68497500Y-104707500D03*
X68497500Y-105707500D03*
D34*
X68497500Y-106907500D03*
X68497500Y-107707500D03*
X68497500Y-107707500D03*
X68497500Y-106907500D03*
D35*
X68497500Y-106207500D03*
X68497500Y-105207500D03*
X68497500Y-103707500D03*
X68497500Y-102707500D03*
D34*
X68497500Y-102007500D03*
X68497500Y-101207500D03*
D36*
X67582500Y-100137500D03*
D37*
X63402500Y-100137500D03*
D36*
X67582500Y-108777500D03*
D37*
X63402500Y-108777500D03*
%TD*%
D38*
%TO.C,D4*%
X69850000Y-112590000D03*
X69850000Y-110490000D03*
%TD*%
D10*
%TO.C,R5*%
X85090000Y-73150000D03*
X85090000Y-74170000D03*
%TD*%
D16*
%TO.C,H6*%
X81280000Y-71120000D03*
%TD*%
D29*
%TO.C,R4*%
X92392500Y-86552500D03*
X92392500Y-85532500D03*
%TD*%
D31*
%TO.C,Q3*%
X86692500Y-72710000D03*
X86692500Y-74610000D03*
X88567500Y-73660000D03*
%TD*%
D39*
%TO.C,Q6*%
X77467500Y-60657500D03*
X75567500Y-60657500D03*
X76517500Y-62532500D03*
%TD*%
D40*
%TO.C,BZ1*%
X63175000Y-60000000D03*
X63175000Y-67000000D03*
X70175000Y-67000000D03*
X70175000Y-60000000D03*
%TD*%
D41*
%TO.C,D6*%
X76265000Y-57467500D03*
X74865000Y-57467500D03*
%TD*%
D42*
%TO.C,D5*%
X76736252Y-58896250D03*
X78136252Y-58896250D03*
%TD*%
D43*
%TO.C,R10*%
X89727500Y-61595000D03*
X88707500Y-61595000D03*
%TD*%
D44*
%TO.C,C1*%
X76517500Y-104635000D03*
X76517500Y-106185000D03*
%TD*%
D27*
%TO.C,R9*%
X87120000Y-57785000D03*
X88140000Y-57785000D03*
%TD*%
%TO.C,R8*%
X87120000Y-56515000D03*
X88140000Y-56515000D03*
%TD*%
D45*
%TO.C,U5*%
X89947500Y-48580000D03*
X89947500Y-49530000D03*
X89947500Y-50480000D03*
X92297500Y-50480000D03*
X92297500Y-49530000D03*
X92297500Y-48580000D03*
%TD*%
D43*
%TO.C,R17*%
X78297502Y-57467500D03*
X77277502Y-57467500D03*
%TD*%
D10*
%TO.C,R13*%
X74295000Y-60132500D03*
X74295000Y-61152500D03*
%TD*%
D44*
%TO.C,C2*%
X82232501Y-104635000D03*
X82232501Y-106185000D03*
%TD*%
D24*
%TO.C,D2*%
X93662500Y-92240000D03*
X93662500Y-93815000D03*
%TD*%
D25*
%TO.C,U2*%
X81630000Y-100800000D03*
D26*
X79090000Y-100800000D03*
X76550000Y-100800000D03*
X74010000Y-100800000D03*
%TD*%
D39*
%TO.C,Q5*%
X81912500Y-60657500D03*
X80012500Y-60657500D03*
X80962500Y-62532500D03*
%TD*%
D46*
%TO.C,SW2*%
X86535000Y-76865000D03*
X92535000Y-76865000D03*
X86535000Y-80615000D03*
X92535000Y-80615000D03*
%TD*%
D16*
%TO.C,H5*%
X76200000Y-71120000D03*
%TD*%
D46*
%TO.C,SW1*%
X68722500Y-74265000D03*
X62722500Y-74265000D03*
X68722500Y-70515000D03*
X62722500Y-70515000D03*
%TD*%
D43*
%TO.C,R11*%
X89727501Y-62865000D03*
X88707501Y-62865000D03*
%TD*%
D22*
%TO.C,F1*%
X70932500Y-49530000D03*
X68132500Y-49530000D03*
%TD*%
D10*
%TO.C,R1*%
X85090000Y-89025000D03*
X85090000Y-90045000D03*
%TD*%
D47*
%TO.C,H4*%
X91440000Y-39370000D03*
D48*
X91440000Y-39370000D03*
%TD*%
D47*
%TO.C,H3*%
X91440000Y-114300000D03*
D48*
X91440000Y-114300000D03*
%TD*%
D19*
%TO.C,U1*%
X78740000Y-51390000D03*
X77740000Y-48090000D03*
X79740000Y-48090000D03*
%TD*%
D47*
%TO.C,H1*%
X66040000Y-39370000D03*
D48*
X66040000Y-39370000D03*
%TD*%
D47*
%TO.C,H2*%
X66040000Y-114300000D03*
D48*
X66040000Y-114300000D03*
%TD*%
M02*
