%TF.GenerationSoftware,KiCad,Pcbnew,7.0.7*%
%TF.CreationDate,2023-09-26T18:23:26+08:00*%
%TF.ProjectId,usb3sun,75736233-7375-46e2-9e6b-696361645f70,A3*%
%TF.SameCoordinates,Original*%
%TF.FileFunction,Other,Comment*%
%FSLAX46Y46*%
G04 Gerber Fmt 4.6, Leading zero omitted, Abs format (unit mm)*
G04 Created by KiCad (PCBNEW 7.0.7) date 2023-09-26 18:23:26*
%MOMM*%
%LPD*%
G01*
G04 APERTURE LIST*
%ADD10C,0.150000*%
%ADD11C,0.200000*%
%ADD12C,0.300000*%
%ADD13C,0.100000*%
G04 APERTURE END LIST*
D10*
X58516076Y-58801552D02*
X58198576Y-58166551D01*
D11*
X58516082Y-58801540D02*
G75*
G03*
X53975001Y-60007501I-1587482J-3175060D01*
G01*
D10*
X58516076Y-58801552D02*
X57881076Y-59119051D01*
D12*
X52935476Y-120040611D02*
X54864047Y-121326325D01*
X54364047Y-119540611D02*
X54435476Y-119469182D01*
X54435476Y-119469182D02*
X54506904Y-119540611D01*
X54506904Y-119540611D02*
X54435476Y-119612039D01*
X54435476Y-119612039D02*
X54364047Y-119540611D01*
X54364047Y-119540611D02*
X54506904Y-119540611D01*
X53935476Y-119540611D02*
X53078333Y-119612039D01*
X53078333Y-119612039D02*
X53006904Y-119540611D01*
X53006904Y-119540611D02*
X53078333Y-119469182D01*
X53078333Y-119469182D02*
X53935476Y-119540611D01*
X53935476Y-119540611D02*
X53006904Y-119540611D01*
X52864047Y-119326325D02*
X54792618Y-118040610D01*
X54506904Y-116040611D02*
X53721190Y-116040611D01*
X53721190Y-116040611D02*
X53578333Y-116112039D01*
X53578333Y-116112039D02*
X53506904Y-116254896D01*
X53506904Y-116254896D02*
X53506904Y-116540611D01*
X53506904Y-116540611D02*
X53578333Y-116683468D01*
X54435476Y-116040611D02*
X54506904Y-116183468D01*
X54506904Y-116183468D02*
X54506904Y-116540611D01*
X54506904Y-116540611D02*
X54435476Y-116683468D01*
X54435476Y-116683468D02*
X54292618Y-116754896D01*
X54292618Y-116754896D02*
X54149761Y-116754896D01*
X54149761Y-116754896D02*
X54006904Y-116683468D01*
X54006904Y-116683468D02*
X53935476Y-116540611D01*
X53935476Y-116540611D02*
X53935476Y-116183468D01*
X53935476Y-116183468D02*
X53864047Y-116040611D01*
X54506904Y-115112039D02*
X54435476Y-115254896D01*
X54435476Y-115254896D02*
X54292618Y-115326325D01*
X54292618Y-115326325D02*
X53006904Y-115326325D01*
X53506904Y-114683468D02*
X54506904Y-114397754D01*
X54506904Y-114397754D02*
X53792618Y-114112039D01*
X53792618Y-114112039D02*
X54506904Y-113826325D01*
X54506904Y-113826325D02*
X53506904Y-113540611D01*
X54506904Y-112326325D02*
X53721190Y-112326325D01*
X53721190Y-112326325D02*
X53578333Y-112397753D01*
X53578333Y-112397753D02*
X53506904Y-112540610D01*
X53506904Y-112540610D02*
X53506904Y-112826325D01*
X53506904Y-112826325D02*
X53578333Y-112969182D01*
X54435476Y-112326325D02*
X54506904Y-112469182D01*
X54506904Y-112469182D02*
X54506904Y-112826325D01*
X54506904Y-112826325D02*
X54435476Y-112969182D01*
X54435476Y-112969182D02*
X54292618Y-113040610D01*
X54292618Y-113040610D02*
X54149761Y-113040610D01*
X54149761Y-113040610D02*
X54006904Y-112969182D01*
X54006904Y-112969182D02*
X53935476Y-112826325D01*
X53935476Y-112826325D02*
X53935476Y-112469182D01*
X53935476Y-112469182D02*
X53864047Y-112326325D01*
X53506904Y-111754896D02*
X54506904Y-111397753D01*
X53506904Y-111040610D02*
X54506904Y-111397753D01*
X54506904Y-111397753D02*
X54864047Y-111540610D01*
X54864047Y-111540610D02*
X54935476Y-111612039D01*
X54935476Y-111612039D02*
X55006904Y-111754896D01*
X54435476Y-110540610D02*
X54506904Y-110397753D01*
X54506904Y-110397753D02*
X54506904Y-110112039D01*
X54506904Y-110112039D02*
X54435476Y-109969182D01*
X54435476Y-109969182D02*
X54292618Y-109897753D01*
X54292618Y-109897753D02*
X54221190Y-109897753D01*
X54221190Y-109897753D02*
X54078333Y-109969182D01*
X54078333Y-109969182D02*
X54006904Y-110112039D01*
X54006904Y-110112039D02*
X54006904Y-110326325D01*
X54006904Y-110326325D02*
X53935476Y-110469182D01*
X53935476Y-110469182D02*
X53792618Y-110540610D01*
X53792618Y-110540610D02*
X53721190Y-110540610D01*
X53721190Y-110540610D02*
X53578333Y-110469182D01*
X53578333Y-110469182D02*
X53506904Y-110326325D01*
X53506904Y-110326325D02*
X53506904Y-110112039D01*
X53506904Y-110112039D02*
X53578333Y-109969182D01*
X53506904Y-108112039D02*
X55006904Y-108112039D01*
X53578333Y-108112039D02*
X53506904Y-107969182D01*
X53506904Y-107969182D02*
X53506904Y-107683467D01*
X53506904Y-107683467D02*
X53578333Y-107540610D01*
X53578333Y-107540610D02*
X53649761Y-107469182D01*
X53649761Y-107469182D02*
X53792618Y-107397753D01*
X53792618Y-107397753D02*
X54221190Y-107397753D01*
X54221190Y-107397753D02*
X54364047Y-107469182D01*
X54364047Y-107469182D02*
X54435476Y-107540610D01*
X54435476Y-107540610D02*
X54506904Y-107683467D01*
X54506904Y-107683467D02*
X54506904Y-107969182D01*
X54506904Y-107969182D02*
X54435476Y-108112039D01*
X54506904Y-106754896D02*
X53506904Y-106754896D01*
X53792618Y-106754896D02*
X53649761Y-106683467D01*
X53649761Y-106683467D02*
X53578333Y-106612039D01*
X53578333Y-106612039D02*
X53506904Y-106469181D01*
X53506904Y-106469181D02*
X53506904Y-106326324D01*
X54435476Y-105254896D02*
X54506904Y-105397753D01*
X54506904Y-105397753D02*
X54506904Y-105683468D01*
X54506904Y-105683468D02*
X54435476Y-105826325D01*
X54435476Y-105826325D02*
X54292618Y-105897753D01*
X54292618Y-105897753D02*
X53721190Y-105897753D01*
X53721190Y-105897753D02*
X53578333Y-105826325D01*
X53578333Y-105826325D02*
X53506904Y-105683468D01*
X53506904Y-105683468D02*
X53506904Y-105397753D01*
X53506904Y-105397753D02*
X53578333Y-105254896D01*
X53578333Y-105254896D02*
X53721190Y-105183468D01*
X53721190Y-105183468D02*
X53864047Y-105183468D01*
X53864047Y-105183468D02*
X54006904Y-105897753D01*
X54435476Y-104612039D02*
X54506904Y-104469182D01*
X54506904Y-104469182D02*
X54506904Y-104183468D01*
X54506904Y-104183468D02*
X54435476Y-104040611D01*
X54435476Y-104040611D02*
X54292618Y-103969182D01*
X54292618Y-103969182D02*
X54221190Y-103969182D01*
X54221190Y-103969182D02*
X54078333Y-104040611D01*
X54078333Y-104040611D02*
X54006904Y-104183468D01*
X54006904Y-104183468D02*
X54006904Y-104397754D01*
X54006904Y-104397754D02*
X53935476Y-104540611D01*
X53935476Y-104540611D02*
X53792618Y-104612039D01*
X53792618Y-104612039D02*
X53721190Y-104612039D01*
X53721190Y-104612039D02*
X53578333Y-104540611D01*
X53578333Y-104540611D02*
X53506904Y-104397754D01*
X53506904Y-104397754D02*
X53506904Y-104183468D01*
X53506904Y-104183468D02*
X53578333Y-104040611D01*
X54435476Y-103397753D02*
X54506904Y-103254896D01*
X54506904Y-103254896D02*
X54506904Y-102969182D01*
X54506904Y-102969182D02*
X54435476Y-102826325D01*
X54435476Y-102826325D02*
X54292618Y-102754896D01*
X54292618Y-102754896D02*
X54221190Y-102754896D01*
X54221190Y-102754896D02*
X54078333Y-102826325D01*
X54078333Y-102826325D02*
X54006904Y-102969182D01*
X54006904Y-102969182D02*
X54006904Y-103183468D01*
X54006904Y-103183468D02*
X53935476Y-103326325D01*
X53935476Y-103326325D02*
X53792618Y-103397753D01*
X53792618Y-103397753D02*
X53721190Y-103397753D01*
X53721190Y-103397753D02*
X53578333Y-103326325D01*
X53578333Y-103326325D02*
X53506904Y-103183468D01*
X53506904Y-103183468D02*
X53506904Y-102969182D01*
X53506904Y-102969182D02*
X53578333Y-102826325D01*
X53721190Y-100469182D02*
X53792618Y-100254896D01*
X53792618Y-100254896D02*
X53864047Y-100183467D01*
X53864047Y-100183467D02*
X54006904Y-100112039D01*
X54006904Y-100112039D02*
X54221190Y-100112039D01*
X54221190Y-100112039D02*
X54364047Y-100183467D01*
X54364047Y-100183467D02*
X54435476Y-100254896D01*
X54435476Y-100254896D02*
X54506904Y-100397753D01*
X54506904Y-100397753D02*
X54506904Y-100969182D01*
X54506904Y-100969182D02*
X53006904Y-100969182D01*
X53006904Y-100969182D02*
X53006904Y-100469182D01*
X53006904Y-100469182D02*
X53078333Y-100326325D01*
X53078333Y-100326325D02*
X53149761Y-100254896D01*
X53149761Y-100254896D02*
X53292618Y-100183467D01*
X53292618Y-100183467D02*
X53435476Y-100183467D01*
X53435476Y-100183467D02*
X53578333Y-100254896D01*
X53578333Y-100254896D02*
X53649761Y-100326325D01*
X53649761Y-100326325D02*
X53721190Y-100469182D01*
X53721190Y-100469182D02*
X53721190Y-100969182D01*
X53506904Y-98540610D02*
X53506904Y-97969182D01*
X53006904Y-98326325D02*
X54292618Y-98326325D01*
X54292618Y-98326325D02*
X54435476Y-98254896D01*
X54435476Y-98254896D02*
X54506904Y-98112039D01*
X54506904Y-98112039D02*
X54506904Y-97969182D01*
X54506904Y-97254896D02*
X54435476Y-97397753D01*
X54435476Y-97397753D02*
X54364047Y-97469182D01*
X54364047Y-97469182D02*
X54221190Y-97540610D01*
X54221190Y-97540610D02*
X53792618Y-97540610D01*
X53792618Y-97540610D02*
X53649761Y-97469182D01*
X53649761Y-97469182D02*
X53578333Y-97397753D01*
X53578333Y-97397753D02*
X53506904Y-97254896D01*
X53506904Y-97254896D02*
X53506904Y-97040610D01*
X53506904Y-97040610D02*
X53578333Y-96897753D01*
X53578333Y-96897753D02*
X53649761Y-96826325D01*
X53649761Y-96826325D02*
X53792618Y-96754896D01*
X53792618Y-96754896D02*
X54221190Y-96754896D01*
X54221190Y-96754896D02*
X54364047Y-96826325D01*
X54364047Y-96826325D02*
X54435476Y-96897753D01*
X54435476Y-96897753D02*
X54506904Y-97040610D01*
X54506904Y-97040610D02*
X54506904Y-97254896D01*
X53506904Y-95183467D02*
X53506904Y-94612039D01*
X54506904Y-94969182D02*
X53221190Y-94969182D01*
X53221190Y-94969182D02*
X53078333Y-94897753D01*
X53078333Y-94897753D02*
X53006904Y-94754896D01*
X53006904Y-94754896D02*
X53006904Y-94612039D01*
X54506904Y-94112039D02*
X53506904Y-94112039D01*
X53006904Y-94112039D02*
X53078333Y-94183467D01*
X53078333Y-94183467D02*
X53149761Y-94112039D01*
X53149761Y-94112039D02*
X53078333Y-94040610D01*
X53078333Y-94040610D02*
X53006904Y-94112039D01*
X53006904Y-94112039D02*
X53149761Y-94112039D01*
X54506904Y-93183467D02*
X54435476Y-93326324D01*
X54435476Y-93326324D02*
X54292618Y-93397753D01*
X54292618Y-93397753D02*
X53006904Y-93397753D01*
X54506904Y-92397753D02*
X54435476Y-92540610D01*
X54435476Y-92540610D02*
X54292618Y-92612039D01*
X54292618Y-92612039D02*
X53006904Y-92612039D01*
X54506904Y-90040611D02*
X53721190Y-90040611D01*
X53721190Y-90040611D02*
X53578333Y-90112039D01*
X53578333Y-90112039D02*
X53506904Y-90254896D01*
X53506904Y-90254896D02*
X53506904Y-90540611D01*
X53506904Y-90540611D02*
X53578333Y-90683468D01*
X54435476Y-90040611D02*
X54506904Y-90183468D01*
X54506904Y-90183468D02*
X54506904Y-90540611D01*
X54506904Y-90540611D02*
X54435476Y-90683468D01*
X54435476Y-90683468D02*
X54292618Y-90754896D01*
X54292618Y-90754896D02*
X54149761Y-90754896D01*
X54149761Y-90754896D02*
X54006904Y-90683468D01*
X54006904Y-90683468D02*
X53935476Y-90540611D01*
X53935476Y-90540611D02*
X53935476Y-90183468D01*
X53935476Y-90183468D02*
X53864047Y-90040611D01*
X53506904Y-89540610D02*
X53506904Y-88969182D01*
X54506904Y-89326325D02*
X53221190Y-89326325D01*
X53221190Y-89326325D02*
X53078333Y-89254896D01*
X53078333Y-89254896D02*
X53006904Y-89112039D01*
X53006904Y-89112039D02*
X53006904Y-88969182D01*
X53506904Y-88683467D02*
X53506904Y-88112039D01*
X53006904Y-88469182D02*
X54292618Y-88469182D01*
X54292618Y-88469182D02*
X54435476Y-88397753D01*
X54435476Y-88397753D02*
X54506904Y-88254896D01*
X54506904Y-88254896D02*
X54506904Y-88112039D01*
X54435476Y-87040610D02*
X54506904Y-87183467D01*
X54506904Y-87183467D02*
X54506904Y-87469182D01*
X54506904Y-87469182D02*
X54435476Y-87612039D01*
X54435476Y-87612039D02*
X54292618Y-87683467D01*
X54292618Y-87683467D02*
X53721190Y-87683467D01*
X53721190Y-87683467D02*
X53578333Y-87612039D01*
X53578333Y-87612039D02*
X53506904Y-87469182D01*
X53506904Y-87469182D02*
X53506904Y-87183467D01*
X53506904Y-87183467D02*
X53578333Y-87040610D01*
X53578333Y-87040610D02*
X53721190Y-86969182D01*
X53721190Y-86969182D02*
X53864047Y-86969182D01*
X53864047Y-86969182D02*
X54006904Y-87683467D01*
X54506904Y-86326325D02*
X53506904Y-86326325D01*
X53792618Y-86326325D02*
X53649761Y-86254896D01*
X53649761Y-86254896D02*
X53578333Y-86183468D01*
X53578333Y-86183468D02*
X53506904Y-86040610D01*
X53506904Y-86040610D02*
X53506904Y-85897753D01*
X54506904Y-83612040D02*
X53721190Y-83612040D01*
X53721190Y-83612040D02*
X53578333Y-83683468D01*
X53578333Y-83683468D02*
X53506904Y-83826325D01*
X53506904Y-83826325D02*
X53506904Y-84112040D01*
X53506904Y-84112040D02*
X53578333Y-84254897D01*
X54435476Y-83612040D02*
X54506904Y-83754897D01*
X54506904Y-83754897D02*
X54506904Y-84112040D01*
X54506904Y-84112040D02*
X54435476Y-84254897D01*
X54435476Y-84254897D02*
X54292618Y-84326325D01*
X54292618Y-84326325D02*
X54149761Y-84326325D01*
X54149761Y-84326325D02*
X54006904Y-84254897D01*
X54006904Y-84254897D02*
X53935476Y-84112040D01*
X53935476Y-84112040D02*
X53935476Y-83754897D01*
X53935476Y-83754897D02*
X53864047Y-83612040D01*
X54506904Y-82254897D02*
X53006904Y-82254897D01*
X54435476Y-82254897D02*
X54506904Y-82397754D01*
X54506904Y-82397754D02*
X54506904Y-82683468D01*
X54506904Y-82683468D02*
X54435476Y-82826325D01*
X54435476Y-82826325D02*
X54364047Y-82897754D01*
X54364047Y-82897754D02*
X54221190Y-82969182D01*
X54221190Y-82969182D02*
X53792618Y-82969182D01*
X53792618Y-82969182D02*
X53649761Y-82897754D01*
X53649761Y-82897754D02*
X53578333Y-82826325D01*
X53578333Y-82826325D02*
X53506904Y-82683468D01*
X53506904Y-82683468D02*
X53506904Y-82397754D01*
X53506904Y-82397754D02*
X53578333Y-82254897D01*
X54506904Y-80897754D02*
X53006904Y-80897754D01*
X54435476Y-80897754D02*
X54506904Y-81040611D01*
X54506904Y-81040611D02*
X54506904Y-81326325D01*
X54506904Y-81326325D02*
X54435476Y-81469182D01*
X54435476Y-81469182D02*
X54364047Y-81540611D01*
X54364047Y-81540611D02*
X54221190Y-81612039D01*
X54221190Y-81612039D02*
X53792618Y-81612039D01*
X53792618Y-81612039D02*
X53649761Y-81540611D01*
X53649761Y-81540611D02*
X53578333Y-81469182D01*
X53578333Y-81469182D02*
X53506904Y-81326325D01*
X53506904Y-81326325D02*
X53506904Y-81040611D01*
X53506904Y-81040611D02*
X53578333Y-80897754D01*
X54506904Y-80183468D02*
X53506904Y-80183468D01*
X53006904Y-80183468D02*
X53078333Y-80254896D01*
X53078333Y-80254896D02*
X53149761Y-80183468D01*
X53149761Y-80183468D02*
X53078333Y-80112039D01*
X53078333Y-80112039D02*
X53006904Y-80183468D01*
X53006904Y-80183468D02*
X53149761Y-80183468D01*
X53506904Y-79469182D02*
X54506904Y-79469182D01*
X53649761Y-79469182D02*
X53578333Y-79397753D01*
X53578333Y-79397753D02*
X53506904Y-79254896D01*
X53506904Y-79254896D02*
X53506904Y-79040610D01*
X53506904Y-79040610D02*
X53578333Y-78897753D01*
X53578333Y-78897753D02*
X53721190Y-78826325D01*
X53721190Y-78826325D02*
X54506904Y-78826325D01*
X53506904Y-77469182D02*
X54721190Y-77469182D01*
X54721190Y-77469182D02*
X54864047Y-77540610D01*
X54864047Y-77540610D02*
X54935476Y-77612039D01*
X54935476Y-77612039D02*
X55006904Y-77754896D01*
X55006904Y-77754896D02*
X55006904Y-77969182D01*
X55006904Y-77969182D02*
X54935476Y-78112039D01*
X54435476Y-77469182D02*
X54506904Y-77612039D01*
X54506904Y-77612039D02*
X54506904Y-77897753D01*
X54506904Y-77897753D02*
X54435476Y-78040610D01*
X54435476Y-78040610D02*
X54364047Y-78112039D01*
X54364047Y-78112039D02*
X54221190Y-78183467D01*
X54221190Y-78183467D02*
X53792618Y-78183467D01*
X53792618Y-78183467D02*
X53649761Y-78112039D01*
X53649761Y-78112039D02*
X53578333Y-78040610D01*
X53578333Y-78040610D02*
X53506904Y-77897753D01*
X53506904Y-77897753D02*
X53506904Y-77612039D01*
X53506904Y-77612039D02*
X53578333Y-77469182D01*
X53506904Y-75826324D02*
X53506904Y-75254896D01*
X53006904Y-75612039D02*
X54292618Y-75612039D01*
X54292618Y-75612039D02*
X54435476Y-75540610D01*
X54435476Y-75540610D02*
X54506904Y-75397753D01*
X54506904Y-75397753D02*
X54506904Y-75254896D01*
X54435476Y-74183467D02*
X54506904Y-74326324D01*
X54506904Y-74326324D02*
X54506904Y-74612039D01*
X54506904Y-74612039D02*
X54435476Y-74754896D01*
X54435476Y-74754896D02*
X54292618Y-74826324D01*
X54292618Y-74826324D02*
X53721190Y-74826324D01*
X53721190Y-74826324D02*
X53578333Y-74754896D01*
X53578333Y-74754896D02*
X53506904Y-74612039D01*
X53506904Y-74612039D02*
X53506904Y-74326324D01*
X53506904Y-74326324D02*
X53578333Y-74183467D01*
X53578333Y-74183467D02*
X53721190Y-74112039D01*
X53721190Y-74112039D02*
X53864047Y-74112039D01*
X53864047Y-74112039D02*
X54006904Y-74826324D01*
X54506904Y-72826325D02*
X53721190Y-72826325D01*
X53721190Y-72826325D02*
X53578333Y-72897753D01*
X53578333Y-72897753D02*
X53506904Y-73040610D01*
X53506904Y-73040610D02*
X53506904Y-73326325D01*
X53506904Y-73326325D02*
X53578333Y-73469182D01*
X54435476Y-72826325D02*
X54506904Y-72969182D01*
X54506904Y-72969182D02*
X54506904Y-73326325D01*
X54506904Y-73326325D02*
X54435476Y-73469182D01*
X54435476Y-73469182D02*
X54292618Y-73540610D01*
X54292618Y-73540610D02*
X54149761Y-73540610D01*
X54149761Y-73540610D02*
X54006904Y-73469182D01*
X54006904Y-73469182D02*
X53935476Y-73326325D01*
X53935476Y-73326325D02*
X53935476Y-72969182D01*
X53935476Y-72969182D02*
X53864047Y-72826325D01*
X54506904Y-72112039D02*
X53506904Y-72112039D01*
X53792618Y-72112039D02*
X53649761Y-72040610D01*
X53649761Y-72040610D02*
X53578333Y-71969182D01*
X53578333Y-71969182D02*
X53506904Y-71826324D01*
X53506904Y-71826324D02*
X53506904Y-71683467D01*
X54506904Y-70540611D02*
X53006904Y-70540611D01*
X54435476Y-70540611D02*
X54506904Y-70683468D01*
X54506904Y-70683468D02*
X54506904Y-70969182D01*
X54506904Y-70969182D02*
X54435476Y-71112039D01*
X54435476Y-71112039D02*
X54364047Y-71183468D01*
X54364047Y-71183468D02*
X54221190Y-71254896D01*
X54221190Y-71254896D02*
X53792618Y-71254896D01*
X53792618Y-71254896D02*
X53649761Y-71183468D01*
X53649761Y-71183468D02*
X53578333Y-71112039D01*
X53578333Y-71112039D02*
X53506904Y-70969182D01*
X53506904Y-70969182D02*
X53506904Y-70683468D01*
X53506904Y-70683468D02*
X53578333Y-70540611D01*
X54506904Y-69826325D02*
X53506904Y-69826325D01*
X53792618Y-69826325D02*
X53649761Y-69754896D01*
X53649761Y-69754896D02*
X53578333Y-69683468D01*
X53578333Y-69683468D02*
X53506904Y-69540610D01*
X53506904Y-69540610D02*
X53506904Y-69397753D01*
X54506904Y-68683468D02*
X54435476Y-68826325D01*
X54435476Y-68826325D02*
X54364047Y-68897754D01*
X54364047Y-68897754D02*
X54221190Y-68969182D01*
X54221190Y-68969182D02*
X53792618Y-68969182D01*
X53792618Y-68969182D02*
X53649761Y-68897754D01*
X53649761Y-68897754D02*
X53578333Y-68826325D01*
X53578333Y-68826325D02*
X53506904Y-68683468D01*
X53506904Y-68683468D02*
X53506904Y-68469182D01*
X53506904Y-68469182D02*
X53578333Y-68326325D01*
X53578333Y-68326325D02*
X53649761Y-68254897D01*
X53649761Y-68254897D02*
X53792618Y-68183468D01*
X53792618Y-68183468D02*
X54221190Y-68183468D01*
X54221190Y-68183468D02*
X54364047Y-68254897D01*
X54364047Y-68254897D02*
X54435476Y-68326325D01*
X54435476Y-68326325D02*
X54506904Y-68469182D01*
X54506904Y-68469182D02*
X54506904Y-68683468D01*
X53506904Y-67540611D02*
X55006904Y-67540611D01*
X53578333Y-67540611D02*
X53506904Y-67397754D01*
X53506904Y-67397754D02*
X53506904Y-67112039D01*
X53506904Y-67112039D02*
X53578333Y-66969182D01*
X53578333Y-66969182D02*
X53649761Y-66897754D01*
X53649761Y-66897754D02*
X53792618Y-66826325D01*
X53792618Y-66826325D02*
X54221190Y-66826325D01*
X54221190Y-66826325D02*
X54364047Y-66897754D01*
X54364047Y-66897754D02*
X54435476Y-66969182D01*
X54435476Y-66969182D02*
X54506904Y-67112039D01*
X54506904Y-67112039D02*
X54506904Y-67397754D01*
X54506904Y-67397754D02*
X54435476Y-67540611D01*
X54435476Y-66254896D02*
X54506904Y-66112039D01*
X54506904Y-66112039D02*
X54506904Y-65826325D01*
X54506904Y-65826325D02*
X54435476Y-65683468D01*
X54435476Y-65683468D02*
X54292618Y-65612039D01*
X54292618Y-65612039D02*
X54221190Y-65612039D01*
X54221190Y-65612039D02*
X54078333Y-65683468D01*
X54078333Y-65683468D02*
X54006904Y-65826325D01*
X54006904Y-65826325D02*
X54006904Y-66040611D01*
X54006904Y-66040611D02*
X53935476Y-66183468D01*
X53935476Y-66183468D02*
X53792618Y-66254896D01*
X53792618Y-66254896D02*
X53721190Y-66254896D01*
X53721190Y-66254896D02*
X53578333Y-66183468D01*
X53578333Y-66183468D02*
X53506904Y-66040611D01*
X53506904Y-66040611D02*
X53506904Y-65826325D01*
X53506904Y-65826325D02*
X53578333Y-65683468D01*
X52935476Y-62754896D02*
X54864047Y-64040610D01*
X54364047Y-62254896D02*
X54435476Y-62183467D01*
X54435476Y-62183467D02*
X54506904Y-62254896D01*
X54506904Y-62254896D02*
X54435476Y-62326324D01*
X54435476Y-62326324D02*
X54364047Y-62254896D01*
X54364047Y-62254896D02*
X54506904Y-62254896D01*
X53935476Y-62254896D02*
X53078333Y-62326324D01*
X53078333Y-62326324D02*
X53006904Y-62254896D01*
X53006904Y-62254896D02*
X53078333Y-62183467D01*
X53078333Y-62183467D02*
X53935476Y-62254896D01*
X53935476Y-62254896D02*
X53006904Y-62254896D01*
X52864047Y-62040610D02*
X54792618Y-60754895D01*
D13*
%TO.C,J2*%
X78881421Y-119650000D02*
G75*
G03*
X78881421Y-119650000I-141421J0D01*
G01*
D10*
%TO.C,H6*%
X84080000Y-71120000D02*
G75*
G03*
X84080000Y-71120000I-2800000J0D01*
G01*
%TO.C,H5*%
X79000000Y-71120000D02*
G75*
G03*
X79000000Y-71120000I-2800000J0D01*
G01*
%TO.C,H4*%
X94240000Y-39370000D02*
G75*
G03*
X94240000Y-39370000I-2800000J0D01*
G01*
%TO.C,H3*%
X94240000Y-114300000D02*
G75*
G03*
X94240000Y-114300000I-2800000J0D01*
G01*
%TO.C,H1*%
X68840000Y-39370000D02*
G75*
G03*
X68840000Y-39370000I-2800000J0D01*
G01*
%TO.C,H2*%
X68840000Y-114300000D02*
G75*
G03*
X68840000Y-114300000I-2800000J0D01*
G01*
%TD*%
M02*
