%TF.GenerationSoftware,KiCad,Pcbnew,7.0.9*%
%TF.CreationDate,2024-03-02T17:11:19+08:00*%
%TF.ProjectId,usb3sun,75736233-7375-46e2-9e6b-696361645f70,B0*%
%TF.SameCoordinates,Original*%
%TF.FileFunction,Soldermask,Bot*%
%TF.FilePolarity,Negative*%
%FSLAX46Y46*%
G04 Gerber Fmt 4.6, Leading zero omitted, Abs format (unit mm)*
G04 Created by KiCad (PCBNEW 7.0.9) date 2024-03-02 17:11:19*
%MOMM*%
%LPD*%
G01*
G04 APERTURE LIST*
%ADD10R,1.408000X1.408000*%
%ADD11C,1.408000*%
%ADD12C,3.200000*%
%ADD13R,1.500000X1.500000*%
%ADD14C,1.500000*%
%ADD15C,3.500000*%
%ADD16R,1.700000X1.700000*%
%ADD17O,1.700000X1.700000*%
%ADD18C,0.650000*%
%ADD19O,2.100000X1.000000*%
%ADD20O,1.600000X1.000000*%
%ADD21C,3.600000*%
%ADD22C,5.600000*%
%ADD23R,3.500000X1.700000*%
%ADD24R,1.700000X3.500000*%
G04 APERTURE END LIST*
D10*
%TO.C,J2*%
X80040000Y-116850000D03*
D11*
X77440000Y-116850000D03*
X82140000Y-116850000D03*
X80040000Y-114350000D03*
X75340000Y-116850000D03*
X82140000Y-114350000D03*
X77440000Y-114350000D03*
X75340000Y-114350000D03*
D12*
X78740000Y-120650000D03*
%TD*%
D13*
%TO.C,J1*%
X81915000Y-40640000D03*
D14*
X79415000Y-40640000D03*
X77415000Y-40640000D03*
X74915000Y-40640000D03*
X81915000Y-43260000D03*
X79415000Y-43260000D03*
X77415000Y-43260000D03*
X74915000Y-43260000D03*
D15*
X84985000Y-37930000D03*
X71845000Y-37930000D03*
X84985000Y-43610000D03*
X71845000Y-43610000D03*
%TD*%
D16*
%TO.C,J3*%
X93980000Y-109220000D03*
D17*
X93980000Y-106680000D03*
X93980000Y-104140000D03*
X93980000Y-101600000D03*
X93980000Y-99060000D03*
X93980000Y-96520000D03*
%TD*%
D18*
%TO.C,J4*%
X67052500Y-101567500D03*
X67052500Y-107347500D03*
D19*
X67582500Y-100137500D03*
D20*
X63402500Y-100137500D03*
D19*
X67582500Y-108777500D03*
D20*
X63402500Y-108777500D03*
%TD*%
D12*
%TO.C,H6*%
X81280000Y-71120000D03*
%TD*%
D16*
%TO.C,U2*%
X81630000Y-100800000D03*
D17*
X79090000Y-100800000D03*
X76550000Y-100800000D03*
X74010000Y-100800000D03*
%TD*%
D12*
%TO.C,H5*%
X76200000Y-71120000D03*
%TD*%
D21*
%TO.C,H4*%
X91440000Y-39370000D03*
D22*
X91440000Y-39370000D03*
%TD*%
D21*
%TO.C,H3*%
X91440000Y-114300000D03*
D22*
X91440000Y-114300000D03*
%TD*%
D23*
%TO.C,U1*%
X88530000Y-48260000D03*
X88530000Y-50800000D03*
X88530000Y-53340000D03*
X88530000Y-55880000D03*
X88530000Y-58420000D03*
X88530000Y-60960000D03*
X88530000Y-63500000D03*
X88530000Y-66040000D03*
X88530000Y-68580000D03*
X88530000Y-71120000D03*
X88530000Y-73660000D03*
X88530000Y-76200000D03*
X88530000Y-78740000D03*
X88530000Y-81280000D03*
X88530000Y-83820000D03*
X88530000Y-86360000D03*
X88530000Y-88900000D03*
X88530000Y-91440000D03*
X88530000Y-93980000D03*
X88530000Y-96520000D03*
X68950000Y-96520000D03*
X68950000Y-93980000D03*
X68950000Y-91440000D03*
X68950000Y-88900000D03*
X68950000Y-86360000D03*
X68950000Y-83820000D03*
X68950000Y-81280000D03*
X68950000Y-78740000D03*
X68950000Y-76200000D03*
X68950000Y-73660000D03*
X68950000Y-71120000D03*
X68950000Y-68580000D03*
X68950000Y-66040000D03*
X68950000Y-63500000D03*
X68950000Y-60960000D03*
X68950000Y-58420000D03*
X68950000Y-55880000D03*
X68950000Y-53340000D03*
X68950000Y-50800000D03*
X68950000Y-48260000D03*
D24*
X81280000Y-97190000D03*
X78740000Y-97190000D03*
X76200000Y-97190000D03*
D14*
X78740000Y-51390000D03*
X77740000Y-48090000D03*
X79740000Y-48090000D03*
%TD*%
D21*
%TO.C,H1*%
X66040000Y-39370000D03*
D22*
X66040000Y-39370000D03*
%TD*%
D21*
%TO.C,H2*%
X66040000Y-114300000D03*
D22*
X66040000Y-114300000D03*
%TD*%
M02*
