%TF.GenerationSoftware,KiCad,Pcbnew,7.0.7*%
%TF.CreationDate,2023-09-26T18:23:26+08:00*%
%TF.ProjectId,usb3sun,75736233-7375-46e2-9e6b-696361645f70,A3*%
%TF.SameCoordinates,Original*%
%TF.FileFunction,Legend,Bot*%
%TF.FilePolarity,Positive*%
%FSLAX46Y46*%
G04 Gerber Fmt 4.6, Leading zero omitted, Abs format (unit mm)*
G04 Created by KiCad (PCBNEW 7.0.7) date 2023-09-26 18:23:26*
%MOMM*%
%LPD*%
G01*
G04 APERTURE LIST*
G04 Aperture macros list*
%AMFreePoly0*
4,1,19,0.500000,-0.750000,0.000000,-0.750000,0.000000,-0.744911,-0.071157,-0.744911,-0.207708,-0.704816,-0.327430,-0.627875,-0.420627,-0.520320,-0.479746,-0.390866,-0.500000,-0.250000,-0.500000,0.250000,-0.479746,0.390866,-0.420627,0.520320,-0.327430,0.627875,-0.207708,0.704816,-0.071157,0.744911,0.000000,0.744911,0.000000,0.750000,0.500000,0.750000,0.500000,-0.750000,0.500000,-0.750000,
$1*%
%AMFreePoly1*
4,1,19,0.000000,0.744911,0.071157,0.744911,0.207708,0.704816,0.327430,0.627875,0.420627,0.520320,0.479746,0.390866,0.500000,0.250000,0.500000,-0.250000,0.479746,-0.390866,0.420627,-0.520320,0.327430,-0.627875,0.207708,-0.704816,0.071157,-0.744911,0.000000,-0.744911,0.000000,-0.750000,-0.500000,-0.750000,-0.500000,0.750000,0.000000,0.750000,0.000000,0.744911,0.000000,0.744911,
$1*%
G04 Aperture macros list end*
%ADD10C,0.250000*%
%ADD11C,0.062500*%
%ADD12C,0.153000*%
%ADD13C,0.120000*%
%ADD14R,1.408000X1.408000*%
%ADD15C,1.408000*%
%ADD16C,3.200000*%
%ADD17R,1.500000X1.500000*%
%ADD18C,1.500000*%
%ADD19C,3.500000*%
%ADD20R,1.700000X1.700000*%
%ADD21O,1.700000X1.700000*%
%ADD22C,0.650000*%
%ADD23O,2.100000X1.000000*%
%ADD24O,1.600000X1.000000*%
%ADD25C,3.600000*%
%ADD26C,5.600000*%
%ADD27R,3.500000X1.700000*%
%ADD28R,1.700000X3.500000*%
%ADD29FreePoly0,0.000000*%
%ADD30FreePoly1,0.000000*%
G04 APERTURE END LIST*
D10*
X89382676Y-110774751D02*
X89332389Y-110762274D01*
X87022621Y-105041139D02*
X87029869Y-105076158D01*
X90389517Y-106435312D02*
X90501720Y-106555621D01*
X89656865Y-110803895D02*
X89598884Y-110802679D01*
X91379036Y-109377386D02*
X91362864Y-109452451D01*
X91309060Y-107943900D02*
X91340842Y-108053213D01*
X90602625Y-106672871D02*
X90692386Y-106784741D01*
X88458867Y-109912869D02*
X88437812Y-109864194D01*
X85806548Y-105022341D02*
X85832312Y-105068690D01*
X86113295Y-104353082D02*
X86114636Y-104379355D01*
X86969481Y-110451490D02*
X86983151Y-110417795D01*
X85335011Y-107267642D02*
X85413864Y-107252890D01*
X89470391Y-105779081D02*
X89653624Y-105869043D01*
X89145316Y-110692019D02*
X89101903Y-110669640D01*
X91389983Y-108276625D02*
X91405873Y-108389560D01*
X86113575Y-104305615D02*
X86112933Y-104328556D01*
X86733455Y-106424160D02*
X86780992Y-106356458D01*
X87421633Y-106829912D02*
X87387779Y-106837003D01*
X87031742Y-105173496D02*
X87025199Y-105202408D01*
X84475076Y-107808037D02*
X84542816Y-107724025D01*
X88365463Y-105573303D02*
X88490431Y-105570795D01*
X86179931Y-104129007D02*
X86168619Y-104143517D01*
X91193682Y-107632496D02*
X91234746Y-107732960D01*
X87000384Y-105253195D02*
X86981786Y-105274493D01*
X89374142Y-105738896D02*
X89470391Y-105779081D01*
X86499532Y-107280037D02*
X86492307Y-107222656D01*
X87314246Y-105874878D02*
X87400082Y-105826140D01*
X84222414Y-108632672D02*
X84221109Y-108559871D01*
X87683258Y-105701536D02*
X87786219Y-105668083D01*
X88495214Y-110220789D02*
X88412990Y-110253666D01*
X86358985Y-105161310D02*
X86430568Y-105317419D01*
X87029869Y-105076158D02*
X87033914Y-105110082D01*
X91414885Y-109137919D02*
X91405113Y-109220149D01*
X86491119Y-109721216D02*
X86491454Y-109819168D01*
X86252911Y-104704151D02*
X86267654Y-104675030D01*
X89101903Y-110669640D02*
X89059766Y-110645443D01*
X85261194Y-107284445D02*
X85335011Y-107267642D01*
X85430882Y-104662878D02*
X85468512Y-104677614D01*
X84285597Y-108168225D02*
X84306532Y-108110428D01*
X85415329Y-105472206D02*
X85380605Y-105432236D01*
X88667839Y-108376795D02*
X88737627Y-108265387D01*
X90739177Y-110436466D02*
X90690394Y-110471960D01*
X85315302Y-105346151D02*
X85285215Y-105300756D01*
X90832708Y-110360731D02*
X90786635Y-110399380D01*
X86132708Y-104208961D02*
X86126675Y-104226428D01*
X85135514Y-104886511D02*
X85136832Y-104846459D01*
X84368410Y-109244148D02*
X84311090Y-109093795D01*
X88186237Y-110331555D02*
X88045229Y-110373300D01*
X86363897Y-107258173D02*
X86497688Y-107279183D01*
X86491454Y-109819168D02*
X86500756Y-109922004D01*
X90877338Y-110320550D02*
X90832708Y-110360731D01*
X87499467Y-106817328D02*
X87458840Y-106823296D01*
X86455971Y-104556042D02*
X86493057Y-104552263D01*
X86571570Y-109462511D02*
X86551541Y-109488294D01*
X88051973Y-106881086D02*
X88013067Y-106869722D01*
G36*
X80492600Y-105156000D02*
G01*
X81946750Y-105156000D01*
X81946750Y-110642400D01*
X80492600Y-110642400D01*
X80492600Y-105156000D01*
G37*
X87013574Y-106098811D02*
X87082349Y-106039008D01*
X86640337Y-104581100D02*
X86676076Y-104597853D01*
X87786219Y-105668083D02*
X87893470Y-105639111D01*
X91430335Y-108876435D02*
X91427562Y-108966091D01*
X90259499Y-110695025D02*
X90142653Y-110732783D01*
X89482413Y-107522941D02*
X89557061Y-107468171D01*
X87025199Y-105202408D02*
X87014801Y-105229070D01*
X85208154Y-105159487D02*
X85187684Y-105111905D01*
X86154041Y-110523819D02*
X86046859Y-110504868D01*
X90330768Y-107050310D02*
X90479271Y-106984746D01*
X88547376Y-108598795D02*
X88604360Y-108487966D01*
X86116931Y-104407538D02*
X86120154Y-104437795D01*
X91393141Y-109299961D02*
X91379036Y-109377386D01*
X88532400Y-110055495D02*
X88482173Y-109961107D01*
X84267239Y-108228149D02*
X84285597Y-108168225D01*
X86266267Y-104900965D02*
X86253347Y-104866631D01*
X87400082Y-105826140D02*
X87490194Y-105780828D01*
X86486330Y-110558988D02*
X86375312Y-110550854D01*
X91076773Y-110097704D02*
X91040245Y-110145100D01*
X87134273Y-110544737D02*
X87029545Y-110553598D01*
X86574841Y-110228185D02*
X86612387Y-110318926D01*
X87975019Y-106859461D02*
X87901918Y-106842079D01*
X88352272Y-109250764D02*
X88366384Y-109144172D01*
X86702180Y-110464452D02*
X86727136Y-110491036D01*
X85742280Y-110427492D02*
X85646481Y-110395208D01*
X86462011Y-104030247D02*
X86434279Y-104031215D01*
X84686037Y-107580926D02*
X84758320Y-107521756D01*
X87532798Y-110490151D02*
X87338052Y-110520864D01*
X91107413Y-107444485D02*
X91150993Y-107536144D01*
X86120154Y-104437795D02*
X86124282Y-104470288D01*
X85543217Y-104720710D02*
X85579909Y-104748355D01*
X86254276Y-104071926D02*
X86237044Y-104081321D01*
X85347181Y-105390098D02*
X85315302Y-105346151D01*
X86216679Y-104813994D02*
X86285001Y-104989237D01*
D11*
X84669010Y-106196477D02*
X84672797Y-106196650D01*
X84676570Y-106196914D01*
X84680328Y-106197269D01*
X84684069Y-106197713D01*
X84687793Y-106198247D01*
X84691498Y-106198868D01*
X84697804Y-106200133D01*
X84704047Y-106201645D01*
X84710222Y-106203400D01*
X84716324Y-106205392D01*
X84728288Y-106210063D01*
X84739899Y-106215614D01*
X84751119Y-106221999D01*
X84761907Y-106229174D01*
X84772222Y-106237094D01*
X84782027Y-106245714D01*
X84791279Y-106254989D01*
X84799941Y-106264874D01*
X84807971Y-106275325D01*
X84815330Y-106286295D01*
X84821978Y-106297742D01*
X84827875Y-106309619D01*
X84832982Y-106321882D01*
X84837258Y-106334486D01*
X84839662Y-106343230D01*
X84841640Y-106352084D01*
X84843199Y-106361033D01*
X84844345Y-106370059D01*
X84845083Y-106379145D01*
X84845419Y-106388273D01*
X84845360Y-106397427D01*
X84844910Y-106406590D01*
X84844077Y-106415744D01*
X84842866Y-106424873D01*
X84841282Y-106433958D01*
X84839333Y-106442984D01*
X84837022Y-106451933D01*
X84834358Y-106460788D01*
X84831345Y-106469531D01*
X84827989Y-106478147D01*
X84824277Y-106486632D01*
X84820193Y-106494975D01*
X84815737Y-106503145D01*
X84810911Y-106511112D01*
X84805715Y-106518843D01*
X84800149Y-106526308D01*
X84794214Y-106533476D01*
X84787912Y-106540315D01*
X84781243Y-106546795D01*
X84774207Y-106552883D01*
X84766806Y-106558550D01*
X84759040Y-106563764D01*
X84750911Y-106568493D01*
X84742418Y-106572707D01*
X84733562Y-106576375D01*
X84724345Y-106579465D01*
X84715187Y-106581866D01*
X84706036Y-106583646D01*
X84696911Y-106584824D01*
X84687827Y-106585420D01*
X84678803Y-106585453D01*
X84669855Y-106584944D01*
X84661000Y-106583912D01*
X84652256Y-106582376D01*
X84643640Y-106580357D01*
X84635168Y-106577873D01*
X84626859Y-106574946D01*
X84618728Y-106571594D01*
X84610794Y-106567838D01*
X84603073Y-106563696D01*
X84595582Y-106559189D01*
X84588339Y-106554337D01*
X84581338Y-106549161D01*
X84574570Y-106543679D01*
X84568042Y-106537902D01*
X84561764Y-106531842D01*
X84555745Y-106525511D01*
X84549994Y-106518922D01*
X84544521Y-106512085D01*
X84539334Y-106505014D01*
X84534443Y-106497720D01*
X84529856Y-106490215D01*
X84525583Y-106482511D01*
X84521633Y-106474620D01*
X84518014Y-106466553D01*
X84514737Y-106458324D01*
X84511810Y-106449944D01*
X84509242Y-106441424D01*
X84507028Y-106432669D01*
X84505219Y-106423824D01*
X84503809Y-106414907D01*
X84502795Y-106405933D01*
X84502170Y-106396918D01*
X84501930Y-106387878D01*
X84502071Y-106378831D01*
X84502586Y-106369791D01*
X84503472Y-106360775D01*
X84504722Y-106351800D01*
X84506332Y-106342881D01*
X84508298Y-106334035D01*
X84510613Y-106325278D01*
X84513274Y-106316626D01*
X84516274Y-106308095D01*
X84519610Y-106299702D01*
X84523294Y-106291448D01*
X84527345Y-106283345D01*
X84531760Y-106275423D01*
X84536539Y-106267710D01*
X84541678Y-106260237D01*
X84547178Y-106253034D01*
X84553037Y-106246128D01*
X84559253Y-106239551D01*
X84565825Y-106233331D01*
X84572751Y-106227499D01*
X84580030Y-106222084D01*
X84587661Y-106217114D01*
X84595642Y-106212621D01*
X84603971Y-106208633D01*
X84612648Y-106205180D01*
X84621670Y-106202291D01*
X84626671Y-106200966D01*
X84631665Y-106199814D01*
X84636651Y-106198832D01*
X84641627Y-106198020D01*
X84646592Y-106197374D01*
X84651543Y-106196892D01*
X84656478Y-106196572D01*
X84661397Y-106196413D01*
X84665209Y-106196398D01*
X84669010Y-106196477D01*
G36*
X84669010Y-106196477D02*
G01*
X84672797Y-106196650D01*
X84676570Y-106196914D01*
X84680328Y-106197269D01*
X84684069Y-106197713D01*
X84687793Y-106198247D01*
X84691498Y-106198868D01*
X84697804Y-106200133D01*
X84704047Y-106201645D01*
X84710222Y-106203400D01*
X84716324Y-106205392D01*
X84728288Y-106210063D01*
X84739899Y-106215614D01*
X84751119Y-106221999D01*
X84761907Y-106229174D01*
X84772222Y-106237094D01*
X84782027Y-106245714D01*
X84791279Y-106254989D01*
X84799941Y-106264874D01*
X84807971Y-106275325D01*
X84815330Y-106286295D01*
X84821978Y-106297742D01*
X84827875Y-106309619D01*
X84832982Y-106321882D01*
X84837258Y-106334486D01*
X84839662Y-106343230D01*
X84841640Y-106352084D01*
X84843199Y-106361033D01*
X84844345Y-106370059D01*
X84845083Y-106379145D01*
X84845419Y-106388273D01*
X84845360Y-106397427D01*
X84844910Y-106406590D01*
X84844077Y-106415744D01*
X84842866Y-106424873D01*
X84841282Y-106433958D01*
X84839333Y-106442984D01*
X84837022Y-106451933D01*
X84834358Y-106460788D01*
X84831345Y-106469531D01*
X84827989Y-106478147D01*
X84824277Y-106486632D01*
X84820193Y-106494975D01*
X84815737Y-106503145D01*
X84810911Y-106511112D01*
X84805715Y-106518843D01*
X84800149Y-106526308D01*
X84794214Y-106533476D01*
X84787912Y-106540315D01*
X84781243Y-106546795D01*
X84774207Y-106552883D01*
X84766806Y-106558550D01*
X84759040Y-106563764D01*
X84750911Y-106568493D01*
X84742418Y-106572707D01*
X84733562Y-106576375D01*
X84724345Y-106579465D01*
X84715187Y-106581866D01*
X84706036Y-106583646D01*
X84696911Y-106584824D01*
X84687827Y-106585420D01*
X84678803Y-106585453D01*
X84669855Y-106584944D01*
X84661000Y-106583912D01*
X84652256Y-106582376D01*
X84643640Y-106580357D01*
X84635168Y-106577873D01*
X84626859Y-106574946D01*
X84618728Y-106571594D01*
X84610794Y-106567838D01*
X84603073Y-106563696D01*
X84595582Y-106559189D01*
X84588339Y-106554337D01*
X84581338Y-106549161D01*
X84574570Y-106543679D01*
X84568042Y-106537902D01*
X84561764Y-106531842D01*
X84555745Y-106525511D01*
X84549994Y-106518922D01*
X84544521Y-106512085D01*
X84539334Y-106505014D01*
X84534443Y-106497720D01*
X84529856Y-106490215D01*
X84525583Y-106482511D01*
X84521633Y-106474620D01*
X84518014Y-106466553D01*
X84514737Y-106458324D01*
X84511810Y-106449944D01*
X84509242Y-106441424D01*
X84507028Y-106432669D01*
X84505219Y-106423824D01*
X84503809Y-106414907D01*
X84502795Y-106405933D01*
X84502170Y-106396918D01*
X84501930Y-106387878D01*
X84502071Y-106378831D01*
X84502586Y-106369791D01*
X84503472Y-106360775D01*
X84504722Y-106351800D01*
X84506332Y-106342881D01*
X84508298Y-106334035D01*
X84510613Y-106325278D01*
X84513274Y-106316626D01*
X84516274Y-106308095D01*
X84519610Y-106299702D01*
X84523294Y-106291448D01*
X84527345Y-106283345D01*
X84531760Y-106275423D01*
X84536539Y-106267710D01*
X84541678Y-106260237D01*
X84547178Y-106253034D01*
X84553037Y-106246128D01*
X84559253Y-106239551D01*
X84565825Y-106233331D01*
X84572751Y-106227499D01*
X84580030Y-106222084D01*
X84587661Y-106217114D01*
X84595642Y-106212621D01*
X84603971Y-106208633D01*
X84612648Y-106205180D01*
X84621670Y-106202291D01*
X84626671Y-106200966D01*
X84631665Y-106199814D01*
X84636651Y-106198832D01*
X84641627Y-106198020D01*
X84646592Y-106197374D01*
X84651543Y-106196892D01*
X84656478Y-106196572D01*
X84661397Y-106196413D01*
X84665209Y-106196398D01*
X84669010Y-106196477D01*
G37*
D10*
X85685045Y-104851392D02*
X85717805Y-104891247D01*
X86519090Y-106905380D02*
X86537057Y-106837697D01*
X88845803Y-105597530D02*
X88957814Y-105616896D01*
X86912656Y-104154268D02*
X86856017Y-104130970D01*
X88241009Y-105581716D02*
X88365463Y-105573303D01*
X87901918Y-106842079D02*
X87833511Y-106828603D01*
X86168619Y-104143517D02*
X86157825Y-104159540D01*
X88490431Y-105570795D02*
X88612131Y-105574190D01*
X88979191Y-110591816D02*
X88903327Y-110531571D01*
X87082349Y-106039008D02*
X87155383Y-105981575D01*
X85935803Y-105513398D02*
X85926524Y-105548130D01*
X86888787Y-106224475D02*
X86949055Y-106160722D01*
X89839735Y-110793058D02*
X89777772Y-110799025D01*
X86351208Y-105037107D02*
X86325554Y-105003690D01*
X86779388Y-110529680D02*
X86806494Y-110540949D01*
X85231395Y-105207064D02*
X85208154Y-105159487D01*
X88366384Y-109144172D02*
X88388106Y-109036613D01*
X86815514Y-110564149D02*
X86706651Y-110565431D01*
X86944036Y-104859759D02*
X86964856Y-104895910D01*
X85926524Y-105548130D02*
X85912910Y-105579663D01*
X89983573Y-106079217D02*
X90130597Y-106194790D01*
X86805615Y-105320745D02*
X86770109Y-105314579D01*
X86612387Y-110318926D02*
X86633140Y-110360395D01*
X85168710Y-104742844D02*
X85189460Y-104715020D01*
X85562324Y-105603189D02*
X85524851Y-105575498D01*
X86596850Y-110563779D02*
X86486330Y-110558988D01*
X86375312Y-110550854D02*
X86264015Y-110539173D01*
X87329872Y-106851907D02*
X87305686Y-106859371D01*
X88415774Y-107041183D02*
X88355448Y-107009532D01*
X87266523Y-106873452D02*
X87239200Y-106885239D01*
X88482173Y-109961107D02*
X88458867Y-109912869D01*
X91111504Y-110048956D02*
X91076773Y-110097704D01*
X85393323Y-104653160D02*
X85430882Y-104662878D01*
X88375638Y-109665388D02*
X88357453Y-109563703D01*
X86733648Y-105304999D02*
X86696518Y-105292224D01*
X86965142Y-104177012D02*
X86912656Y-104154268D01*
X87305686Y-106859371D02*
X87266523Y-106873452D01*
X87714133Y-106812023D02*
X87664840Y-106808246D01*
X86237044Y-104081321D02*
X86220991Y-104091715D01*
X89186775Y-107769059D02*
X89259011Y-107704683D01*
X88285501Y-106974960D02*
X88247984Y-106957435D01*
X86243492Y-104734689D02*
X86252911Y-104704151D01*
X86633140Y-110360395D02*
X86655087Y-110398736D01*
X85463607Y-110321532D02*
X85292506Y-110236411D01*
X90501720Y-106555621D02*
X90602625Y-106672871D01*
X86556341Y-104036981D02*
X86522104Y-104032102D01*
X86727136Y-110491036D02*
X86752903Y-110512910D01*
X85215683Y-104691155D02*
X85247622Y-104671608D01*
X88701383Y-110315482D02*
X88641743Y-110233118D01*
X86616247Y-106630940D02*
X86651087Y-106561664D01*
X86282798Y-104935399D02*
X86266267Y-104900965D01*
X86139894Y-104192100D02*
X86132708Y-104208961D01*
X86983151Y-110417795D02*
X86994364Y-110380139D01*
X91344692Y-109525187D02*
X91324586Y-109595623D01*
X86129288Y-104505181D02*
X86142459Y-104573177D01*
X89598884Y-110802679D02*
X89542507Y-110799103D01*
X87888146Y-110414737D02*
X87716749Y-110454232D01*
X85840957Y-110456600D02*
X85742280Y-110427492D01*
X86934531Y-110505264D02*
X86953294Y-110480790D01*
X89018873Y-110619484D02*
X88979191Y-110591816D01*
X90749490Y-106862324D02*
X90750089Y-106859893D01*
X86895883Y-104789664D02*
X86920991Y-104824247D01*
X86302656Y-104969714D02*
X86282798Y-104935399D01*
X86505332Y-106972005D02*
X86519090Y-106905380D01*
X88321464Y-106992440D02*
X88285501Y-106974960D01*
X85778748Y-104977079D02*
X85806548Y-105022341D01*
X91273450Y-107836955D02*
X91309060Y-107943900D01*
X87357214Y-106844392D02*
X87329872Y-106851907D01*
X89283542Y-110747708D02*
X89236103Y-110731107D01*
X86382619Y-104578809D02*
X86419104Y-104564794D01*
X88417252Y-108928192D02*
X88453636Y-108819012D01*
X88925391Y-108029431D02*
X88985373Y-107965117D01*
X90130597Y-106194790D02*
X90265860Y-106314262D01*
X91256132Y-109785954D02*
X91231273Y-109841022D01*
X88604360Y-108487966D02*
X88667839Y-108376795D01*
X88355448Y-107009532D02*
X88321464Y-106992440D01*
X85553583Y-110359853D02*
X85463607Y-110321532D01*
X86475671Y-105160794D02*
X86441849Y-105131809D01*
X84758320Y-107521756D02*
X84828920Y-107470782D01*
X86547016Y-105213575D02*
X86510822Y-105188123D01*
X90640345Y-110505833D02*
X90589088Y-110538054D01*
X86493057Y-104552263D02*
X86530200Y-104553168D01*
X88612131Y-105574190D02*
X88730582Y-105583198D01*
X88819846Y-108152878D02*
X88870011Y-108092220D01*
X91405873Y-108389560D02*
X91416097Y-108492178D01*
X85886584Y-107219601D02*
X85997401Y-107222979D01*
D11*
X84412902Y-107281393D02*
X84440965Y-107283266D01*
X84468881Y-107286325D01*
X84496609Y-107290560D01*
X84524105Y-107295960D01*
X84551329Y-107302516D01*
X84578237Y-107310220D01*
X84604789Y-107319060D01*
X84630940Y-107329029D01*
X84656650Y-107340115D01*
X84681876Y-107352309D01*
X84706577Y-107365603D01*
X84730709Y-107379986D01*
X84754231Y-107395448D01*
X84777101Y-107411981D01*
X84799276Y-107429574D01*
X84837027Y-107462707D01*
X84872954Y-107497768D01*
X84907013Y-107534641D01*
X84939160Y-107573209D01*
X84969350Y-107613355D01*
X84997537Y-107654963D01*
X85023678Y-107697915D01*
X85047728Y-107742096D01*
X85069642Y-107787387D01*
X85089376Y-107833672D01*
X85106885Y-107880835D01*
X85122124Y-107928758D01*
X85135049Y-107977325D01*
X85145616Y-108026419D01*
X85153778Y-108075923D01*
X85159493Y-108125720D01*
X85161390Y-108152458D01*
X85162217Y-108179262D01*
X85161987Y-108206094D01*
X85160715Y-108232916D01*
X85158413Y-108259689D01*
X85155095Y-108286374D01*
X85150774Y-108312932D01*
X85145465Y-108339325D01*
X85139180Y-108365514D01*
X85131933Y-108391461D01*
X85123737Y-108417126D01*
X85114607Y-108442471D01*
X85104555Y-108467458D01*
X85093595Y-108492048D01*
X85081740Y-108516202D01*
X85069005Y-108539881D01*
X85055402Y-108563046D01*
X85040946Y-108585660D01*
X85025649Y-108607683D01*
X85009524Y-108629077D01*
X84992587Y-108649803D01*
X84974849Y-108669823D01*
X84956325Y-108689096D01*
X84937029Y-108707586D01*
X84916972Y-108725254D01*
X84896170Y-108742060D01*
X84874636Y-108757966D01*
X84852382Y-108772933D01*
X84829423Y-108786923D01*
X84805772Y-108799897D01*
X84781443Y-108811816D01*
X84756449Y-108822642D01*
X84728950Y-108833084D01*
X84701131Y-108842215D01*
X84673032Y-108850053D01*
X84644692Y-108856617D01*
X84616149Y-108861925D01*
X84587443Y-108865994D01*
X84558613Y-108868844D01*
X84529697Y-108870492D01*
X84500735Y-108870957D01*
X84471766Y-108870258D01*
X84442829Y-108868412D01*
X84413962Y-108865437D01*
X84356597Y-108856177D01*
X84299983Y-108842624D01*
X84244433Y-108824924D01*
X84190258Y-108803223D01*
X84137770Y-108777668D01*
X84087282Y-108748405D01*
X84039107Y-108715581D01*
X83993555Y-108679342D01*
X83971860Y-108659987D01*
X83950939Y-108639834D01*
X83930830Y-108618900D01*
X83911572Y-108597204D01*
X83877472Y-108555754D01*
X83845693Y-108512271D01*
X83816348Y-108466938D01*
X83789551Y-108419937D01*
X83765413Y-108371452D01*
X83744048Y-108321665D01*
X83725569Y-108270758D01*
X83710089Y-108218915D01*
X83697720Y-108166318D01*
X83688575Y-108113149D01*
X83682768Y-108059593D01*
X83680410Y-108005830D01*
X83681616Y-107952044D01*
X83686498Y-107898418D01*
X83695168Y-107845134D01*
X83707740Y-107792375D01*
X83715484Y-107766391D01*
X83724289Y-107740800D01*
X83744973Y-107690900D01*
X83769557Y-107642880D01*
X83797808Y-107596943D01*
X83829494Y-107553293D01*
X83864381Y-107512132D01*
X83902236Y-107473665D01*
X83942825Y-107438095D01*
X83985916Y-107405625D01*
X84031275Y-107376458D01*
X84078669Y-107350799D01*
X84127865Y-107328851D01*
X84178629Y-107310816D01*
X84230728Y-107296899D01*
X84257206Y-107291549D01*
X84283929Y-107287304D01*
X84310870Y-107284190D01*
X84337999Y-107282232D01*
X84349689Y-107281540D01*
X84361376Y-107281058D01*
X84373059Y-107280783D01*
X84384734Y-107280714D01*
X84412902Y-107281393D01*
G36*
X84412902Y-107281393D02*
G01*
X84440965Y-107283266D01*
X84468881Y-107286325D01*
X84496609Y-107290560D01*
X84524105Y-107295960D01*
X84551329Y-107302516D01*
X84578237Y-107310220D01*
X84604789Y-107319060D01*
X84630940Y-107329029D01*
X84656650Y-107340115D01*
X84681876Y-107352309D01*
X84706577Y-107365603D01*
X84730709Y-107379986D01*
X84754231Y-107395448D01*
X84777101Y-107411981D01*
X84799276Y-107429574D01*
X84837027Y-107462707D01*
X84872954Y-107497768D01*
X84907013Y-107534641D01*
X84939160Y-107573209D01*
X84969350Y-107613355D01*
X84997537Y-107654963D01*
X85023678Y-107697915D01*
X85047728Y-107742096D01*
X85069642Y-107787387D01*
X85089376Y-107833672D01*
X85106885Y-107880835D01*
X85122124Y-107928758D01*
X85135049Y-107977325D01*
X85145616Y-108026419D01*
X85153778Y-108075923D01*
X85159493Y-108125720D01*
X85161390Y-108152458D01*
X85162217Y-108179262D01*
X85161987Y-108206094D01*
X85160715Y-108232916D01*
X85158413Y-108259689D01*
X85155095Y-108286374D01*
X85150774Y-108312932D01*
X85145465Y-108339325D01*
X85139180Y-108365514D01*
X85131933Y-108391461D01*
X85123737Y-108417126D01*
X85114607Y-108442471D01*
X85104555Y-108467458D01*
X85093595Y-108492048D01*
X85081740Y-108516202D01*
X85069005Y-108539881D01*
X85055402Y-108563046D01*
X85040946Y-108585660D01*
X85025649Y-108607683D01*
X85009524Y-108629077D01*
X84992587Y-108649803D01*
X84974849Y-108669823D01*
X84956325Y-108689096D01*
X84937029Y-108707586D01*
X84916972Y-108725254D01*
X84896170Y-108742060D01*
X84874636Y-108757966D01*
X84852382Y-108772933D01*
X84829423Y-108786923D01*
X84805772Y-108799897D01*
X84781443Y-108811816D01*
X84756449Y-108822642D01*
X84728950Y-108833084D01*
X84701131Y-108842215D01*
X84673032Y-108850053D01*
X84644692Y-108856617D01*
X84616149Y-108861925D01*
X84587443Y-108865994D01*
X84558613Y-108868844D01*
X84529697Y-108870492D01*
X84500735Y-108870957D01*
X84471766Y-108870258D01*
X84442829Y-108868412D01*
X84413962Y-108865437D01*
X84356597Y-108856177D01*
X84299983Y-108842624D01*
X84244433Y-108824924D01*
X84190258Y-108803223D01*
X84137770Y-108777668D01*
X84087282Y-108748405D01*
X84039107Y-108715581D01*
X83993555Y-108679342D01*
X83971860Y-108659987D01*
X83950939Y-108639834D01*
X83930830Y-108618900D01*
X83911572Y-108597204D01*
X83877472Y-108555754D01*
X83845693Y-108512271D01*
X83816348Y-108466938D01*
X83789551Y-108419937D01*
X83765413Y-108371452D01*
X83744048Y-108321665D01*
X83725569Y-108270758D01*
X83710089Y-108218915D01*
X83697720Y-108166318D01*
X83688575Y-108113149D01*
X83682768Y-108059593D01*
X83680410Y-108005830D01*
X83681616Y-107952044D01*
X83686498Y-107898418D01*
X83695168Y-107845134D01*
X83707740Y-107792375D01*
X83715484Y-107766391D01*
X83724289Y-107740800D01*
X83744973Y-107690900D01*
X83769557Y-107642880D01*
X83797808Y-107596943D01*
X83829494Y-107553293D01*
X83864381Y-107512132D01*
X83902236Y-107473665D01*
X83942825Y-107438095D01*
X83985916Y-107405625D01*
X84031275Y-107376458D01*
X84078669Y-107350799D01*
X84127865Y-107328851D01*
X84178629Y-107310816D01*
X84230728Y-107296899D01*
X84257206Y-107291549D01*
X84283929Y-107287304D01*
X84310870Y-107284190D01*
X84337999Y-107282232D01*
X84349689Y-107281540D01*
X84361376Y-107281058D01*
X84373059Y-107280783D01*
X84384734Y-107280714D01*
X84412902Y-107281393D01*
G37*
D10*
X86567236Y-104558469D02*
X86604003Y-104567876D01*
X88831913Y-110465144D02*
X88764686Y-110392969D01*
X86244324Y-104832617D02*
X86239484Y-104799142D01*
X91020518Y-107277568D02*
X91063677Y-107358099D01*
X88554323Y-110194133D02*
X88495214Y-110220789D01*
X89653624Y-105869043D02*
X89824634Y-105969861D01*
X85189460Y-104715020D02*
X85215683Y-104691155D01*
X86953294Y-110480790D02*
X86969481Y-110451490D01*
X87664840Y-106808246D02*
X87623597Y-106807028D01*
X91001978Y-110191112D02*
X90962032Y-110235711D01*
X88418986Y-109815096D02*
X88402363Y-109765587D01*
X84306532Y-108110428D02*
X84329845Y-108054754D01*
X86862189Y-110545404D02*
X86889038Y-110538003D01*
X89777772Y-110799025D02*
X89716483Y-110802695D01*
X84412050Y-107900414D02*
X84475076Y-107808037D01*
X90688993Y-106894518D02*
X90739840Y-106869696D01*
X85942490Y-110482427D02*
X85840957Y-110456600D01*
X86981786Y-105274493D02*
X86958844Y-105292676D01*
X86923219Y-110560137D02*
X86815514Y-110564149D01*
X89332389Y-110762274D02*
X89283542Y-110747708D01*
X88120861Y-105595664D02*
X88241009Y-105581716D01*
X87232681Y-105926778D02*
X87314246Y-105874878D01*
X85487698Y-105544197D02*
X85451109Y-105509646D01*
X85599870Y-105626908D02*
X85562324Y-105603189D01*
X84329845Y-108054754D02*
X84355335Y-108001197D01*
X86495779Y-107037309D02*
X86505332Y-106972005D01*
X84311090Y-109093795D02*
X84267280Y-108940389D01*
X89962459Y-110774947D02*
X89901317Y-110785022D01*
X86752903Y-110512910D02*
X86779388Y-110529680D01*
X86314253Y-104621922D02*
X86346680Y-104598374D01*
X88437812Y-109864194D02*
X88418986Y-109815096D01*
X85681473Y-107223713D02*
X85781302Y-107219938D01*
X86794518Y-109460663D02*
X86767912Y-109439655D01*
X84619696Y-109668509D02*
X84522887Y-109532345D01*
X86999167Y-104968978D02*
X87012333Y-105005317D01*
X86148258Y-104175680D02*
X86139894Y-104192100D01*
G36*
X69342000Y-105156000D02*
G01*
X80518000Y-105156000D01*
X80518000Y-112776000D01*
X69342000Y-112776000D01*
X69342000Y-105156000D01*
G37*
X90750089Y-106859893D02*
X90747761Y-106858298D01*
X86551541Y-109488294D02*
X86534516Y-109518461D01*
X86192432Y-104115546D02*
X86179931Y-104129007D01*
X86313021Y-104049605D02*
X86292267Y-104056080D01*
X88402363Y-109765587D02*
X88375638Y-109665388D01*
X85192331Y-107303022D02*
X85261194Y-107284445D01*
X86409641Y-105101386D02*
X86379332Y-105069745D01*
X89274779Y-105702295D02*
X89374142Y-105738896D01*
X86866869Y-109552650D02*
X86844056Y-109517593D01*
X86441849Y-105131809D02*
X86409641Y-105101386D01*
X86530200Y-104553168D02*
X86567236Y-104558469D01*
X86621393Y-105257970D02*
X86583968Y-105236931D01*
X88463078Y-107067179D02*
X88415774Y-107041183D01*
X86592913Y-104044371D02*
X86556341Y-104036981D01*
X85145365Y-104972723D02*
X85138440Y-104928719D01*
X86834126Y-110546322D02*
X86862189Y-110545404D01*
X87458840Y-106823296D02*
X87421633Y-106829912D01*
X88596157Y-110166017D02*
X88595797Y-110169387D01*
X88045229Y-110373300D02*
X87888146Y-110414737D01*
X85156045Y-105018162D02*
X85145365Y-104972723D01*
X86778090Y-104666396D02*
X86809817Y-104694376D01*
X88005016Y-105614884D02*
X88120861Y-105595664D01*
X89542507Y-110799103D02*
X89487702Y-110793220D01*
X85413864Y-107252890D02*
X85497837Y-107240466D01*
X91231273Y-109841022D02*
X91204322Y-109894887D01*
X86239112Y-104766426D02*
X86243492Y-104734689D01*
X86872624Y-105321956D02*
X86839882Y-105323277D01*
X87893470Y-105639111D02*
X88005016Y-105614884D01*
X85651014Y-104814053D02*
X85685045Y-104851392D01*
X89630774Y-107417312D02*
X89702938Y-107370970D01*
X87029545Y-110553598D02*
X86923219Y-110560137D01*
X87584585Y-105739205D02*
X87683258Y-105701536D01*
X85933402Y-105349617D02*
X85939547Y-105393576D01*
X91144378Y-109998883D02*
X91111504Y-110048956D01*
X87387779Y-106837003D02*
X87357214Y-106844392D01*
X87033914Y-105110082D02*
X87034593Y-105142625D01*
X88247984Y-106957435D02*
X88209338Y-106940205D01*
X90083186Y-110748798D02*
X90023102Y-110762862D01*
X88497073Y-108709179D02*
X88547376Y-108598795D01*
X88013067Y-106869722D02*
X87975019Y-106859461D01*
X85912910Y-105579663D02*
X85894769Y-105607638D01*
X85153185Y-104774265D02*
X85168710Y-104742844D01*
X86543212Y-110129675D02*
X86574841Y-110228185D01*
X86157825Y-104159540D02*
X86148258Y-104175680D01*
X91150993Y-107536144D02*
X91193682Y-107632496D01*
X89332773Y-107641801D02*
X89407445Y-107581019D01*
X88357453Y-109563703D02*
X88347620Y-109460634D01*
X90978671Y-107203473D02*
X91020518Y-107277568D01*
X86681464Y-109411645D02*
X86650636Y-109415420D01*
X86407704Y-104033069D02*
X86382289Y-104035823D01*
X89434436Y-110785084D02*
X89382676Y-110774751D01*
X86920991Y-104824247D02*
X86944036Y-104859759D01*
X86832768Y-106289809D02*
X86888787Y-106224475D01*
X91362864Y-109452451D02*
X91344692Y-109525187D01*
X91427562Y-108966091D02*
X91422390Y-109053243D01*
X86709701Y-104077387D02*
X86670287Y-104064996D01*
X86518263Y-110026561D02*
X86543212Y-110129675D01*
X88730582Y-105583198D02*
X88845803Y-105597530D01*
X85997401Y-107222979D02*
X86113837Y-107230348D01*
X86650636Y-109415420D02*
X86621023Y-109425679D01*
X85876964Y-105163222D02*
X85895469Y-105210691D01*
X90920466Y-110278867D02*
X90877338Y-110320550D01*
X86434279Y-104031215D02*
X86407704Y-104033069D01*
X85506020Y-104697010D02*
X85543217Y-104720710D01*
X89190038Y-110712526D02*
X89145316Y-110692019D01*
X86522104Y-104032102D02*
X86506078Y-104030735D01*
X89772937Y-107329748D02*
X89972415Y-107222732D01*
X86983287Y-104932413D02*
X86999167Y-104968978D01*
X90692386Y-106784741D02*
X90839093Y-106983064D01*
X85894769Y-105607638D02*
X85871910Y-105631699D01*
X89824634Y-105969861D02*
X89983573Y-106079217D01*
X90786635Y-110399380D02*
X90739177Y-110436466D01*
X86786515Y-104104218D02*
X86748675Y-104090601D01*
X89407445Y-107581019D02*
X89482413Y-107522941D01*
X89972415Y-107222732D02*
X90160087Y-107129613D01*
X89049341Y-107899880D02*
X89116680Y-107834326D01*
X91423589Y-108592145D02*
X91428415Y-108689491D01*
X88347620Y-109460634D02*
X88345955Y-109356287D01*
X84851588Y-109920772D02*
X84729320Y-109798264D01*
X86046859Y-110504868D02*
X85942490Y-110482427D01*
X84896237Y-107427963D02*
X84958672Y-107393257D01*
X89236103Y-110731107D02*
X89190038Y-110712526D01*
X84267280Y-108940389D02*
X84237154Y-108784772D01*
X84522887Y-109532345D02*
X84439067Y-109390612D01*
X84439067Y-109390612D02*
X84368410Y-109244148D01*
X85646481Y-110395208D02*
X85553583Y-110359853D01*
X87014801Y-105229070D02*
X87000384Y-105253195D01*
X85128337Y-107323095D02*
X85192331Y-107303022D01*
X87591243Y-106808035D02*
X87543580Y-106812182D01*
X88453636Y-108819012D02*
X88497073Y-108709179D01*
X87009072Y-110041918D02*
X86994562Y-109934264D01*
X85717805Y-104891247D02*
X85749103Y-104933262D01*
X84355335Y-108001197D02*
X84412050Y-107900414D01*
X88309411Y-110291133D02*
X88186237Y-110331555D01*
X90589088Y-110538054D02*
X90483189Y-110597421D01*
X86748675Y-104090601D02*
X86709701Y-104077387D01*
X87003180Y-110338953D02*
X87009658Y-110294669D01*
X85187684Y-105111905D02*
X85170233Y-105064676D01*
X91430642Y-108784245D02*
X91430335Y-108876435D01*
X86676076Y-104597853D02*
X86711056Y-104617846D01*
X86112933Y-104328556D02*
X86113295Y-104353082D01*
X86491684Y-105444766D02*
X86550255Y-105561999D01*
X86162087Y-104648377D02*
X86187163Y-104729183D01*
X86490426Y-107101028D02*
X86495779Y-107037309D01*
X88764686Y-110392969D02*
X88701383Y-110315482D01*
X90142653Y-110732783D02*
X90083186Y-110748798D01*
X84729320Y-109798264D02*
X84619696Y-109668509D01*
X86670287Y-104064996D02*
X86631126Y-104053850D01*
X86142459Y-104573177D02*
X86162087Y-104648377D01*
X90962032Y-110235711D02*
X90920466Y-110278867D01*
X85069129Y-107344388D02*
X85128337Y-107323095D01*
X86206120Y-104103119D02*
X86192432Y-104115546D01*
X85292506Y-110236411D02*
X85133354Y-110140684D01*
X87770637Y-106818696D02*
X87714133Y-106812023D01*
X88585503Y-110146310D02*
X88532400Y-110055495D01*
X86520400Y-109552616D02*
X86509097Y-109590365D01*
X86272684Y-104063516D02*
X86254276Y-104071926D01*
X86840133Y-104724439D02*
X86868877Y-104756298D01*
D11*
X83001138Y-105531021D02*
X83023292Y-105531962D01*
X83045441Y-105533535D01*
X83067592Y-105535629D01*
X83089752Y-105538133D01*
X83111928Y-105540937D01*
X83156353Y-105547002D01*
X83177398Y-105550683D01*
X83202311Y-105556400D01*
X83230879Y-105564059D01*
X83262895Y-105573566D01*
X83298147Y-105584828D01*
X83336427Y-105597749D01*
X83377523Y-105612238D01*
X83421227Y-105628198D01*
X83514875Y-105664138D01*
X83564007Y-105683908D01*
X83614213Y-105704741D01*
X83665144Y-105726533D01*
X83716454Y-105749181D01*
X83767793Y-105772581D01*
X83818813Y-105796631D01*
X83869159Y-105821220D01*
X83918485Y-105846249D01*
X83966458Y-105871638D01*
X84012741Y-105897305D01*
X84056999Y-105923167D01*
X84098899Y-105949143D01*
X84138105Y-105975151D01*
X84156593Y-105988141D01*
X84174282Y-106001108D01*
X84191134Y-106014038D01*
X84207116Y-106026933D01*
X84214768Y-106033374D01*
X84222188Y-106039813D01*
X84229371Y-106046253D01*
X84236312Y-106052696D01*
X84243007Y-106059144D01*
X84249451Y-106065599D01*
X84255640Y-106072065D01*
X84261567Y-106078543D01*
X84267229Y-106085035D01*
X84272621Y-106091545D01*
X84277739Y-106098073D01*
X84282576Y-106104623D01*
X84287140Y-106111236D01*
X84291422Y-106117946D01*
X84295402Y-106124745D01*
X84299056Y-106131625D01*
X84302362Y-106138578D01*
X84305299Y-106145593D01*
X84307843Y-106152665D01*
X84309973Y-106159783D01*
X84311667Y-106166940D01*
X84312901Y-106174126D01*
X84313653Y-106181335D01*
X84313902Y-106188556D01*
X84313625Y-106195783D01*
X84312800Y-106203006D01*
X84311404Y-106210216D01*
X84309416Y-106217407D01*
X84306814Y-106224560D01*
X84303702Y-106231381D01*
X84300100Y-106237880D01*
X84296032Y-106244067D01*
X84291519Y-106249951D01*
X84286584Y-106255543D01*
X84281248Y-106260852D01*
X84275534Y-106265888D01*
X84269463Y-106270660D01*
X84263059Y-106275179D01*
X84256342Y-106279453D01*
X84249336Y-106283493D01*
X84242061Y-106287309D01*
X84234541Y-106290909D01*
X84226798Y-106294305D01*
X84218853Y-106297505D01*
X84202274Y-106303417D01*
X84184709Y-106308747D01*
X84166184Y-106313528D01*
X84146724Y-106317787D01*
X84126355Y-106321557D01*
X84105101Y-106324866D01*
X84082989Y-106327744D01*
X84060045Y-106330223D01*
X84011803Y-106334041D01*
X83960725Y-106336408D01*
X83907169Y-106337423D01*
X83851492Y-106337186D01*
X83794051Y-106335796D01*
X83735205Y-106333352D01*
X83675309Y-106329954D01*
X83614723Y-106325701D01*
X83553819Y-106320682D01*
X83492981Y-106314978D01*
X83372997Y-106301874D01*
X83257757Y-106287102D01*
X83150249Y-106271376D01*
X83100399Y-106263408D01*
X83053692Y-106255504D01*
X83010423Y-106247722D01*
X82970885Y-106240120D01*
X82935372Y-106232755D01*
X82904178Y-106225685D01*
X82877595Y-106218967D01*
X82855919Y-106212659D01*
X82837156Y-106206170D01*
X82818621Y-106198722D01*
X82800366Y-106190347D01*
X82782445Y-106181079D01*
X82764909Y-106170949D01*
X82747812Y-106159989D01*
X82731205Y-106148232D01*
X82715143Y-106135710D01*
X82699676Y-106122456D01*
X82684858Y-106108500D01*
X82670742Y-106093877D01*
X82657380Y-106078617D01*
X82644824Y-106062754D01*
X82633128Y-106046319D01*
X82622343Y-106029345D01*
X82612523Y-106011864D01*
X82603770Y-105993865D01*
X82596189Y-105975356D01*
X82589837Y-105956398D01*
X82584772Y-105937053D01*
X82581052Y-105917380D01*
X82578733Y-105897441D01*
X82577873Y-105877296D01*
X82578529Y-105857008D01*
X82580759Y-105836635D01*
X82584619Y-105816240D01*
X82590168Y-105795883D01*
X82597462Y-105775624D01*
X82606559Y-105755526D01*
X82611802Y-105745556D01*
X82617516Y-105735648D01*
X82623710Y-105725811D01*
X82630391Y-105716052D01*
X82637565Y-105706379D01*
X82645241Y-105696799D01*
X82660453Y-105679174D01*
X82675773Y-105662721D01*
X82691193Y-105647410D01*
X82706708Y-105633209D01*
X82722312Y-105620088D01*
X82738000Y-105608014D01*
X82753765Y-105596958D01*
X82769602Y-105586888D01*
X82785504Y-105577772D01*
X82801466Y-105569581D01*
X82817482Y-105562282D01*
X82833546Y-105555844D01*
X82849652Y-105550237D01*
X82865794Y-105545429D01*
X82881967Y-105541390D01*
X82898165Y-105538088D01*
X82908290Y-105536377D01*
X82918408Y-105534918D01*
X82928518Y-105533698D01*
X82938621Y-105532709D01*
X82948717Y-105531937D01*
X82958808Y-105531372D01*
X82968893Y-105531004D01*
X82978974Y-105530821D01*
X83001138Y-105531021D01*
G36*
X83001138Y-105531021D02*
G01*
X83023292Y-105531962D01*
X83045441Y-105533535D01*
X83067592Y-105535629D01*
X83089752Y-105538133D01*
X83111928Y-105540937D01*
X83156353Y-105547002D01*
X83177398Y-105550683D01*
X83202311Y-105556400D01*
X83230879Y-105564059D01*
X83262895Y-105573566D01*
X83298147Y-105584828D01*
X83336427Y-105597749D01*
X83377523Y-105612238D01*
X83421227Y-105628198D01*
X83514875Y-105664138D01*
X83564007Y-105683908D01*
X83614213Y-105704741D01*
X83665144Y-105726533D01*
X83716454Y-105749181D01*
X83767793Y-105772581D01*
X83818813Y-105796631D01*
X83869159Y-105821220D01*
X83918485Y-105846249D01*
X83966458Y-105871638D01*
X84012741Y-105897305D01*
X84056999Y-105923167D01*
X84098899Y-105949143D01*
X84138105Y-105975151D01*
X84156593Y-105988141D01*
X84174282Y-106001108D01*
X84191134Y-106014038D01*
X84207116Y-106026933D01*
X84214768Y-106033374D01*
X84222188Y-106039813D01*
X84229371Y-106046253D01*
X84236312Y-106052696D01*
X84243007Y-106059144D01*
X84249451Y-106065599D01*
X84255640Y-106072065D01*
X84261567Y-106078543D01*
X84267229Y-106085035D01*
X84272621Y-106091545D01*
X84277739Y-106098073D01*
X84282576Y-106104623D01*
X84287140Y-106111236D01*
X84291422Y-106117946D01*
X84295402Y-106124745D01*
X84299056Y-106131625D01*
X84302362Y-106138578D01*
X84305299Y-106145593D01*
X84307843Y-106152665D01*
X84309973Y-106159783D01*
X84311667Y-106166940D01*
X84312901Y-106174126D01*
X84313653Y-106181335D01*
X84313902Y-106188556D01*
X84313625Y-106195783D01*
X84312800Y-106203006D01*
X84311404Y-106210216D01*
X84309416Y-106217407D01*
X84306814Y-106224560D01*
X84303702Y-106231381D01*
X84300100Y-106237880D01*
X84296032Y-106244067D01*
X84291519Y-106249951D01*
X84286584Y-106255543D01*
X84281248Y-106260852D01*
X84275534Y-106265888D01*
X84269463Y-106270660D01*
X84263059Y-106275179D01*
X84256342Y-106279453D01*
X84249336Y-106283493D01*
X84242061Y-106287309D01*
X84234541Y-106290909D01*
X84226798Y-106294305D01*
X84218853Y-106297505D01*
X84202274Y-106303417D01*
X84184709Y-106308747D01*
X84166184Y-106313528D01*
X84146724Y-106317787D01*
X84126355Y-106321557D01*
X84105101Y-106324866D01*
X84082989Y-106327744D01*
X84060045Y-106330223D01*
X84011803Y-106334041D01*
X83960725Y-106336408D01*
X83907169Y-106337423D01*
X83851492Y-106337186D01*
X83794051Y-106335796D01*
X83735205Y-106333352D01*
X83675309Y-106329954D01*
X83614723Y-106325701D01*
X83553819Y-106320682D01*
X83492981Y-106314978D01*
X83372997Y-106301874D01*
X83257757Y-106287102D01*
X83150249Y-106271376D01*
X83100399Y-106263408D01*
X83053692Y-106255504D01*
X83010423Y-106247722D01*
X82970885Y-106240120D01*
X82935372Y-106232755D01*
X82904178Y-106225685D01*
X82877595Y-106218967D01*
X82855919Y-106212659D01*
X82837156Y-106206170D01*
X82818621Y-106198722D01*
X82800366Y-106190347D01*
X82782445Y-106181079D01*
X82764909Y-106170949D01*
X82747812Y-106159989D01*
X82731205Y-106148232D01*
X82715143Y-106135710D01*
X82699676Y-106122456D01*
X82684858Y-106108500D01*
X82670742Y-106093877D01*
X82657380Y-106078617D01*
X82644824Y-106062754D01*
X82633128Y-106046319D01*
X82622343Y-106029345D01*
X82612523Y-106011864D01*
X82603770Y-105993865D01*
X82596189Y-105975356D01*
X82589837Y-105956398D01*
X82584772Y-105937053D01*
X82581052Y-105917380D01*
X82578733Y-105897441D01*
X82577873Y-105877296D01*
X82578529Y-105857008D01*
X82580759Y-105836635D01*
X82584619Y-105816240D01*
X82590168Y-105795883D01*
X82597462Y-105775624D01*
X82606559Y-105755526D01*
X82611802Y-105745556D01*
X82617516Y-105735648D01*
X82623710Y-105725811D01*
X82630391Y-105716052D01*
X82637565Y-105706379D01*
X82645241Y-105696799D01*
X82660453Y-105679174D01*
X82675773Y-105662721D01*
X82691193Y-105647410D01*
X82706708Y-105633209D01*
X82722312Y-105620088D01*
X82738000Y-105608014D01*
X82753765Y-105596958D01*
X82769602Y-105586888D01*
X82785504Y-105577772D01*
X82801466Y-105569581D01*
X82817482Y-105562282D01*
X82833546Y-105555844D01*
X82849652Y-105550237D01*
X82865794Y-105545429D01*
X82881967Y-105541390D01*
X82898165Y-105538088D01*
X82908290Y-105536377D01*
X82918408Y-105534918D01*
X82928518Y-105533698D01*
X82938621Y-105532709D01*
X82948717Y-105531937D01*
X82958808Y-105531372D01*
X82968893Y-105531004D01*
X82978974Y-105530821D01*
X83001138Y-105531021D01*
G37*
D10*
X86631126Y-104053850D02*
X86592913Y-104044371D01*
X86594699Y-109441508D02*
X86571570Y-109462511D01*
X86745115Y-104640790D02*
X86778090Y-104666396D01*
X85832312Y-105068690D02*
X85855848Y-105115770D01*
X86964856Y-104895910D02*
X86983287Y-104932413D01*
X84227696Y-108707637D02*
X84222414Y-108632672D01*
X89702938Y-107370970D02*
X89772937Y-107329748D01*
X86267654Y-104675030D02*
X86288007Y-104647548D01*
X85812950Y-105665656D02*
X85780115Y-105673330D01*
X91040245Y-110145100D02*
X91001978Y-110191112D01*
X91422390Y-109053243D02*
X91414885Y-109137919D01*
X88169989Y-106923613D02*
X88130361Y-106908002D01*
X86187163Y-104729183D02*
X86216679Y-104813994D01*
X91324586Y-109595623D02*
X91302613Y-109663788D01*
X86492307Y-107222656D02*
X86489270Y-107162898D01*
X90479271Y-106984746D02*
X90688993Y-106894518D01*
X85014625Y-107366623D02*
X85069129Y-107344388D01*
X84223581Y-108489229D02*
X84229630Y-108420741D01*
X86655087Y-110398736D02*
X86678133Y-110433553D01*
X86115245Y-104284094D02*
X86113575Y-104305615D01*
X86382289Y-104035823D02*
X86358034Y-104039489D01*
X87034593Y-105142625D02*
X87031742Y-105173496D01*
X88775513Y-108210802D02*
X88819846Y-108152878D01*
D11*
X85110703Y-105811453D02*
X85117585Y-105812146D01*
X85124386Y-105813225D01*
X85131099Y-105814672D01*
X85137717Y-105816470D01*
X85144232Y-105818601D01*
X85150636Y-105821047D01*
X85156924Y-105823789D01*
X85163087Y-105826810D01*
X85169118Y-105830092D01*
X85175010Y-105833616D01*
X85180755Y-105837365D01*
X85186347Y-105841321D01*
X85191777Y-105845466D01*
X85197040Y-105849782D01*
X85202126Y-105854251D01*
X85208419Y-105860179D01*
X85214503Y-105866332D01*
X85220378Y-105872692D01*
X85226040Y-105879242D01*
X85231485Y-105885965D01*
X85236712Y-105892843D01*
X85241718Y-105899859D01*
X85246500Y-105906994D01*
X85251054Y-105914233D01*
X85255379Y-105921558D01*
X85259471Y-105928950D01*
X85263328Y-105936393D01*
X85266947Y-105943869D01*
X85270324Y-105951362D01*
X85273459Y-105958852D01*
X85276346Y-105966324D01*
X85279142Y-105974530D01*
X85281479Y-105982796D01*
X85283362Y-105991110D01*
X85284798Y-105999456D01*
X85285794Y-106007822D01*
X85286356Y-106016193D01*
X85286492Y-106024554D01*
X85286207Y-106032893D01*
X85285508Y-106041195D01*
X85284403Y-106049446D01*
X85282896Y-106057633D01*
X85280996Y-106065740D01*
X85278708Y-106073755D01*
X85276039Y-106081663D01*
X85272996Y-106089450D01*
X85269585Y-106097103D01*
X85265813Y-106104606D01*
X85261687Y-106111948D01*
X85257212Y-106119112D01*
X85252396Y-106126086D01*
X85247246Y-106132856D01*
X85241767Y-106139407D01*
X85235967Y-106145726D01*
X85229851Y-106151798D01*
X85223428Y-106157609D01*
X85216702Y-106163146D01*
X85209681Y-106168395D01*
X85202371Y-106173342D01*
X85194779Y-106177972D01*
X85186912Y-106182272D01*
X85178776Y-106186227D01*
X85170377Y-106189824D01*
X85165544Y-106191638D01*
X85160704Y-106193214D01*
X85155860Y-106194560D01*
X85151015Y-106195680D01*
X85146173Y-106196579D01*
X85141335Y-106197263D01*
X85136506Y-106197737D01*
X85131687Y-106198007D01*
X85126883Y-106198078D01*
X85122094Y-106197955D01*
X85117326Y-106197643D01*
X85112579Y-106197149D01*
X85103165Y-106195631D01*
X85093876Y-106193445D01*
X85084734Y-106190634D01*
X85075762Y-106187239D01*
X85066985Y-106183303D01*
X85058424Y-106178870D01*
X85050103Y-106173981D01*
X85042046Y-106168680D01*
X85034275Y-106163008D01*
X85026814Y-106157010D01*
X85019626Y-106150714D01*
X85012668Y-106144136D01*
X85005947Y-106137292D01*
X84999472Y-106130202D01*
X84993254Y-106122882D01*
X84987300Y-106115353D01*
X84981619Y-106107630D01*
X84976222Y-106099734D01*
X84971116Y-106091681D01*
X84966310Y-106083491D01*
X84961814Y-106075181D01*
X84957637Y-106066769D01*
X84953787Y-106058274D01*
X84950274Y-106049714D01*
X84947106Y-106041106D01*
X84944293Y-106032470D01*
X84941787Y-106023316D01*
X84939842Y-106014192D01*
X84938444Y-106005110D01*
X84937579Y-105996082D01*
X84937232Y-105987121D01*
X84937389Y-105978239D01*
X84938036Y-105969448D01*
X84939159Y-105960760D01*
X84940744Y-105952189D01*
X84942776Y-105943746D01*
X84945241Y-105935443D01*
X84948125Y-105927293D01*
X84951414Y-105919308D01*
X84955093Y-105911500D01*
X84959148Y-105903882D01*
X84963566Y-105896466D01*
X84968331Y-105889265D01*
X84973429Y-105882290D01*
X84978847Y-105875554D01*
X84984571Y-105869069D01*
X84990585Y-105862848D01*
X84996875Y-105856903D01*
X85003428Y-105851246D01*
X85010230Y-105845890D01*
X85017265Y-105840846D01*
X85024520Y-105836127D01*
X85031980Y-105831746D01*
X85039632Y-105827714D01*
X85047461Y-105824045D01*
X85055453Y-105820750D01*
X85063594Y-105817841D01*
X85071869Y-105815332D01*
X85075904Y-105814292D01*
X85079927Y-105813407D01*
X85083937Y-105812673D01*
X85087934Y-105812087D01*
X85091914Y-105811646D01*
X85095877Y-105811347D01*
X85099822Y-105811188D01*
X85103747Y-105811165D01*
X85110703Y-105811453D01*
G36*
X85110703Y-105811453D02*
G01*
X85117585Y-105812146D01*
X85124386Y-105813225D01*
X85131099Y-105814672D01*
X85137717Y-105816470D01*
X85144232Y-105818601D01*
X85150636Y-105821047D01*
X85156924Y-105823789D01*
X85163087Y-105826810D01*
X85169118Y-105830092D01*
X85175010Y-105833616D01*
X85180755Y-105837365D01*
X85186347Y-105841321D01*
X85191777Y-105845466D01*
X85197040Y-105849782D01*
X85202126Y-105854251D01*
X85208419Y-105860179D01*
X85214503Y-105866332D01*
X85220378Y-105872692D01*
X85226040Y-105879242D01*
X85231485Y-105885965D01*
X85236712Y-105892843D01*
X85241718Y-105899859D01*
X85246500Y-105906994D01*
X85251054Y-105914233D01*
X85255379Y-105921558D01*
X85259471Y-105928950D01*
X85263328Y-105936393D01*
X85266947Y-105943869D01*
X85270324Y-105951362D01*
X85273459Y-105958852D01*
X85276346Y-105966324D01*
X85279142Y-105974530D01*
X85281479Y-105982796D01*
X85283362Y-105991110D01*
X85284798Y-105999456D01*
X85285794Y-106007822D01*
X85286356Y-106016193D01*
X85286492Y-106024554D01*
X85286207Y-106032893D01*
X85285508Y-106041195D01*
X85284403Y-106049446D01*
X85282896Y-106057633D01*
X85280996Y-106065740D01*
X85278708Y-106073755D01*
X85276039Y-106081663D01*
X85272996Y-106089450D01*
X85269585Y-106097103D01*
X85265813Y-106104606D01*
X85261687Y-106111948D01*
X85257212Y-106119112D01*
X85252396Y-106126086D01*
X85247246Y-106132856D01*
X85241767Y-106139407D01*
X85235967Y-106145726D01*
X85229851Y-106151798D01*
X85223428Y-106157609D01*
X85216702Y-106163146D01*
X85209681Y-106168395D01*
X85202371Y-106173342D01*
X85194779Y-106177972D01*
X85186912Y-106182272D01*
X85178776Y-106186227D01*
X85170377Y-106189824D01*
X85165544Y-106191638D01*
X85160704Y-106193214D01*
X85155860Y-106194560D01*
X85151015Y-106195680D01*
X85146173Y-106196579D01*
X85141335Y-106197263D01*
X85136506Y-106197737D01*
X85131687Y-106198007D01*
X85126883Y-106198078D01*
X85122094Y-106197955D01*
X85117326Y-106197643D01*
X85112579Y-106197149D01*
X85103165Y-106195631D01*
X85093876Y-106193445D01*
X85084734Y-106190634D01*
X85075762Y-106187239D01*
X85066985Y-106183303D01*
X85058424Y-106178870D01*
X85050103Y-106173981D01*
X85042046Y-106168680D01*
X85034275Y-106163008D01*
X85026814Y-106157010D01*
X85019626Y-106150714D01*
X85012668Y-106144136D01*
X85005947Y-106137292D01*
X84999472Y-106130202D01*
X84993254Y-106122882D01*
X84987300Y-106115353D01*
X84981619Y-106107630D01*
X84976222Y-106099734D01*
X84971116Y-106091681D01*
X84966310Y-106083491D01*
X84961814Y-106075181D01*
X84957637Y-106066769D01*
X84953787Y-106058274D01*
X84950274Y-106049714D01*
X84947106Y-106041106D01*
X84944293Y-106032470D01*
X84941787Y-106023316D01*
X84939842Y-106014192D01*
X84938444Y-106005110D01*
X84937579Y-105996082D01*
X84937232Y-105987121D01*
X84937389Y-105978239D01*
X84938036Y-105969448D01*
X84939159Y-105960760D01*
X84940744Y-105952189D01*
X84942776Y-105943746D01*
X84945241Y-105935443D01*
X84948125Y-105927293D01*
X84951414Y-105919308D01*
X84955093Y-105911500D01*
X84959148Y-105903882D01*
X84963566Y-105896466D01*
X84968331Y-105889265D01*
X84973429Y-105882290D01*
X84978847Y-105875554D01*
X84984571Y-105869069D01*
X84990585Y-105862848D01*
X84996875Y-105856903D01*
X85003428Y-105851246D01*
X85010230Y-105845890D01*
X85017265Y-105840846D01*
X85024520Y-105836127D01*
X85031980Y-105831746D01*
X85039632Y-105827714D01*
X85047461Y-105824045D01*
X85055453Y-105820750D01*
X85063594Y-105817841D01*
X85071869Y-105815332D01*
X85075904Y-105814292D01*
X85079927Y-105813407D01*
X85083937Y-105812673D01*
X85087934Y-105812087D01*
X85091914Y-105811646D01*
X85095877Y-105811347D01*
X85099822Y-105811188D01*
X85103747Y-105811165D01*
X85110703Y-105811453D01*
G37*
D10*
X87543580Y-106812182D02*
X87499467Y-106817328D01*
X91175337Y-109947517D02*
X91144378Y-109998883D01*
X85587012Y-107230648D02*
X85681473Y-107223713D01*
X84613669Y-107648335D02*
X84686037Y-107580926D01*
X85247622Y-104671608D02*
X85282984Y-104657683D01*
X91405113Y-109220149D02*
X91393141Y-109299961D01*
X85871910Y-105631699D02*
X85844141Y-105651489D01*
D11*
X83676408Y-104327017D02*
X83694513Y-104328438D01*
X83712965Y-104330831D01*
X83731766Y-104334196D01*
X83750917Y-104338536D01*
X83770421Y-104343850D01*
X83790279Y-104350142D01*
X83810492Y-104357412D01*
X83831063Y-104365661D01*
X83851993Y-104374891D01*
X83873283Y-104385103D01*
X83894937Y-104396299D01*
X83916954Y-104408480D01*
X83939338Y-104421647D01*
X83962090Y-104435801D01*
X83985211Y-104450945D01*
X83998076Y-104459949D01*
X84011632Y-104470147D01*
X84025849Y-104481499D01*
X84040701Y-104493966D01*
X84072201Y-104522093D01*
X84105913Y-104554220D01*
X84141619Y-104590039D01*
X84179100Y-104629241D01*
X84218138Y-104671518D01*
X84258515Y-104716562D01*
X84299902Y-104764015D01*
X84341908Y-104813490D01*
X84384212Y-104864630D01*
X84426497Y-104917077D01*
X84468445Y-104970476D01*
X84509737Y-105024470D01*
X84550055Y-105078702D01*
X84589082Y-105132815D01*
X84626499Y-105186426D01*
X84661993Y-105239184D01*
X84695253Y-105290785D01*
X84725965Y-105340924D01*
X84753818Y-105389297D01*
X84778500Y-105435600D01*
X84789555Y-105457880D01*
X84799700Y-105479528D01*
X84808896Y-105500506D01*
X84817105Y-105520776D01*
X84824351Y-105540306D01*
X84827609Y-105549798D01*
X84830602Y-105559115D01*
X84833314Y-105568263D01*
X84835728Y-105577247D01*
X84837828Y-105586072D01*
X84839598Y-105594743D01*
X84841023Y-105603265D01*
X84842084Y-105611645D01*
X84842768Y-105619886D01*
X84843056Y-105627994D01*
X84842934Y-105635975D01*
X84842384Y-105643833D01*
X84841391Y-105651575D01*
X84839939Y-105659204D01*
X84839013Y-105662981D01*
X84837922Y-105666730D01*
X84836668Y-105670442D01*
X84835251Y-105674106D01*
X84833672Y-105677712D01*
X84831932Y-105681252D01*
X84830032Y-105684715D01*
X84827973Y-105688092D01*
X84825755Y-105691372D01*
X84823380Y-105694546D01*
X84820848Y-105697604D01*
X84818160Y-105700537D01*
X84815317Y-105703334D01*
X84812319Y-105705986D01*
X84809168Y-105708484D01*
X84805865Y-105710816D01*
X84802439Y-105712973D01*
X84798921Y-105714952D01*
X84795315Y-105716757D01*
X84791624Y-105718392D01*
X84787852Y-105719862D01*
X84784002Y-105721170D01*
X84780076Y-105722319D01*
X84776079Y-105723315D01*
X84772014Y-105724161D01*
X84767883Y-105724862D01*
X84763690Y-105725420D01*
X84759439Y-105725840D01*
X84755133Y-105726127D01*
X84750774Y-105726283D01*
X84746367Y-105726314D01*
X84741915Y-105726222D01*
X84725377Y-105725254D01*
X84708426Y-105723470D01*
X84691074Y-105720895D01*
X84673334Y-105717555D01*
X84655218Y-105713476D01*
X84636736Y-105708684D01*
X84617903Y-105703204D01*
X84598729Y-105697063D01*
X84579227Y-105690285D01*
X84559409Y-105682898D01*
X84518873Y-105666394D01*
X84477216Y-105647759D01*
X84434537Y-105627197D01*
X84390981Y-105604877D01*
X84346737Y-105580943D01*
X84301971Y-105555564D01*
X84256847Y-105528911D01*
X84211526Y-105501154D01*
X84166175Y-105472465D01*
X84120955Y-105443012D01*
X84076032Y-105412966D01*
X83987803Y-105351842D01*
X83902882Y-105290492D01*
X83822592Y-105230241D01*
X83748257Y-105172413D01*
X83681201Y-105118334D01*
X83622749Y-105069329D01*
X83574224Y-105026721D01*
X83536950Y-104991836D01*
X83521571Y-104976203D01*
X83507006Y-104960264D01*
X83493253Y-104944041D01*
X83480311Y-104927556D01*
X83468177Y-104910831D01*
X83456848Y-104893888D01*
X83446323Y-104876751D01*
X83436599Y-104859441D01*
X83427674Y-104841981D01*
X83419545Y-104824393D01*
X83412211Y-104806699D01*
X83405670Y-104788922D01*
X83399918Y-104771084D01*
X83394953Y-104753208D01*
X83390775Y-104735316D01*
X83387379Y-104717429D01*
X83384765Y-104699572D01*
X83382929Y-104681765D01*
X83381869Y-104664031D01*
X83381584Y-104646393D01*
X83382071Y-104628874D01*
X83383327Y-104611494D01*
X83385351Y-104594277D01*
X83388140Y-104577245D01*
X83391692Y-104560420D01*
X83396005Y-104543825D01*
X83401076Y-104527482D01*
X83406904Y-104511414D01*
X83413485Y-104495642D01*
X83420818Y-104480190D01*
X83428901Y-104465078D01*
X83437731Y-104450331D01*
X83447322Y-104436067D01*
X83457558Y-104422587D01*
X83468422Y-104409910D01*
X83479897Y-104398054D01*
X83491963Y-104387038D01*
X83504604Y-104376881D01*
X83517801Y-104367600D01*
X83531537Y-104359214D01*
X83545793Y-104351742D01*
X83560551Y-104345202D01*
X83575794Y-104339612D01*
X83591503Y-104334992D01*
X83607661Y-104331358D01*
X83624250Y-104328730D01*
X83641252Y-104327127D01*
X83658648Y-104326566D01*
X83676408Y-104327017D01*
G36*
X83676408Y-104327017D02*
G01*
X83694513Y-104328438D01*
X83712965Y-104330831D01*
X83731766Y-104334196D01*
X83750917Y-104338536D01*
X83770421Y-104343850D01*
X83790279Y-104350142D01*
X83810492Y-104357412D01*
X83831063Y-104365661D01*
X83851993Y-104374891D01*
X83873283Y-104385103D01*
X83894937Y-104396299D01*
X83916954Y-104408480D01*
X83939338Y-104421647D01*
X83962090Y-104435801D01*
X83985211Y-104450945D01*
X83998076Y-104459949D01*
X84011632Y-104470147D01*
X84025849Y-104481499D01*
X84040701Y-104493966D01*
X84072201Y-104522093D01*
X84105913Y-104554220D01*
X84141619Y-104590039D01*
X84179100Y-104629241D01*
X84218138Y-104671518D01*
X84258515Y-104716562D01*
X84299902Y-104764015D01*
X84341908Y-104813490D01*
X84384212Y-104864630D01*
X84426497Y-104917077D01*
X84468445Y-104970476D01*
X84509737Y-105024470D01*
X84550055Y-105078702D01*
X84589082Y-105132815D01*
X84626499Y-105186426D01*
X84661993Y-105239184D01*
X84695253Y-105290785D01*
X84725965Y-105340924D01*
X84753818Y-105389297D01*
X84778500Y-105435600D01*
X84789555Y-105457880D01*
X84799700Y-105479528D01*
X84808896Y-105500506D01*
X84817105Y-105520776D01*
X84824351Y-105540306D01*
X84827609Y-105549798D01*
X84830602Y-105559115D01*
X84833314Y-105568263D01*
X84835728Y-105577247D01*
X84837828Y-105586072D01*
X84839598Y-105594743D01*
X84841023Y-105603265D01*
X84842084Y-105611645D01*
X84842768Y-105619886D01*
X84843056Y-105627994D01*
X84842934Y-105635975D01*
X84842384Y-105643833D01*
X84841391Y-105651575D01*
X84839939Y-105659204D01*
X84839013Y-105662981D01*
X84837922Y-105666730D01*
X84836668Y-105670442D01*
X84835251Y-105674106D01*
X84833672Y-105677712D01*
X84831932Y-105681252D01*
X84830032Y-105684715D01*
X84827973Y-105688092D01*
X84825755Y-105691372D01*
X84823380Y-105694546D01*
X84820848Y-105697604D01*
X84818160Y-105700537D01*
X84815317Y-105703334D01*
X84812319Y-105705986D01*
X84809168Y-105708484D01*
X84805865Y-105710816D01*
X84802439Y-105712973D01*
X84798921Y-105714952D01*
X84795315Y-105716757D01*
X84791624Y-105718392D01*
X84787852Y-105719862D01*
X84784002Y-105721170D01*
X84780076Y-105722319D01*
X84776079Y-105723315D01*
X84772014Y-105724161D01*
X84767883Y-105724862D01*
X84763690Y-105725420D01*
X84759439Y-105725840D01*
X84755133Y-105726127D01*
X84750774Y-105726283D01*
X84746367Y-105726314D01*
X84741915Y-105726222D01*
X84725377Y-105725254D01*
X84708426Y-105723470D01*
X84691074Y-105720895D01*
X84673334Y-105717555D01*
X84655218Y-105713476D01*
X84636736Y-105708684D01*
X84617903Y-105703204D01*
X84598729Y-105697063D01*
X84579227Y-105690285D01*
X84559409Y-105682898D01*
X84518873Y-105666394D01*
X84477216Y-105647759D01*
X84434537Y-105627197D01*
X84390981Y-105604877D01*
X84346737Y-105580943D01*
X84301971Y-105555564D01*
X84256847Y-105528911D01*
X84211526Y-105501154D01*
X84166175Y-105472465D01*
X84120955Y-105443012D01*
X84076032Y-105412966D01*
X83987803Y-105351842D01*
X83902882Y-105290492D01*
X83822592Y-105230241D01*
X83748257Y-105172413D01*
X83681201Y-105118334D01*
X83622749Y-105069329D01*
X83574224Y-105026721D01*
X83536950Y-104991836D01*
X83521571Y-104976203D01*
X83507006Y-104960264D01*
X83493253Y-104944041D01*
X83480311Y-104927556D01*
X83468177Y-104910831D01*
X83456848Y-104893888D01*
X83446323Y-104876751D01*
X83436599Y-104859441D01*
X83427674Y-104841981D01*
X83419545Y-104824393D01*
X83412211Y-104806699D01*
X83405670Y-104788922D01*
X83399918Y-104771084D01*
X83394953Y-104753208D01*
X83390775Y-104735316D01*
X83387379Y-104717429D01*
X83384765Y-104699572D01*
X83382929Y-104681765D01*
X83381869Y-104664031D01*
X83381584Y-104646393D01*
X83382071Y-104628874D01*
X83383327Y-104611494D01*
X83385351Y-104594277D01*
X83388140Y-104577245D01*
X83391692Y-104560420D01*
X83396005Y-104543825D01*
X83401076Y-104527482D01*
X83406904Y-104511414D01*
X83413485Y-104495642D01*
X83420818Y-104480190D01*
X83428901Y-104465078D01*
X83437731Y-104450331D01*
X83447322Y-104436067D01*
X83457558Y-104422587D01*
X83468422Y-104409910D01*
X83479897Y-104398054D01*
X83491963Y-104387038D01*
X83504604Y-104376881D01*
X83517801Y-104367600D01*
X83531537Y-104359214D01*
X83545793Y-104351742D01*
X83560551Y-104345202D01*
X83575794Y-104339612D01*
X83591503Y-104334992D01*
X83607661Y-104331358D01*
X83624250Y-104328730D01*
X83641252Y-104327127D01*
X83658648Y-104326566D01*
X83676408Y-104327017D01*
G37*
D10*
X85939547Y-105393576D02*
X85942123Y-105435764D01*
X86770109Y-105314579D02*
X86733648Y-105304999D01*
X90483189Y-110597421D02*
X90373169Y-110649824D01*
X88090881Y-106893712D02*
X88051973Y-106881086D01*
X88209338Y-106940205D02*
X88169989Y-106923613D01*
X87623597Y-106807028D02*
X87591243Y-106808035D01*
X86534516Y-109518461D02*
X86520400Y-109552616D01*
X85637244Y-105646297D02*
X85599870Y-105626908D01*
X86235975Y-107241987D02*
X86363897Y-107258173D01*
X87833511Y-106828603D02*
X87770637Y-106818696D01*
X86239484Y-104799142D02*
X86239112Y-104766426D01*
X88006631Y-106872821D02*
X88012999Y-106873256D01*
X88019242Y-106873921D01*
X88025361Y-106874804D01*
X88031356Y-106875895D01*
X88037228Y-106877184D01*
X88042977Y-106878659D01*
X88048604Y-106880311D01*
X88059496Y-106884100D01*
X88069906Y-106888465D01*
X88079840Y-106893322D01*
X88089302Y-106898584D01*
X88098298Y-106904166D01*
X88106831Y-106909984D01*
X88114907Y-106915951D01*
X88122529Y-106921983D01*
X88130380Y-106930090D01*
X88137039Y-106940495D01*
X88142541Y-106953028D01*
X88146926Y-106967518D01*
X88150231Y-106983796D01*
X88152492Y-107001693D01*
X88153748Y-107021038D01*
X88154036Y-107041662D01*
X88151858Y-107086069D01*
X88146258Y-107133554D01*
X88137537Y-107182759D01*
X88125994Y-107232328D01*
X88111930Y-107280903D01*
X88095644Y-107327124D01*
X88077437Y-107369635D01*
X88067706Y-107389075D01*
X88057608Y-107407078D01*
X88047180Y-107423475D01*
X88036458Y-107438095D01*
X88025482Y-107450769D01*
X88014288Y-107461328D01*
X88002913Y-107469601D01*
X87991396Y-107475418D01*
X87979773Y-107478611D01*
X87968083Y-107479009D01*
X87958414Y-107476570D01*
X87949108Y-107471154D01*
X87940184Y-107462955D01*
X87931664Y-107452165D01*
X87923569Y-107438978D01*
X87915922Y-107423585D01*
X87902051Y-107386956D01*
X87890223Y-107343820D01*
X87880607Y-107295719D01*
X87873374Y-107244197D01*
X87868694Y-107190795D01*
X87866738Y-107137056D01*
X87867675Y-107084521D01*
X87871676Y-107034734D01*
X87878912Y-106989237D01*
X87883796Y-106968579D01*
X87889553Y-106949572D01*
X87896203Y-106932408D01*
X87903768Y-106917281D01*
X87912270Y-106904383D01*
X87921729Y-106893907D01*
X87932167Y-106886045D01*
X87943606Y-106880991D01*
X87951123Y-106878881D01*
X87958511Y-106877097D01*
X87965769Y-106875627D01*
X87972899Y-106874461D01*
X87979899Y-106873589D01*
X87986773Y-106873000D01*
X87993519Y-106872682D01*
X88000138Y-106872626D01*
X88006631Y-106872821D01*
G36*
X88006631Y-106872821D02*
G01*
X88012999Y-106873256D01*
X88019242Y-106873921D01*
X88025361Y-106874804D01*
X88031356Y-106875895D01*
X88037228Y-106877184D01*
X88042977Y-106878659D01*
X88048604Y-106880311D01*
X88059496Y-106884100D01*
X88069906Y-106888465D01*
X88079840Y-106893322D01*
X88089302Y-106898584D01*
X88098298Y-106904166D01*
X88106831Y-106909984D01*
X88114907Y-106915951D01*
X88122529Y-106921983D01*
X88130380Y-106930090D01*
X88137039Y-106940495D01*
X88142541Y-106953028D01*
X88146926Y-106967518D01*
X88150231Y-106983796D01*
X88152492Y-107001693D01*
X88153748Y-107021038D01*
X88154036Y-107041662D01*
X88151858Y-107086069D01*
X88146258Y-107133554D01*
X88137537Y-107182759D01*
X88125994Y-107232328D01*
X88111930Y-107280903D01*
X88095644Y-107327124D01*
X88077437Y-107369635D01*
X88067706Y-107389075D01*
X88057608Y-107407078D01*
X88047180Y-107423475D01*
X88036458Y-107438095D01*
X88025482Y-107450769D01*
X88014288Y-107461328D01*
X88002913Y-107469601D01*
X87991396Y-107475418D01*
X87979773Y-107478611D01*
X87968083Y-107479009D01*
X87958414Y-107476570D01*
X87949108Y-107471154D01*
X87940184Y-107462955D01*
X87931664Y-107452165D01*
X87923569Y-107438978D01*
X87915922Y-107423585D01*
X87902051Y-107386956D01*
X87890223Y-107343820D01*
X87880607Y-107295719D01*
X87873374Y-107244197D01*
X87868694Y-107190795D01*
X87866738Y-107137056D01*
X87867675Y-107084521D01*
X87871676Y-107034734D01*
X87878912Y-106989237D01*
X87883796Y-106968579D01*
X87889553Y-106949572D01*
X87896203Y-106932408D01*
X87903768Y-106917281D01*
X87912270Y-106904383D01*
X87921729Y-106893907D01*
X87932167Y-106886045D01*
X87943606Y-106880991D01*
X87951123Y-106878881D01*
X87958511Y-106877097D01*
X87965769Y-106875627D01*
X87972899Y-106874461D01*
X87979899Y-106873589D01*
X87986773Y-106873000D01*
X87993519Y-106872682D01*
X88000138Y-106872626D01*
X88006631Y-106872821D01*
G37*
X86419104Y-104564794D02*
X86455971Y-104556042D01*
X85142641Y-104808923D02*
X85153185Y-104774265D01*
X86696518Y-105292224D02*
X86659005Y-105276475D01*
X85257164Y-105254273D02*
X85231395Y-105207064D01*
X85844141Y-105651489D02*
X85812950Y-105665656D01*
X86325554Y-105003690D02*
X86302656Y-104969714D01*
X90373169Y-110649824D02*
X90259499Y-110695025D01*
X85282984Y-104657683D02*
X85319182Y-104650205D01*
X85942123Y-105435764D02*
X85940939Y-105475823D01*
X88588558Y-110175332D02*
X88554323Y-110194133D01*
X86500513Y-109631311D02*
X86494552Y-109675060D01*
X86604003Y-104567876D02*
X86640337Y-104581100D01*
X86949055Y-106160722D02*
X87013574Y-106098811D01*
X85855848Y-105115770D02*
X85876964Y-105163222D01*
X86114636Y-104379355D02*
X86116931Y-104407538D01*
X86856017Y-104130970D02*
X86786515Y-104104218D01*
X86494552Y-109675060D02*
X86491119Y-109721216D01*
X91234746Y-107732960D02*
X91273450Y-107836955D01*
X86537057Y-106837697D02*
X86559236Y-106769220D01*
X85380605Y-105432236D02*
X85347181Y-105390098D01*
X86117968Y-104263832D02*
X86115245Y-104284094D01*
X84229630Y-108420741D02*
X84239056Y-108354402D01*
X86253347Y-104866631D02*
X86244324Y-104832617D01*
X86124282Y-104470288D02*
X86129288Y-104505181D01*
X90160087Y-107129613D02*
X90330768Y-107050310D01*
X86126675Y-104226428D02*
X86121770Y-104244664D01*
X86264015Y-110539173D02*
X86154041Y-110523819D01*
X86903555Y-105316561D02*
X86872624Y-105321956D01*
X88412990Y-110253666D02*
X88309411Y-110291133D01*
X86121770Y-104244664D02*
X86117968Y-104263832D01*
X86510822Y-105188123D02*
X86475671Y-105160794D01*
X86285001Y-104989237D02*
X86358985Y-105161310D01*
X88870011Y-108092220D02*
X88925391Y-108029431D01*
X86334945Y-104044079D02*
X86313021Y-104049605D01*
X89901317Y-110785022D02*
X89839735Y-110793058D01*
X91428415Y-108689491D02*
X91430642Y-108784245D01*
X86908286Y-109633787D02*
X86888299Y-109591525D01*
X91063677Y-107358099D02*
X91107413Y-107444485D01*
X84542816Y-107724025D02*
X84613669Y-107648335D01*
X91340842Y-108053213D02*
X91368061Y-108164315D01*
X84251659Y-108290206D02*
X84267239Y-108228149D01*
X85579909Y-104748355D02*
X85615905Y-104779588D01*
X86621023Y-109425679D02*
X86594699Y-109441508D01*
X86806494Y-110540949D02*
X86834126Y-110546322D01*
X85749103Y-104933262D02*
X85778748Y-104977079D01*
X85923879Y-105304245D02*
X85933402Y-105349617D01*
X85745882Y-105674871D02*
X85710495Y-105670638D01*
X91278840Y-109729710D02*
X91256132Y-109785954D01*
X89066634Y-105641005D02*
X89172283Y-105669568D01*
X86678133Y-110433553D02*
X86702180Y-110464452D01*
X90690394Y-110471960D02*
X90640345Y-110505833D01*
X86767912Y-109439655D02*
X86740161Y-109424194D01*
X84986323Y-110035191D02*
X84851588Y-109920772D01*
X84237154Y-108784772D02*
X84227696Y-108707637D01*
X86819919Y-109486786D02*
X86794518Y-109460663D01*
X89716483Y-110802695D02*
X89656865Y-110803895D01*
X86913132Y-110524479D02*
X86934531Y-110505264D01*
X90839093Y-106983064D02*
X90901852Y-107076912D01*
X85780115Y-105673330D02*
X85745882Y-105674871D01*
X85674201Y-105660994D02*
X85637244Y-105646297D01*
X89557061Y-107468171D02*
X89630774Y-107417312D01*
X84221109Y-108559871D02*
X84223581Y-108489229D01*
X86430568Y-105317419D02*
X86491684Y-105444766D01*
X89116680Y-107834326D02*
X89186775Y-107769059D01*
X86780992Y-106356458D02*
X86832768Y-106289809D01*
X86844056Y-109517593D02*
X86819919Y-109486786D01*
X86346680Y-104598374D02*
X86382619Y-104578809D01*
X86490896Y-104030155D02*
X86462011Y-104030247D01*
X84828920Y-107470782D02*
X84896237Y-107427963D01*
X86506078Y-104030735D02*
X86490896Y-104030155D01*
X85615905Y-104779588D02*
X85651014Y-104814053D01*
X85940939Y-105475823D02*
X85935803Y-105513398D01*
X88903327Y-110531571D02*
X88831913Y-110465144D01*
X85497837Y-107240466D02*
X85587012Y-107230648D01*
X86651087Y-106561664D02*
X86690155Y-106492650D01*
X88985373Y-107965117D02*
X89049341Y-107899880D01*
X86288007Y-104647548D02*
X86314253Y-104621922D01*
X86509097Y-109590365D02*
X86500513Y-109631311D01*
X88595797Y-110169387D02*
X88588558Y-110175332D01*
X86500756Y-109922004D02*
X86518263Y-110026561D01*
X86888299Y-109591525D02*
X86866869Y-109552650D01*
X91368061Y-108164315D02*
X91389983Y-108276625D01*
X85911171Y-105257817D02*
X85923879Y-105304245D01*
X90023102Y-110762862D02*
X89962459Y-110774947D01*
X86994364Y-110380139D02*
X87003180Y-110338953D01*
X85524851Y-105575498D02*
X85487698Y-105544197D01*
X88130361Y-106908002D02*
X88090881Y-106893712D01*
X85136832Y-104846459D02*
X85142641Y-104808923D01*
X88641743Y-110233118D02*
X88585503Y-110146310D01*
X86659005Y-105276475D02*
X86621393Y-105257970D01*
X88345955Y-109356287D02*
X88352272Y-109250764D01*
X89487702Y-110793220D02*
X89434436Y-110785084D01*
X86113837Y-107230348D02*
X86235975Y-107241987D01*
X89172283Y-105669568D02*
X89274779Y-105702295D01*
X86943691Y-109726741D02*
X86908286Y-109633787D01*
X86889038Y-110538003D02*
X86913132Y-110524479D01*
X86868877Y-104756298D02*
X86895883Y-104789664D01*
X87155383Y-105981575D02*
X87232681Y-105926778D01*
X85133354Y-110140684D02*
X84986323Y-110035191D01*
X87009658Y-110294669D02*
X87013859Y-110247720D01*
X85781302Y-107219938D02*
X85886584Y-107219601D01*
X87013859Y-110247720D02*
X87015664Y-110147556D01*
X85138440Y-104928719D02*
X85135514Y-104886511D01*
X85451109Y-105509646D02*
X85415329Y-105472206D01*
X88957814Y-105616896D02*
X89066634Y-105641005D01*
X87012333Y-105005317D02*
X87022621Y-105041139D01*
X86711056Y-104617846D02*
X86745115Y-104640790D01*
X85710495Y-105670638D02*
X85674201Y-105660994D01*
X87239200Y-106885239D02*
X87217972Y-106896345D01*
X86583968Y-105236931D02*
X86547016Y-105213575D01*
X84958672Y-107393257D02*
X85014625Y-107366623D01*
X86839882Y-105323277D02*
X86805615Y-105320745D01*
X91302613Y-109663788D02*
X91278840Y-109729710D01*
X86740161Y-109424194D02*
X86711325Y-109414714D01*
X88388106Y-109036613D02*
X88417252Y-108928192D01*
X86994562Y-109934264D02*
X86972609Y-109828052D01*
X87716749Y-110454232D02*
X87532798Y-110490151D01*
X86932390Y-105306875D02*
X86903555Y-105316561D01*
X87490194Y-105780828D02*
X87584585Y-105739205D01*
X85319182Y-104650205D02*
X85356026Y-104648816D01*
X86379332Y-105069745D02*
X86351208Y-105037107D01*
X86292267Y-104056080D02*
X86272684Y-104063516D01*
X91204322Y-109894887D02*
X91175337Y-109947517D01*
X84239056Y-108354402D02*
X84251659Y-108290206D01*
X85895469Y-105210691D02*
X85911171Y-105257817D01*
X86489270Y-107162898D02*
X86490426Y-107101028D01*
X87338052Y-110520864D02*
X87134273Y-110544737D01*
X91416097Y-108492178D02*
X91423589Y-108592145D01*
X86809817Y-104694376D02*
X86840133Y-104724439D01*
X90739840Y-106869696D02*
X90749490Y-106862324D01*
X86711325Y-109414714D02*
X86681464Y-109411645D01*
X86706651Y-110565431D02*
X86596850Y-110563779D01*
X90901852Y-107076912D02*
X90978671Y-107203473D01*
X86220991Y-104091715D02*
X86206120Y-104103119D01*
X88737627Y-108265387D02*
X88775513Y-108210802D01*
X86958844Y-105292676D02*
X86932390Y-105306875D01*
X87015664Y-110147556D02*
X87009072Y-110041918D01*
X86972609Y-109828052D02*
X86943691Y-109726741D01*
X85170233Y-105064676D02*
X85156045Y-105018162D01*
X85285215Y-105300756D02*
X85257164Y-105254273D01*
X86358034Y-104039489D02*
X86334945Y-104044079D01*
X86585631Y-106700213D02*
X86616247Y-106630940D01*
X90265860Y-106314262D02*
X90389517Y-106435312D01*
X88505005Y-107091258D02*
X88463078Y-107067179D01*
X89259011Y-107704683D02*
X89332773Y-107641801D01*
X85356026Y-104648816D02*
X85393323Y-104653160D01*
X89059766Y-110645443D02*
X89018873Y-110619484D01*
X85468512Y-104677614D02*
X85506020Y-104697010D01*
X86690155Y-106492650D02*
X86733455Y-106424160D01*
X86559236Y-106769220D02*
X86585631Y-106700213D01*
D12*
X65597220Y-102461785D02*
X64327220Y-102461785D01*
X65536744Y-102461785D02*
X65597220Y-102340833D01*
X65597220Y-102340833D02*
X65597220Y-102098928D01*
X65597220Y-102098928D02*
X65536744Y-101977976D01*
X65536744Y-101977976D02*
X65476267Y-101917499D01*
X65476267Y-101917499D02*
X65355315Y-101857023D01*
X65355315Y-101857023D02*
X64992458Y-101857023D01*
X64992458Y-101857023D02*
X64871505Y-101917499D01*
X64871505Y-101917499D02*
X64811029Y-101977976D01*
X64811029Y-101977976D02*
X64750553Y-102098928D01*
X64750553Y-102098928D02*
X64750553Y-102340833D01*
X64750553Y-102340833D02*
X64811029Y-102461785D01*
X65536744Y-103550357D02*
X65597220Y-103429405D01*
X65597220Y-103429405D02*
X65597220Y-103187500D01*
X65597220Y-103187500D02*
X65536744Y-103066547D01*
X65536744Y-103066547D02*
X65415791Y-103006071D01*
X65415791Y-103006071D02*
X64931982Y-103006071D01*
X64931982Y-103006071D02*
X64811029Y-103066547D01*
X64811029Y-103066547D02*
X64750553Y-103187500D01*
X64750553Y-103187500D02*
X64750553Y-103429405D01*
X64750553Y-103429405D02*
X64811029Y-103550357D01*
X64811029Y-103550357D02*
X64931982Y-103610833D01*
X64931982Y-103610833D02*
X65052934Y-103610833D01*
X65052934Y-103610833D02*
X65173886Y-103006071D01*
X65597220Y-104155118D02*
X64327220Y-104155118D01*
X64811029Y-104155118D02*
X64750553Y-104276071D01*
X64750553Y-104276071D02*
X64750553Y-104517976D01*
X64750553Y-104517976D02*
X64811029Y-104638928D01*
X64811029Y-104638928D02*
X64871505Y-104699404D01*
X64871505Y-104699404D02*
X64992458Y-104759880D01*
X64992458Y-104759880D02*
X65355315Y-104759880D01*
X65355315Y-104759880D02*
X65476267Y-104699404D01*
X65476267Y-104699404D02*
X65536744Y-104638928D01*
X65536744Y-104638928D02*
X65597220Y-104517976D01*
X65597220Y-104517976D02*
X65597220Y-104276071D01*
X65597220Y-104276071D02*
X65536744Y-104155118D01*
X64750553Y-105848452D02*
X65597220Y-105848452D01*
X64750553Y-105304166D02*
X65415791Y-105304166D01*
X65415791Y-105304166D02*
X65536744Y-105364643D01*
X65536744Y-105364643D02*
X65597220Y-105485595D01*
X65597220Y-105485595D02*
X65597220Y-105667024D01*
X65597220Y-105667024D02*
X65536744Y-105787976D01*
X65536744Y-105787976D02*
X65476267Y-105848452D01*
X64750553Y-106997500D02*
X65778648Y-106997500D01*
X65778648Y-106997500D02*
X65899601Y-106937024D01*
X65899601Y-106937024D02*
X65960077Y-106876548D01*
X65960077Y-106876548D02*
X66020553Y-106755595D01*
X66020553Y-106755595D02*
X66020553Y-106574167D01*
X66020553Y-106574167D02*
X65960077Y-106453214D01*
X65536744Y-106997500D02*
X65597220Y-106876548D01*
X65597220Y-106876548D02*
X65597220Y-106634643D01*
X65597220Y-106634643D02*
X65536744Y-106513691D01*
X65536744Y-106513691D02*
X65476267Y-106453214D01*
X65476267Y-106453214D02*
X65355315Y-106392738D01*
X65355315Y-106392738D02*
X64992458Y-106392738D01*
X64992458Y-106392738D02*
X64871505Y-106453214D01*
X64871505Y-106453214D02*
X64811029Y-106513691D01*
X64811029Y-106513691D02*
X64750553Y-106634643D01*
X64750553Y-106634643D02*
X64750553Y-106876548D01*
X64750553Y-106876548D02*
X64811029Y-106997500D01*
X67641920Y-102975833D02*
X67581444Y-102854881D01*
X67581444Y-102854881D02*
X67520967Y-102794404D01*
X67520967Y-102794404D02*
X67400015Y-102733928D01*
X67400015Y-102733928D02*
X67037158Y-102733928D01*
X67037158Y-102733928D02*
X66916205Y-102794404D01*
X66916205Y-102794404D02*
X66855729Y-102854881D01*
X66855729Y-102854881D02*
X66795253Y-102975833D01*
X66795253Y-102975833D02*
X66795253Y-103157262D01*
X66795253Y-103157262D02*
X66855729Y-103278214D01*
X66855729Y-103278214D02*
X66916205Y-103338690D01*
X66916205Y-103338690D02*
X67037158Y-103399166D01*
X67037158Y-103399166D02*
X67400015Y-103399166D01*
X67400015Y-103399166D02*
X67520967Y-103338690D01*
X67520967Y-103338690D02*
X67581444Y-103278214D01*
X67581444Y-103278214D02*
X67641920Y-103157262D01*
X67641920Y-103157262D02*
X67641920Y-102975833D01*
X66795253Y-103943452D02*
X67641920Y-103943452D01*
X66916205Y-103943452D02*
X66855729Y-104003929D01*
X66855729Y-104003929D02*
X66795253Y-104124881D01*
X66795253Y-104124881D02*
X66795253Y-104306310D01*
X66795253Y-104306310D02*
X66855729Y-104427262D01*
X66855729Y-104427262D02*
X66976682Y-104487738D01*
X66976682Y-104487738D02*
X67641920Y-104487738D01*
X67641920Y-105273929D02*
X67581444Y-105152977D01*
X67581444Y-105152977D02*
X67460491Y-105092500D01*
X67460491Y-105092500D02*
X66371920Y-105092500D01*
X66795253Y-105636786D02*
X67641920Y-105939167D01*
X66795253Y-106241548D02*
X67641920Y-105939167D01*
X67641920Y-105939167D02*
X67944301Y-105818215D01*
X67944301Y-105818215D02*
X68004777Y-105757738D01*
X68004777Y-105757738D02*
X68065253Y-105636786D01*
G36*
X81571415Y-111944300D02*
G01*
X81389480Y-111944300D01*
X81326718Y-111661871D01*
X81508653Y-111661871D01*
X81571415Y-111944300D01*
G37*
G36*
X83495882Y-111895919D02*
G01*
X83224347Y-111895919D01*
X83360114Y-111488617D01*
X83495882Y-111895919D01*
G37*
G36*
X83920395Y-112677796D02*
G01*
X80817347Y-112677796D01*
X80817347Y-111572087D01*
X80962490Y-111572087D01*
X80971577Y-111623621D01*
X81011663Y-111657257D01*
X81037828Y-111661871D01*
X81169986Y-111661871D01*
X81232748Y-111944300D01*
X81134590Y-111944300D01*
X81085417Y-111962198D01*
X81059252Y-112007516D01*
X81068339Y-112059050D01*
X81108425Y-112092686D01*
X81134590Y-112097300D01*
X81266748Y-112097300D01*
X81350198Y-112472823D01*
X81378337Y-112516942D01*
X81428251Y-112532653D01*
X81476587Y-112512603D01*
X81500726Y-112466175D01*
X81499554Y-112439632D01*
X81423480Y-112097300D01*
X81605415Y-112097300D01*
X81688865Y-112472823D01*
X81717004Y-112516942D01*
X81766918Y-112532653D01*
X81815254Y-112512603D01*
X81839393Y-112466175D01*
X81838221Y-112439632D01*
X81762147Y-112097300D01*
X81860305Y-112097300D01*
X81909478Y-112079402D01*
X81915379Y-112069181D01*
X82074090Y-112069181D01*
X82075654Y-112073479D01*
X82074592Y-112077927D01*
X82082166Y-112103393D01*
X82130547Y-112200155D01*
X82131759Y-112201303D01*
X82144877Y-112220037D01*
X82193258Y-112268418D01*
X82194773Y-112269124D01*
X82213141Y-112282748D01*
X82309903Y-112331128D01*
X82314446Y-112331650D01*
X82317949Y-112334590D01*
X82344114Y-112339204D01*
X82634400Y-112339204D01*
X82638697Y-112337639D01*
X82643145Y-112338702D01*
X82668611Y-112331128D01*
X82765373Y-112282748D01*
X82766519Y-112281537D01*
X82785256Y-112268418D01*
X82815161Y-112238513D01*
X82948873Y-112238513D01*
X82950302Y-112290822D01*
X82985021Y-112329975D01*
X83036784Y-112337651D01*
X83081370Y-112310259D01*
X83094021Y-112286895D01*
X83173346Y-112048919D01*
X83546882Y-112048919D01*
X83626207Y-112286895D01*
X83658736Y-112327885D01*
X83710003Y-112338377D01*
X83756019Y-112313459D01*
X83775252Y-112264794D01*
X83771355Y-112238512D01*
X83432688Y-111222513D01*
X83431319Y-111220788D01*
X83431259Y-111218586D01*
X83415198Y-111200474D01*
X83400159Y-111181523D01*
X83398001Y-111181081D01*
X83396540Y-111179433D01*
X83372599Y-111175882D01*
X83348892Y-111171031D01*
X83346954Y-111172079D01*
X83344777Y-111171757D01*
X83324156Y-111184425D01*
X83302876Y-111195949D01*
X83302066Y-111197996D01*
X83300191Y-111199149D01*
X83287540Y-111222513D01*
X82948873Y-112238513D01*
X82815161Y-112238513D01*
X82833637Y-112220037D01*
X82855751Y-112172610D01*
X82842208Y-112122064D01*
X82799343Y-112092050D01*
X82747213Y-112096611D01*
X82725449Y-112111849D01*
X82685845Y-112151452D01*
X82616341Y-112186204D01*
X82362173Y-112186204D01*
X82292668Y-112151452D01*
X82261843Y-112120627D01*
X82227090Y-112051121D01*
X82227090Y-111845336D01*
X82261843Y-111775830D01*
X82292667Y-111745005D01*
X82362174Y-111710252D01*
X82489257Y-111710252D01*
X82508638Y-111703197D01*
X82528870Y-111699197D01*
X82532695Y-111694441D01*
X82538430Y-111692354D01*
X82548741Y-111674494D01*
X82561670Y-111658423D01*
X82561543Y-111652321D01*
X82564595Y-111647036D01*
X82561013Y-111626722D01*
X82560586Y-111606106D01*
X82556058Y-111598626D01*
X82555508Y-111595502D01*
X82552785Y-111593217D01*
X82546829Y-111583376D01*
X82319179Y-111323204D01*
X82779543Y-111323204D01*
X82828716Y-111305306D01*
X82854881Y-111259988D01*
X82845794Y-111208454D01*
X82805708Y-111174818D01*
X82779543Y-111170204D01*
X82150590Y-111170204D01*
X82131208Y-111177258D01*
X82110977Y-111181259D01*
X82107151Y-111186014D01*
X82101417Y-111188102D01*
X82091105Y-111205961D01*
X82078177Y-111222033D01*
X82078303Y-111228135D01*
X82075252Y-111233420D01*
X82078833Y-111253729D01*
X82079260Y-111274350D01*
X82083788Y-111281831D01*
X82084339Y-111284954D01*
X82087060Y-111287237D01*
X82093018Y-111297080D01*
X82324052Y-111561119D01*
X82309902Y-111565328D01*
X82213140Y-111613709D01*
X82211989Y-111614924D01*
X82193258Y-111628039D01*
X82144877Y-111676420D01*
X82144170Y-111677934D01*
X82130547Y-111696302D01*
X82082166Y-111793064D01*
X82081643Y-111797608D01*
X82078704Y-111801111D01*
X82074090Y-111827276D01*
X82074090Y-112069181D01*
X81915379Y-112069181D01*
X81935643Y-112034084D01*
X81926556Y-111982550D01*
X81886470Y-111948914D01*
X81860305Y-111944300D01*
X81728147Y-111944300D01*
X81665385Y-111661871D01*
X81763543Y-111661871D01*
X81812716Y-111643973D01*
X81838881Y-111598655D01*
X81829794Y-111547121D01*
X81789708Y-111513485D01*
X81763543Y-111508871D01*
X81631385Y-111508871D01*
X81547935Y-111133348D01*
X81519796Y-111089228D01*
X81469882Y-111073517D01*
X81421546Y-111093567D01*
X81397407Y-111139995D01*
X81398579Y-111166538D01*
X81474653Y-111508871D01*
X81292718Y-111508871D01*
X81209268Y-111133348D01*
X81181129Y-111089228D01*
X81131215Y-111073517D01*
X81082879Y-111093567D01*
X81058740Y-111139995D01*
X81059912Y-111166538D01*
X81135986Y-111508871D01*
X81037828Y-111508871D01*
X80988655Y-111526769D01*
X80962490Y-111572087D01*
X80817347Y-111572087D01*
X80817347Y-110928374D01*
X83920395Y-110928374D01*
X83920395Y-112677796D01*
G37*
X65934166Y-78821064D02*
X65934166Y-79546779D01*
X65934166Y-79546779D02*
X65982547Y-79691922D01*
X65982547Y-79691922D02*
X66079309Y-79788684D01*
X66079309Y-79788684D02*
X66224452Y-79837064D01*
X66224452Y-79837064D02*
X66321214Y-79837064D01*
X65450357Y-79837064D02*
X65450357Y-78821064D01*
X65450357Y-78821064D02*
X65063309Y-78821064D01*
X65063309Y-78821064D02*
X64966547Y-78869445D01*
X64966547Y-78869445D02*
X64918166Y-78917826D01*
X64918166Y-78917826D02*
X64869785Y-79014588D01*
X64869785Y-79014588D02*
X64869785Y-79159731D01*
X64869785Y-79159731D02*
X64918166Y-79256493D01*
X64918166Y-79256493D02*
X64966547Y-79304874D01*
X64966547Y-79304874D02*
X65063309Y-79353255D01*
X65063309Y-79353255D02*
X65450357Y-79353255D01*
X64482738Y-78917826D02*
X64434357Y-78869445D01*
X64434357Y-78869445D02*
X64337595Y-78821064D01*
X64337595Y-78821064D02*
X64095690Y-78821064D01*
X64095690Y-78821064D02*
X63998928Y-78869445D01*
X63998928Y-78869445D02*
X63950547Y-78917826D01*
X63950547Y-78917826D02*
X63902166Y-79014588D01*
X63902166Y-79014588D02*
X63902166Y-79111350D01*
X63902166Y-79111350D02*
X63950547Y-79256493D01*
X63950547Y-79256493D02*
X64531119Y-79837064D01*
X64531119Y-79837064D02*
X63902166Y-79837064D01*
X65934166Y-85171064D02*
X65934166Y-85896779D01*
X65934166Y-85896779D02*
X65982547Y-86041922D01*
X65982547Y-86041922D02*
X66079309Y-86138684D01*
X66079309Y-86138684D02*
X66224452Y-86187064D01*
X66224452Y-86187064D02*
X66321214Y-86187064D01*
X65450357Y-86187064D02*
X65450357Y-85171064D01*
X65450357Y-85171064D02*
X65063309Y-85171064D01*
X65063309Y-85171064D02*
X64966547Y-85219445D01*
X64966547Y-85219445D02*
X64918166Y-85267826D01*
X64918166Y-85267826D02*
X64869785Y-85364588D01*
X64869785Y-85364588D02*
X64869785Y-85509731D01*
X64869785Y-85509731D02*
X64918166Y-85606493D01*
X64918166Y-85606493D02*
X64966547Y-85654874D01*
X64966547Y-85654874D02*
X65063309Y-85703255D01*
X65063309Y-85703255D02*
X65450357Y-85703255D01*
X63902166Y-86187064D02*
X64482738Y-86187064D01*
X64192452Y-86187064D02*
X64192452Y-85171064D01*
X64192452Y-85171064D02*
X64289214Y-85316207D01*
X64289214Y-85316207D02*
X64385976Y-85412969D01*
X64385976Y-85412969D02*
X64482738Y-85461350D01*
D13*
%TO.C,U1*%
X89240000Y-95090000D02*
X89240000Y-95490000D01*
X89240000Y-92490000D02*
X89240000Y-92890000D01*
X89240000Y-89990000D02*
X89240000Y-90390000D01*
X89240000Y-87490000D02*
X89240000Y-87890000D01*
X89240000Y-84890000D02*
X89240000Y-85290000D01*
X89240000Y-82390000D02*
X89240000Y-82790000D01*
X89240000Y-79790000D02*
X89240000Y-80190000D01*
X89240000Y-77290000D02*
X89240000Y-77690000D01*
X89240000Y-74690000D02*
X89240000Y-75090000D01*
X89240000Y-72190000D02*
X89240000Y-72590000D01*
X89240000Y-69690000D02*
X89240000Y-70090000D01*
X89240000Y-67090000D02*
X89240000Y-67490000D01*
X89240000Y-64590000D02*
X89240000Y-64990000D01*
X89240000Y-61990000D02*
X89240000Y-62390000D01*
X89240000Y-59490000D02*
X89240000Y-59890000D01*
X89240000Y-56990000D02*
X89240000Y-57390000D01*
X89240000Y-54390000D02*
X89240000Y-54790000D01*
X89240000Y-51890000D02*
X89240000Y-52290000D01*
X89240000Y-49557000D02*
X86233000Y-49557000D01*
X89240000Y-49290000D02*
X89240000Y-49690000D01*
X89240000Y-46890000D02*
X89240000Y-47190000D01*
X89240000Y-46890000D02*
X68240000Y-46890000D01*
X86233000Y-49557000D02*
X86233000Y-46890000D01*
X82440000Y-97890000D02*
X89240000Y-97890000D01*
X80240000Y-97890000D02*
X79840000Y-97890000D01*
X77640000Y-97890000D02*
X77240000Y-97890000D01*
X68240000Y-97890000D02*
X75040000Y-97890000D01*
X68240000Y-95090000D02*
X68240000Y-95490000D01*
X68240000Y-92490000D02*
X68240000Y-92890000D01*
X68240000Y-89990000D02*
X68240000Y-90390000D01*
X68240000Y-87490000D02*
X68240000Y-87890000D01*
X68240000Y-84890000D02*
X68240000Y-85290000D01*
X68240000Y-82390000D02*
X68240000Y-82790000D01*
X68240000Y-79790000D02*
X68240000Y-80190000D01*
X68240000Y-77290000D02*
X68240000Y-77690000D01*
X68240000Y-74690000D02*
X68240000Y-75090000D01*
X68240000Y-72190000D02*
X68240000Y-72590000D01*
X68240000Y-69690000D02*
X68240000Y-70090000D01*
X68240000Y-67090000D02*
X68240000Y-67490000D01*
X68240000Y-64590000D02*
X68240000Y-64990000D01*
X68240000Y-61990000D02*
X68240000Y-62390000D01*
X68240000Y-59490000D02*
X68240000Y-59890000D01*
X68240000Y-56990000D02*
X68240000Y-57390000D01*
X68240000Y-54390000D02*
X68240000Y-54790000D01*
X68240000Y-51890000D02*
X68240000Y-52290000D01*
X68240000Y-49290000D02*
X68240000Y-49690000D01*
X68240000Y-46890000D02*
X68240000Y-47190000D01*
%TO.C,JP2*%
X63687500Y-80980000D02*
X63687500Y-81580000D01*
X64387500Y-82280000D02*
X65787500Y-82280000D01*
X65787500Y-80280000D02*
X64387500Y-80280000D01*
X66487500Y-81580000D02*
X66487500Y-80980000D01*
X64387500Y-80280000D02*
G75*
G03*
X63687500Y-80980000I-1J-699999D01*
G01*
X63687500Y-81580000D02*
G75*
G03*
X64387500Y-82280000I699999J-1D01*
G01*
X66487500Y-80980000D02*
G75*
G03*
X65787500Y-80280000I-700000J0D01*
G01*
X65787500Y-82280000D02*
G75*
G03*
X66487500Y-81580000I0J700000D01*
G01*
%TO.C,JP1*%
X63687500Y-83520000D02*
X63687500Y-84120000D01*
X64387500Y-84820000D02*
X65787500Y-84820000D01*
X65787500Y-82820000D02*
X64387500Y-82820000D01*
X66487500Y-84120000D02*
X66487500Y-83520000D01*
X64387500Y-82820000D02*
G75*
G03*
X63687500Y-83520000I-1J-699999D01*
G01*
X63687500Y-84120000D02*
G75*
G03*
X64387500Y-84820000I699999J-1D01*
G01*
X66487500Y-83520000D02*
G75*
G03*
X65787500Y-82820000I-700000J0D01*
G01*
X65787500Y-84820000D02*
G75*
G03*
X66487500Y-84120000I0J700000D01*
G01*
%TD*%
%LPC*%
D14*
%TO.C,J2*%
X80040000Y-116850000D03*
D15*
X77440000Y-116850000D03*
X82140000Y-116850000D03*
X80040000Y-114350000D03*
X75340000Y-116850000D03*
X82140000Y-114350000D03*
X77440000Y-114350000D03*
X75340000Y-114350000D03*
D16*
X78740000Y-120650000D03*
%TD*%
D17*
%TO.C,J1*%
X81915000Y-40640000D03*
D18*
X79415000Y-40640000D03*
X77415000Y-40640000D03*
X74915000Y-40640000D03*
X81915000Y-43260000D03*
X79415000Y-43260000D03*
X77415000Y-43260000D03*
X74915000Y-43260000D03*
D19*
X84985000Y-37930000D03*
X71845000Y-37930000D03*
X84985000Y-43610000D03*
X71845000Y-43610000D03*
%TD*%
D20*
%TO.C,J3*%
X93980000Y-109220000D03*
D21*
X93980000Y-106680000D03*
X93980000Y-104140000D03*
X93980000Y-101600000D03*
X93980000Y-99060000D03*
X93980000Y-96520000D03*
%TD*%
D22*
%TO.C,J4*%
X67052500Y-101567500D03*
X67052500Y-107347500D03*
D23*
X67582500Y-100137500D03*
D24*
X63402500Y-100137500D03*
D23*
X67582500Y-108777500D03*
D24*
X63402500Y-108777500D03*
%TD*%
D16*
%TO.C,H6*%
X81280000Y-71120000D03*
%TD*%
D20*
%TO.C,U2*%
X81630000Y-100800000D03*
D21*
X79090000Y-100800000D03*
X76550000Y-100800000D03*
X74010000Y-100800000D03*
%TD*%
D16*
%TO.C,H5*%
X76200000Y-71120000D03*
%TD*%
D25*
%TO.C,H4*%
X91440000Y-39370000D03*
D26*
X91440000Y-39370000D03*
%TD*%
D25*
%TO.C,H3*%
X91440000Y-114300000D03*
D26*
X91440000Y-114300000D03*
%TD*%
D27*
%TO.C,U1*%
X88530000Y-48260000D03*
X88530000Y-50800000D03*
X88530000Y-53340000D03*
X88530000Y-55880000D03*
X88530000Y-58420000D03*
X88530000Y-60960000D03*
X88530000Y-63500000D03*
X88530000Y-66040000D03*
X88530000Y-68580000D03*
X88530000Y-71120000D03*
X88530000Y-73660000D03*
X88530000Y-76200000D03*
X88530000Y-78740000D03*
X88530000Y-81280000D03*
X88530000Y-83820000D03*
X88530000Y-86360000D03*
X88530000Y-88900000D03*
X88530000Y-91440000D03*
X88530000Y-93980000D03*
X88530000Y-96520000D03*
X68950000Y-96520000D03*
X68950000Y-93980000D03*
X68950000Y-91440000D03*
X68950000Y-88900000D03*
X68950000Y-86360000D03*
X68950000Y-83820000D03*
X68950000Y-81280000D03*
X68950000Y-78740000D03*
X68950000Y-76200000D03*
X68950000Y-73660000D03*
X68950000Y-71120000D03*
X68950000Y-68580000D03*
X68950000Y-66040000D03*
X68950000Y-63500000D03*
X68950000Y-60960000D03*
X68950000Y-58420000D03*
X68950000Y-55880000D03*
X68950000Y-53340000D03*
X68950000Y-50800000D03*
X68950000Y-48260000D03*
D28*
X81280000Y-97190000D03*
X78740000Y-97190000D03*
X76200000Y-97190000D03*
D18*
X78740000Y-51390000D03*
X77740000Y-48090000D03*
X79740000Y-48090000D03*
%TD*%
D29*
%TO.C,JP2*%
X64437500Y-81280000D03*
D30*
X65737500Y-81280000D03*
%TD*%
D25*
%TO.C,H1*%
X66040000Y-39370000D03*
D26*
X66040000Y-39370000D03*
%TD*%
D29*
%TO.C,JP1*%
X64437500Y-83820000D03*
D30*
X65737500Y-83820000D03*
%TD*%
D25*
%TO.C,H2*%
X66040000Y-114300000D03*
D26*
X66040000Y-114300000D03*
%TD*%
%LPD*%
M02*
